<?xml version="1.0" encoding="utf-8"?>
<svg id="master-artboard" xmlns="http://www.w3.org/2000/svg" viewBox="0 0 500 500" width="500px" height="500px"><g transform="matrix(1, 0, 0, 1, 0.000007121387170627713, 0.0000018171872397942934)"><path fill="#f5f5f6" d="M 325.647 44.93 C 328.757 43.79 341.607 41.14 339.627 48.42 C 338.947 50.94 335.327 50.3 333.467 50.31 C 329.237 50.33 325.557 51.72 322.187 54.12 C 321.532 54.591 320.666 54.645 319.957 54.26 C 315.077 51.63 322.937 45.92 325.647 44.93 Z" transform="matrix(0.9999999999999999, 0, 0, 0.9999999999999999, -7.105427357601002e-15, 1.4210854715202004e-14)"/><path d="M 350.737001 49.650002 A 4.03 4.03 0 0 1 346.707001 53.680002 A 4.03 4.03 0 0 1 342.677001 49.650002 A 4.03 4.03 0 0 1 346.707001 45.620001 A 4.03 4.03 0 0 1 350.737001 49.650002 Z" fill="#f5f5f6" transform="matrix(0.9999999999999999, 0, 0, 0.9999999999999999, -7.105427357601002e-15, 1.4210854715202004e-14)"/></g><g transform="matrix(1.3888888888888888, 0, 0, 1.3888888888888888, 0.000007121387170627713, -2.9439229365380015e-7)"><g stroke-width="2.00" fill="none" stroke-linecap="butt" transform="matrix(1.0000000000000002, 0, 0, 1.0000000000000002, 3.552713678800501e-15, 3.552713678800501e-15)">
    <path stroke="#7e603b" vector-effect="non-scaling-stroke" d=" M 226.01 44.62 Q 226.21 50.17 226.43 54.37 C 226.69 59.27 236.11 57.80 239.33 57.72 C 248.52 57.49 258.07 58.53 267.24 58.98 Q 270.21 59.13 270.27 56.16 L 270.52 43.98 Q 270.54 43.43 269.98 43.44 L 226.50 43.97 Q 225.99 43.98 226.01 44.62"/>
    <path stroke="#8a4337" vector-effect="non-scaling-stroke" d=" M 43.50 136.69 C 38.42 141.25 34.80 147.70 35.30 154.68 C 35.99 164.30 45.89 167.58 53.99 166.15 Q 61.72 164.79 63.74 163.22 C 84.16 147.27 104.36 134.21 124.98 120.18 C 133.08 114.66 141.30 108.48 149.09 103.43 C 163.45 94.11 176.51 81.92 194.66 93.14 C 204.43 99.19 214.08 105.35 223.49 111.96 Q 248.40 129.42 273.67 146.34 Q 278.49 149.57 290.71 158.93 Q 296.90 163.66 300.87 165.07 C 309.15 167.99 323.89 166.76 324.59 155.01 C 325.04 147.37 322.35 143.08 317.60 137.81 C 315.14 135.07 311.57 133.03 308.58 130.63 C 303.59 126.64 298.30 122.78 292.93 119.32 C 278.84 110.23 264.87 101.12 250.33 92.76 C 242.86 88.47 235.11 83.00 227.28 78.41 C 215.50 71.50 203.18 63.13 191.20 58.32 Q 178.73 53.30 165.75 59.76 Q 152.91 66.15 144.54 71.34 Q 138.41 75.13 135.33 76.86 C 126.36 81.87 116.92 88.85 109.92 92.67 Q 100.50 97.81 91.48 103.62 C 77.85 112.41 64.36 120.62 51.61 130.41 Q 43.90 136.33 43.50 136.69"/>
    <path stroke="#7e603b" vector-effect="non-scaling-stroke" d=" M 234.15 61.35 A 0.59 0.59 0.0 0 0 233.56 61.95 L 233.82 77.17 A 0.78 0.77 -74.9 0 0 234.18 77.81 L 261.05 94.75 Q 261.89 95.28 261.93 94.28 C 262.37 83.97 261.19 74.54 261.72 63.27 Q 261.75 62.73 261.21 62.69 Q 253.39 62.15 245.63 61.42 C 241.84 61.06 238.01 61.39 234.15 61.35"/>
    <path stroke="#967132" vector-effect="non-scaling-stroke" d=" M 64.57 168.28 C 66.19 172.11 65.86 177.62 65.91 181.75 Q 66.32 212.94 66.56 244.13 C 66.67 257.93 66.06 282.79 82.00 288.32 Q 87.19 290.11 92.30 290.44 Q 93.91 290.55 96.08 289.66 Q 101.02 287.63 106.46 289.19 Q 107.02 289.35 107.08 288.77 C 108.27 277.08 115.70 267.32 127.00 264.21 C 133.38 262.46 142.32 262.94 147.95 267.32 C 155.27 273.01 160.28 279.10 160.77 289.25 Q 160.79 289.73 161.27 289.73 L 191.98 289.61 Q 192.40 289.61 192.40 289.19 Q 192.60 255.80 193.58 222.50 C 194.36 196.07 220.88 187.41 241.69 198.75 C 248.12 202.26 252.71 208.91 254.60 215.81 Q 255.80 220.19 255.71 230.79 Q 255.44 260.70 253.70 290.72 A 0.33 0.32 80.0 0 0 254.15 291.04 Q 255.21 290.60 256.50 290.60 C 267.48 290.57 281.32 291.41 287.68 280.16 C 293.47 269.92 293.33 255.79 293.43 243.49 Q 293.66 214.62 293.99 185.75 C 294.04 180.73 293.50 172.84 295.47 168.29 A 1.26 1.25 -66.0 0 0 294.84 166.64 C 291.90 165.31 290.10 162.68 287.80 161.10 C 273.67 151.45 260.37 142.38 245.21 132.42 Q 230.98 123.07 217.09 113.22 C 209.42 107.79 201.41 102.90 193.55 97.72 C 183.95 91.40 176.21 91.51 166.42 97.66 Q 150.10 107.91 134.37 119.03 Q 119.69 129.39 104.69 139.28 Q 88.35 150.05 72.19 161.10 C 69.93 162.64 68.19 165.27 65.22 166.62 A 1.28 1.28 0.0 0 0 64.57 168.28"/>
    <path stroke="#7e603b" vector-effect="non-scaling-stroke" d=" M 235.58 201.13 C 220.22 195.14 204.98 198.51 198.71 215.08 Q 197.49 218.32 197.42 223.11 Q 196.99 256.26 195.81 288.99 Q 195.78 289.66 196.45 289.67 L 250.10 290.67 Q 250.62 290.68 250.61 290.16 Q 250.09 259.50 251.13 229.35 Q 251.44 220.37 250.23 216.31 Q 247.01 205.58 235.58 201.13"/>
    <path stroke="#4b572f" vector-effect="non-scaling-stroke" d=" M 47.02 270.06 A 2.89 2.89 0.0 0 1 43.97 269.33 Q 40.34 265.52 39.11 260.28 A 0.34 0.34 0.0 0 0 38.59 260.08 Q 30.04 266.06 29.31 275.94 C 28.90 281.47 29.50 286.36 33.97 289.69 Q 34.36 289.98 34.85 289.98 L 73.26 289.35 Q 73.57 289.35 73.36 289.12 Q 65.00 279.86 62.78 267.50 Q 62.35 265.11 62.17 258.07 C 62.13 256.76 61.51 255.65 61.47 254.25 Q 61.14 243.51 61.25 232.95 A 0.59 0.58 85.8 0 0 60.58 232.37 C 54.89 233.19 53.02 236.06 49.65 240.14 Q 42.98 248.23 44.36 258.44 C 44.72 261.17 46.50 263.64 47.86 266.07 Q 49.59 269.17 47.02 270.06"/>
    <path stroke="#4b572f" vector-effect="non-scaling-stroke" d=" M 320.19 262.93 C 318.76 265.77 317.15 269.88 313.54 270.38 Q 313.09 270.45 312.73 270.18 C 309.97 268.15 312.91 264.71 314.07 262.63 C 318.15 255.33 315.18 245.36 310.10 239.41 C 306.93 235.70 304.20 232.83 299.47 232.38 A 0.69 0.68 2.3 0 0 298.72 233.07 Q 298.90 243.76 298.56 254.26 C 298.50 256.00 297.75 257.51 297.77 259.35 Q 298.00 276.66 286.50 289.24 Q 286.35 289.40 286.57 289.41 L 325.09 289.95 Q 325.57 289.96 325.96 289.67 Q 329.11 287.36 329.53 286.02 Q 334.29 270.58 322.19 260.47 Q 321.13 259.59 320.69 260.89 C 320.48 261.50 320.56 262.20 320.19 262.93"/>
    <path stroke="#5c6438" vector-effect="non-scaling-stroke" d=" M 150.99 305.53 A 1.04 1.03 24.9 0 1 150.59 304.44 C 151.32 301.50 153.42 300.36 154.19 297.86 C 157.29 287.80 154.27 279.26 146.42 272.58 C 138.84 266.12 125.69 267.24 119.06 274.57 Q 112.91 281.38 111.50 291.45 Q 111.44 291.93 111.79 292.26 Q 115.03 295.26 115.36 297.43 Q 115.87 300.68 112.84 300.79 A 2.47 2.46 -13.6 0 1 110.54 299.39 C 106.87 291.65 98.61 291.64 93.75 298.28 Q 89.25 304.42 90.13 312.04 C 90.37 314.13 91.63 315.21 93.80 315.28 C 99.90 315.48 105.89 315.50 112.07 315.87 C 127.75 316.81 143.37 316.38 159.07 316.20 C 163.80 316.15 168.55 315.34 173.25 314.88 A 2.38 2.37 -83.5 0 0 175.27 313.27 C 177.21 307.46 176.20 301.18 169.59 299.11 C 164.02 297.37 157.11 301.18 153.34 304.95 C 152.69 305.60 151.78 306.09 150.99 305.53"/>
    <path stroke="#967132" vector-effect="non-scaling-stroke" d=" M 90.96 217.44 Q 85.60 219.73 84.27 224.93 C 82.32 232.52 89.04 235.72 95.25 235.89 Q 121.13 236.60 147.00 235.51 Q 151.19 235.33 155.35 234.75 C 160.86 233.99 164.37 233.72 165.90 228.21 C 167.53 222.35 167.23 217.71 161.27 216.07 A 0.89 0.89 0.0 0 1 160.61 215.15 Q 161.31 204.59 162.13 193.74 C 162.86 184.19 163.53 167.61 151.50 164.22 C 136.14 159.88 118.87 161.90 103.63 165.73 C 98.20 167.10 94.18 171.46 92.05 176.44 C 90.53 179.99 90.36 184.30 90.39 188.25 Q 90.48 199.39 91.22 210.50 Q 91.48 214.46 91.45 216.71 Q 91.44 217.23 90.96 217.44"/>
    <path stroke="#5e7c77" vector-effect="non-scaling-stroke" d=" M 157.45 176.53 C 156.30 167.92 150.67 167.20 142.22 166.29 Q 134.93 165.51 127.41 165.77 Q 126.88 165.79 126.96 166.31 Q 128.81 177.98 128.17 189.80 A 0.60 0.59 2.4 0 0 128.75 190.42 L 157.79 191.32 Q 158.23 191.34 158.25 190.89 Q 158.54 184.76 157.45 176.53"/>
    <path stroke="#5e7c77" vector-effect="non-scaling-stroke" d=" M 99.70 171.85 C 95.12 176.44 94.20 183.82 94.54 190.29 Q 94.56 190.69 94.95 190.68 L 123.33 190.14 A 0.47 0.47 0.0 0 0 123.79 189.67 L 123.47 166.30 A 0.33 0.33 0.0 0 0 123.11 165.98 C 116.38 166.50 104.93 166.61 99.70 171.85"/>
    <path stroke="#5e7c77" vector-effect="non-scaling-stroke" d=" M 95.33 216.46 C 104.42 215.31 113.48 215.44 122.61 215.58 Q 123.19 215.58 123.21 215.00 L 123.84 195.01 Q 123.86 194.41 123.26 194.42 L 95.58 194.57 Q 94.24 194.58 94.27 195.92 L 94.82 216.03 Q 94.83 216.53 95.33 216.46"/>
    <path stroke="#5e7c77" vector-effect="non-scaling-stroke" d=" M 156.25 215.32 A 0.32 0.32 0.0 0 0 156.57 215.02 L 157.90 195.79 A 0.32 0.32 0.0 0 0 157.58 195.44 L 128.72 195.01 A 0.32 0.32 0.0 0 0 128.39 195.33 L 127.96 215.24 A 0.32 0.32 0.0 0 0 128.28 215.57 L 156.25 215.32"/>
    <path stroke="#8a4337" vector-effect="non-scaling-stroke" d=" M 146.25 231.96 C 150.66 231.81 155.33 231.19 159.69 230.47 C 163.02 229.92 163.92 224.21 162.46 221.96 C 160.94 219.62 155.11 219.55 152.25 219.79 C 146.24 220.31 139.20 219.89 134.25 219.99 Q 120.88 220.27 107.50 219.96 Q 100.71 219.80 94.04 220.88 C 90.55 221.45 89.00 221.89 88.25 225.25 C 87.24 229.88 89.71 231.98 94.00 232.01 Q 101.72 232.06 124.75 232.25 Q 135.50 232.34 146.25 231.96"/>
    <path stroke="#7e603b" vector-effect="non-scaling-stroke" d=" M 246.1476 249.2111 A 9.23 8.58 -40.7 0 0 233.5550 248.7252 A 9.23 8.58 -40.7 0 0 232.1524 261.2489 A 9.23 8.58 -40.7 0 0 244.7450 261.7348 A 9.23 8.58 -40.7 0 0 246.1476 249.2111"/>
    <path stroke="#8a4337" vector-effect="non-scaling-stroke" d=" M 243.71 255.09 A 4.54 4.54 0.0 0 0 239.17 250.55 A 4.54 4.54 0.0 0 0 234.63 255.09 A 4.54 4.54 0.0 0 0 239.17 259.63 A 4.54 4.54 0.0 0 0 243.71 255.09"/>
  </g><path fill="#2f2726" d=" M 174.24 295.32 Q 186.01 302.21 179.37 315.52 Q 177.42 319.42 173.09 319.69 Q 168.51 319.98 168.47 319.98 C 160.54 321.25 153.47 320.75 145.92 320.83 C 131.88 320.97 117.77 319.96 103.75 319.20 Q 96.63 318.82 92.33 318.44 Q 88.87 318.14 87.25 316.55 C 82.07 311.49 85.60 300.23 89.18 295.26 Q 89.50 294.82 88.97 294.72 Q 85.85 294.13 82.82 293.51 C 82.07 293.35 81.72 293.50 81.12 293.86 Q 80.70 294.11 80.21 294.10 Q 73.81 293.97 67.41 293.72 C 57.28 293.32 46.92 293.48 36.67 293.06 C 35.03 292.99 32.67 293.82 30.99 293.12 C 24.51 290.42 23.76 282.54 24.13 276.27 C 24.60 268.40 29.66 259.16 37.85 256.91 Q 38.34 256.78 38.34 256.27 Q 38.50 239.79 51.96 230.51 Q 55.49 228.08 60.34 228.71 Q 61.14 228.82 61.12 228.01 Q 60.77 207.45 60.64 186.50 Q 60.58 177.74 61.29 169.00 A 0.30 0.29 85.7 0 0 60.93 168.69 C 54.07 170.20 48.51 171.80 41.50 169.48 Q 36.96 167.97 33.98 163.76 C 27.48 154.57 32.06 142.01 40.16 135.41 Q 40.47 135.16 40.76 134.20 Q 40.92 133.71 41.37 133.46 Q 43.61 132.20 44.25 131.70 C 51.50 126.02 58.55 120.58 66.51 115.42 Q 75.92 109.32 85.28 103.14 C 96.65 95.63 109.56 88.30 121.49 80.45 C 128.82 75.64 136.59 71.40 144.10 66.74 C 151.68 62.05 160.34 57.36 166.77 54.55 Q 177.51 49.85 189.14 53.19 Q 192.50 54.15 199.13 57.49 C 203.48 59.68 207.78 61.68 211.95 64.30 Q 220.32 69.57 229.12 74.55 A 0.54 0.54 0.0 0 0 229.93 74.09 L 230.06 61.86 Q 230.06 61.32 229.55 61.18 C 225.55 60.10 222.55 59.08 222.04 54.18 Q 221.48 48.84 222.29 43.57 Q 222.61 41.49 223.77 40.54 Q 225.21 39.37 227.25 39.36 Q 249.12 39.18 270.45 39.07 Q 275.48 39.04 275.18 44.06 Q 274.94 48.09 274.52 52.50 C 273.94 58.55 272.54 62.70 265.90 62.75 A 0.49 0.49 0.0 0 0 265.42 63.27 Q 266.49 79.63 265.22 95.97 Q 265.16 96.79 265.85 97.26 C 281.81 108.01 298.65 117.88 313.68 130.15 C 314.69 130.97 317.84 132.58 319.21 134.30 Q 320.40 135.81 321.04 136.40 C 328.99 143.77 332.87 157.32 324.09 165.73 C 316.97 172.56 308.07 171.08 299.08 168.65 A 0.26 0.26 0.0 0 0 298.75 168.92 C 300.02 188.54 299.09 208.50 298.86 228.14 Q 298.86 228.66 299.37 228.65 C 305.63 228.62 307.58 229.39 312.15 233.69 Q 321.73 242.71 321.60 256.43 Q 321.60 256.94 322.09 257.06 C 331.65 259.33 336.33 270.77 336.11 279.76 C 336.00 284.71 333.24 294.08 326.62 293.36 Q 323.47 293.02 323.33 293.03 C 310.10 293.62 296.30 293.34 285.00 294.04 Q 281.95 294.23 279.51 293.86 Q 277.21 293.51 275.49 293.88 Q 270.35 294.98 267.75 294.93 Q 253.87 294.66 239.99 294.97 C 218.18 295.46 196.37 294.77 174.46 294.54 Q 172.88 294.52 174.24 295.32 Z M 226.01 44.62 Q 226.21 50.17 226.43 54.37 C 226.69 59.27 236.11 57.80 239.33 57.72 C 248.52 57.49 258.07 58.53 267.24 58.98 Q 270.21 59.13 270.27 56.16 L 270.52 43.98 Q 270.54 43.43 269.98 43.44 L 226.50 43.97 Q 225.99 43.98 226.01 44.62 Z M 43.50 136.69 C 38.42 141.25 34.80 147.70 35.30 154.68 C 35.99 164.30 45.89 167.58 53.99 166.15 Q 61.72 164.79 63.74 163.22 C 84.16 147.27 104.36 134.21 124.98 120.18 C 133.08 114.66 141.30 108.48 149.09 103.43 C 163.45 94.11 176.51 81.92 194.66 93.14 C 204.43 99.19 214.08 105.35 223.49 111.96 Q 248.40 129.42 273.67 146.34 Q 278.49 149.57 290.71 158.93 Q 296.90 163.66 300.87 165.07 C 309.15 167.99 323.89 166.76 324.59 155.01 C 325.04 147.37 322.35 143.08 317.60 137.81 C 315.14 135.07 311.57 133.03 308.58 130.63 C 303.59 126.64 298.30 122.78 292.93 119.32 C 278.84 110.23 264.87 101.12 250.33 92.76 C 242.86 88.47 235.11 83.00 227.28 78.41 C 215.50 71.50 203.18 63.13 191.20 58.32 Q 178.73 53.30 165.75 59.76 Q 152.91 66.15 144.54 71.34 Q 138.41 75.13 135.33 76.86 C 126.36 81.87 116.92 88.85 109.92 92.67 Q 100.50 97.81 91.48 103.62 C 77.85 112.41 64.36 120.62 51.61 130.41 Q 43.90 136.33 43.50 136.69 Z M 234.15 61.35 A 0.59 0.59 0.0 0 0 233.56 61.95 L 233.82 77.17 A 0.78 0.77 -74.9 0 0 234.18 77.81 L 261.05 94.75 Q 261.89 95.28 261.93 94.28 C 262.37 83.97 261.19 74.54 261.72 63.27 Q 261.75 62.73 261.21 62.69 Q 253.39 62.15 245.63 61.42 C 241.84 61.06 238.01 61.39 234.15 61.35 Z M 64.57 168.28 C 66.19 172.11 65.86 177.62 65.91 181.75 Q 66.32 212.94 66.56 244.13 C 66.67 257.93 66.06 282.79 82.00 288.32 Q 87.19 290.11 92.30 290.44 Q 93.91 290.55 96.08 289.66 Q 101.02 287.63 106.46 289.19 Q 107.02 289.35 107.08 288.77 C 108.27 277.08 115.70 267.32 127.00 264.21 C 133.38 262.46 142.32 262.94 147.95 267.32 C 155.27 273.01 160.28 279.10 160.77 289.25 Q 160.79 289.73 161.27 289.73 L 191.98 289.61 Q 192.40 289.61 192.40 289.19 Q 192.60 255.80 193.58 222.50 C 194.36 196.07 220.88 187.41 241.69 198.75 C 248.12 202.26 252.71 208.91 254.60 215.81 Q 255.80 220.19 255.71 230.79 Q 255.44 260.70 253.70 290.72 A 0.33 0.32 80.0 0 0 254.15 291.04 Q 255.21 290.60 256.50 290.60 C 267.48 290.57 281.32 291.41 287.68 280.16 C 293.47 269.92 293.33 255.79 293.43 243.49 Q 293.66 214.62 293.99 185.75 C 294.04 180.73 293.50 172.84 295.47 168.29 A 1.26 1.25 -66.0 0 0 294.84 166.64 C 291.90 165.31 290.10 162.68 287.80 161.10 C 273.67 151.45 260.37 142.38 245.21 132.42 Q 230.98 123.07 217.09 113.22 C 209.42 107.79 201.41 102.90 193.55 97.72 C 183.95 91.40 176.21 91.51 166.42 97.66 Q 150.10 107.91 134.37 119.03 Q 119.69 129.39 104.69 139.28 Q 88.35 150.05 72.19 161.10 C 69.93 162.64 68.19 165.27 65.22 166.62 A 1.28 1.28 0.0 0 0 64.57 168.28 Z M 235.58 201.13 C 220.22 195.14 204.98 198.51 198.71 215.08 Q 197.49 218.32 197.42 223.11 Q 196.99 256.26 195.81 288.99 Q 195.78 289.66 196.45 289.67 L 250.10 290.67 Q 250.62 290.68 250.61 290.16 Q 250.09 259.50 251.13 229.35 Q 251.44 220.37 250.23 216.31 Q 247.01 205.58 235.58 201.13 Z M 47.02 270.06 A 2.89 2.89 0.0 0 1 43.97 269.33 Q 40.34 265.52 39.11 260.28 A 0.34 0.34 0.0 0 0 38.59 260.08 Q 30.04 266.06 29.31 275.94 C 28.90 281.47 29.50 286.36 33.97 289.69 Q 34.36 289.98 34.85 289.98 L 73.26 289.35 Q 73.57 289.35 73.36 289.12 Q 65.00 279.86 62.78 267.50 Q 62.35 265.11 62.17 258.07 C 62.13 256.76 61.51 255.65 61.47 254.25 Q 61.14 243.51 61.25 232.95 A 0.59 0.58 85.8 0 0 60.58 232.37 C 54.89 233.19 53.02 236.06 49.65 240.14 Q 42.98 248.23 44.36 258.44 C 44.72 261.17 46.50 263.64 47.86 266.07 Q 49.59 269.17 47.02 270.06 Z M 320.19 262.93 C 318.76 265.77 317.15 269.88 313.54 270.38 Q 313.09 270.45 312.73 270.18 C 309.97 268.15 312.91 264.71 314.07 262.63 C 318.15 255.33 315.18 245.36 310.10 239.41 C 306.93 235.70 304.20 232.83 299.47 232.38 A 0.69 0.68 2.3 0 0 298.72 233.07 Q 298.90 243.76 298.56 254.26 C 298.50 256.00 297.75 257.51 297.77 259.35 Q 298.00 276.66 286.50 289.24 Q 286.35 289.40 286.57 289.41 L 325.09 289.95 Q 325.57 289.96 325.96 289.67 Q 329.11 287.36 329.53 286.02 Q 334.29 270.58 322.19 260.47 Q 321.13 259.59 320.69 260.89 C 320.48 261.50 320.56 262.20 320.19 262.93 Z M 150.99 305.53 A 1.04 1.03 24.9 0 1 150.59 304.44 C 151.32 301.50 153.42 300.36 154.19 297.86 C 157.29 287.80 154.27 279.26 146.42 272.58 C 138.84 266.12 125.69 267.24 119.06 274.57 Q 112.91 281.38 111.50 291.45 Q 111.44 291.93 111.79 292.26 Q 115.03 295.26 115.36 297.43 Q 115.87 300.68 112.84 300.79 A 2.47 2.46 -13.6 0 1 110.54 299.39 C 106.87 291.65 98.61 291.64 93.75 298.28 Q 89.25 304.42 90.13 312.04 C 90.37 314.13 91.63 315.21 93.80 315.28 C 99.90 315.48 105.89 315.50 112.07 315.87 C 127.75 316.81 143.37 316.38 159.07 316.20 C 163.80 316.15 168.55 315.34 173.25 314.88 A 2.38 2.37 -83.5 0 0 175.27 313.27 C 177.21 307.46 176.20 301.18 169.59 299.11 C 164.02 297.37 157.11 301.18 153.34 304.95 C 152.69 305.60 151.78 306.09 150.99 305.53 Z" transform="matrix(1.0000000000000002, 0, 0, 1.0000000000000002, 3.552713678800501e-15, 3.552713678800501e-15)"/><path fill="#cc984f" d=" M 226.01 44.62 Q 225.99 43.98 226.50 43.97 L 269.98 43.44 Q 270.54 43.43 270.52 43.98 L 270.27 56.16 Q 270.21 59.13 267.24 58.98 C 258.07 58.53 248.52 57.49 239.33 57.72 C 236.11 57.80 226.69 59.27 226.43 54.37 Q 226.21 50.17 226.01 44.62 Z" transform="matrix(1.0000000000000002, 0, 0, 1.0000000000000002, 3.552713678800501e-15, 3.552713678800501e-15)"/><path fill="#e55e47" d=" M 35.30 154.68 C 34.80 147.70 38.42 141.25 43.50 136.69 Q 43.90 136.33 51.61 130.41 C 64.36 120.62 77.85 112.41 91.48 103.62 Q 100.50 97.81 109.92 92.67 C 116.92 88.85 126.36 81.87 135.33 76.86 Q 138.41 75.13 144.54 71.34 Q 152.91 66.15 165.75 59.76 Q 178.73 53.30 191.20 58.32 C 203.18 63.13 215.50 71.50 227.28 78.41 C 235.11 83.00 242.86 88.47 250.33 92.76 C 264.87 101.12 278.84 110.23 292.93 119.32 C 298.30 122.78 303.59 126.64 308.58 130.63 C 311.57 133.03 315.14 135.07 317.60 137.81 C 322.35 143.08 325.04 147.37 324.59 155.01 C 323.89 166.76 309.15 167.99 300.87 165.07 Q 296.90 163.66 290.71 158.93 Q 278.49 149.57 273.67 146.34 Q 248.40 129.42 223.49 111.96 C 214.08 105.35 204.43 99.19 194.66 93.14 C 176.51 81.92 163.45 94.11 149.09 103.43 C 141.30 108.48 133.08 114.66 124.98 120.18 C 104.36 134.21 84.16 147.27 63.74 163.22 Q 61.72 164.79 53.99 166.15 C 45.89 167.58 35.99 164.30 35.30 154.68 Z" transform="matrix(1.0000000000000002, 0, 0, 1.0000000000000002, 3.552713678800501e-15, 3.552713678800501e-15)"/><path fill="#cc984f" d=" M 234.15 61.35 C 238.01 61.39 241.84 61.06 245.63 61.42 Q 253.39 62.15 261.21 62.69 Q 261.75 62.73 261.72 63.27 C 261.19 74.54 262.37 83.97 261.93 94.28 Q 261.89 95.28 261.05 94.75 L 234.18 77.81 A 0.78 0.77 -74.9 0 1 233.82 77.17 L 233.56 61.95 A 0.59 0.59 0.0 0 1 234.15 61.35 Z" transform="matrix(1.0000000000000002, 0, 0, 1.0000000000000002, 3.552713678800501e-15, 3.552713678800501e-15)"/><path d=" M 65.91 181.75 C 65.86 177.62 66.19 172.11 64.57 168.28 A 1.28 1.28 0.0 0 1 65.22 166.62 C 68.19 165.27 69.93 162.64 72.19 161.10 Q 88.35 150.05 104.69 139.28 Q 119.69 129.39 134.37 119.03 Q 150.10 107.91 166.42 97.66 C 176.21 91.51 183.95 91.40 193.55 97.72 C 201.41 102.90 209.42 107.79 217.09 113.22 Q 230.98 123.07 245.21 132.42 C 260.37 142.38 273.67 151.45 287.80 161.10 C 290.10 162.68 291.90 165.31 294.84 166.64 A 1.26 1.25 -66.0 0 1 295.47 168.29 C 293.50 172.84 294.04 180.73 293.99 185.75 Q 293.66 214.62 293.43 243.49 C 293.33 255.79 293.47 269.92 287.68 280.16 C 281.32 291.41 267.48 290.57 256.50 290.60 Q 255.21 290.60 254.15 291.04 A 0.33 0.32 80.0 0 1 253.70 290.72 Q 255.44 260.70 255.71 230.79 Q 255.80 220.19 254.60 215.81 C 252.71 208.91 248.12 202.26 241.69 198.75 C 220.88 187.41 194.36 196.07 193.58 222.50 Q 192.60 255.80 192.40 289.19 Q 192.40 289.61 191.98 289.61 L 161.27 289.73 Q 160.79 289.73 160.77 289.25 C 160.28 279.10 155.27 273.01 147.95 267.32 C 142.32 262.94 133.38 262.46 127.00 264.21 C 115.70 267.32 108.27 277.08 107.08 288.77 Q 107.02 289.35 106.46 289.19 Q 101.02 287.63 96.08 289.66 Q 93.91 290.55 92.30 290.44 Q 87.19 290.11 82.00 288.32 C 66.06 282.79 66.67 257.93 66.56 244.13 Q 66.32 212.94 65.91 181.75 Z M 90.96 217.44 Q 85.60 219.73 84.27 224.93 C 82.32 232.52 89.04 235.72 95.25 235.89 Q 121.13 236.60 147.00 235.51 Q 151.19 235.33 155.35 234.75 C 160.86 233.99 164.37 233.72 165.90 228.21 C 167.53 222.35 167.23 217.71 161.27 216.07 A 0.89 0.89 0.0 0 1 160.61 215.15 Q 161.31 204.59 162.13 193.74 C 162.86 184.19 163.53 167.61 151.50 164.22 C 136.14 159.88 118.87 161.90 103.63 165.73 C 98.20 167.10 94.18 171.46 92.05 176.44 C 90.53 179.99 90.36 184.30 90.39 188.25 Q 90.48 199.39 91.22 210.50 Q 91.48 214.46 91.45 216.71 Q 91.44 217.23 90.96 217.44 Z" style="fill: rgb(38, 74, 255);" transform="matrix(1.0000000000000002, 0, 0, 1.0000000000000002, 3.552713678800501e-15, 3.552713678800501e-15)"/><path fill="#2f2726" d=" M 91.45 216.71 Q 91.48 214.46 91.22 210.50 Q 90.48 199.39 90.39 188.25 C 90.36 184.30 90.53 179.99 92.05 176.44 C 94.18 171.46 98.20 167.10 103.63 165.73 C 118.87 161.90 136.14 159.88 151.50 164.22 C 163.53 167.61 162.86 184.19 162.13 193.74 Q 161.31 204.59 160.61 215.15 A 0.89 0.89 0.0 0 0 161.27 216.07 C 167.23 217.71 167.53 222.35 165.90 228.21 C 164.37 233.72 160.86 233.99 155.35 234.75 Q 151.19 235.33 147.00 235.51 Q 121.13 236.60 95.25 235.89 C 89.04 235.72 82.32 232.52 84.27 224.93 Q 85.60 219.73 90.96 217.44 Q 91.44 217.23 91.45 216.71 Z M 157.45 176.53 C 156.30 167.92 150.67 167.20 142.22 166.29 Q 134.93 165.51 127.41 165.77 Q 126.88 165.79 126.96 166.31 Q 128.81 177.98 128.17 189.80 A 0.60 0.59 2.4 0 0 128.75 190.42 L 157.79 191.32 Q 158.23 191.34 158.25 190.89 Q 158.54 184.76 157.45 176.53 Z M 99.70 171.85 C 95.12 176.44 94.20 183.82 94.54 190.29 Q 94.56 190.69 94.95 190.68 L 123.33 190.14 A 0.47 0.47 0.0 0 0 123.79 189.67 L 123.47 166.30 A 0.33 0.33 0.0 0 0 123.11 165.98 C 116.38 166.50 104.93 166.61 99.70 171.85 Z M 95.33 216.46 C 104.42 215.31 113.48 215.44 122.61 215.58 Q 123.19 215.58 123.21 215.00 L 123.84 195.01 Q 123.86 194.41 123.26 194.42 L 95.58 194.57 Q 94.24 194.58 94.27 195.92 L 94.82 216.03 Q 94.83 216.53 95.33 216.46 Z M 156.25 215.32 A 0.32 0.32 0.0 0 0 156.57 215.02 L 157.90 195.79 A 0.32 0.32 0.0 0 0 157.58 195.44 L 128.72 195.01 A 0.32 0.32 0.0 0 0 128.39 195.33 L 127.96 215.24 A 0.32 0.32 0.0 0 0 128.28 215.57 L 156.25 215.32 Z M 146.25 231.96 C 150.66 231.81 155.33 231.19 159.69 230.47 C 163.02 229.92 163.92 224.21 162.46 221.96 C 160.94 219.62 155.11 219.55 152.25 219.79 C 146.24 220.31 139.20 219.89 134.25 219.99 Q 120.88 220.27 107.50 219.96 Q 100.71 219.80 94.04 220.88 C 90.55 221.45 89.00 221.89 88.25 225.25 C 87.24 229.88 89.71 231.98 94.00 232.01 Q 101.72 232.06 124.75 232.25 Q 135.50 232.34 146.25 231.96 Z" transform="matrix(1.0000000000000002, 0, 0, 1.0000000000000002, 3.552713678800501e-15, 3.552713678800501e-15)"/><path fill="#8cd1c8" d=" M 142.22 166.29 C 150.67 167.20 156.30 167.92 157.45 176.53 Q 158.54 184.76 158.25 190.89 Q 158.23 191.34 157.79 191.32 L 128.75 190.42 A 0.60 0.59 2.4 0 1 128.17 189.80 Q 128.81 177.98 126.96 166.31 Q 126.88 165.79 127.41 165.77 Q 134.93 165.51 142.22 166.29 Z" transform="matrix(1.0000000000000002, 0, 0, 1.0000000000000002, 3.552713678800501e-15, 3.552713678800501e-15)"/><path fill="#8cd1c8" d=" M 94.54 190.29 C 94.20 183.82 95.12 176.44 99.70 171.85 C 104.93 166.61 116.38 166.50 123.11 165.98 A 0.33 0.33 0.0 0 1 123.47 166.30 L 123.79 189.67 A 0.47 0.47 0.0 0 1 123.33 190.14 L 94.95 190.68 Q 94.56 190.69 94.54 190.29 Z" transform="matrix(1.0000000000000002, 0, 0, 1.0000000000000002, 3.552713678800501e-15, 3.552713678800501e-15)"/><path fill="#8cd1c8" d=" M 122.61 215.58 C 113.48 215.44 104.42 215.31 95.33 216.46 Q 94.83 216.53 94.82 216.03 L 94.27 195.92 Q 94.24 194.58 95.58 194.57 L 123.26 194.42 Q 123.86 194.41 123.84 195.01 L 123.21 215.00 Q 123.19 215.58 122.61 215.58 Z" transform="matrix(1.0000000000000002, 0, 0, 1.0000000000000002, 3.552713678800501e-15, 3.552713678800501e-15)"/><path fill="#8cd1c8" d=" M 156.25 215.32 L 128.28 215.57 A 0.32 0.32 0.0 0 1 127.96 215.24 L 128.39 195.33 A 0.32 0.32 0.0 0 1 128.72 195.01 L 157.58 195.44 A 0.32 0.32 0.0 0 1 157.90 195.79 L 156.57 215.02 A 0.32 0.32 0.0 0 1 156.25 215.32 Z" transform="matrix(1.0000000000000002, 0, 0, 1.0000000000000002, 3.552713678800501e-15, 3.552713678800501e-15)"/><path fill="#cc984f" d=" M 235.58 201.13 Q 247.01 205.58 250.23 216.31 Q 251.44 220.37 251.13 229.35 Q 250.09 259.50 250.61 290.16 Q 250.62 290.68 250.10 290.67 L 196.45 289.67 Q 195.78 289.66 195.81 288.99 Q 196.99 256.26 197.42 223.11 Q 197.49 218.32 198.71 215.08 C 204.98 198.51 220.22 195.14 235.58 201.13 Z M 246.1476 249.2111 A 9.23 8.58 -40.7 0 0 233.5550 248.7252 A 9.23 8.58 -40.7 0 0 232.1524 261.2489 A 9.23 8.58 -40.7 0 0 244.7450 261.7348 A 9.23 8.58 -40.7 0 0 246.1476 249.2111 Z" transform="matrix(1.0000000000000002, 0, 0, 1.0000000000000002, 3.552713678800501e-15, 3.552713678800501e-15)"/><path fill="#e55e47" d=" M 159.69 230.47 C 155.33 231.19 150.66 231.81 146.25 231.96 Q 135.50 232.34 124.75 232.25 Q 101.72 232.06 94.00 232.01 C 89.71 231.98 87.24 229.88 88.25 225.25 C 89.00 221.89 90.55 221.45 94.04 220.88 Q 100.71 219.80 107.50 219.96 Q 120.88 220.27 134.25 219.99 C 139.20 219.89 146.24 220.31 152.25 219.79 C 155.11 219.55 160.94 219.62 162.46 221.96 C 163.92 224.21 163.02 229.92 159.69 230.47 Z" transform="matrix(1.0000000000000002, 0, 0, 1.0000000000000002, 3.552713678800501e-15, 3.552713678800501e-15)"/><path fill="#678637" d=" M 47.02 270.06 Q 49.59 269.17 47.86 266.07 C 46.50 263.64 44.72 261.17 44.36 258.44 Q 42.98 248.23 49.65 240.14 C 53.02 236.06 54.89 233.19 60.58 232.37 A 0.59 0.58 85.8 0 1 61.25 232.95 Q 61.14 243.51 61.47 254.25 C 61.51 255.65 62.13 256.76 62.17 258.07 Q 62.35 265.11 62.78 267.50 Q 65.00 279.86 73.36 289.12 Q 73.57 289.35 73.26 289.35 L 34.85 289.98 Q 34.36 289.98 33.97 289.69 C 29.50 286.36 28.90 281.47 29.31 275.94 Q 30.04 266.06 38.59 260.08 A 0.34 0.34 0.0 0 1 39.11 260.28 Q 40.34 265.52 43.97 269.33 A 2.89 2.89 0.0 0 0 47.02 270.06 Z" transform="matrix(1.0000000000000002, 0, 0, 1.0000000000000002, 3.552713678800501e-15, 3.552713678800501e-15)"/><path fill="#678637" d=" M 320.19 262.93 C 320.56 262.20 320.48 261.50 320.69 260.89 Q 321.13 259.59 322.19 260.47 Q 334.29 270.58 329.53 286.02 Q 329.11 287.36 325.96 289.67 Q 325.57 289.96 325.09 289.95 L 286.57 289.41 Q 286.35 289.40 286.50 289.24 Q 298.00 276.66 297.77 259.35 C 297.75 257.51 298.50 256.00 298.56 254.26 Q 298.90 243.76 298.72 233.07 A 0.69 0.68 2.3 0 1 299.47 232.38 C 304.20 232.83 306.93 235.70 310.10 239.41 C 315.18 245.36 318.15 255.33 314.07 262.63 C 312.91 264.71 309.97 268.15 312.73 270.18 Q 313.09 270.45 313.54 270.38 C 317.15 269.88 318.76 265.77 320.19 262.93 Z" transform="matrix(1.0000000000000002, 0, 0, 1.0000000000000002, 3.552713678800501e-15, 3.552713678800501e-15)"/><path fill="#2f2726" d=" M 246.1476 249.2111 A 9.23 8.58 -40.7 0 1 244.7450 261.7348 A 9.23 8.58 -40.7 0 1 232.1524 261.2489 A 9.23 8.58 -40.7 0 1 233.5550 248.7252 A 9.23 8.58 -40.7 0 1 246.1476 249.2111 Z M 243.71 255.09 A 4.54 4.54 0.0 0 0 239.17 250.55 A 4.54 4.54 0.0 0 0 234.63 255.09 A 4.54 4.54 0.0 0 0 239.17 259.63 A 4.54 4.54 0.0 0 0 243.71 255.09 Z" transform="matrix(1.0000000000000002, 0, 0, 1.0000000000000002, 3.552713678800501e-15, 3.552713678800501e-15)"/><path d="M 243.709998 255.089996 A 4.54 4.54 0 0 1 239.169998 259.629996 A 4.54 4.54 0 0 1 234.629998 255.089996 A 4.54 4.54 0 0 1 239.169998 250.549996 A 4.54 4.54 0 0 1 243.709998 255.089996 Z" fill="#e55e47" transform="matrix(1.0000000000000002, 0, 0, 1.0000000000000002, 3.552713678800501e-15, 3.552713678800501e-15)"/><path fill="#89a049" d=" M 150.99 305.53 C 151.78 306.09 152.69 305.60 153.34 304.95 C 157.11 301.18 164.02 297.37 169.59 299.11 C 176.20 301.18 177.21 307.46 175.27 313.27 A 2.38 2.37 -83.5 0 1 173.25 314.88 C 168.55 315.34 163.80 316.15 159.07 316.20 C 143.37 316.38 127.75 316.81 112.07 315.87 C 105.89 315.50 99.90 315.48 93.80 315.28 C 91.63 315.21 90.37 314.13 90.13 312.04 Q 89.25 304.42 93.75 298.28 C 98.61 291.64 106.87 291.65 110.54 299.39 A 2.47 2.46 -13.6 0 0 112.84 300.79 Q 115.87 300.68 115.36 297.43 Q 115.03 295.26 111.79 292.26 Q 111.44 291.93 111.50 291.45 Q 112.91 281.38 119.06 274.57 C 125.69 267.24 138.84 266.12 146.42 272.58 C 154.27 279.26 157.29 287.80 154.19 297.86 C 153.42 300.36 151.32 301.50 150.59 304.44 A 1.04 1.03 24.9 0 0 150.99 305.53 Z" transform="matrix(1.0000000000000002, 0, 0, 1.0000000000000002, 3.552713678800501e-15, 3.552713678800501e-15)"/></g></svg>
