<?xml version="1.0" encoding="utf-8"?>
<svg viewBox="0 0 500 500" xmlns="http://www.w3.org/2000/svg">
  <g stroke-width="2.00" fill="none" stroke-linecap="butt" transform="matrix(0.9999999999999999, 0, 0, 0.9999999999999999, -45.74281760666991, -5.890081016571543)">
    <path stroke="#81342d" vector-effect="non-scaling-stroke" d=" M 379.63 43.07 C 367.30 42.58 358.15 49.71 353.55 60.76 C 348.51 72.85 362.43 81.16 372.54 80.74 C 376.93 80.55 380.27 77.03 383.50 76.01 C 388.33 74.49 392.47 79.42 389.91 83.91 C 384.63 93.15 374.67 96.47 365.63 100.70 C 356.22 105.10 341.66 118.44 355.55 128.43 Q 358.14 130.29 359.56 130.69 C 371.26 133.99 373.48 124.46 376.64 116.41 C 381.30 104.56 392.42 103.20 402.32 98.33 Q 415.49 91.83 416.71 77.77 C 418.59 55.99 398.85 43.84 379.63 43.07"/>
    <path stroke="#faaea8" vector-effect="non-scaling-stroke" d=" M 371.39 50.82 C 368.68 51.81 360.82 57.52 365.70 60.15 A 2.10 2.10 0.0 0 0 367.93 60.01 C 371.30 57.61 374.98 56.22 379.21 56.20 C 381.07 56.19 384.69 56.83 385.37 54.31 C 387.35 47.03 374.50 49.68 371.39 50.82"/>
    <path stroke="#faaea8" vector-effect="non-scaling-stroke" d=" M 396.48 55.54 A 4.03 4.03 0.0 0 0 392.45 51.51 A 4.03 4.03 0.0 0 0 388.42 55.54 A 4.03 4.03 0.0 0 0 392.45 59.57 A 4.03 4.03 0.0 0 0 396.48 55.54"/>
    <path stroke="#552401" vector-effect="non-scaling-stroke" d=" M 169.96 175.71 Q 167.53 181.20 167.79 187.39 C 168.03 192.91 171.23 197.11 175.37 200.38 A 0.62 0.62 0.0 0 0 176.36 200.05 L 178.90 190.01 A 0.74 0.73 15.9 0 0 178.41 189.13 L 176.32 188.47 A 1.86 1.85 -77.9 0 1 175.04 186.48 C 175.90 179.03 178.98 174.12 183.54 168.46"/>
    <path stroke="#6e3d17" vector-effect="non-scaling-stroke" d=" M 183.54 168.46 Q 184.36 167.00 185.24 166.91 A 0.38 0.38 0.0 0 1 185.61 167.48 C 181.91 173.92 178.41 178.62 176.64 185.87 A 0.91 0.91 0.0 0 0 177.53 187.00 L 182.59 186.97"/>
    <path stroke="#552401" vector-effect="non-scaling-stroke" d=" M 182.59 186.97 C 186.04 187.01 199.40 185.91 201.33 182.82 Q 205.88 175.54 209.06 164.79 Q 209.29 163.99 208.98 163.18"/>
    <path stroke="#6e3d17" vector-effect="non-scaling-stroke" d=" M 208.98 163.18 L 209.37 162.00 Q 209.52 161.54 210.00 161.44 Q 210.68 161.30 210.85 162.00 Q 211.08 162.89 210.73 165.27 Q 209.23 175.67 208.20 186.24"/>
    <path stroke="#552401" vector-effect="non-scaling-stroke" d=" M 208.20 186.24 Q 211.73 187.86 214.51 187.90 Q 220.69 187.99 226.80 188.13 A 0.62 0.62 0.0 0 0 227.43 187.54 Q 227.90 175.32 226.93 163.05"/>
    <path stroke="#6e3d17" vector-effect="non-scaling-stroke" d=" M 226.93 163.05 L 226.75 160.07 A 0.62 0.62 0.0 0 1 227.83 159.62 C 233.32 165.72 236.20 178.58 237.56 186.52 Q 237.82 188.09 238.66 188.61 Q 239.73 189.29 241.31 188.96"/>
    <path stroke="#552401" vector-effect="non-scaling-stroke" d=" M 241.31 188.96 Q 251.65 190.21 261.80 188.81 A 0.58 0.57 66.2 0 0 262.16 187.87 Q 262.11 187.81 261.92 187.57 Q 261.81 187.41 261.77 187.21 Q 260.06 178.87 259.23 176.00 Q 257.49 169.99 253.35 163.65"/>
    <path stroke="#6e3d17" vector-effect="non-scaling-stroke" d=" M 253.35 163.65 Q 252.44 163.03 252.62 162.25 Q 252.75 161.67 253.27 161.95 Q 254.96 162.84 256.09 164.43 Q 260.50 170.61 265.16 176.61 C 269.42 182.09 274.69 184.18 281.24 186.85 Q 281.40 186.92 281.45 187.01 Q 281.52 187.16 281.43 187.36 Q 281.30 187.65 280.99 187.63 L 277.54 187.46"/>
    <path stroke="#552401" vector-effect="non-scaling-stroke" d=" M 277.54 187.46 Q 276.52 198.25 277.35 205.25 Q 278.37 213.76 282.67 221.59 A 1.73 1.73 0.0 0 0 285.13 222.22 C 290.85 218.57 294.83 215.22 302.49 214.71 Q 307.57 214.37 311.76 216.80 A 0.53 0.53 0.0 0 0 312.55 216.44 C 314.71 204.71 314.47 191.83 313.77 180.00 Q 313.64 177.85 312.50 174.89"/>
    <path stroke="#6e3d17" vector-effect="non-scaling-stroke" d=" M 312.50 174.89 C 312.05 169.28 309.28 165.78 305.45 162.07 Q 303.89 160.56 302.55 158.53 C 295.44 147.76 285.89 138.68 273.52 134.45 C 251.36 126.86 221.18 135.13 200.70 144.68 C 188.37 150.43 175.23 162.40 169.96 175.71"/>
    <path stroke="#c16016" vector-effect="non-scaling-stroke" d=" M 312.50 174.89 C 309.78 183.89 301.77 191.68 294.62 196.95 C 293.39 197.85 292.77 197.51 291.48 197.06 Q 284.68 194.64 280.48 192.50 Q 278.96 191.72 277.54 187.46"/>
    <path stroke="#c16016" vector-effect="non-scaling-stroke" d=" M 253.35 163.65 Q 252.78 164.98 253.04 166.27 Q 254.92 175.45 254.51 184.91 Q 254.48 185.45 253.96 185.59 L 241.31 188.96"/>
    <path stroke="#c16016" vector-effect="non-scaling-stroke" d=" M 226.93 163.05 L 222.87 181.76 A 2.02 2.00 84.4 0 1 221.73 183.16 C 217.20 185.18 213.35 185.49 208.20 186.24"/>
    <path stroke="#c16016" vector-effect="non-scaling-stroke" d=" M 208.98 163.18 C 205.37 165.29 202.03 173.25 200.32 177.06 C 198.92 180.17 196.89 181.96 194.02 183.31 Q 188.81 185.77 182.59 186.97"/>
    <path stroke="#c16016" vector-effect="non-scaling-stroke" d=" M 183.54 168.46 L 169.96 175.71"/>
    <path stroke="#816e62" vector-effect="non-scaling-stroke" d=" M 189.24 189.27 L 182.28 189.37 A 0.99 0.97 -84.0 0 0 181.34 190.14 Q 176.74 211.21 175.32 233.00 Q 174.64 243.48 177.66 253.02"/>
    <path stroke="#745743" vector-effect="non-scaling-stroke" d=" M 177.66 253.02 C 183.02 263.84 193.58 268.93 204.45 272.47 Q 212.76 275.18 221.34 275.35 C 245.75 275.85 265.42 265.24 281.15 247.12 Q 281.79 246.38 282.67 246.81 C 289.81 250.27 295.34 249.11 301.51 244.14 Q 307.39 239.41 311.28 232.75"/>
    <path stroke="#816e62" vector-effect="non-scaling-stroke" d=" M 311.28 232.75 C 314.85 225.94 315.14 218.59 305.98 217.02 C 298.08 215.66 292.41 218.71 286.53 223.50 Q 285.28 224.51 281.34 224.12 Q 280.87 224.08 280.62 223.67 L 276.95 217.66"/>
    <path stroke="#745743" vector-effect="non-scaling-stroke" d=" M 276.95 217.66 Q 272.59 202.31 275.41 187.43 Q 275.51 186.91 275.02 186.71 C 269.52 184.49 265.90 181.47 263.04 177.52 A 0.25 0.25 0.0 0 0 262.60 177.74 Q 264.24 183.02 264.22 188.55 A 2.21 2.21 0.0 0 1 262.71 190.63 C 256.60 192.65 247.34 192.02 241.01 191.16 C 238.54 190.83 237.35 190.38 236.43 187.88 C 234.00 181.32 232.23 174.46 230.19 167.77 Q 229.36 165.04 229.55 167.89 Q 230.17 177.01 229.82 186.94 C 229.76 188.47 228.86 189.89 227.38 190.14 Q 219.72 191.43 210.92 189.57 C 204.37 188.19 206.77 182.22 206.95 177.66 A 0.27 0.27 0.0 0 0 206.43 177.53 C 202.39 186.22 198.66 187.79 189.24 189.27"/>
    <path stroke="#f2c4a4" vector-effect="non-scaling-stroke" d=" M 276.95 217.66 Q 269.55 205.08 270.75 188.98 Q 270.80 188.34 270.25 187.99 Q 268.68 186.97 266.84 186.86 Q 266.36 186.83 266.31 187.31 L 265.84 191.76 A 1.45 1.45 0.0 0 1 264.99 192.93 C 261.30 194.57 259.43 194.33 254.76 193.71 Q 251.99 193.34 249.60 194.18"/>
    <path stroke="#745743" vector-effect="non-scaling-stroke" d=" M 249.60 194.18 Q 246.47 192.85 244.02 194.22"/>
    <path stroke="#f2c4a4" vector-effect="non-scaling-stroke" d=" M 244.02 194.22 Q 243.88 194.05 243.86 193.74 Q 243.84 193.30 243.40 193.30 Q 238.99 193.27 234.64 192.65 Q 232.57 192.36 230.42 192.92 C 223.77 194.66 217.28 193.90 210.51 193.68 Q 205.67 193.52 199.72 190.06 Q 198.13 189.14 197.85 190.70"/>
    <path stroke="#745743" vector-effect="non-scaling-stroke" d=" M 197.85 190.70 Q 196.59 188.64 193.45 189.37"/>
    <path stroke="#f2c4a4" vector-effect="non-scaling-stroke" d=" M 193.45 189.37 L 189.24 189.27"/>
    <path stroke="#f2c4a4" vector-effect="non-scaling-stroke" d=" M 311.28 232.75 C 309.50 233.77 308.00 234.62 306.41 236.10 C 301.58 240.58 295.79 245.29 288.50 243.85 Q 285.15 243.18 283.63 242.79 A 1.04 1.01 30.3 0 0 282.66 243.03 C 277.01 248.33 271.49 254.61 265.43 258.68 Q 257.53 263.99 250.72 266.14 C 238.45 270.03 227.40 272.77 215.41 271.41 C 205.39 270.27 193.89 265.25 185.84 258.97 Q 183.49 257.13 181.15 255.26 Q 181.00 255.14 180.81 255.12 Q 180.74 255.11 180.74 255.05 Q 180.74 254.90 180.75 254.75 A 0.24 0.24 0.0 0 0 180.49 254.51 Q 179.41 254.57 179.43 253.94 Q 179.46 253.35 178.90 253.16 Q 178.37 252.98 177.66 253.02"/>
    <path stroke="#816e62" vector-effect="non-scaling-stroke" d=" M 193.45 189.37 C 191.18 190.59 185.21 193.70 184.15 195.72 Q 183.62 196.74 184.73 196.44 L 196.75 193.22 A 2.28 1.75 -6.3 0 0 198.38 191.66 Q 198.41 191.46 197.85 190.70"/>
    <path stroke="#816e62" vector-effect="non-scaling-stroke" d=" M 244.02 194.22 Q 242.96 194.76 242.46 195.31 A 0.65 0.65 0.0 0 0 242.78 196.37 Q 248.20 197.80 253.52 199.76 Q 254.89 200.26 255.57 200.36 Q 257.22 200.59 256.10 199.35 Q 253.52 196.52 249.60 194.18"/>
    <path stroke="#375f4d" vector-effect="non-scaling-stroke" d=" M 292.09 255.93 L 292.84 262.00 Q 292.90 262.42 293.30 262.53 L 295.35 263.10 Q 297.95 263.83 295.36 264.57 Q 293.41 265.13 291.03 264.55 Q 289.51 264.18 289.74 265.73 Q 289.94 267.06 289.50 268.24 A 0.58 0.57 19.1 0 1 288.78 268.58 Q 288.37 268.44 288.16 268.10 Q 287.86 267.61 287.34 267.85 Q 279.86 271.29 272.43 274.82 Q 271.16 275.42 268.03 274.96 A 0.30 0.30 0.0 0 0 267.75 275.06 L 265.78 277.41 A 1.45 1.45 0.0 0 1 265.00 277.89 C 261.73 278.65 258.66 280.45 255.34 280.35 A 0.62 0.62 0.0 0 0 254.79 281.29 C 257.92 286.45 257.29 297.00 256.24 302.76 Q 255.31 307.91 248.48 309.57"/>
    <path stroke="#164b34" vector-effect="non-scaling-stroke" d=" M 248.48 309.57 Q 241.77 306.69 235.25 305.92"/>
    <path stroke="#375f4d" vector-effect="non-scaling-stroke" d=" M 235.25 305.92 C 237.88 298.90 252.86 313.55 254.53 301.53 Q 255.54 294.20 253.76 282.96"/>
    <path stroke="#164b34" vector-effect="non-scaling-stroke" d=" M 253.76 282.96 Q 252.54 279.43 248.92 280.90 A 1.83 1.79 1.5 0 0 247.99 281.76 C 245.08 287.55 241.01 292.19 237.43 297.72"/>
    <path stroke="#375f4d" vector-effect="non-scaling-stroke" d=" M 237.43 297.72 L 229.52 308.41 A 0.80 0.79 -45.4 0 1 228.25 308.42 Q 224.19 303.12 221.80 296.75"/>
    <path stroke="#164b34" vector-effect="non-scaling-stroke" d=" M 221.80 296.75 L 215.37 282.43 Q 215.14 281.92 214.61 282.08 Q 211.82 282.90 210.61 285.39"/>
    <path stroke="#375f4d" vector-effect="non-scaling-stroke" d=" M 210.61 285.39 C 209.67 288.71 203.98 309.22 212.06 307.04 C 215.11 306.21 218.73 304.48 221.89 304.68 A 1.05 1.05 0.0 0 1 222.85 305.55 L 222.90 305.83 Q 223.00 306.48 222.34 306.51 C 220.57 306.60 219.24 308.00 217.65 308.46 C 215.01 309.22 210.89 310.27 208.61 308.48 C 204.39 305.18 206.67 293.03 208.07 288.53 A 0.49 0.48 -0.1 0 0 207.46 287.93 C 205.14 288.68 200.44 290.26 199.13 292.54 Q 189.56 309.22 184.84 326.88 C 183.75 330.96 183.08 335.92 182.13 340.42 C 181.03 345.71 181.43 349.16 187.60 349.60"/>
    <path stroke="#164b34" vector-effect="non-scaling-stroke" d=" M 187.60 349.60 L 197.28 350.31 Q 197.81 350.35 197.78 349.82 Q 196.87 335.23 198.72 320.00 C 198.99 317.80 198.44 315.72 199.12 313.52 Q 199.58 312.01 199.99 310.55"/>
    <path stroke="#375f4d" vector-effect="non-scaling-stroke" d=" M 199.99 310.55 Q 200.15 309.00 200.93 308.62 A 0.49 0.48 -11.3 0 1 201.63 309.08 C 201.04 319.76 200.10 330.17 200.34 340.67"/>
    <path stroke="#164b34" vector-effect="non-scaling-stroke" d=" M 200.34 340.67 Q 200.16 347.30 200.49 353.89 Q 200.59 355.97 201.49 356.91 C 204.14 359.67 214.08 360.50 217.00 360.67 Q 244.63 362.31 271.63 356.57 C 275.52 355.74 278.05 354.13 278.04 349.99 C 278.03 344.67 276.86 338.33 276.52 332.99 Q 275.79 321.42 274.40 309.08"/>
    <path stroke="#375f4d" vector-effect="non-scaling-stroke" d=" M 274.40 309.08 Q 275.28 308.20 274.86 305.94 Q 274.77 305.40 274.25 305.57 L 271.52 306.47 Q 271.40 306.51 271.30 306.42 L 271.06 306.22 A 0.46 0.45 -39.7 0 1 271.13 305.49 L 274.23 303.60"/>
    <path stroke="#164b34" vector-effect="non-scaling-stroke" d=" M 274.23 303.60 C 286.29 298.47 294.85 292.31 304.92 285.67 C 311.82 281.13 313.96 274.49 313.43 266.50 Q 312.58 253.77 309.62 241.55 A 0.57 0.57 0.0 0 0 308.62 241.33 C 304.36 246.62 298.70 250.83 291.94 251.63 A 0.54 0.54 0.0 0 0 291.47 252.26 L 292.09 255.93"/>
    <path stroke="#4ba980" vector-effect="non-scaling-stroke" d=" M 274.23 303.60 Q 275.21 301.92 276.39 301.10 Q 291.81 290.28 306.44 278.41 Q 308.63 276.62 308.69 273.69 Q 308.89 262.19 307.52 250.51 A 0.49 0.49 0.0 0 0 306.74 250.17 Q 300.31 254.79 292.09 255.93"/>
    <path stroke="#4ba980" vector-effect="non-scaling-stroke" d=" M 274.40 309.08 L 266.21 342.86 A 4.25 4.21 -10.1 0 1 264.43 345.39 C 255.35 351.36 246.34 356.28 234.73 356.61 C 231.52 356.70 227.96 357.27 224.97 356.47 C 220.27 355.22 203.30 347.20 201.78 343.27 Q 201.05 341.39 200.34 340.67"/>
    <path stroke="#4ba980" vector-effect="non-scaling-stroke" d=" M 199.99 310.55 Q 199.02 310.20 198.29 310.44 Q 197.75 310.61 197.77 311.17 C 197.87 315.27 195.69 319.56 195.20 323.50 Q 193.80 334.83 194.01 346.35 A 1.09 1.09 0.0 0 1 193.32 347.39 L 187.60 349.60"/>
    <path stroke="#4ba980" vector-effect="non-scaling-stroke" d=" M 210.61 285.39 Q 212.75 288.71 216.34 293.41 Q 218.54 296.30 221.80 296.75"/>
    <path stroke="#4ba980" vector-effect="non-scaling-stroke" d=" M 237.43 297.72 Q 246.49 291.33 253.76 282.96"/>
    <path stroke="#4ba980" vector-effect="non-scaling-stroke" d=" M 235.25 305.92 Q 234.69 306.82 234.75 307.02 A 1.69 1.67 89.9 0 0 235.94 308.22 Q 242.72 310.03 248.48 309.57"/>
    <path stroke="#7c7b7c" vector-effect="non-scaling-stroke" d=" M 288.85 262.58 L 290.47 262.38 Q 290.94 262.32 290.88 261.85 L 289.46 252.15 Q 289.38 251.61 288.84 251.57 Q 285.77 251.34 283.02 249.93 A 0.78 0.78 0.0 0 0 282.10 250.10 Q 280.23 252.11 278.35 254.11 C 269.01 264.02 258.35 269.44 245.98 274.60 A 1.51 1.51 0.0 0 0 245.58 277.14 L 248.02 279.22 A 0.85 0.84 -39.2 0 0 248.97 279.31 Q 251.11 278.13 253.15 279.31 Q 253.68 279.62 254.22 279.32 Q 255.60 278.57 257.21 278.78 Q 257.75 278.85 258.24 278.60 Q 261.31 277.03 264.70 276.42 Q 265.28 276.31 265.51 275.77 Q 266.90 272.45 270.44 273.57 A 1.08 1.05 38.4 0 0 271.31 273.48 Q 278.84 269.12 286.97 266.04 Q 287.51 265.84 287.52 265.26 Q 287.54 264.22 287.94 263.27 A 1.13 1.12 7.6 0 1 288.85 262.58"/>
    <path stroke="#816e62" vector-effect="non-scaling-stroke" d=" M 223.19 283.72 L 228.39 292.02 Q 228.68 292.48 229.07 292.10 L 239.44 281.97"/>
    <path stroke="#745743" vector-effect="non-scaling-stroke" d=" M 239.44 281.97 Q 240.80 281.05 242.97 278.47 Q 243.96 277.30 243.63 275.66 Q 243.53 275.14 243.01 275.29 Q 232.24 278.60 220.97 277.85 A 0.99 0.98 79.1 0 0 220.02 279.26 Q 221.17 281.67 223.19 283.72"/>
    <path stroke="#f2c4a4" vector-effect="non-scaling-stroke" d=" M 239.44 281.97 Q 230.61 283.71 223.19 283.72"/>
    <path stroke="#816519" vector-effect="non-scaling-stroke" d=" M 227.19 294.27 L 218.25 280.40 A 0.44 0.44 0.0 0 0 217.70 280.25 L 217.42 280.38 A 0.70 0.69 -27.2 0 0 217.10 281.35 C 221.93 289.94 224.26 295.65 228.33 306.01 Q 228.57 306.61 228.91 306.06 C 234.41 297.23 241.20 289.54 246.72 280.78 A 0.68 0.67 -57.1 0 0 246.53 279.87 L 246.04 279.53 Q 245.53 279.18 245.11 279.63 C 240.19 284.90 234.76 290.95 228.52 294.59 A 1.00 0.99 -31.3 0 1 227.19 294.27"/>
    <path stroke="#745743" vector-effect="non-scaling-stroke" d=" M 198.3468 352.8512 A 0.27 0.27 0.0 0 0 198.0963 352.5630 L 184.6292 351.6213 A 0.27 0.27 0.0 0 0 184.3410 351.8718 L 184.2532 353.1288 A 0.27 0.27 0.0 0 0 184.5037 353.4170 L 197.9708 354.3587 A 0.27 0.27 0.0 0 0 198.2590 354.1082 L 198.3468 352.8512"/>
    <path stroke="#816e62" vector-effect="non-scaling-stroke" d=" M 185.28 358.51 Q 185.85 364.26 189.54 367.52 C 191.40 369.18 196.31 367.14 198.53 366.62"/>
    <path stroke="#745743" vector-effect="non-scaling-stroke" d=" M 198.53 366.62 Q 198.69 366.64 198.82 366.65 Q 199.20 366.65 199.35 366.30 Q 200.47 363.63 199.21 361.28 C 198.50 359.94 198.47 359.06 199.28 357.88 Q 199.56 357.45 199.31 357.01 L 198.73 356.02 A 0.63 0.63 0.0 0 0 198.11 355.71 Q 192.15 356.47 186.26 355.18 A 0.84 0.84 0.0 0 0 185.24 356.02 L 185.28 358.51"/>
    <path stroke="#f2c4a4" vector-effect="non-scaling-stroke" d=" M 198.53 366.62 Q 198.94 366.47 198.92 365.89 Q 198.91 365.56 198.64 365.18 Q 197.37 363.37 196.68 361.67 A 2.84 2.84 0.0 0 0 194.48 359.92 L 185.28 358.51"/>
    <path stroke="#4a616d" vector-effect="non-scaling-stroke" d=" M 201.73 362.90 L 202.66 409.73 A 1.06 1.06 0.0 0 0 203.58 410.76 Q 213.19 412.03 222.61 411.69"/>
    <path stroke="#1f4458" vector-effect="non-scaling-stroke" d=" M 222.61 411.69 L 228.05 411.67 A 1.04 1.03 87.5 0 0 229.08 410.54 C 228.21 400.94 230.08 390.10 231.96 380.62 C 232.09 379.96 232.60 379.37 232.81 378.71 Q 233.00 378.10 232.38 377.98 Q 230.27 377.57 229.62 376.31"/>
    <path stroke="#4a616d" vector-effect="non-scaling-stroke" d=" M 229.62 376.31 C 234.11 376.18 239.96 377.17 243.47 380.36 Q 243.84 380.68 243.95 381.16 L 244.87 384.86"/>
    <path stroke="#1f4458" vector-effect="non-scaling-stroke" d=" M 244.87 384.86 L 251.10 409.79 A 1.26 1.26 0.0 0 0 252.32 410.74 L 256.31 410.72"/>
    <path stroke="#4a616d" vector-effect="non-scaling-stroke" d=" M 256.31 410.72 Q 266.61 410.68 276.27 408.97 A 0.28 0.27 -6.0 0 0 276.50 408.69 L 275.95 362.69"/>
    <path stroke="#1f4458" vector-effect="non-scaling-stroke" d=" M 275.95 362.69 Q 277.09 360.48 276.25 357.96 Q 276.06 357.40 275.51 357.61 Q 269.38 359.99 265.98 360.63 Q 242.49 365.05 216.01 363.14 Q 207.22 362.50 200.88 358.80 Q 200.49 358.57 200.20 358.93 Q 199.68 359.60 200.17 360.28 Q 201.53 362.16 201.73 362.90"/>
    <path stroke="#67a4c3" vector-effect="non-scaling-stroke" d=" M 275.95 362.69 Q 262.14 367.18 248.50 367.25 Q 233.61 367.32 215.50 366.18 Q 209.63 365.81 201.73 362.90"/>
    <path stroke="#67a4c3" vector-effect="non-scaling-stroke" d=" M 256.31 410.72 C 253.40 403.92 250.28 397.01 247.89 389.99 Q 246.92 387.15 244.87 384.86"/>
    <path stroke="#67a4c3" vector-effect="non-scaling-stroke" d=" M 229.62 376.31 Q 229.28 376.33 229.23 376.75 C 227.72 388.29 226.22 400.61 222.61 411.69"/>
    <path stroke="#1f4458" vector-effect="non-scaling-stroke" d=" M 256.82 413.03 L 254.18 412.79 Q 253.59 412.74 253.67 413.33 L 255.04 424.27 Q 255.11 424.78 254.62 424.61 Q 253.29 424.17 252.79 413.20 Q 252.77 412.92 252.50 412.86 L 248.58 412.02 A 0.20 0.20 0.0 0 0 248.34 412.25 L 251.05 425.31 A 1.45 1.44 84.8 0 0 252.44 426.47 L 256.17 426.55 Q 256.99 426.56 256.87 425.75 L 255.27 415.31 Q 255.20 414.87 255.65 414.85 L 255.96 414.84 A 0.35 0.35 0.0 0 1 256.32 415.13 L 257.96 425.68 A 1.23 1.22 85.6 0 0 259.17 426.72 Q 269.55 426.73 278.99 423.93 Q 280.47 423.49 280.27 421.59"/>
    <path stroke="#4a616d" vector-effect="non-scaling-stroke" d=" M 280.27 421.59 Q 279.76 414.40 280.00 410.01 Q 280.09 408.48 279.24 407.73 A 0.46 0.46 0.0 0 0 278.48 408.03 Q 278.41 408.71 278.83 409.24 A 0.90 0.90 0.0 0 1 278.47 410.62 Q 277.13 411.21 275.74 411.45 Q 266.63 413.06 256.82 413.03"/>
    <path stroke="#67a4c3" vector-effect="non-scaling-stroke" d=" M 280.27 421.59 Q 271.66 420.90 263.14 420.59 C 261.67 420.53 261.00 420.74 259.89 419.49 Q 257.03 416.28 256.82 413.03"/>
    <path stroke="#1f4458" vector-effect="non-scaling-stroke" d=" M 206.84 425.66 Q 218.35 427.65 222.01 427.03 Q 225.94 426.35 229.63 426.25 A 2.45 2.45 0.0 0 0 232.02 423.86 L 232.30 412.73 Q 232.36 410.52 230.68 411.95 L 230.28 412.29 Q 229.22 413.19 229.34 414.57 Q 229.81 419.96 228.82 425.25 Q 228.76 425.54 228.47 425.47 L 228.17 425.40 Q 227.90 425.33 227.91 425.05 L 228.41 413.57 Q 228.43 413.19 228.06 413.28 L 226.98 413.57 A 0.25 0.24 -8.6 0 0 226.79 413.82 L 226.85 425.13 A 0.69 0.68 89.6 0 1 226.18 425.82 L 225.77 425.82 Q 225.62 425.82 225.62 425.67 L 225.94 414.53 Q 225.96 413.94 225.37 413.97 L 221.48 414.15"/>
    <path stroke="#4a616d" vector-effect="non-scaling-stroke" d=" M 221.48 414.15 Q 213.52 414.56 205.74 413.25 Q 202.92 412.78 199.97 411.31 A 0.67 0.67 0.0 0 1 200.02 410.08 Q 200.46 409.91 200.31 409.55 Q 200.16 409.19 199.91 409.50 C 198.01 411.90 199.20 420.79 199.33 423.76 A 1.45 1.44 -89.1 0 0 200.66 425.14 L 206.84 425.66"/>
    <path stroke="#67a4c3" vector-effect="non-scaling-stroke" d=" M 221.48 414.15 Q 222.81 414.64 221.79 415.73 Q 221.47 416.06 221.31 416.49 L 219.03 422.79 A 1.77 1.76 10.6 0 1 217.33 423.95 Q 212.10 423.84 206.84 425.66"/>
    <path stroke="#6e3d17" vector-effect="non-scaling-stroke" d=" M 271.19 428.65 C 265.99 429.85 264.84 434.39 264.59 439.08 Q 264.56 439.65 265.13 439.66 L 269.23 439.76 Q 269.77 439.77 269.92 439.26 Q 271.01 435.50 273.34 432.32 Q 275.90 428.82 280.02 428.23 A 0.31 0.31 0.0 0 0 280.22 427.73 L 279.85 427.23 A 0.74 0.73 -23.3 0 0 279.13 426.95 Q 275.21 427.72 271.19 428.65"/>
    <path stroke="#6e3d17" vector-effect="non-scaling-stroke" d=" M 210.62 428.88 Q 205.34 428.26 202.60 428.22 Q 202.49 428.22 202.43 428.30 Q 202.33 428.44 202.22 428.57 Q 202.12 428.69 202.27 428.74 Q 210.79 431.58 212.30 440.61 A 0.36 0.36 0.0 0 0 212.69 440.91 L 217.64 440.49 A 0.31 0.31 0.0 0 0 217.92 440.17 C 217.75 436.02 215.57 429.45 210.62 428.88"/>
    <path stroke="#816519" vector-effect="non-scaling-stroke" d=" M 216.07 429.83 C 218.62 433.05 219.18 435.63 219.57 439.66 Q 219.63 440.23 220.20 440.19 L 228.09 439.67 A 0.55 0.55 0.0 0 0 228.61 439.12 L 228.56 429.80 A 0.49 0.49 0.0 0 0 228.06 429.31 L 216.19 429.58 Q 215.88 429.59 216.07 429.83"/>
    <path stroke="#816519" vector-effect="non-scaling-stroke" d=" M 286.73 430.35 C 280.32 426.09 272.72 432.84 271.83 439.39 Q 271.73 440.10 272.45 440.15 Q 280.54 440.63 287.29 440.45 Q 289.11 440.41 289.40 438.50 Q 290.28 432.72 286.73 430.35"/>
    <path stroke="#816519" vector-effect="non-scaling-stroke" d=" M 265.29 429.53 L 254.31 429.46 Q 253.83 429.46 253.83 429.94 L 253.85 438.20 A 0.62 0.62 0.0 0 0 254.44 438.82 L 262.46 439.31 Q 262.90 439.34 262.88 438.90 Q 262.75 433.99 265.54 430.02 A 0.31 0.31 0.0 0 0 265.29 429.53"/>
    <path stroke="#816519" vector-effect="non-scaling-stroke" d=" M 210.77 440.48 C 209.42 435.83 207.42 432.19 202.76 430.44 Q 198.07 428.67 194.69 431.95 C 192.47 434.11 192.65 437.18 193.13 440.02 Q 193.22 440.55 193.73 440.73 C 198.06 442.26 205.70 441.57 210.34 441.12 Q 210.94 441.06 210.77 440.48"/>
    <path stroke="#7c7b7c" vector-effect="non-scaling-stroke" d=" M 288.60 441.50 Q 285.36 442.47 284.00 442.52 Q 269.06 443.12 254.65 440.26 Q 253.74 440.08 253.76 441.00 L 253.77 441.36 Q 253.79 442.48 254.90 442.59 C 265.95 443.66 277.33 445.22 288.22 443.35 Q 289.11 443.20 289.18 442.30 L 289.21 442.00 A 0.48 0.48 0.0 0 0 288.60 441.50"/>
    <path stroke="#7c7b7c" vector-effect="non-scaling-stroke" d=" M 196.04 442.85 Q 194.78 442.60 193.72 442.42 Q 193.12 442.31 193.24 442.90 L 193.29 443.18 Q 193.44 443.92 194.17 444.11 Q 197.56 444.98 200.50 445.01 Q 212.52 445.14 227.50 443.39 A 1.28 1.28 0.0 0 0 228.62 442.26 L 228.66 441.94 Q 228.77 440.92 227.77 441.12 C 218.27 442.98 205.65 444.75 196.04 442.85"/>
    <path stroke="#81342d" vector-effect="non-scaling-stroke" d=" M 354.6811 153.4711 A 10.99 10.17 45.0 0 0 354.1013 138.5087 A 10.99 10.17 45.0 0 0 339.1389 137.9289 A 10.99 10.17 45.0 0 0 339.7187 152.8913 A 10.99 10.17 45.0 0 0 354.6811 153.4711"/>
    <path stroke="#fae8dd" vector-effect="non-scaling-stroke" d=" M 183.30 213.94 C 184.02 216.34 184.17 220.20 186.49 222.39"/>
    <path stroke="#816e62" vector-effect="non-scaling-stroke" d=" M 186.49 222.39 Q 192.09 225.30 198.84 223.87 A 0.73 0.72 -1.2 0 0 199.41 223.28 Q 199.48 222.94 199.21 222.81"/>
    <path stroke="#fae8dd" vector-effect="non-scaling-stroke" d=" M 199.21 222.81 C 201.26 221.60 202.29 217.89 203.13 215.75 Q 203.32 215.29 202.90 214.74"/>
    <path stroke="#816e62" vector-effect="non-scaling-stroke" d=" M 202.90 214.74 Q 203.26 214.60 203.26 214.24 C 203.35 206.05 195.77 200.97 188.51 205.77 Q 183.52 209.07 183.30 213.94"/>
    <path stroke="#7c7b7c" vector-effect="non-scaling-stroke" d=" M 202.90 214.74 C 201.22 210.18 198.06 204.77 192.31 206.01 Q 191.10 206.27 192.27 206.68 C 195.03 207.63 195.81 212.20 194.85 214.44 C 192.96 218.81 186.15 216.66 185.84 212.58 Q 185.61 209.60 184.87 212.50 Q 184.56 213.74 183.30 213.94"/>
    <path stroke="#7c7b7c" vector-effect="non-scaling-stroke" d=" M 199.21 222.81 L 186.49 222.39"/>
    <path stroke="#fae8dd" vector-effect="non-scaling-stroke" d=" M 237.09 215.60 Q 237.10 220.58 239.32 225.01 Q 239.37 225.13 239.50 225.13 Q 239.66 225.13 239.77 225.14"/>
    <path stroke="#816e62" vector-effect="non-scaling-stroke" d=" M 239.77 225.14 Q 239.90 225.44 240.05 225.63 Q 240.19 225.82 240.49 225.92 C 243.08 226.76 249.71 227.90 252.09 226.49 Q 253.00 225.95 252.48 225.58"/>
    <path stroke="#fae8dd" vector-effect="non-scaling-stroke" d=" M 252.48 225.58 Q 254.82 225.28 256.07 222.25 Q 257.33 219.21 258.34 215.97"/>
    <path stroke="#816e62" vector-effect="non-scaling-stroke" d=" M 258.34 215.97 C 255.83 203.88 242.02 203.51 236.82 214.05 Q 236.26 215.18 237.09 215.60"/>
    <path stroke="#7c7b7c" vector-effect="non-scaling-stroke" d=" M 258.34 215.97 C 255.24 212.63 251.33 207.91 246.36 208.65 A 0.32 0.32 0.0 0 0 246.23 209.23 Q 249.69 211.49 248.91 215.95 C 247.88 221.82 239.13 219.93 239.78 213.76 A 0.52 0.52 0.0 0 0 238.86 213.38 L 237.09 215.60"/>
    <path stroke="#7c7b7c" vector-effect="non-scaling-stroke" d=" M 252.48 225.58 Q 246.18 226.07 239.77 225.14"/>
    <path stroke="#f2c4a4" vector-effect="non-scaling-stroke" d=" M 209.30 232.60 Q 210.07 232.54 210.89 232.75 Q 211.35 232.86 211.61 232.77 Q 212.12 232.59 212.25 231.94 A 0.88 0.87 -63.0 0 0 211.98 231.10 L 208.12 227.69"/>
    <path stroke="#816e62" vector-effect="non-scaling-stroke" d=" M 208.12 227.69 L 210.21 224.59 Q 210.85 223.65 209.84 224.17 C 206.63 225.82 204.59 232.81 209.30 232.60"/>
    <path stroke="#745743" vector-effect="non-scaling-stroke" d=" M 208.12 227.69 Q 207.52 229.75 209.30 232.60"/>
    <path stroke="#f2c4a4" vector-effect="non-scaling-stroke" d=" M 289.71 233.05 Q 290.40 233.92 290.95 235.15 C 293.20 240.13 297.60 239.66 300.55 235.75 Q 302.61 233.02 303.24 230.00"/>
    <path stroke="#816e62" vector-effect="non-scaling-stroke" d=" M 303.24 230.00 C 303.18 225.79 300.40 223.77 296.48 225.30 Q 291.51 227.25 289.71 233.05"/>
    <path stroke="#745743" vector-effect="non-scaling-stroke" d=" M 303.24 230.00 Q 302.02 229.49 301.58 228.09 A 1.43 1.41 4.8 0 0 300.86 227.25 Q 297.72 225.65 295.18 228.21 Q 294.79 228.60 295.31 228.77 C 300.80 230.57 298.52 237.35 293.07 236.08 Q 292.39 235.92 292.25 235.24 L 292.16 234.78 Q 291.98 233.95 292.78 234.26 Q 294.80 235.06 296.20 233.65 A 1.98 1.98 0.0 0 0 295.69 230.48 Q 293.24 229.25 289.71 233.05"/>
    <path stroke="#816e62" vector-effect="non-scaling-stroke" d=" M 214.1024 268.8598 A 11.01 6.41 90.3 0 0 220.5699 257.8836 A 11.01 6.41 90.3 0 0 214.2176 246.8402 A 11.01 6.41 90.3 0 0 207.7501 257.8164 A 11.01 6.41 90.3 0 0 214.1024 268.8598"/>
    <path stroke="#7c7b7c" vector-effect="non-scaling-stroke" d=" M 189.89 210.41 A 1.21 1.21 0.0 0 0 188.68 209.20 A 1.21 1.21 0.0 0 0 187.47 210.41 A 1.21 1.21 0.0 0 0 188.68 211.62 A 1.21 1.21 0.0 0 0 189.89 210.41"/>
    <path stroke="#7c7b7c" vector-effect="non-scaling-stroke" d=" M 242.7807 214.0942 A 1.47 1.27 84.9 0 0 243.9150 212.5171 A 1.47 1.27 84.9 0 0 242.5193 211.1658 A 1.47 1.27 84.9 0 0 241.3850 212.7429 A 1.47 1.27 84.9 0 0 242.7807 214.0942"/>
    <path stroke="#81342d" vector-effect="non-scaling-stroke" d=" M 210.34 260.31 L 218.03 260.12 A 0.29 0.29 0.0 0 0 218.32 259.83 L 218.25 257.14 A 8.96 4.02 88.6 0 0 214.01 248.28 L 213.77 248.28 A 8.96 4.02 88.6 0 0 209.97 257.34 L 210.04 260.03 A 0.29 0.29 0.0 0 0 210.34 260.31"/>
    <path stroke="#81342d" vector-effect="non-scaling-stroke" d=" M 217.34 264.12 A 1.82 1.82 0.0 0 0 216.12 261.14 L 214.02 260.94 A 1.82 1.82 0.0 0 0 213.13 261.07 L 211.58 261.73 A 1.82 1.82 0.0 0 0 211.26 264.90 L 213.34 266.33 A 1.82 1.82 0.0 0 0 215.77 266.00 L 217.34 264.12"/>
    <path stroke="#4ba980" vector-effect="non-scaling-stroke" d=" M 221.13 308.07 L 220.86 308.13 Q 220.14 308.29 220.83 308.54 Q 222.25 309.07 222.86 307.77 Q 222.98 307.50 222.88 307.34 Q 222.61 306.89 222.24 307.26 L 221.78 307.72 Q 221.51 307.99 221.13 308.07"/>
  </g>
  <path fill="#020101" d="M 343.187 73.5 C 341.647 70.34 337.277 71.71 335.027 73.02 C 329.277 76.38 322.367 78.12 316.017 75.57 C 308.967 72.74 302.877 65.67 304.437 57.36 C 306.027 48.87 315.927 38.91 324.297 37.04 C 345.247 32.36 369.857 42.17 372.807 65.56 C 373.677 72.45 371.877 80.81 367.157 86.07 C 361.217 92.69 352.547 95.7 344.487 98.94 C 338.634 101.293 334.557 105.43 332.257 111.35 C 329.437 118.62 326.947 127.93 316.907 127.1 C 310.077 126.53 303.667 121.93 302.267 114.83 C 301.887 112.943 302.08 111.186 302.847 109.56 C 306.047 102.78 310.754 97.613 316.967 94.06 C 323.397 90.38 331.767 87.72 338.277 82.85 C 340.247 81.38 344.577 76.37 343.187 73.5 Z M 333.887 37.18 C 321.557 36.69 312.407 43.82 307.807 54.87 C 302.767 66.96 316.687 75.27 326.797 74.85 C 331.187 74.66 334.527 71.14 337.757 70.12 C 342.587 68.6 346.727 73.53 344.167 78.02 C 338.887 87.26 328.927 90.58 319.887 94.81 C 310.477 99.21 295.917 112.55 309.807 122.54 C 311.534 123.78 312.87 124.533 313.817 124.8 C 325.517 128.1 327.737 118.57 330.897 110.52 C 335.557 98.67 346.677 97.31 356.577 92.44 C 365.357 88.106 370.154 81.253 370.967 71.88 C 372.847 50.1 353.107 37.95 333.887 37.18 Z" transform="matrix(0.9999999999999999, 0, 0, 0.9999999999999999, -7.105427357601002e-15, 1.4210854715202004e-14)"/>
  <path d="M 333.887 37.18 C 353.107 37.95 372.847 50.1 370.967 71.88 C 370.154 81.253 365.357 88.106 356.577 92.44 C 346.677 97.31 335.557 98.67 330.897 110.52 C 327.737 118.57 325.517 128.1 313.817 124.8 C 312.87 124.533 311.534 123.78 309.807 122.54 C 295.917 112.55 310.477 99.21 319.887 94.81 C 328.927 90.58 338.887 87.26 344.167 78.02 C 346.727 73.53 342.587 68.6 337.757 70.12 C 334.527 71.14 331.187 74.66 326.797 74.85 C 316.687 75.27 302.767 66.96 307.807 54.87 C 312.407 43.82 321.557 36.69 333.887 37.18 Z M 325.647 44.93 C 322.937 45.92 315.077 51.63 319.957 54.26 C 320.666 54.645 321.532 54.591 322.187 54.12 C 325.557 51.72 329.237 50.33 333.467 50.31 C 335.327 50.3 338.947 50.94 339.627 48.42 C 341.607 41.14 328.757 43.79 325.647 44.93 Z M 350.737 49.65 C 350.737 47.424 348.933 45.62 346.707 45.62 C 344.481 45.62 342.677 47.424 342.677 49.65 C 342.677 51.875 344.481 53.68 346.707 53.68 C 348.933 53.68 350.737 51.875 350.737 49.65 Z" style="fill: rgb(103, 255, 89);" transform="matrix(0.9999999999999999, 0, 0, 0.9999999999999999, -7.105427357601002e-15, 1.4210854715202004e-14)"/>
  <path fill="#f5f5f6" d="M 325.647 44.93 C 328.757 43.79 341.607 41.14 339.627 48.42 C 338.947 50.94 335.327 50.3 333.467 50.31 C 329.237 50.33 325.557 51.72 322.187 54.12 C 321.532 54.591 320.666 54.645 319.957 54.26 C 315.077 51.63 322.937 45.92 325.647 44.93 Z" transform="matrix(0.9999999999999999, 0, 0, 0.9999999999999999, -7.105427357601002e-15, 1.4210854715202004e-14)"/>
  <circle fill="#f5f5f6" cx="346.707" cy="49.65" r="4.03" transform="matrix(0.9999999999999999, 0, 0, 0.9999999999999999, -7.105427357601002e-15, 1.4210854715202004e-14)"/>
  <path fill="#020101" d="M 231.457 298.09 C 231.131 298.215 230.93 298.543 230.967 298.89 C 232.147 310.37 233.124 321.806 233.897 333.2 C 234.157 337.02 233.787 340.67 233.877 344.47 C 233.93 346.623 233.197 348.45 231.677 349.95 C 231.225 350.392 231.134 351.086 231.457 351.63 C 232.377 353.17 232.43 354.736 231.617 356.33 C 231.467 356.63 231.412 356.971 231.457 357.31 C 232.417 364.69 232.497 371.66 232.577 379.06 C 232.627 383.89 233.137 392.13 232.597 398.79 C 232.57 399.116 232.68 399.386 232.927 399.6 L 235.157 401.57 C 235.39 401.77 235.52 402.023 235.547 402.33 C 235.937 406.33 237.317 414.47 235.797 419.27 C 235.697 419.59 235.804 419.82 236.117 419.96 C 238.857 421.15 242.347 422.47 244.247 424.47 C 247.697 428.11 245.927 433.11 245.097 437.11 C 245.03 437.423 244.9 437.706 244.707 437.96 C 241.947 441.65 228.687 441.41 224.507 440.92 C 220.577 440.46 209.047 440.43 206.617 437.35 C 206.39 437.063 206.277 436.733 206.277 436.36 L 206.087 423.25 C 206.087 423.027 205.988 422.815 205.817 422.67 C 204.357 421.396 203.46 420.003 203.127 418.49 C 202.194 414.223 201.544 409.943 201.177 405.65 C 201.125 405.031 201.299 404.416 201.667 403.92 C 202.414 402.92 202.604 401.73 202.237 400.35 C 200.244 392.93 198.517 385.44 197.057 377.88 C 196.897 377.066 196.7 376.263 196.467 375.47 C 196.37 375.149 196.156 374.877 195.867 374.71 C 193.914 373.583 191.794 372.826 189.507 372.44 C 188.636 372.29 187.819 372.902 187.717 373.78 C 186.837 381.3 186.174 388.416 185.727 395.13 C 185.56 397.65 185.4 400.176 185.247 402.71 C 185.227 403.05 185.324 403.35 185.537 403.61 C 186.237 404.47 187.097 405.09 187.397 406.19 C 188.764 411.103 188.647 415.996 187.047 420.87 C 186.934 421.203 186.724 421.46 186.417 421.64 C 185.804 421.986 185.274 422.423 184.827 422.95 C 184.58 423.236 184.504 423.56 184.597 423.92 C 185.847 428.83 184.097 432.7 184.497 437.44 C 184.562 438.157 184.124 438.827 183.437 439.06 C 180.977 439.886 178.334 440.483 175.507 440.85 C 167.607 441.89 159.694 442.033 151.767 441.28 C 147.537 440.87 145.497 438.68 145.117 434.36 C 144.397 426.27 146.177 424.78 152.827 421.39 C 153.16 421.216 153.294 420.943 153.227 420.57 C 153.18 420.29 153.034 420.06 152.787 419.88 C 152.606 419.738 152.479 419.537 152.427 419.31 C 151.247 413.99 149.767 404.89 154.047 401.94 C 154.302 401.765 154.452 401.472 154.447 401.16 C 154.277 392.67 153.507 383.66 153.497 375.8 C 153.49 371.42 153.517 367.053 153.577 362.7 C 153.582 362.235 153.092 361.93 152.677 362.14 C 146.457 365.18 141.957 363.596 139.177 357.39 C 138.31 355.443 138.07 352.89 138.457 349.73 C 138.497 349.396 138.42 349.086 138.227 348.8 C 137.407 347.606 137.134 346.303 137.407 344.89 C 137.47 344.571 137.368 344.244 137.137 344.02 C 134.477 341.47 134.357 336.55 134.737 332.97 C 136.517 316.196 142.117 300.883 151.537 287.03 C 153.997 283.4 158.807 281.58 162.687 279.93 C 163 279.79 163.24 279.573 163.407 279.28 C 164.74 276.933 165.967 275.58 167.087 275.22 C 169.007 274.613 170.664 273.8 172.057 272.78 C 172.904 272.166 172.81 271.78 171.777 271.62 C 168.547 271.12 165.307 270.56 162.157 269.53 C 149.777 265.49 135.527 259.99 130.207 247.02 C 128.94 243.933 128.184 239.413 127.937 233.46 C 127.444 221.68 128.26 209.65 130.387 197.37 C 130.574 196.296 130.114 195.47 129.007 194.89 C 114.647 187.31 120.747 168.7 128.567 158.87 C 134.327 151.63 139.747 146.21 147.707 141.27 C 166.34 129.71 186.617 123.87 208.537 123.75 C 216.25 123.703 222.817 124.613 228.237 126.48 C 239.927 130.51 248.587 138 255.257 148.63 C 256.977 151.37 259.474 153.95 262.747 156.37 C 268.117 160.32 270.067 166.71 270.777 173.69 C 272.047 186.2 271.657 199.8 267.987 211.86 C 267.8 212.466 267.954 213.123 268.447 213.83 C 273.047 220.41 268.547 227.29 264.897 232.69 C 264.707 232.962 264.648 233.303 264.737 233.62 C 267.617 243.95 270.167 254.77 270.027 265.1 C 269.987 268.36 269.14 271.436 267.487 274.33 C 266.507 276.056 264.847 277.753 262.507 279.42 C 252.417 286.64 243.097 293.57 231.457 298.09 Z M 124.217 169.82 C 122.597 173.48 121.874 177.373 122.047 181.5 C 122.287 187.02 125.487 191.22 129.627 194.49 C 129.979 194.773 130.506 194.598 130.617 194.16 L 133.157 184.12 C 133.254 183.746 133.039 183.361 132.667 183.24 L 130.577 182.58 C 129.729 182.313 129.192 181.477 129.297 180.59 C 130.157 173.14 133.237 168.23 137.797 162.57 C 138.344 161.596 138.91 161.08 139.497 161.02 C 139.788 160.987 140.005 161.282 139.887 161.55 C 139.881 161.563 139.875 161.577 139.867 161.59 C 136.167 168.03 132.667 172.73 130.897 179.98 C 130.753 180.557 131.192 181.114 131.787 181.11 L 136.847 181.08 C 140.297 181.12 153.657 180.02 155.587 176.93 C 158.62 172.076 161.197 166.066 163.317 158.9 C 163.47 158.366 163.444 157.83 163.237 157.29 L 163.627 156.11 C 163.727 155.803 163.937 155.616 164.257 155.55 C 164.71 155.456 164.994 155.643 165.107 156.11 C 165.26 156.703 165.22 157.793 164.987 159.38 C 163.987 166.313 163.144 173.303 162.457 180.35 C 164.81 181.43 166.914 181.983 168.767 182.01 C 172.887 182.07 176.984 182.146 181.057 182.24 C 181.392 182.246 181.671 181.984 181.687 181.65 C 182 173.503 181.834 165.34 181.187 157.16 L 181.007 154.18 C 180.98 153.703 181.478 153.376 181.905 153.591 C 181.974 153.625 182.035 153.672 182.087 153.73 C 187.577 159.83 190.457 172.69 191.817 180.63 C 191.99 181.676 192.357 182.373 192.917 182.72 C 193.63 183.173 194.514 183.29 195.567 183.07 C 202.46 183.903 209.29 183.853 216.057 182.92 C 216.493 182.865 216.7 182.352 216.431 181.997 C 216.426 181.991 216.422 181.985 216.417 181.98 C 216.384 181.94 216.304 181.84 216.177 181.68 C 216.104 181.573 216.054 181.453 216.027 181.32 C 214.887 175.76 214.04 172.023 213.487 170.11 C 212.327 166.103 210.367 161.986 207.607 157.76 C 207 157.346 206.757 156.88 206.877 156.36 C 206.964 155.973 207.18 155.873 207.527 156.06 C 208.654 156.653 209.594 157.48 210.347 158.54 C 213.287 162.66 216.31 166.72 219.417 170.72 C 223.677 176.2 228.947 178.29 235.497 180.96 C 235.604 181.006 235.674 181.06 235.707 181.12 C 235.754 181.22 235.747 181.336 235.687 181.47 C 235.6 181.663 235.454 181.753 235.247 181.74 L 231.797 181.57 C 231.117 188.763 231.054 194.693 231.607 199.36 C 232.287 205.033 234.06 210.48 236.927 215.7 C 237.407 216.586 238.54 216.877 239.387 216.33 C 245.107 212.68 249.087 209.33 256.747 208.82 C 260.134 208.593 263.224 209.29 266.017 210.91 C 266.334 211.096 266.74 210.911 266.807 210.55 C 268.967 198.82 268.727 185.94 268.027 174.11 C 267.94 172.676 267.517 170.973 266.757 169 C 266.307 163.39 263.537 159.89 259.707 156.18 C 258.667 155.173 257.7 153.993 256.807 152.64 C 249.697 141.87 240.147 132.79 227.777 128.56 C 205.617 120.97 175.437 129.24 154.957 138.79 C 142.627 144.54 129.487 156.51 124.217 169.82 Z M 143.497 183.38 L 136.537 183.48 C 136.088 183.484 135.699 183.803 135.597 184.25 C 132.53 198.296 130.524 212.583 129.577 227.11 C 129.124 234.096 129.904 240.77 131.917 247.13 C 137.277 257.95 147.837 263.04 158.707 266.58 C 164.247 268.386 169.877 269.346 175.597 269.46 C 200.007 269.96 219.677 259.35 235.407 241.23 C 235.834 240.736 236.34 240.633 236.927 240.92 C 244.067 244.38 249.597 243.22 255.767 238.25 C 259.687 235.096 262.944 231.3 265.537 226.86 C 269.107 220.05 269.397 212.7 260.237 211.13 C 252.337 209.77 246.667 212.82 240.787 217.61 C 239.954 218.283 238.224 218.49 235.597 218.23 C 235.284 218.203 235.044 218.053 234.877 217.78 L 231.207 211.77 C 228.3 201.536 227.787 191.46 229.667 181.54 C 229.734 181.193 229.604 180.953 229.277 180.82 C 223.777 178.6 220.157 175.58 217.297 171.63 C 217.182 171.476 216.943 171.505 216.867 171.682 C 216.844 171.735 216.841 171.794 216.857 171.85 C 217.95 175.37 218.49 178.973 218.477 182.66 C 218.47 183.605 217.863 184.441 216.967 184.74 C 210.857 186.76 201.597 186.13 195.267 185.27 C 192.797 184.94 191.607 184.49 190.687 181.99 C 188.257 175.43 186.487 168.57 184.447 161.88 C 183.894 160.06 183.68 160.1 183.807 162 C 184.22 168.08 184.31 174.43 184.077 181.05 C 184.017 182.58 183.117 184 181.637 184.25 C 176.53 185.11 171.044 184.92 165.177 183.68 C 158.627 182.3 161.027 176.33 161.207 171.77 C 161.233 171.564 161.025 171.407 160.834 171.488 C 160.766 171.517 160.713 171.571 160.687 171.64 C 156.647 180.33 152.917 181.9 143.497 183.38 Z M 246.347 250.04 L 247.097 256.11 C 247.137 256.39 247.29 256.566 247.557 256.64 L 249.607 257.21 C 251.34 257.696 251.344 258.186 249.617 258.68 C 248.317 259.053 246.874 259.046 245.287 258.66 C 244.274 258.413 243.844 258.806 243.997 259.84 C 244.13 260.726 244.05 261.563 243.757 262.35 C 243.65 262.636 243.333 262.786 243.037 262.69 C 242.764 262.596 242.557 262.436 242.417 262.21 C 242.217 261.883 241.944 261.8 241.597 261.96 C 236.61 264.253 231.64 266.576 226.687 268.93 C 225.84 269.33 224.374 269.376 222.287 269.07 C 222.183 269.051 222.076 269.089 222.007 269.17 L 220.037 271.52 C 219.836 271.76 219.562 271.928 219.257 272 C 215.987 272.76 212.917 274.56 209.597 274.46 C 209.12 274.445 208.806 274.952 209.032 275.373 C 209.036 275.382 209.042 275.391 209.047 275.4 C 212.177 280.56 211.547 291.11 210.497 296.87 C 209.877 300.303 207.29 302.573 202.737 303.68 C 198.264 301.76 193.854 300.543 189.507 300.03 C 192.137 293.01 207.117 307.66 208.787 295.64 C 209.46 290.753 209.204 284.563 208.017 277.07 C 207.204 274.716 205.59 274.03 203.177 275.01 C 202.771 275.177 202.441 275.483 202.247 275.87 C 199.337 281.66 195.267 286.3 191.687 291.83 L 183.777 302.52 C 183.457 302.945 182.823 302.95 182.507 302.53 C 179.8 298.996 177.65 295.106 176.057 290.86 L 169.627 276.54 C 169.474 276.2 169.22 276.083 168.867 276.19 C 167.007 276.736 165.674 277.84 164.867 279.5 C 163.927 282.82 158.237 303.33 166.317 301.15 C 169.367 300.32 172.987 298.59 176.147 298.79 C 176.629 298.824 177.025 299.183 177.107 299.66 L 177.157 299.94 C 177.224 300.373 177.037 300.6 176.597 300.62 C 174.827 300.71 173.497 302.11 171.907 302.57 C 169.267 303.33 165.147 304.38 162.867 302.59 C 158.647 299.29 160.927 287.14 162.327 282.64 C 162.437 282.286 162.116 281.949 161.748 282.032 C 161.738 282.034 161.727 282.037 161.717 282.04 C 159.397 282.79 154.697 284.37 153.387 286.65 C 147.007 297.77 142.244 309.216 139.097 320.99 C 138.007 325.07 137.337 330.03 136.387 334.53 C 135.287 339.82 135.687 343.27 141.857 343.71 L 151.537 344.42 C 151.89 344.446 152.057 344.283 152.037 343.93 C 151.43 334.203 151.744 324.263 152.977 314.11 C 153.247 311.91 152.697 309.83 153.377 307.63 C 153.684 306.623 153.974 305.633 154.247 304.66 C 154.354 303.626 154.667 302.983 155.187 302.73 C 155.525 302.568 155.912 302.823 155.887 303.19 C 155.297 313.87 154.357 324.28 154.597 334.78 C 154.477 339.2 154.527 343.606 154.747 348 C 154.814 349.386 155.147 350.393 155.747 351.02 C 158.397 353.78 168.337 354.61 171.257 354.78 C 189.677 355.873 207.887 354.506 225.887 350.68 C 229.777 349.85 232.307 348.24 232.297 344.1 C 232.287 338.78 231.117 332.44 230.777 327.1 C 230.29 319.386 229.584 311.416 228.657 303.19 C 229.244 302.603 229.397 301.556 229.117 300.05 C 229.057 299.69 228.854 299.566 228.507 299.68 L 225.777 300.58 C 225.697 300.606 225.624 300.59 225.557 300.53 L 225.317 300.33 C 225.087 300.131 225.123 299.763 225.387 299.6 L 228.487 297.71 C 240.547 292.58 249.107 286.42 259.177 279.78 C 266.077 275.24 268.217 268.6 267.687 260.61 C 267.12 252.123 265.85 243.806 263.877 235.66 C 263.773 235.233 263.247 235.079 262.93 235.382 C 262.911 235.4 262.893 235.419 262.877 235.44 C 258.617 240.73 252.957 244.94 246.197 245.74 C 245.888 245.775 245.673 246.064 245.727 246.37 L 246.347 250.04 Z M 243.107 256.69 L 244.727 256.49 C 245.04 256.45 245.177 256.273 245.137 255.96 L 243.717 246.26 C 243.664 245.9 243.457 245.706 243.097 245.68 C 241.05 245.526 239.11 244.98 237.277 244.04 C 236.967 243.886 236.592 243.955 236.357 244.21 C 235.11 245.55 233.86 246.886 232.607 248.22 C 223.267 258.13 212.607 263.55 200.237 268.71 C 199.2 269.143 198.983 270.518 199.837 271.25 L 202.277 273.33 C 202.542 273.553 202.92 273.588 203.227 273.42 C 204.654 272.633 206.047 272.633 207.407 273.42 C 207.76 273.626 208.117 273.63 208.477 273.43 C 209.397 272.93 210.394 272.75 211.467 272.89 C 211.827 272.936 212.17 272.876 212.497 272.71 C 214.544 271.663 216.697 270.936 218.957 270.53 C 219.344 270.456 219.614 270.24 219.767 269.88 C 220.694 267.666 222.337 266.933 224.697 267.68 C 224.99 267.775 225.307 267.743 225.567 267.59 C 230.587 264.683 235.807 262.203 241.227 260.15 C 241.587 260.016 241.77 259.756 241.777 259.37 C 241.79 258.676 241.93 258.013 242.197 257.38 C 242.351 257.003 242.699 256.738 243.107 256.69 Z M 177.447 277.83 L 182.647 286.13 C 182.84 286.436 183.067 286.463 183.327 286.21 L 193.697 276.08 C 194.604 275.466 195.78 274.3 197.227 272.58 C 197.887 271.8 198.107 270.863 197.887 269.77 C 197.82 269.423 197.614 269.3 197.267 269.4 C 190.087 271.606 182.74 272.46 175.227 271.96 C 174.479 271.907 173.954 272.686 174.277 273.37 C 175.044 274.976 176.1 276.463 177.447 277.83 Z M 181.447 288.38 L 172.507 274.51 C 172.385 274.332 172.152 274.268 171.957 274.36 L 171.677 274.49 C 171.306 274.662 171.159 275.109 171.357 275.46 C 176.187 284.05 178.517 289.76 182.587 300.12 C 182.747 300.52 182.94 300.536 183.167 300.17 C 188.667 291.34 195.457 283.65 200.977 274.89 C 201.165 274.581 201.082 274.181 200.787 273.98 L 200.297 273.64 C 199.957 273.406 199.647 273.44 199.367 273.74 C 194.447 279.01 189.017 285.06 182.777 288.7 C 182.315 288.962 181.732 288.822 181.447 288.38 Z M 152.604 346.961 C 152.614 346.812 152.502 346.683 152.353 346.673 L 138.886 345.731 C 138.737 345.721 138.608 345.833 138.598 345.982 L 138.51 347.239 C 138.5 347.387 138.612 347.516 138.761 347.527 L 152.228 348.468 C 152.377 348.479 152.506 348.367 152.516 348.218 L 152.604 346.961 Z M 139.537 352.62 C 139.917 356.453 141.337 359.456 143.797 361.63 C 145.657 363.29 150.567 361.25 152.787 360.73 C 152.894 360.743 152.99 360.753 153.077 360.76 C 153.33 360.76 153.507 360.643 153.607 360.41 C 154.354 358.63 154.307 356.956 153.467 355.39 C 152.757 354.05 152.727 353.17 153.537 351.99 C 153.724 351.703 153.734 351.413 153.567 351.12 L 152.987 350.13 C 152.861 349.912 152.617 349.79 152.367 349.82 C 148.394 350.326 144.444 350.15 140.517 349.29 C 139.985 349.173 139.484 349.585 139.497 350.13 L 139.537 352.62 Z M 155.987 357.01 L 156.917 403.84 C 156.927 404.363 157.318 404.801 157.837 404.87 C 164.244 405.716 170.587 406.026 176.867 405.8 L 182.307 405.78 C 182.913 405.783 183.39 405.259 183.337 404.65 C 182.467 395.05 184.337 384.21 186.217 374.73 C 186.347 374.07 186.857 373.48 187.067 372.82 C 187.194 372.413 187.05 372.17 186.637 372.09 C 185.23 371.816 184.31 371.26 183.877 370.42 C 188.367 370.29 194.217 371.28 197.727 374.47 C 197.974 374.683 198.134 374.95 198.207 375.27 L 199.127 378.97 L 205.357 403.9 C 205.499 404.458 206.001 404.849 206.577 404.85 L 210.567 404.83 C 217.434 404.803 224.087 404.22 230.527 403.08 C 230.665 403.055 230.763 402.935 230.757 402.8 L 230.207 356.8 C 230.967 355.326 231.067 353.75 230.507 352.07 C 230.38 351.696 230.134 351.58 229.767 351.72 C 225.68 353.306 222.504 354.313 220.237 354.74 C 204.577 357.686 187.92 358.523 170.267 357.25 C 164.407 356.823 159.364 355.376 155.137 352.91 C 154.877 352.756 154.65 352.8 154.457 353.04 C 154.11 353.486 154.1 353.936 154.427 354.39 C 155.334 355.643 155.854 356.516 155.987 357.01 Z M 211.077 407.14 L 208.437 406.9 C 208.044 406.866 207.874 407.046 207.927 407.44 L 209.297 418.38 C 209.344 418.72 209.204 418.833 208.877 418.72 C 207.99 418.426 207.38 414.623 207.047 407.31 C 207.034 407.123 206.937 407.01 206.757 406.97 L 202.837 406.13 C 202.698 406.099 202.572 406.22 202.597 406.36 L 205.307 419.42 C 205.443 420.087 206.021 420.569 206.697 420.58 L 210.427 420.66 C 210.974 420.666 211.207 420.4 211.127 419.86 L 209.527 409.42 C 209.48 409.126 209.607 408.973 209.907 408.96 L 210.217 408.95 C 210.393 408.942 210.547 409.066 210.577 409.24 L 212.217 419.79 C 212.311 420.39 212.825 420.831 213.427 420.83 C 220.347 420.836 226.954 419.906 233.247 418.04 C 234.234 417.746 234.66 416.966 234.527 415.7 C 234.187 410.906 234.097 407.046 234.257 404.12 C 234.317 403.1 234.064 402.34 233.497 401.84 C 233.23 401.607 232.811 401.75 232.743 402.098 C 232.74 402.112 232.738 402.126 232.737 402.14 C 232.69 402.593 232.807 402.996 233.087 403.35 C 233.449 403.816 233.271 404.499 232.727 404.73 C 231.834 405.123 230.924 405.4 229.997 405.56 C 223.924 406.633 217.617 407.16 211.077 407.14 Z M 161.097 419.77 C 168.77 421.096 173.827 421.553 176.267 421.14 C 178.887 420.686 181.427 420.426 183.887 420.36 C 185.194 420.328 186.245 419.276 186.277 417.97 L 186.557 406.84 C 186.597 405.366 186.057 405.106 184.937 406.06 L 184.537 406.4 C 183.83 407 183.517 407.76 183.597 408.68 C 183.91 412.273 183.737 415.833 183.077 419.36 C 183.037 419.553 182.92 419.626 182.727 419.58 L 182.427 419.51 C 182.247 419.463 182.16 419.346 182.167 419.16 L 182.667 407.68 C 182.68 407.426 182.564 407.33 182.317 407.39 L 181.237 407.68 C 181.12 407.709 181.04 407.814 181.047 407.93 L 181.107 419.24 C 181.107 419.617 180.809 419.924 180.437 419.93 L 180.027 419.93 C 179.927 419.93 179.877 419.88 179.877 419.78 L 180.197 408.64 C 180.21 408.246 180.02 408.06 179.627 408.08 L 175.737 408.26 C 170.43 408.533 165.184 408.233 159.997 407.36 C 158.117 407.046 156.194 406.4 154.227 405.42 C 153.762 405.197 153.712 404.554 154.138 404.263 C 154.181 404.233 154.228 404.209 154.277 404.19 C 154.57 404.076 154.667 403.9 154.567 403.66 C 154.467 403.42 154.334 403.403 154.167 403.61 C 152.267 406.01 153.457 414.9 153.587 417.87 C 153.62 418.602 154.191 419.195 154.917 419.25 L 161.097 419.77 Z M 225.447 422.76 C 220.247 423.96 219.097 428.5 218.847 433.19 C 218.827 433.57 219.007 433.763 219.387 433.77 L 223.487 433.87 C 223.847 433.876 224.077 433.71 224.177 433.37 C 224.904 430.863 226.044 428.55 227.597 426.43 C 229.304 424.096 231.53 422.733 234.277 422.34 C 234.513 422.307 234.626 422.031 234.479 421.842 C 234.478 421.841 234.478 421.841 234.477 421.84 L 234.107 421.34 C 233.941 421.118 233.662 421.01 233.387 421.06 C 230.774 421.573 228.127 422.14 225.447 422.76 Z M 164.877 422.99 C 161.357 422.576 158.684 422.356 156.857 422.33 C 156.784 422.33 156.727 422.356 156.687 422.41 C 156.62 422.503 156.55 422.593 156.477 422.68 C 156.41 422.76 156.427 422.816 156.527 422.85 C 162.207 424.743 165.55 428.7 166.557 434.72 C 166.588 434.907 166.758 435.038 166.947 435.02 L 171.897 434.6 C 172.06 434.584 172.183 434.444 172.177 434.28 C 172.007 430.13 169.827 423.56 164.877 422.99 Z M 170.327 423.94 C 172.877 427.16 173.437 429.74 173.827 433.77 C 173.867 434.15 174.077 434.326 174.457 434.3 L 182.347 433.78 C 182.639 433.764 182.867 433.522 182.867 433.23 L 182.817 423.91 C 182.817 423.635 182.591 423.414 182.317 423.42 L 170.447 423.69 C 170.24 423.696 170.2 423.78 170.327 423.94 Z M 240.987 424.46 C 234.577 420.2 226.977 426.95 226.087 433.5 C 226.02 433.973 226.227 434.226 226.707 434.26 C 232.1 434.58 237.047 434.68 241.547 434.56 C 242.76 434.533 243.464 433.883 243.657 432.61 C 244.244 428.756 243.354 426.04 240.987 424.46 Z M 219.547 423.64 L 208.567 423.57 C 208.247 423.57 208.087 423.73 208.087 424.05 L 208.107 432.31 C 208.107 432.641 208.366 432.914 208.697 432.93 L 216.717 433.42 C 217.01 433.44 217.15 433.303 217.137 433.01 C 217.05 429.736 217.937 426.776 219.797 424.13 C 219.936 423.935 219.812 423.664 219.574 423.641 C 219.565 423.64 219.556 423.64 219.547 423.64 Z M 165.027 434.59 C 163.677 429.94 161.677 426.3 157.017 424.55 C 153.89 423.37 151.2 423.873 148.947 426.06 C 146.727 428.22 146.907 431.29 147.387 434.13 C 147.447 434.483 147.647 434.72 147.987 434.84 C 152.317 436.37 159.957 435.68 164.597 435.23 C 164.997 435.19 165.14 434.976 165.027 434.59 Z M 242.857 435.61 C 240.697 436.256 239.164 436.596 238.257 436.63 C 228.297 437.03 218.514 436.276 208.907 434.37 C 208.3 434.25 208.004 434.496 208.017 435.11 L 208.027 435.47 C 208.04 436.216 208.417 436.626 209.157 436.7 C 220.207 437.77 231.587 439.33 242.477 437.46 C 243.07 437.36 243.39 437.01 243.437 436.41 L 243.467 436.11 C 243.494 435.776 243.179 435.518 242.857 435.61 Z M 150.297 436.96 C 149.457 436.793 148.684 436.65 147.977 436.53 C 147.577 436.456 147.417 436.616 147.497 437.01 L 147.547 437.29 C 147.647 437.783 147.94 438.093 148.427 438.22 C 150.687 438.8 152.797 439.1 154.757 439.12 C 162.77 439.206 171.77 438.666 181.757 437.5 C 182.347 437.429 182.812 436.961 182.877 436.37 L 182.917 436.05 C 182.99 435.37 182.694 435.096 182.027 435.23 C 172.527 437.09 159.907 438.86 150.297 436.96 Z" transform="matrix(0.9999999999999999, 0, 0, 0.9999999999999999, -7.105427357601002e-15, 1.4210854715202004e-14)"/>
  <path d="M 266.757 169 C 264.037 178 256.027 185.79 248.877 191.06 C 247.647 191.96 241.592 213.963 240.302 213.513 C 235.769 211.899 237.537 188.036 234.737 186.61 C 233.724 186.09 232.744 184.41 231.797 181.57 L 235.247 181.74 C 235.454 181.753 235.6 181.663 235.687 181.47 C 235.747 181.336 235.754 181.22 235.707 181.12 C 235.674 181.06 235.604 181.006 235.497 180.96 C 228.947 178.29 223.677 176.2 219.417 170.72 C 216.31 166.72 213.287 162.66 210.347 158.54 C 209.594 157.48 208.654 156.653 207.527 156.06 C 207.18 155.873 206.964 155.973 206.877 156.36 C 206.757 156.88 207 157.346 207.607 157.76 C 207.227 158.646 207.124 159.52 207.297 160.38 C 208.55 166.5 209.04 172.713 208.767 179.02 C 208.747 179.38 208.564 179.606 208.217 179.7 L 195.567 183.07 C 194.514 183.29 193.63 183.173 192.917 182.72 C 192.357 182.373 191.99 181.676 191.817 180.63 C 190.457 172.69 187.577 159.83 182.087 153.73 C 181.768 153.375 181.184 153.499 181.036 153.952 C 181.013 154.026 181.003 154.103 181.007 154.18 L 181.187 157.16 L 177.127 175.87 C 176.988 176.493 176.565 177.012 175.987 177.27 C 171.457 179.29 167.607 179.6 162.457 180.35 C 163.144 173.303 163.987 166.313 164.987 159.38 C 165.22 157.793 165.26 156.703 165.107 156.11 C 164.994 155.643 164.71 155.456 164.257 155.55 C 163.937 155.616 163.727 155.803 163.627 156.11 L 163.237 157.29 C 159.627 159.4 156.287 167.36 154.577 171.17 C 153.177 174.28 151.147 176.07 148.277 177.42 C 144.804 179.06 140.994 180.28 136.847 181.08 L 131.787 181.11 C 131.192 181.114 130.753 180.557 130.897 179.98 C 132.667 172.73 136.167 168.03 139.867 161.59 C 140.015 161.337 139.835 161.02 139.542 161.017 C 139.527 161.017 139.512 161.018 139.497 161.02 C 138.91 161.08 138.344 161.596 137.797 162.57 L 124.217 169.82 C 129.487 156.51 142.627 144.54 154.957 138.79 C 175.437 129.24 205.617 120.97 227.777 128.56 C 240.147 132.79 249.697 141.87 256.807 152.64 C 257.7 153.993 258.667 155.173 259.707 156.18 C 263.537 159.89 266.307 163.39 266.757 169 Z" style="" transform="matrix(0.9999999999999999, 0, 0, 0.9999999999999999, -7.105427357601002e-15, 1.4210854715202004e-14)"/>
  <path fill="#020101" d="M 311.543 147.858 C 307.459 153.239 299.602 154.149 293.993 149.891 C 288.384 145.634 287.147 137.821 291.231 132.441 C 295.315 127.061 303.172 126.151 308.781 130.408 C 314.39 134.666 315.626 142.478 311.543 147.858 Z M 308.938 147.581 C 312.91 143.609 312.65 136.91 308.358 132.618 C 304.066 128.327 297.368 128.067 293.396 132.039 C 289.424 136.01 289.684 142.709 293.976 147.001 C 298.268 151.293 304.966 151.553 308.938 147.581 Z" transform="matrix(0.9999999999999999, 0, 0, 0.9999999999999999, -7.105427357601002e-15, 1.4210854715202004e-14)"/>
  <ellipse transform="matrix(0.7071070075035094, 0.7071070075035094, -0.7071070075035094, 0.7071070075035094, 301.1672102982879, 139.8099233479786)" rx="10.99" ry="10.17" style="fill: rgb(89, 255, 100);"/>
  <path d="M 181.187 157.16 C 181.834 165.34 182 173.503 181.687 181.65 C 181.671 181.984 181.392 182.246 181.057 182.24 C 176.984 182.146 172.887 182.07 168.767 182.01 C 166.914 181.983 164.81 181.43 162.457 180.35 C 167.607 179.6 171.457 179.29 175.987 177.27 C 176.565 177.012 176.988 176.493 177.127 175.87 L 181.187 157.16 Z" style="fill: rgb(6, 6, 6);" transform="matrix(0.9999999999999999, 0, 0, 0.9999999999999999, -7.105427357601002e-15, 1.4210854715202004e-14)"/>
  <path d="M 163.237 157.29 C 163.444 157.83 163.47 158.366 163.317 158.9 C 161.197 166.066 158.62 172.076 155.587 176.93 C 153.657 180.02 140.297 181.12 136.847 181.08 C 140.994 180.28 144.804 179.06 148.277 177.42 C 151.147 176.07 153.177 174.28 154.577 171.17 C 156.287 167.36 159.627 159.4 163.237 157.29 Z" style="fill: rgb(7, 7, 7);" transform="matrix(0.9999999999999999, 0, 0, 0.9999999999999999, -7.105427357601002e-15, 1.4210854715202004e-14)"/>
  <path d="M 207.607 157.76 C 210.367 161.986 212.327 166.103 213.487 170.11 C 214.04 172.023 214.887 175.76 216.027 181.32 C 216.054 181.453 216.104 181.573 216.177 181.68 C 216.304 181.84 216.384 181.94 216.417 181.98 C 216.7 182.324 216.512 182.845 216.078 182.917 C 216.071 182.918 216.064 182.919 216.057 182.92 C 209.29 183.853 202.46 183.903 195.567 183.07 L 208.217 179.7 C 208.564 179.606 208.747 179.38 208.767 179.02 C 209.04 172.713 208.55 166.5 207.297 160.38 C 207.124 159.52 207.227 158.646 207.607 157.76 Z" style="fill: rgb(9, 9, 9);" transform="matrix(0.9999999999999999, 0, 0, 0.9999999999999999, -7.105427357601002e-15, 1.4210854715202004e-14)"/>
  <path fill="#e5ac85" d="M 231.207 211.77 C 226.274 203.383 224.207 193.823 225.007 183.09 C 225.04 182.663 224.874 182.333 224.507 182.1 C 223.46 181.42 222.324 181.043 221.097 180.97 C 220.777 180.95 220.6 181.1 220.567 181.42 L 220.097 185.87 C 220.042 186.383 219.718 186.829 219.247 187.04 C 215.557 188.68 213.687 188.44 209.017 187.82 C 207.17 187.573 205.45 187.73 203.857 188.29 C 201.77 187.403 199.91 187.416 198.277 188.33 C 198.184 188.216 198.13 188.056 198.117 187.85 C 198.104 187.556 197.95 187.41 197.657 187.41 C 194.717 187.39 191.797 187.173 188.897 186.76 C 187.517 186.566 186.11 186.656 184.677 187.03 C 178.027 188.77 171.537 188.01 164.767 187.79 C 161.54 187.683 157.944 186.476 153.977 184.17 C 152.917 183.556 152.294 183.77 152.107 184.81 C 151.267 183.436 149.8 182.993 147.707 183.48 L 143.497 183.38 C 152.917 181.9 156.647 180.33 160.687 171.64 C 160.762 171.446 161.018 171.405 161.149 171.567 C 161.195 171.624 161.216 171.697 161.207 171.77 C 161.027 176.33 158.627 182.3 165.177 183.68 C 171.044 184.92 176.53 185.11 181.637 184.25 C 183.117 184 184.017 182.58 184.077 181.05 C 184.31 174.43 184.22 168.08 183.807 162 C 183.68 160.1 183.894 160.06 184.447 161.88 C 186.487 168.57 188.257 175.43 190.687 181.99 C 191.607 184.49 192.797 184.94 195.267 185.27 C 201.597 186.13 210.857 186.76 216.967 184.74 C 217.863 184.441 218.47 183.605 218.477 182.66 C 218.49 178.973 217.95 175.37 216.857 171.85 C 216.803 171.665 216.969 171.491 217.156 171.537 C 217.213 171.551 217.262 171.583 217.297 171.63 C 220.157 175.58 223.777 178.6 229.277 180.82 C 229.604 180.953 229.734 181.193 229.667 181.54 C 227.787 191.46 228.3 201.536 231.207 211.77 Z" transform="matrix(0.9999999999999999, 0, 0, 0.9999999999999999, -7.105427357601002e-15, 1.4210854715202004e-14)"/>
  <path d="M 137.797 162.57 C 133.237 168.23 130.157 173.14 129.297 180.59 C 129.192 181.477 129.729 182.313 130.577 182.58 L 132.667 183.24 C 133.039 183.361 133.254 183.746 133.157 184.12 L 130.617 194.16 C 130.506 194.598 129.979 194.773 129.627 194.49 C 125.487 191.22 122.287 187.02 122.047 181.5 C 121.874 177.373 122.597 173.48 124.217 169.82 L 137.797 162.57 Z" style="" transform="matrix(0.9999999999999999, 0, 0, 0.9999999999999999, -7.105427357601002e-15, 1.4210854715202004e-14)"/>
  <path d="M 266.757 169 C 267.517 170.973 267.94 172.676 268.027 174.11 C 268.727 185.94 268.967 198.82 266.807 210.55 C 266.74 210.911 266.334 211.096 266.017 210.91 C 263.224 209.29 260.134 208.593 256.747 208.82 C 249.087 209.33 245.107 212.68 239.387 216.33 C 238.54 216.877 237.407 216.586 236.927 215.7 C 234.06 210.48 232.287 205.033 231.607 199.36 C 231.054 194.693 231.117 188.763 231.797 181.57 C 232.744 184.41 233.724 186.09 234.737 186.61 C 237.537 188.036 241.204 189.556 245.737 191.17 C 247.027 191.62 247.647 191.96 248.877 191.06 C 256.027 185.79 264.037 178 266.757 169 Z" style="fill: rgb(11, 11, 11);" transform="matrix(0.9999999999999999, 0, 0, 0.9999999999999999, -7.105427357601002e-15, 1.4210854715202004e-14)"/>
  <path fill="#ffdbc3" d="M 231.207 211.77 L 234.877 217.78 C 235.044 218.053 235.284 218.203 235.597 218.23 C 238.224 218.49 239.954 218.283 240.787 217.61 C 246.667 212.82 252.337 209.77 260.237 211.13 C 269.397 212.7 269.107 220.05 265.537 226.86 C 263.757 227.88 262.257 228.73 260.667 230.21 C 255.837 234.69 250.047 239.4 242.757 237.96 C 240.524 237.513 238.9 237.16 237.887 236.9 C 237.539 236.807 237.172 236.898 236.917 237.14 C 231.267 242.44 225.747 248.72 219.687 252.79 C 214.42 256.33 209.517 258.816 204.977 260.25 C 192.707 264.14 181.657 266.88 169.667 265.52 C 159.647 264.38 148.147 259.36 140.097 253.08 C 138.53 251.853 136.967 250.616 135.407 249.37 C 135.307 249.29 135.194 249.243 135.067 249.23 C 135.02 249.223 134.997 249.2 134.997 249.16 C 134.997 249.06 135 248.96 135.007 248.86 C 135.007 248.719 134.887 248.608 134.747 248.62 C 134.027 248.66 133.674 248.47 133.687 248.05 C 133.707 247.656 133.53 247.396 133.157 247.27 C 132.804 247.15 132.39 247.103 131.917 247.13 C 129.904 240.77 129.124 234.096 129.577 227.11 C 130.524 212.583 132.53 198.296 135.597 184.25 C 135.699 183.803 136.088 183.484 136.537 183.48 L 143.497 183.38 L 147.707 183.48 C 145.437 184.7 139.467 187.81 138.407 189.83 C 138.054 190.51 138.247 190.75 138.987 190.55 L 151.007 187.33 C 151.89 187.094 152.533 186.478 152.637 185.77 C 152.657 185.636 152.48 185.316 152.107 184.81 C 152.294 183.77 152.917 183.556 153.977 184.17 C 157.944 186.476 161.54 187.683 164.767 187.79 C 171.537 188.01 178.027 188.77 184.677 187.03 C 186.11 186.656 187.517 186.566 188.897 186.76 C 191.797 187.173 194.717 187.39 197.657 187.41 C 197.95 187.41 198.104 187.556 198.117 187.85 C 198.13 188.056 198.184 188.216 198.277 188.33 C 197.57 188.69 197.05 189.053 196.717 189.42 C 196.395 189.782 196.569 190.356 197.037 190.48 C 200.65 191.433 204.23 192.563 207.777 193.87 C 208.69 194.203 209.374 194.403 209.827 194.47 C 210.927 194.623 211.104 194.286 210.357 193.46 C 208.637 191.573 206.47 189.85 203.857 188.29 C 205.45 187.73 207.17 187.573 209.017 187.82 C 213.687 188.44 215.557 188.68 219.247 187.04 C 219.718 186.829 220.042 186.383 220.097 185.87 L 220.567 181.42 C 220.6 181.1 220.777 180.95 221.097 180.97 C 222.324 181.043 223.46 181.42 224.507 182.1 C 224.874 182.333 225.04 182.663 225.007 183.09 C 224.207 193.823 226.274 203.383 231.207 211.77 Z M 137.557 208.05 C 138.277 210.45 138.427 214.31 140.747 216.5 C 144.48 218.44 148.597 218.933 153.097 217.98 C 153.392 217.918 153.619 217.684 153.667 217.39 C 153.714 217.163 153.647 217.006 153.467 216.92 C 155.517 215.71 156.547 212 157.387 209.86 C 157.514 209.553 157.437 209.216 157.157 208.85 C 157.397 208.756 157.517 208.59 157.517 208.35 C 157.607 200.16 150.027 195.08 142.767 199.88 C 139.44 202.08 137.704 204.803 137.557 208.05 Z M 191.347 209.71 C 191.354 213.03 192.097 216.166 193.577 219.12 C 193.61 219.2 193.67 219.24 193.757 219.24 C 193.864 219.24 193.954 219.243 194.027 219.25 C 194.114 219.45 194.207 219.613 194.307 219.74 C 194.4 219.866 194.547 219.963 194.747 220.03 C 197.337 220.87 203.967 222.01 206.347 220.6 C 206.954 220.24 207.084 219.936 206.737 219.69 C 208.297 219.49 209.494 218.38 210.327 216.36 C 211.167 214.333 211.924 212.24 212.597 210.08 C 210.087 197.99 196.277 197.62 191.077 208.16 C 190.704 208.913 190.794 209.43 191.347 209.71 Z M 163.557 226.71 C 164.07 226.67 164.6 226.72 165.147 226.86 C 165.454 226.933 165.694 226.94 165.867 226.88 C 166.207 226.76 166.42 226.483 166.507 226.05 C 166.575 225.74 166.471 225.419 166.237 225.21 L 162.377 221.8 L 164.467 218.7 C 164.894 218.073 164.77 217.933 164.097 218.28 C 160.887 219.93 158.847 226.92 163.557 226.71 Z M 243.967 227.16 C 244.427 227.74 244.84 228.44 245.207 229.26 C 247.457 234.24 251.857 233.77 254.807 229.86 C 256.18 228.04 257.077 226.123 257.497 224.11 C 257.437 219.9 254.657 217.88 250.737 219.41 C 247.424 220.71 245.167 223.293 243.967 227.16 Z M 168.359 262.97 C 171.899 262.988 174.795 258.074 174.827 251.993 C 174.859 245.913 172.015 240.968 168.475 240.95 C 164.935 240.931 162.039 245.846 162.007 251.926 C 161.975 258.007 164.819 262.951 168.359 262.97 Z" transform="matrix(0.9999999999999999, 0, 0, 0.9999999999999999, -7.105427357601002e-15, 1.4210854715202004e-14)"/>
  <path fill="#020101" d="M 152.107 184.81 C 152.48 185.316 152.657 185.636 152.637 185.77 C 152.533 186.478 151.89 187.094 151.007 187.33 L 138.987 190.55 C 138.247 190.75 138.054 190.51 138.407 189.83 C 139.467 187.81 145.437 184.7 147.707 183.48 C 149.8 182.993 151.267 183.436 152.107 184.81 Z" transform="matrix(0.9999999999999999, 0, 0, 0.9999999999999999, -7.105427357601002e-15, 1.4210854715202004e-14)"/>
  <path fill="#020101" d="M 203.857 188.29 C 206.47 189.85 208.637 191.573 210.357 193.46 C 211.104 194.286 210.927 194.623 209.827 194.47 C 209.374 194.403 208.69 194.203 207.777 193.87 C 204.23 192.563 200.65 191.433 197.037 190.48 C 196.569 190.356 196.395 189.782 196.717 189.42 C 197.05 189.053 197.57 188.69 198.277 188.33 C 199.91 187.416 201.77 187.403 203.857 188.29 Z" transform="matrix(0.9999999999999999, 0, 0, 0.9999999999999999, -7.105427357601002e-15, 1.4210854715202004e-14)"/>
  <path fill="#020101" d="M 157.157 208.85 C 155.477 204.29 152.317 198.88 146.567 200.12 C 145.76 200.293 145.747 200.516 146.527 200.79 C 149.287 201.74 150.067 206.31 149.107 208.55 C 147.217 212.92 140.407 210.77 140.097 206.69 C 139.944 204.703 139.62 204.676 139.127 206.61 C 138.92 207.436 138.397 207.916 137.557 208.05 C 137.704 204.803 139.44 202.08 142.767 199.88 C 150.027 195.08 157.607 200.16 157.517 208.35 C 157.517 208.59 157.397 208.756 157.157 208.85 Z M 144.147 204.52 C 144.147 203.852 143.605 203.31 142.937 203.31 C 142.269 203.31 141.727 203.852 141.727 204.52 C 141.727 205.188 142.269 205.73 142.937 205.73 C 143.605 205.73 144.147 205.188 144.147 204.52 Z" transform="matrix(0.9999999999999999, 0, 0, 0.9999999999999999, -7.105427357601002e-15, 1.4210854715202004e-14)"/>
  <path fill="#f5f5f6" d="M 157.157 208.85 C 157.437 209.216 157.514 209.553 157.387 209.86 C 156.547 212 155.517 215.71 153.467 216.92 L 140.747 216.5 C 138.427 214.31 138.277 210.45 137.557 208.05 C 138.397 207.916 138.92 207.436 139.127 206.61 C 139.62 204.676 139.944 204.703 140.097 206.69 C 140.407 210.77 147.217 212.92 149.107 208.55 C 150.067 206.31 149.287 201.74 146.527 200.79 C 145.747 200.516 145.76 200.293 146.567 200.12 C 152.317 198.88 155.477 204.29 157.157 208.85 Z" transform="matrix(0.9999999999999999, 0, 0, 0.9999999999999999, -7.105427357601002e-15, 1.4210854715202004e-14)"/>
  <path fill="#020101" d="M 212.597 210.08 C 209.497 206.74 205.587 202.02 200.617 202.76 C 200.374 202.799 200.264 203.087 200.42 203.278 C 200.439 203.301 200.462 203.322 200.487 203.34 C 202.794 204.846 203.687 207.086 203.167 210.06 C 202.137 215.93 193.387 214.04 194.037 207.87 C 194.076 207.471 193.669 207.18 193.305 207.345 C 193.232 207.379 193.168 207.428 193.117 207.49 L 191.347 209.71 C 190.794 209.43 190.704 208.913 191.077 208.16 C 196.277 197.62 210.087 197.99 212.597 210.08 Z M 197.038 208.204 C 197.736 208.142 198.244 207.436 198.172 206.627 C 198.1 205.818 197.475 205.213 196.776 205.276 C 196.078 205.338 195.57 206.044 195.642 206.853 C 195.714 207.661 196.339 208.266 197.038 208.204 Z" transform="matrix(0.9999999999999999, 0, 0, 0.9999999999999999, -7.105427357601002e-15, 1.4210854715202004e-14)"/>
  <path fill="#f5f5f6" d="M 212.597 210.08 C 211.924 212.24 211.167 214.333 210.327 216.36 C 209.494 218.38 208.297 219.49 206.737 219.69 C 202.537 220.016 198.3 219.87 194.027 219.25 C 193.954 219.243 193.864 219.24 193.757 219.24 C 193.67 219.24 193.61 219.2 193.577 219.12 C 192.097 216.166 191.354 213.03 191.347 209.71 L 193.117 207.49 C 193.37 207.18 193.864 207.261 194.006 207.635 C 194.034 207.71 194.045 207.79 194.037 207.87 C 193.387 214.04 202.137 215.93 203.167 210.06 C 203.687 207.086 202.794 204.846 200.487 203.34 C 200.284 203.201 200.307 202.894 200.529 202.787 C 200.557 202.774 200.587 202.765 200.617 202.76 C 205.587 202.02 209.497 206.74 212.597 210.08 Z" transform="matrix(0.9999999999999999, 0, 0, 0.9999999999999999, -7.105427357601002e-15, 1.4210854715202004e-14)"/>
  <circle fill="#f5f5f6" cx="142.937" cy="204.52" r="1.21" transform="matrix(0.9999999999999999, 0, 0, 0.9999999999999999, -7.105427357601002e-15, 1.4210854715202004e-14)"/>
  <ellipse fill="#f5f5f6" transform="matrix(0.08889400959014891, 0.9960409998893737, -0.9960409998893737, 0.08889400959014891, 196.90718372027845, 206.73993227988373)" rx="1.47" ry="1.27"/>
  <path fill="#020101" d="M 140.747 216.5 L 153.467 216.92 C 153.647 217.006 153.714 217.163 153.667 217.39 C 153.619 217.684 153.392 217.918 153.097 217.98 C 148.597 218.933 144.48 218.44 140.747 216.5 Z" transform="matrix(0.9999999999999999, 0, 0, 0.9999999999999999, -7.105427357601002e-15, 1.4210854715202004e-14)"/>
  <path fill="#020101" d="M 162.377 221.8 C 161.977 223.173 162.37 224.81 163.557 226.71 C 158.847 226.92 160.887 219.93 164.097 218.28 C 164.77 217.933 164.894 218.073 164.467 218.7 L 162.377 221.8 Z" transform="matrix(0.9999999999999999, 0, 0, 0.9999999999999999, -7.105427357601002e-15, 1.4210854715202004e-14)"/>
  <path fill="#020101" d="M 257.497 224.11 C 256.684 223.77 256.13 223.133 255.837 222.2 C 255.722 221.836 255.462 221.533 255.117 221.36 C 253.024 220.293 251.13 220.613 249.437 222.32 C 249.177 222.58 249.22 222.766 249.567 222.88 C 255.057 224.68 252.777 231.46 247.327 230.19 C 246.874 230.083 246.6 229.803 246.507 229.35 L 246.417 228.89 C 246.297 228.336 246.504 228.163 247.037 228.37 C 248.384 228.903 249.524 228.7 250.457 227.76 C 251.412 226.806 251.153 225.196 249.947 224.59 C 248.314 223.77 246.32 224.626 243.967 227.16 C 245.167 223.293 247.424 220.71 250.737 219.41 C 254.657 217.88 257.437 219.9 257.497 224.11 Z" transform="matrix(0.9999999999999999, 0, 0, 0.9999999999999999, -7.105427357601002e-15, 1.4210854715202004e-14)"/>
  <path fill="#020101" d="M 194.027 219.25 C 198.3 219.87 202.537 220.016 206.737 219.69 C 207.084 219.936 206.954 220.24 206.347 220.6 C 203.967 222.01 197.337 220.87 194.747 220.03 C 194.547 219.963 194.4 219.866 194.307 219.74 C 194.207 219.613 194.114 219.45 194.027 219.25 Z" transform="matrix(0.9999999999999999, 0, 0, 0.9999999999999999, -7.105427357601002e-15, 1.4210854715202004e-14)"/>
  <path fill="#e5ac85" d="M 257.497 224.11 C 257.077 226.123 256.18 228.04 254.807 229.86 C 251.857 233.77 247.457 234.24 245.207 229.26 C 244.84 228.44 244.427 227.74 243.967 227.16 C 246.32 224.626 248.314 223.77 249.947 224.59 C 251.153 225.196 251.412 226.806 250.457 227.76 C 249.524 228.7 248.384 228.903 247.037 228.37 C 246.504 228.163 246.297 228.336 246.417 228.89 L 246.507 229.35 C 246.6 229.803 246.874 230.083 247.327 230.19 C 252.777 231.46 255.057 224.68 249.567 222.88 C 249.22 222.766 249.177 222.58 249.437 222.32 C 251.13 220.613 253.024 220.293 255.117 221.36 C 255.462 221.533 255.722 221.836 255.837 222.2 C 256.13 223.133 256.684 223.77 257.497 224.11 Z" transform="matrix(0.9999999999999999, 0, 0, 0.9999999999999999, -7.105427357601002e-15, 1.4210854715202004e-14)"/>
  <path fill="#e5ac85" d="M 162.377 221.8 L 166.237 225.21 C 166.471 225.419 166.575 225.74 166.507 226.05 C 166.42 226.483 166.207 226.76 165.867 226.88 C 165.694 226.94 165.454 226.933 165.147 226.86 C 164.6 226.72 164.07 226.67 163.557 226.71 C 162.37 224.81 161.977 223.173 162.377 221.8 Z" transform="matrix(0.9999999999999999, 0, 0, 0.9999999999999999, -7.105427357601002e-15, 1.4210854715202004e-14)"/>
  <path fill="#e5ac85" d="M 265.537 226.86 C 262.944 231.3 259.687 235.096 255.767 238.25 C 249.597 243.22 244.067 244.38 236.927 240.92 C 236.34 240.633 235.834 240.736 235.407 241.23 C 219.677 259.35 200.007 269.96 175.597 269.46 C 169.877 269.346 164.247 268.386 158.707 266.58 C 147.837 263.04 137.277 257.95 131.917 247.13 C 132.39 247.103 132.804 247.15 133.157 247.27 C 133.53 247.396 133.707 247.656 133.687 248.05 C 133.674 248.47 134.027 248.66 134.747 248.62 C 134.887 248.608 135.007 248.719 135.007 248.86 C 135 248.96 134.997 249.06 134.997 249.16 C 134.997 249.2 135.02 249.223 135.067 249.23 C 135.194 249.243 135.307 249.29 135.407 249.37 C 136.967 250.616 138.53 251.853 140.097 253.08 C 148.147 259.36 159.647 264.38 169.667 265.52 C 181.657 266.88 192.707 264.14 204.977 260.25 C 209.517 258.816 214.42 256.33 219.687 252.79 C 225.747 248.72 231.267 242.44 236.917 237.14 C 237.172 236.898 237.539 236.807 237.887 236.9 C 238.9 237.16 240.524 237.513 242.757 237.96 C 250.047 239.4 255.837 234.69 260.667 230.21 C 262.257 228.73 263.757 227.88 265.537 226.86 Z" transform="matrix(0.9999999999999999, 0, 0, 0.9999999999999999, -7.105427357601002e-15, 1.4210854715202004e-14)"/>
  <path d="M 228.487 297.71 C 229.14 296.59 229.86 295.756 230.647 295.21 C 240.927 287.996 250.944 280.433 260.697 272.52 C 262.157 271.326 262.907 269.753 262.947 267.8 C 263.08 260.133 262.69 252.406 261.777 244.62 C 261.736 244.245 261.305 244.054 261 244.277 C 260.999 244.278 260.998 244.279 260.997 244.28 C 256.71 247.36 251.827 249.28 246.347 250.04 L 245.727 246.37 C 245.673 246.064 245.888 245.775 246.197 245.74 C 252.957 244.94 258.617 240.73 262.877 235.44 C 263.15 235.096 263.693 235.177 263.853 235.586 C 263.863 235.61 263.871 235.635 263.877 235.66 C 265.85 243.806 267.12 252.123 267.687 260.61 C 268.217 268.6 266.077 275.24 259.177 279.78 C 249.107 286.42 240.547 292.58 228.487 297.71 Z" style="fill: rgb(60, 5, 250);" transform="matrix(0.9999999999999999, 0, 0, 0.9999999999999999, -7.105427357601002e-15, 1.4210854715202004e-14)"/>
  <path fill="#020101" d="M 168.359 262.97 C 164.819 262.951 161.975 258.007 162.007 251.926 C 162.039 245.846 164.935 240.931 168.475 240.95 C 172.015 240.968 174.859 245.913 174.827 251.993 C 174.795 258.074 171.899 262.988 168.359 262.97 Z M 164.597 254.42 L 172.287 254.23 C 172.447 254.23 172.577 254.1 172.577 253.94 L 172.507 251.25 C 172.386 246.3 170.487 242.333 168.267 242.39 L 168.027 242.39 C 165.807 242.444 164.105 246.501 164.227 251.45 L 164.297 254.14 C 164.302 254.3 164.437 254.425 164.597 254.42 Z M 171.597 258.23 C 172.496 257.156 171.896 255.511 170.516 255.269 C 170.47 255.261 170.423 255.254 170.377 255.25 L 168.277 255.05 C 167.974 255.018 167.668 255.063 167.387 255.18 L 165.837 255.84 C 164.549 256.391 164.34 258.129 165.461 258.97 C 165.48 258.983 165.498 258.997 165.517 259.01 L 167.597 260.44 C 168.371 260.974 169.424 260.831 170.027 260.11 L 171.597 258.23 Z" transform="matrix(0.9999999999999999, 0, 0, 0.9999999999999999, -7.105427357601002e-15, 1.4210854715202004e-14)"/>
  <path fill="#ff6759" d="M 164.597 254.42 C 164.437 254.425 164.302 254.3 164.297 254.14 L 164.227 251.45 C 164.105 246.501 165.807 242.444 168.027 242.39 L 168.267 242.39 C 170.487 242.333 172.386 246.3 172.507 251.25 L 172.577 253.94 C 172.577 254.1 172.447 254.23 172.287 254.23 L 164.597 254.42 Z" transform="matrix(0.9999999999999999, 0, 0, 0.9999999999999999, -7.105427357601002e-15, 1.4210854715202004e-14)"/>
  <path fill="#f5f5f6" d="M 242.197 257.38 C 241.93 258.013 241.79 258.676 241.777 259.37 C 241.77 259.756 241.587 260.016 241.227 260.15 C 235.807 262.203 230.587 264.683 225.567 267.59 C 225.307 267.743 224.99 267.775 224.697 267.68 C 222.337 266.933 220.694 267.666 219.767 269.88 C 219.614 270.24 219.344 270.456 218.957 270.53 C 216.697 270.936 214.544 271.663 212.497 272.71 C 212.17 272.876 211.827 272.936 211.467 272.89 C 210.394 272.75 209.397 272.93 208.477 273.43 C 208.117 273.63 207.76 273.626 207.407 273.42 C 206.047 272.633 204.654 272.633 203.227 273.42 C 202.92 273.588 202.542 273.553 202.277 273.33 L 199.837 271.25 C 198.983 270.518 199.2 269.143 200.237 268.71 C 212.607 263.55 223.267 258.13 232.607 248.22 C 233.86 246.886 235.11 245.55 236.357 244.21 C 236.592 243.955 236.967 243.886 237.277 244.04 C 239.11 244.98 241.05 245.526 243.097 245.68 C 243.457 245.706 243.664 245.9 243.717 246.26 L 245.137 255.96 C 245.177 256.273 245.04 256.45 244.727 256.49 L 243.107 256.69 C 242.699 256.738 242.351 257.003 242.197 257.38 Z" transform="matrix(0.9999999999999999, 0, 0, 0.9999999999999999, -7.105427357601002e-15, 1.4210854715202004e-14)"/>
  <path d="M 228.487 297.71 L 225.387 299.6 C 225.123 299.763 225.087 300.131 225.317 300.33 L 225.557 300.53 C 225.624 300.59 225.697 300.606 225.777 300.58 L 228.507 299.68 C 228.854 299.566 229.057 299.69 229.117 300.05 C 229.397 301.556 229.244 302.603 228.657 303.19 L 220.467 336.97 C 220.216 338.005 219.581 338.908 218.687 339.5 C 209.607 345.47 200.597 350.39 188.987 350.72 C 185.777 350.81 182.217 351.38 179.227 350.58 C 174.527 349.33 157.557 341.31 156.037 337.38 C 155.55 336.126 155.07 335.26 154.597 334.78 C 154.357 324.28 155.297 313.87 155.887 303.19 C 155.912 302.823 155.525 302.568 155.187 302.73 C 154.667 302.983 154.354 303.626 154.247 304.66 C 153.6 304.426 153.034 304.39 152.547 304.55 C 152.187 304.663 152.014 304.906 152.027 305.28 C 152.127 309.38 149.947 313.67 149.457 317.61 C 148.524 325.163 148.127 332.78 148.267 340.46 C 148.278 340.917 148.002 341.332 147.577 341.5 L 141.857 343.71 C 135.687 343.27 135.287 339.82 136.387 334.53 C 137.337 330.03 138.007 325.07 139.097 320.99 C 142.244 309.216 147.007 297.77 153.387 286.65 C 154.697 284.37 159.397 282.79 161.717 282.04 C 162.078 281.933 162.422 282.249 162.335 282.609 C 162.333 282.619 162.33 282.63 162.327 282.64 C 160.927 287.14 158.647 299.29 162.867 302.59 C 165.147 304.38 169.267 303.33 171.907 302.57 C 173.497 302.11 174.827 300.71 176.597 300.62 C 177.037 300.6 177.224 300.373 177.157 299.94 L 177.107 299.66 C 177.025 299.183 176.629 298.824 176.147 298.79 C 172.987 298.59 169.367 300.32 166.317 301.15 C 158.237 303.33 163.927 282.82 164.867 279.5 C 166.294 281.713 168.204 284.386 170.597 287.52 C 172.064 289.446 173.884 290.56 176.057 290.86 C 177.65 295.106 179.8 298.996 182.507 302.53 C 182.823 302.95 183.457 302.945 183.777 302.52 L 191.687 291.83 C 197.727 287.57 203.17 282.65 208.017 277.07 C 209.204 284.563 209.46 290.753 208.787 295.64 C 207.117 307.66 192.137 293.01 189.507 300.03 C 189.134 300.63 188.967 300.996 189.007 301.13 C 189.162 301.717 189.616 302.175 190.197 302.33 C 194.717 303.536 198.897 303.986 202.737 303.68 C 207.29 302.573 209.877 300.303 210.497 296.87 C 211.547 291.11 212.177 280.56 209.047 275.4 C 208.8 274.991 209.089 274.469 209.566 274.46 C 209.576 274.459 209.587 274.459 209.597 274.46 C 212.917 274.56 215.987 272.76 219.257 272 C 219.562 271.928 219.836 271.76 220.037 271.52 L 222.007 269.17 C 222.076 269.089 222.183 269.051 222.287 269.07 C 224.374 269.376 225.84 269.33 226.687 268.93 C 231.64 266.576 236.61 264.253 241.597 261.96 C 241.944 261.8 242.217 261.883 242.417 262.21 C 242.557 262.436 242.764 262.596 243.037 262.69 C 243.333 262.786 243.65 262.636 243.757 262.35 C 244.05 261.563 244.13 260.726 243.997 259.84 C 243.844 258.806 244.274 258.413 245.287 258.66 C 246.874 259.046 248.317 259.053 249.617 258.68 C 251.344 258.186 251.34 257.696 249.607 257.21 L 247.557 256.64 C 247.29 256.566 247.137 256.39 247.097 256.11 L 246.347 250.04 C 251.827 249.28 256.71 247.36 260.997 244.28 C 261.299 244.054 261.732 244.241 261.776 244.615 C 261.777 244.617 261.777 244.618 261.777 244.62 C 262.69 252.406 263.08 260.133 262.947 267.8 C 262.907 269.753 262.157 271.326 260.697 272.52 C 250.944 280.433 240.927 287.996 230.647 295.21 C 229.86 295.756 229.14 296.59 228.487 297.71 Z M 175.387 302.18 L 175.117 302.24 C 174.637 302.346 174.627 302.483 175.087 302.65 C 176.034 303.003 176.71 302.746 177.117 301.88 C 177.197 301.7 177.204 301.556 177.137 301.45 C 176.957 301.15 176.744 301.123 176.497 301.37 L 176.037 301.83 C 175.857 302.01 175.64 302.126 175.387 302.18 Z" style="fill: rgb(2, 48, 255);" transform="matrix(0.9999999999999999, 0, 0, 0.9999999999999999, -7.105427357601002e-15, 1.4210854715202004e-14)"/>
  <path fill="#ff6759" d="M 171.597 258.23 L 170.027 260.11 C 169.424 260.831 168.371 260.974 167.597 260.44 L 165.517 259.01 C 164.365 258.213 164.508 256.467 165.774 255.868 C 165.795 255.858 165.816 255.849 165.837 255.84 L 167.387 255.18 C 167.668 255.063 167.974 255.018 168.277 255.05 L 170.377 255.25 C 171.771 255.385 172.497 256.979 171.683 258.119 C 171.656 258.157 171.627 258.194 171.597 258.23 Z" transform="matrix(0.9999999999999999, 0, 0, 0.9999999999999999, -7.105427357601002e-15, 1.4210854715202004e-14)"/>
  <path fill="#e5ac85" d="M 193.697 276.08 C 187.81 277.24 182.394 277.823 177.447 277.83 C 176.1 276.463 175.044 274.976 174.277 273.37 C 173.954 272.686 174.479 271.907 175.227 271.96 C 182.74 272.46 190.087 271.606 197.267 269.4 C 197.614 269.3 197.82 269.423 197.887 269.77 C 198.107 270.863 197.887 271.8 197.227 272.58 C 195.78 274.3 194.604 275.466 193.697 276.08 Z" transform="matrix(0.9999999999999999, 0, 0, 0.9999999999999999, -7.105427357601002e-15, 1.4210854715202004e-14)"/>
  <path fill="#ffc831" d="M 181.447 288.38 C 181.732 288.822 182.315 288.962 182.777 288.7 C 189.017 285.06 194.447 279.01 199.367 273.74 C 199.647 273.44 199.957 273.406 200.297 273.64 L 200.787 273.98 C 201.082 274.181 201.165 274.581 200.977 274.89 C 195.457 283.65 188.667 291.34 183.167 300.17 C 182.94 300.536 182.747 300.52 182.587 300.12 C 178.517 289.76 176.187 284.05 171.357 275.46 C 171.159 275.109 171.306 274.662 171.677 274.49 L 171.957 274.36 C 172.152 274.268 172.385 274.332 172.507 274.51 L 181.447 288.38 Z" transform="matrix(0.9999999999999999, 0, 0, 0.9999999999999999, -7.105427357601002e-15, 1.4210854715202004e-14)"/>
  <path d="M 208.017 277.07 C 203.17 282.65 197.727 287.57 191.687 291.83 C 195.267 286.3 199.337 281.66 202.247 275.87 C 202.441 275.483 202.771 275.177 203.177 275.01 C 205.59 274.03 207.204 274.716 208.017 277.07 Z" style="fill: rgb(8, 47, 255);" transform="matrix(0.9999999999999999, 0, 0, 0.9999999999999999, -7.105427357601002e-15, 1.4210854715202004e-14)"/>
  <path fill="#ffdbc3" d="M 193.697 276.08 L 183.327 286.21 C 183.067 286.463 182.84 286.436 182.647 286.13 L 177.447 277.83 C 182.394 277.823 187.81 277.24 193.697 276.08 Z" transform="matrix(0.9999999999999999, 0, 0, 0.9999999999999999, -7.105427357601002e-15, 1.4210854715202004e-14)"/>
  <path d="M 176.057 290.86 C 173.884 290.56 172.064 289.446 170.597 287.52 C 168.204 284.386 166.294 281.713 164.867 279.5 C 165.674 277.84 167.007 276.736 168.867 276.19 C 169.22 276.083 169.474 276.2 169.627 276.54 L 176.057 290.86 Z" style="fill: rgb(21, 0, 255);" transform="matrix(0.9999999999999999, 0, 0, 0.9999999999999999, -7.105427357601002e-15, 1.4210854715202004e-14)"/>
  <path fill="#2a9567" d="M 189.507 300.03 C 193.854 300.543 198.264 301.76 202.737 303.68 C 198.897 303.986 194.717 303.536 190.197 302.33 C 189.616 302.175 189.162 301.717 189.007 301.13 C 188.967 300.996 189.134 300.63 189.507 300.03 Z" transform="matrix(0.9999999999999999, 0, 0, 0.9999999999999999, -7.105427357601002e-15, 1.4210854715202004e-14)"/>
  <path fill="#2a9567" d="M 176.037 301.83 L 176.497 301.37 C 176.744 301.123 176.957 301.15 177.137 301.45 C 177.204 301.556 177.197 301.7 177.117 301.88 C 176.71 302.746 176.034 303.003 175.087 302.65 C 174.627 302.483 174.637 302.346 175.117 302.24 L 175.387 302.18 C 175.64 302.126 175.857 302.01 176.037 301.83 Z" transform="matrix(0.9999999999999999, 0, 0, 0.9999999999999999, -7.105427357601002e-15, 1.4210854715202004e-14)"/>
  <path d="M 228.657 303.19 C 229.584 311.416 230.29 319.386 230.777 327.1 C 231.117 332.44 232.287 338.78 232.297 344.1 C 232.307 348.24 229.777 349.85 225.887 350.68 C 207.887 354.506 189.677 355.873 171.257 354.78 C 168.337 354.61 158.397 353.78 155.747 351.02 C 155.147 350.393 154.814 349.386 154.747 348 C 154.527 343.606 154.477 339.2 154.597 334.78 C 155.07 335.26 155.55 336.126 156.037 337.38 C 157.557 341.31 174.527 349.33 179.227 350.58 C 182.217 351.38 185.777 350.81 188.987 350.72 C 200.597 350.39 209.607 345.47 218.687 339.5 C 219.581 338.908 220.216 338.005 220.467 336.97 L 228.657 303.19 Z" style="fill: rgb(12, 50, 248);" transform="matrix(0.9999999999999999, 0, 0, 0.9999999999999999, -7.105427357601002e-15, 1.4210854715202004e-14)"/>
  <path d="M 154.247 304.66 C 153.974 305.633 153.684 306.623 153.377 307.63 C 152.697 309.83 153.247 311.91 152.977 314.11 C 151.744 324.263 151.43 334.203 152.037 343.93 C 152.057 344.283 151.89 344.446 151.537 344.42 L 141.857 343.71 L 147.577 341.5 C 148.002 341.332 148.278 340.917 148.267 340.46 C 148.127 332.78 148.524 325.163 149.457 317.61 C 149.947 313.67 152.127 309.38 152.027 305.28 C 152.014 304.906 152.187 304.663 152.547 304.55 C 153.034 304.39 153.6 304.426 154.247 304.66 Z" style="fill: rgb(2, 86, 251);" transform="matrix(0.9999999999999999, 0, 0, 0.9999999999999999, -7.105427357601002e-15, 1.4210854715202004e-14)"/>
  <rect fill="#e5ac85" x="-7.02" y="-0.9" transform="matrix(0.9975640773773192, 0.06975600123405455, -0.06975600123405455, 0.9975640773773192, 145.5571921103774, 347.09991972297297)" width="14.04" height="1.8" rx="0.27"/>
  <path fill="#e5ac85" d="M 152.787 360.73 C 153.06 360.63 153.19 360.386 153.177 360 C 153.17 359.78 153.077 359.543 152.897 359.29 C 152.05 358.083 151.397 356.913 150.937 355.78 C 150.564 354.849 149.728 354.184 148.737 354.03 L 139.537 352.62 L 139.497 350.13 C 139.484 349.585 139.985 349.173 140.517 349.29 C 144.444 350.15 148.394 350.326 152.367 349.82 C 152.617 349.79 152.861 349.912 152.987 350.13 L 153.567 351.12 C 153.734 351.413 153.724 351.703 153.537 351.99 C 152.727 353.17 152.757 354.05 153.467 355.39 C 154.307 356.956 154.354 358.63 153.607 360.41 C 153.507 360.643 153.33 360.76 153.077 360.76 C 152.99 360.753 152.894 360.743 152.787 360.73 Z" transform="matrix(0.9999999999999999, 0, 0, 0.9999999999999999, -7.105427357601002e-15, 1.4210854715202004e-14)"/>
  <path d="M 230.207 356.8 C 221 359.793 211.85 361.313 202.757 361.36 C 192.83 361.406 181.83 361.05 169.757 360.29 C 165.844 360.043 161.254 358.95 155.987 357.01 C 155.854 356.516 155.334 355.643 154.427 354.39 C 154.1 353.936 154.11 353.486 154.457 353.04 C 154.65 352.8 154.877 352.756 155.137 352.91 C 159.364 355.376 164.407 356.823 170.267 357.25 C 187.92 358.523 204.577 357.686 220.237 354.74 C 222.504 354.313 225.68 353.306 229.767 351.72 C 230.134 351.58 230.38 351.696 230.507 352.07 C 231.067 353.75 230.967 355.326 230.207 356.8 Z" style="fill: rgb(60, 131, 174);" transform="matrix(0.9999999999999999, 0, 0, 0.9999999999999999, -7.105427357601002e-15, 1.4210854715202004e-14)"/>
  <path fill="#ffdbc3" d="M 152.787 360.73 C 150.567 361.25 145.657 363.29 143.797 361.63 C 141.337 359.456 139.917 356.453 139.537 352.62 L 148.737 354.03 C 149.728 354.184 150.564 354.849 150.937 355.78 C 151.397 356.913 152.05 358.083 152.897 359.29 C 153.077 359.543 153.17 359.78 153.177 360 C 153.19 360.386 153.06 360.63 152.787 360.73 Z" transform="matrix(0.9999999999999999, 0, 0, 0.9999999999999999, -7.105427357601002e-15, 1.4210854715202004e-14)"/>
  <path fill="#91c1d8" d="M 230.207 356.8 L 230.757 402.8 C 230.763 402.935 230.665 403.055 230.527 403.08 C 224.087 404.22 217.434 404.803 210.567 404.83 C 207.657 398.03 204.537 391.12 202.147 384.1 C 201.5 382.206 200.494 380.496 199.127 378.97 L 198.207 375.27 C 198.134 374.95 197.974 374.683 197.727 374.47 C 194.217 371.28 188.367 370.29 183.877 370.42 C 183.65 370.433 183.52 370.58 183.487 370.86 C 181.977 382.4 180.477 394.72 176.867 405.8 C 170.587 406.026 164.244 405.716 157.837 404.87 C 157.318 404.801 156.927 404.363 156.917 403.84 L 155.987 357.01 C 161.254 358.95 165.844 360.043 169.757 360.29 C 181.83 361.05 192.83 361.406 202.757 361.36 C 211.85 361.313 221 359.793 230.207 356.8 Z" transform="matrix(0.9999999999999999, 0, 0, 0.9999999999999999, -7.105427357601002e-15, 1.4210854715202004e-14)"/>
  <path fill="#3c87ae" d="M 183.877 370.42 C 184.31 371.26 185.23 371.816 186.637 372.09 C 187.05 372.17 187.194 372.413 187.067 372.82 C 186.857 373.48 186.347 374.07 186.217 374.73 C 184.337 384.21 182.467 395.05 183.337 404.65 C 183.39 405.259 182.913 405.783 182.307 405.78 L 176.867 405.8 C 180.477 394.72 181.977 382.4 183.487 370.86 C 183.52 370.58 183.65 370.433 183.877 370.42 Z" transform="matrix(0.9999999999999999, 0, 0, 0.9999999999999999, -7.105427357601002e-15, 1.4210854715202004e-14)"/>
  <path fill="#3c87ae" d="M 199.127 378.97 C 200.494 380.496 201.5 382.206 202.147 384.1 C 204.537 391.12 207.657 398.03 210.567 404.83 L 206.577 404.85 C 206.001 404.849 205.499 404.458 205.357 403.9 L 199.127 378.97 Z" transform="matrix(0.9999999999999999, 0, 0, 0.9999999999999999, -7.105427357601002e-15, 1.4210854715202004e-14)"/>
  <path fill="#91c1d8" d="M 234.527 415.7 C 228.787 415.24 223.077 414.906 217.397 414.7 C 215.927 414.64 215.257 414.85 214.147 413.6 C 212.24 411.46 211.217 409.306 211.077 407.14 C 217.617 407.16 223.924 406.633 229.997 405.56 C 230.924 405.4 231.834 405.123 232.727 404.73 C 233.271 404.499 233.449 403.816 233.087 403.35 C 232.807 402.996 232.69 402.593 232.737 402.14 C 232.773 401.787 233.177 401.606 233.464 401.813 C 233.475 401.822 233.486 401.83 233.497 401.84 C 234.064 402.34 234.317 403.1 234.257 404.12 C 234.097 407.046 234.187 410.906 234.527 415.7 Z" transform="matrix(0.9999999999999999, 0, 0, 0.9999999999999999, -7.105427357601002e-15, 1.4210854715202004e-14)"/>
  <path fill="#91c1d8" d="M 175.737 408.26 C 176.624 408.586 176.727 409.113 176.047 409.84 C 175.834 410.06 175.674 410.313 175.567 410.6 L 173.287 416.9 C 173.03 417.61 172.346 418.076 171.587 418.06 C 168.1 417.986 164.604 418.556 161.097 419.77 L 154.917 419.25 C 154.191 419.195 153.62 418.602 153.587 417.87 C 153.457 414.9 152.267 406.01 154.167 403.61 C 154.334 403.403 154.467 403.42 154.567 403.66 C 154.667 403.9 154.57 404.076 154.277 404.19 C 153.795 404.374 153.694 405.011 154.094 405.336 C 154.135 405.369 154.18 405.397 154.227 405.42 C 156.194 406.4 158.117 407.046 159.997 407.36 C 165.184 408.233 170.43 408.533 175.737 408.26 Z" transform="matrix(0.9999999999999999, 0, 0, 0.9999999999999999, -7.105427357601002e-15, 1.4210854715202004e-14)"/>
  <path fill="#3c87ae" d="M 161.097 419.77 C 164.604 418.556 168.1 417.986 171.587 418.06 C 172.346 418.076 173.03 417.61 173.287 416.9 L 175.567 410.6 C 175.674 410.313 175.834 410.06 176.047 409.84 C 176.727 409.113 176.624 408.586 175.737 408.26 L 179.627 408.08 C 180.02 408.06 180.21 408.246 180.197 408.64 L 179.877 419.78 C 179.877 419.88 179.927 419.93 180.027 419.93 L 180.437 419.93 C 180.809 419.924 181.107 419.617 181.107 419.24 L 181.047 407.93 C 181.04 407.814 181.12 407.709 181.237 407.68 L 182.317 407.39 C 182.564 407.33 182.68 407.426 182.667 407.68 L 182.167 419.16 C 182.16 419.346 182.247 419.463 182.427 419.51 L 182.727 419.58 C 182.92 419.626 183.037 419.553 183.077 419.36 C 183.737 415.833 183.91 412.273 183.597 408.68 C 183.517 407.76 183.83 407 184.537 406.4 L 184.937 406.06 C 186.057 405.106 186.597 405.366 186.557 406.84 L 186.277 417.97 C 186.245 419.276 185.194 420.328 183.887 420.36 C 181.427 420.426 178.887 420.686 176.267 421.14 C 173.827 421.553 168.77 421.096 161.097 419.77 Z" transform="matrix(0.9999999999999999, 0, 0, 0.9999999999999999, -7.105427357601002e-15, 1.4210854715202004e-14)"/>
  <path fill="#3c87ae" d="M 211.077 407.14 C 211.217 409.306 212.24 411.46 214.147 413.6 C 215.257 414.85 215.927 414.64 217.397 414.7 C 223.077 414.906 228.787 415.24 234.527 415.7 C 234.66 416.966 234.234 417.746 233.247 418.04 C 226.954 419.906 220.347 420.836 213.427 420.83 C 212.825 420.831 212.311 420.39 212.217 419.79 L 210.577 409.24 C 210.547 409.066 210.393 408.942 210.217 408.95 L 209.907 408.96 C 209.607 408.973 209.48 409.126 209.527 409.42 L 211.127 419.86 C 211.207 420.4 210.974 420.666 210.427 420.66 L 206.697 420.58 C 206.021 420.569 205.443 420.087 205.307 419.42 L 202.597 406.36 C 202.572 406.22 202.698 406.099 202.837 406.13 L 206.757 406.97 C 206.937 407.01 207.034 407.123 207.047 407.31 C 207.38 414.623 207.99 418.426 208.877 418.72 C 209.204 418.833 209.344 418.72 209.297 418.38 L 207.927 407.44 C 207.874 407.046 208.044 406.866 208.437 406.9 L 211.077 407.14 Z" transform="matrix(0.9999999999999999, 0, 0, 0.9999999999999999, -7.105427357601002e-15, 1.4210854715202004e-14)"/>
  <path fill="#da792c" d="M 218.847 433.19 C 219.097 428.5 220.247 423.96 225.447 422.76 C 228.127 422.14 230.774 421.573 233.387 421.06 C 233.662 421.01 233.941 421.118 234.107 421.34 L 234.477 421.84 C 234.626 422.027 234.516 422.304 234.28 422.339 C 234.279 422.339 234.278 422.34 234.277 422.34 C 231.53 422.733 229.304 424.096 227.597 426.43 C 226.044 428.55 224.904 430.863 224.177 433.37 C 224.077 433.71 223.847 433.876 223.487 433.87 L 219.387 433.77 C 219.007 433.763 218.827 433.57 218.847 433.19 Z" transform="matrix(0.9999999999999999, 0, 0, 0.9999999999999999, -7.105427357601002e-15, 1.4210854715202004e-14)"/>
  <path fill="#da792c" d="M 164.877 422.99 C 169.827 423.56 172.007 430.13 172.177 434.28 C 172.183 434.444 172.06 434.584 171.897 434.6 L 166.947 435.02 C 166.758 435.038 166.588 434.907 166.557 434.72 C 165.55 428.7 162.207 424.743 156.527 422.85 C 156.427 422.816 156.41 422.76 156.477 422.68 C 156.55 422.593 156.62 422.503 156.687 422.41 C 156.727 422.356 156.784 422.33 156.857 422.33 C 158.684 422.356 161.357 422.576 164.877 422.99 Z" transform="matrix(0.9999999999999999, 0, 0, 0.9999999999999999, -7.105427357601002e-15, 1.4210854715202004e-14)"/>
  <path fill="#ffc831" d="M 173.827 433.77 C 173.437 429.74 172.877 427.16 170.327 423.94 C 170.2 423.78 170.24 423.696 170.447 423.69 L 182.317 423.42 C 182.591 423.414 182.817 423.635 182.817 423.91 L 182.867 433.23 C 182.867 433.522 182.639 433.764 182.347 433.78 L 174.457 434.3 C 174.077 434.326 173.867 434.15 173.827 433.77 Z" transform="matrix(0.9999999999999999, 0, 0, 0.9999999999999999, -7.105427357601002e-15, 1.4210854715202004e-14)"/>
  <path fill="#ffc831" d="M 226.087 433.5 C 226.977 426.95 234.577 420.2 240.987 424.46 C 243.354 426.04 244.244 428.756 243.657 432.61 C 243.464 433.883 242.76 434.533 241.547 434.56 C 237.047 434.68 232.1 434.58 226.707 434.26 C 226.227 434.226 226.02 433.973 226.087 433.5 Z" transform="matrix(0.9999999999999999, 0, 0, 0.9999999999999999, -7.105427357601002e-15, 1.4210854715202004e-14)"/>
  <path fill="#ffc831" d="M 219.547 423.64 C 219.786 423.642 219.933 423.901 219.812 424.107 C 219.807 424.115 219.802 424.122 219.797 424.13 C 217.937 426.776 217.05 429.736 217.137 433.01 C 217.15 433.303 217.01 433.44 216.717 433.42 L 208.697 432.93 C 208.366 432.914 208.107 432.641 208.107 432.31 L 208.087 424.05 C 208.087 423.73 208.247 423.57 208.567 423.57 L 219.547 423.64 Z" transform="matrix(0.9999999999999999, 0, 0, 0.9999999999999999, -7.105427357601002e-15, 1.4210854715202004e-14)"/>
  <path fill="#ffc831" d="M 157.017 424.55 C 161.677 426.3 163.677 429.94 165.027 434.59 C 165.14 434.976 164.997 435.19 164.597 435.23 C 159.957 435.68 152.317 436.37 147.987 434.84 C 147.647 434.72 147.447 434.483 147.387 434.13 C 146.907 431.29 146.727 428.22 148.947 426.06 C 151.2 423.873 153.89 423.37 157.017 424.55 Z" transform="matrix(0.9999999999999999, 0, 0, 0.9999999999999999, -7.105427357601002e-15, 1.4210854715202004e-14)"/>
  <path fill="#f5f5f6" d="M 242.857 435.61 C 243.179 435.518 243.494 435.776 243.467 436.11 L 243.437 436.41 C 243.39 437.01 243.07 437.36 242.477 437.46 C 231.587 439.33 220.207 437.77 209.157 436.7 C 208.417 436.626 208.04 436.216 208.027 435.47 L 208.017 435.11 C 208.004 434.496 208.3 434.25 208.907 434.37 C 218.514 436.276 228.297 437.03 238.257 436.63 C 239.164 436.596 240.697 436.256 242.857 435.61 Z" transform="matrix(0.9999999999999999, 0, 0, 0.9999999999999999, -7.105427357601002e-15, 1.4210854715202004e-14)"/>
  <path fill="#f5f5f6" d="M 150.297 436.96 C 159.907 438.86 172.527 437.09 182.027 435.23 C 182.694 435.096 182.99 435.37 182.917 436.05 L 182.877 436.37 C 182.812 436.961 182.347 437.429 181.757 437.5 C 171.77 438.666 162.77 439.206 154.757 439.12 C 152.797 439.1 150.687 438.8 148.427 438.22 C 147.94 438.093 147.647 437.783 147.547 437.29 L 147.497 437.01 C 147.417 436.616 147.577 436.456 147.977 436.53 C 148.684 436.65 149.457 436.793 150.297 436.96 Z" transform="matrix(0.9999999999999999, 0, 0, 0.9999999999999999, -7.105427357601002e-15, 1.4210854715202004e-14)"/>
</svg>