<?xml version="1.0" encoding="UTF-8" standalone="no"?>
<!DOCTYPE svg PUBLIC "-//W3C//DTD SVG 1.1//EN" "http://www.w3.org/Graphics/SVG/1.1/DTD/svg11.dtd">
<svg xmlns="http://www.w3.org/2000/svg" version="1.1" viewBox="0.00 0.00 250.00 250.00">
<g stroke-width="2.00" fill="none" stroke-linecap="butt">
<path stroke="#c4d981" vector-effect="non-scaling-stroke" d="
  M 184.04 1.53
  Q 182.90 -0.05 180.95 0.16
  Q 180.44 0.21 180.27 0.69
  Q 180.11 1.15 180.25 1.64
  Q 180.38 2.13 180.87 2.24
  Q 182.73 2.68 183.14 4.53
  A 0.70 0.70 0.0 0 0 184.33 4.87
  Q 185.62 3.57 187.43 3.70
  A 0.95 0.94 -4.7 0 0 188.42 2.54
  Q 188.06 1.02 186.67 0.38
  A 0.85 0.84 -52.4 0 0 185.78 0.50
  Q 185.31 0.89 185.01 1.46
  A 0.57 0.57 0.0 0 1 184.04 1.53"
/>
<path stroke="#c4d981" vector-effect="non-scaling-stroke" d="
  M 116.51 36.25
  L 116.84 35.16
  Q 116.99 34.65 117.52 34.63
  Q 118.24 34.60 118.93 34.84
  Q 119.36 34.99 119.49 34.55
  Q 119.72 33.76 119.41 32.98
  A 0.63 0.62 -38.1 0 0 118.32 32.85
  Q 117.57 33.91 116.27 34.03
  Q 115.65 34.09 115.42 34.67
  Q 114.06 38.15 117.62 39.26
  A 0.59 0.58 21.9 0 0 118.32 38.97
  L 118.87 37.82
  Q 119.13 37.30 119.72 37.31
  Q 120.32 37.33 120.61 36.89
  A 0.66 0.64 39.0 0 0 120.51 36.07
  L 120.22 35.79
  A 0.46 0.46 0.0 0 0 119.46 35.99
  Q 118.80 38.23 116.91 37.22
  Q 116.31 36.90 116.51 36.25"
/>
<path stroke="#c4d981" vector-effect="non-scaling-stroke" d="
  M 38.37 41.98
  L 40.50 40.90
  Q 40.94 40.68 40.91 40.19
  Q 40.75 37.49 38.11 37.11
  A 0.89 0.88 18.0 0 0 37.20 37.57
  Q 36.28 39.34 36.94 41.18
  A 0.76 0.76 0.0 0 1 36.32 42.19
  Q 34.45 42.41 34.40 44.20
  A 1.02 1.02 0.0 0 0 35.05 45.18
  Q 37.00 45.95 36.89 48.01
  A 1.49 1.49 0.0 0 0 39.19 49.34
  Q 39.59 49.08 39.85 48.69
  Q 40.16 48.23 40.69 48.38
  C 41.76 48.70 43.42 49.19 44.26 48.24
  Q 45.22 47.15 44.10 44.99
  A 1.49 1.48 -36.2 0 0 41.74 44.63
  L 40.73 45.64
  A 1.06 1.06 0.0 0 1 39.28 45.68
  Q 38.02 44.55 37.88 42.84
  Q 37.84 42.24 38.37 41.98"
/>
<path stroke="#c4d981" vector-effect="non-scaling-stroke" d="
  M 45.3954 42.6660
  A 2.16 1.81 30.8 0 0 44.4668 40.0053
  A 2.16 1.81 30.8 0 0 41.6846 40.4540
  A 2.16 1.81 30.8 0 0 42.6132 43.1147
  A 2.16 1.81 30.8 0 0 45.3954 42.6660"
/>
<path stroke="#c4d981" vector-effect="non-scaling-stroke" d="
  M 15.97 44.49
  Q 15.72 43.63 14.98 44.14
  Q 14.01 44.79 13.38 44.88
  A 2.34 2.14 -28.2 0 0 12.00 48.79
  L 13.67 50.06
  Q 14.22 50.48 14.57 49.89
  Q 15.17 48.90 16.25 48.50
  Q 17.08 48.20 16.83 47.35
  L 15.97 44.49"
/>
<path stroke="#b2ab1e" vector-effect="non-scaling-stroke" d="
  M 155.53 51.59
  A 0.80 0.80 0.0 0 0 156.68 52.66
  L 157.49 52.09
  Q 157.90 51.80 158.37 51.65
  L 160.27 51.02
  A 0.85 0.83 71.8 0 0 160.80 49.95
  L 160.62 49.41
  A 0.77 0.76 64.8 0 0 159.50 49.00
  L 158.65 49.53
  Q 158.26 49.76 157.81 49.76
  Q 156.61 49.76 155.53 51.59"
/>
<path stroke="#b2ab1e" vector-effect="non-scaling-stroke" d="
  M 122.86 74.60
  Q 124.94 72.03 128.21 71.48
  A 0.75 0.75 0.0 0 0 128.65 70.25
  Q 125.38 66.50 121.69 69.76
  A 1.07 1.05 62.5 0 0 121.37 70.80
  L 122.27 74.47
  A 0.34 0.34 0.0 0 0 122.86 74.60"
/>
<path stroke="#c4d981" vector-effect="non-scaling-stroke" d="
  M 119.29 79.86
  C 117.88 83.11 114.03 81.13 114.84 77.68
  A 0.42 0.42 0.0 0 0 114.30 77.18
  L 112.72 77.67
  Q 112.00 77.90 111.85 78.64
  C 111.64 79.70 114.54 81.27 115.25 82.71
  A 0.74 0.73 74.6 0 0 115.95 83.11
  L 119.07 82.88
  Q 120.04 82.81 120.37 81.90
  L 121.52 78.75
  Q 121.91 77.69 120.79 77.48
  Q 118.45 77.04 117.24 75.02
  A 0.63 0.63 0.0 0 0 116.48 74.75
  Q 115.23 75.20 115.08 76.54
  Q 115.01 77.16 115.64 77.12
  Q 118.02 76.96 119.22 78.95
  Q 119.49 79.39 119.29 79.86"
/>
<path stroke="#b2ab1e" vector-effect="non-scaling-stroke" d="
  M 34.81 122.65
  L 37.36 120.94
  Q 37.70 120.71 38.08 120.86
  Q 38.93 121.20 39.82 121.12
  A 1.09 1.09 0.0 0 0 40.71 119.55
  Q 39.81 117.78 37.76 117.71
  A 0.99 0.97 73.7 0 1 36.99 117.28
  C 35.58 115.17 33.23 117.22 32.34 118.58
  Q 32.05 119.02 32.12 119.56
  L 32.87 125.02
  A 0.36 0.36 0.0 0 0 33.51 125.18
  Q 34.15 124.30 34.39 123.25
  Q 34.48 122.87 34.81 122.65"
/>
<path stroke="#c4d981" vector-effect="non-scaling-stroke" d="
  M 148.24 123.02
  Q 148.61 122.49 148.57 121.79
  A 0.57 0.57 0.0 0 0 148.07 121.25
  Q 147.42 121.16 146.81 121.44
  Q 146.39 121.64 146.06 121.31
  Q 145.42 120.66 144.55 120.91
  A 0.68 0.67 75.9 0 0 144.07 121.72
  Q 144.39 123.10 143.53 124.11
  A 0.69 0.69 0.0 0 0 143.73 125.16
  Q 144.88 125.77 145.72 126.78
  A 0.59 0.58 38.7 0 0 146.69 126.68
  Q 147.15 125.80 148.10 125.86
  A 0.83 0.83 0.0 0 0 148.99 125.04
  Q 149.01 124.26 148.41 123.87
  Q 147.89 123.53 148.24 123.02"
/>
<path stroke="#c4d981" vector-effect="non-scaling-stroke" d="
  M 206.01 134.54
  A 0.79 0.78 55.9 0 0 204.73 134.29
  Q 203.79 135.23 202.52 135.60
  A 1.04 1.01 -0.2 0 0 201.84 136.27
  Q 200.72 140.00 204.47 140.71
  Q 204.85 140.78 204.99 140.43
  Q 205.50 139.20 206.74 138.72
  Q 207.63 138.37 207.26 137.50
  L 206.01 134.54"
/>
<path stroke="#c4d981" vector-effect="non-scaling-stroke" d="
  M 194.29 143.95
  Q 194.18 142.95 193.66 141.96
  A 1.53 1.53 0.0 0 0 190.77 142.74
  Q 190.89 145.54 188.04 145.15
  A 1.01 0.95 -56.5 0 0 187.40 145.30
  Q 186.62 145.81 187.22 146.86
  Q 187.63 147.58 187.96 148.38
  Q 188.14 148.82 188.01 149.29
  Q 187.72 150.28 187.79 151.31
  A 1.08 1.07 12.0 0 0 188.37 152.19
  Q 189.20 152.62 190.05 152.27
  A 1.05 1.03 -42.5 0 1 190.91 152.30
  L 193.15 153.38
  A 0.75 0.74 30.2 0 0 194.08 153.14
  Q 195.18 151.61 194.98 149.71
  A 0.72 0.72 0.0 0 1 195.82 148.92
  Q 196.99 149.12 197.49 148.07
  C 198.30 146.38 196.86 145.82 195.51 145.42
  Q 194.42 145.09 194.29 143.95"
/>
<path stroke="#c4d981" vector-effect="non-scaling-stroke" d="
  M 14.85 164.29
  Q 14.43 165.40 13.25 165.24
  Q 12.08 165.09 11.17 165.74
  A 0.68 0.68 0.0 0 0 11.06 166.74
  Q 12.62 168.50 11.14 170.20
  A 0.92 0.91 23.9 0 0 11.73 171.71
  Q 13.70 171.95 15.08 173.38
  A 1.38 1.38 0.0 0 0 17.41 172.77
  L 17.94 170.73
  A 0.82 0.80 -0.2 0 1 18.52 170.16
  L 20.04 169.78
  A 1.10 1.10 0.0 0 0 20.55 167.93
  L 19.41 166.80
  Q 18.95 166.33 18.73 165.71
  L 17.93 163.39
  Q 17.35 161.74 15.97 162.79
  Q 15.19 163.38 14.85 164.29"
/>
<path stroke="#c4d981" vector-effect="non-scaling-stroke" d="
  M 153.43 185.89
  Q 152.45 185.77 151.81 184.83
  A 1.70 1.70 0.0 0 1 153.68 182.24
  Q 154.74 182.55 155.59 183.14
  A 1.00 1.00 0.0 0 0 157.15 182.21
  L 157.01 180.83
  Q 156.94 180.25 156.37 180.27
  Q 155.03 180.31 153.89 181.04
  Q 153.43 181.33 152.96 181.07
  L 151.71 180.36
  A 0.60 0.60 0.0 0 0 150.88 180.61
  L 149.04 184.23
  A 0.65 0.64 -49.0 0 0 149.08 184.88
  L 151.12 187.77
  A 1.11 1.11 0.0 0 0 152.95 187.76
  Q 153.91 186.37 155.53 187.02
  A 1.12 1.11 -54.6 0 0 156.69 186.82
  Q 157.63 186.00 157.20 184.65
  A 1.15 1.15 0.0 0 0 155.39 184.10
  Q 154.62 184.69 154.10 185.56
  Q 153.87 185.94 153.43 185.89"
/>
<path stroke="#c4d981" vector-effect="non-scaling-stroke" d="
  M 81.46 204.06
  Q 81.16 203.12 80.20 202.88
  A 0.71 0.70 -76.6 0 0 79.35 203.41
  Q 78.97 205.12 77.36 205.81
  A 0.71 0.70 67.6 0 0 76.99 206.72
  L 78.18 209.69
  Q 78.39 210.20 78.94 210.26
  L 81.79 210.55
  Q 82.58 210.63 82.63 209.84
  Q 82.76 208.01 83.93 206.58
  A 0.65 0.65 0.0 0 0 83.69 205.58
  L 82.21 204.90
  Q 81.65 204.64 81.46 204.06"
/>
<path stroke="#b2ab1e" vector-effect="non-scaling-stroke" d="
  M 136.63 219.50
  A 1.20 1.19 31.5 0 0 136.24 217.89
  C 133.78 216.34 130.74 214.60 128.48 217.69
  A 1.03 1.02 54.5 0 0 128.33 218.61
  Q 128.92 220.35 128.89 222.19
  A 0.82 0.82 0.0 0 0 129.59 223.02
  L 133.65 223.59
  A 0.87 0.86 18.8 0 0 134.52 223.17
  L 136.63 219.50"
/>
<path stroke="#c4d981" vector-effect="non-scaling-stroke" d="
  M 217.57 227.92
  Q 216.92 228.47 216.54 229.24
  A 0.74 0.73 30.7 0 0 216.79 230.19
  Q 218.33 231.20 219.37 232.72
  A 0.62 0.62 0.0 0 0 220.24 232.87
  Q 221.60 231.90 223.29 231.88
  A 0.65 0.65 0.0 0 0 223.94 231.28
  Q 224.02 230.22 223.42 229.33
  Q 223.14 228.92 223.28 228.45
  Q 223.35 228.19 223.48 227.95
  Q 223.86 227.24 223.88 226.99
  Q 223.94 226.12 223.07 225.61
  Q 222.62 225.36 222.16 225.58
  Q 220.95 226.17 219.95 225.35
  Q 217.30 223.21 217.35 226.45
  Q 217.36 226.53 217.71 227.19
  A 0.59 0.58 56.5 0 1 217.57 227.92"
/>
<path stroke="#c4d981" vector-effect="non-scaling-stroke" d="
  M 184.39 247.60
  Q 183.99 246.60 183.27 245.94
  A 1.15 1.15 0.0 0 0 181.34 246.74
  Q 181.29 247.98 181.83 249.09
  Q 182.11 249.66 182.74 249.58
  Q 183.71 249.45 184.05 248.55
  A 0.41 0.41 0.0 0 1 184.78 248.48
  C 185.34 249.37 186.65 250.32 187.64 249.44
  Q 188.25 248.90 188.01 247.91
  Q 187.59 246.21 186.11 247.14
  L 185.04 247.81
  Q 184.59 248.09 184.39 247.60"
/>
<path stroke="#c4d981" vector-effect="non-scaling-stroke" d="
  M 15.03 46.12
  Q 14.58 45.81 13.94 45.97
  A 1.13 1.04 -48.2 0 0 13.97 48.13
  Q 15.06 48.17 15.36 47.03
  Q 15.52 46.45 15.03 46.12"
/>
<path stroke="#c4d981" vector-effect="non-scaling-stroke" d="
  M 144.46 123.29
  Q 145.18 124.66 146.77 124.54
  A 0.76 0.76 0.0 0 0 147.40 123.44
  L 147.03 122.72
  A 0.70 0.69 -33.2 0 0 145.96 122.50
  Q 145.41 122.96 144.71 122.91
  A 0.26 0.26 0.0 0 0 144.46 123.29"
/>
<path stroke="#c4d981" vector-effect="non-scaling-stroke" d="
  M 205.75 137.35
  A 1.33 1.33 0.0 0 0 204.42 136.02
  A 1.33 1.33 0.0 0 0 203.09 137.35
  A 1.33 1.33 0.0 0 0 204.42 138.68
  A 1.33 1.33 0.0 0 0 205.75 137.35"
/>
<path stroke="#c4d981" vector-effect="non-scaling-stroke" d="
  M 193.54 145.65
  C 191.24 144.92 190.14 146.39 190.32 148.51
  Q 190.47 150.42 192.47 149.66
  Q 194.82 148.78 194.19 146.33
  Q 194.05 145.81 193.54 145.65"
/>
<path stroke="#c4d981" vector-effect="non-scaling-stroke" d="
  M 16.89 169.96
  A 1.26 1.26 0.0 0 0 17.70 169.11
  L 18.02 168.01
  A 1.26 1.26 0.0 0 0 17.11 166.44
  L 15.43 166.02
  A 1.26 1.26 0.0 0 0 13.87 167.23
  L 13.85 169.22
  A 1.26 1.26 0.0 0 0 15.51 170.43
  L 16.89 169.96"
/>
<path stroke="#c4d981" vector-effect="non-scaling-stroke" d="
  M 82.01 206.90
  A 1.40 1.40 0.0 0 0 80.61 205.50
  A 1.40 1.40 0.0 0 0 79.21 206.90
  A 1.40 1.40 0.0 0 0 80.61 208.30
  A 1.40 1.40 0.0 0 0 82.01 206.90"
/>
<path stroke="#c4d981" vector-effect="non-scaling-stroke" d="
  M 220.72 227.28
  Q 220.40 227.01 220.10 227.29
  Q 219.56 227.81 219.21 228.49
  A 1.17 1.10 74.1 0 0 221.16 229.66
  Q 221.88 228.30 220.72 227.28"
/>
</g>
<path fill="#8ab412" d="
  M 0.00 0.00
  L 250.00 0.00
  L 250.00 250.00
  L 0.00 250.00
  L 0.00 0.00
  Z
  M 184.04 1.53
  Q 182.90 -0.05 180.95 0.16
  Q 180.44 0.21 180.27 0.69
  Q 180.11 1.15 180.25 1.64
  Q 180.38 2.13 180.87 2.24
  Q 182.73 2.68 183.14 4.53
  A 0.70 0.70 0.0 0 0 184.33 4.87
  Q 185.62 3.57 187.43 3.70
  A 0.95 0.94 -4.7 0 0 188.42 2.54
  Q 188.06 1.02 186.67 0.38
  A 0.85 0.84 -52.4 0 0 185.78 0.50
  Q 185.31 0.89 185.01 1.46
  A 0.57 0.57 0.0 0 1 184.04 1.53
  Z
  M 116.51 36.25
  L 116.84 35.16
  Q 116.99 34.65 117.52 34.63
  Q 118.24 34.60 118.93 34.84
  Q 119.36 34.99 119.49 34.55
  Q 119.72 33.76 119.41 32.98
  A 0.63 0.62 -38.1 0 0 118.32 32.85
  Q 117.57 33.91 116.27 34.03
  Q 115.65 34.09 115.42 34.67
  Q 114.06 38.15 117.62 39.26
  A 0.59 0.58 21.9 0 0 118.32 38.97
  L 118.87 37.82
  Q 119.13 37.30 119.72 37.31
  Q 120.32 37.33 120.61 36.89
  A 0.66 0.64 39.0 0 0 120.51 36.07
  L 120.22 35.79
  A 0.46 0.46 0.0 0 0 119.46 35.99
  Q 118.80 38.23 116.91 37.22
  Q 116.31 36.90 116.51 36.25
  Z
  M 38.37 41.98
  L 40.50 40.90
  Q 40.94 40.68 40.91 40.19
  Q 40.75 37.49 38.11 37.11
  A 0.89 0.88 18.0 0 0 37.20 37.57
  Q 36.28 39.34 36.94 41.18
  A 0.76 0.76 0.0 0 1 36.32 42.19
  Q 34.45 42.41 34.40 44.20
  A 1.02 1.02 0.0 0 0 35.05 45.18
  Q 37.00 45.95 36.89 48.01
  A 1.49 1.49 0.0 0 0 39.19 49.34
  Q 39.59 49.08 39.85 48.69
  Q 40.16 48.23 40.69 48.38
  C 41.76 48.70 43.42 49.19 44.26 48.24
  Q 45.22 47.15 44.10 44.99
  A 1.49 1.48 -36.2 0 0 41.74 44.63
  L 40.73 45.64
  A 1.06 1.06 0.0 0 1 39.28 45.68
  Q 38.02 44.55 37.88 42.84
  Q 37.84 42.24 38.37 41.98
  Z
  M 45.3954 42.6660
  A 2.16 1.81 30.8 0 0 44.4668 40.0053
  A 2.16 1.81 30.8 0 0 41.6846 40.4540
  A 2.16 1.81 30.8 0 0 42.6132 43.1147
  A 2.16 1.81 30.8 0 0 45.3954 42.6660
  Z
  M 15.97 44.49
  Q 15.72 43.63 14.98 44.14
  Q 14.01 44.79 13.38 44.88
  A 2.34 2.14 -28.2 0 0 12.00 48.79
  L 13.67 50.06
  Q 14.22 50.48 14.57 49.89
  Q 15.17 48.90 16.25 48.50
  Q 17.08 48.20 16.83 47.35
  L 15.97 44.49
  Z
  M 155.53 51.59
  A 0.80 0.80 0.0 0 0 156.68 52.66
  L 157.49 52.09
  Q 157.90 51.80 158.37 51.65
  L 160.27 51.02
  A 0.85 0.83 71.8 0 0 160.80 49.95
  L 160.62 49.41
  A 0.77 0.76 64.8 0 0 159.50 49.00
  L 158.65 49.53
  Q 158.26 49.76 157.81 49.76
  Q 156.61 49.76 155.53 51.59
  Z
  M 122.86 74.60
  Q 124.94 72.03 128.21 71.48
  A 0.75 0.75 0.0 0 0 128.65 70.25
  Q 125.38 66.50 121.69 69.76
  A 1.07 1.05 62.5 0 0 121.37 70.80
  L 122.27 74.47
  A 0.34 0.34 0.0 0 0 122.86 74.60
  Z
  M 119.29 79.86
  C 117.88 83.11 114.03 81.13 114.84 77.68
  A 0.42 0.42 0.0 0 0 114.30 77.18
  L 112.72 77.67
  Q 112.00 77.90 111.85 78.64
  C 111.64 79.70 114.54 81.27 115.25 82.71
  A 0.74 0.73 74.6 0 0 115.95 83.11
  L 119.07 82.88
  Q 120.04 82.81 120.37 81.90
  L 121.52 78.75
  Q 121.91 77.69 120.79 77.48
  Q 118.45 77.04 117.24 75.02
  A 0.63 0.63 0.0 0 0 116.48 74.75
  Q 115.23 75.20 115.08 76.54
  Q 115.01 77.16 115.64 77.12
  Q 118.02 76.96 119.22 78.95
  Q 119.49 79.39 119.29 79.86
  Z
  M 34.81 122.65
  L 37.36 120.94
  Q 37.70 120.71 38.08 120.86
  Q 38.93 121.20 39.82 121.12
  A 1.09 1.09 0.0 0 0 40.71 119.55
  Q 39.81 117.78 37.76 117.71
  A 0.99 0.97 73.7 0 1 36.99 117.28
  C 35.58 115.17 33.23 117.22 32.34 118.58
  Q 32.05 119.02 32.12 119.56
  L 32.87 125.02
  A 0.36 0.36 0.0 0 0 33.51 125.18
  Q 34.15 124.30 34.39 123.25
  Q 34.48 122.87 34.81 122.65
  Z
  M 148.24 123.02
  Q 148.61 122.49 148.57 121.79
  A 0.57 0.57 0.0 0 0 148.07 121.25
  Q 147.42 121.16 146.81 121.44
  Q 146.39 121.64 146.06 121.31
  Q 145.42 120.66 144.55 120.91
  A 0.68 0.67 75.9 0 0 144.07 121.72
  Q 144.39 123.10 143.53 124.11
  A 0.69 0.69 0.0 0 0 143.73 125.16
  Q 144.88 125.77 145.72 126.78
  A 0.59 0.58 38.7 0 0 146.69 126.68
  Q 147.15 125.80 148.10 125.86
  A 0.83 0.83 0.0 0 0 148.99 125.04
  Q 149.01 124.26 148.41 123.87
  Q 147.89 123.53 148.24 123.02
  Z
  M 206.01 134.54
  A 0.79 0.78 55.9 0 0 204.73 134.29
  Q 203.79 135.23 202.52 135.60
  A 1.04 1.01 -0.2 0 0 201.84 136.27
  Q 200.72 140.00 204.47 140.71
  Q 204.85 140.78 204.99 140.43
  Q 205.50 139.20 206.74 138.72
  Q 207.63 138.37 207.26 137.50
  L 206.01 134.54
  Z
  M 194.29 143.95
  Q 194.18 142.95 193.66 141.96
  A 1.53 1.53 0.0 0 0 190.77 142.74
  Q 190.89 145.54 188.04 145.15
  A 1.01 0.95 -56.5 0 0 187.40 145.30
  Q 186.62 145.81 187.22 146.86
  Q 187.63 147.58 187.96 148.38
  Q 188.14 148.82 188.01 149.29
  Q 187.72 150.28 187.79 151.31
  A 1.08 1.07 12.0 0 0 188.37 152.19
  Q 189.20 152.62 190.05 152.27
  A 1.05 1.03 -42.5 0 1 190.91 152.30
  L 193.15 153.38
  A 0.75 0.74 30.2 0 0 194.08 153.14
  Q 195.18 151.61 194.98 149.71
  A 0.72 0.72 0.0 0 1 195.82 148.92
  Q 196.99 149.12 197.49 148.07
  C 198.30 146.38 196.86 145.82 195.51 145.42
  Q 194.42 145.09 194.29 143.95
  Z
  M 14.85 164.29
  Q 14.43 165.40 13.25 165.24
  Q 12.08 165.09 11.17 165.74
  A 0.68 0.68 0.0 0 0 11.06 166.74
  Q 12.62 168.50 11.14 170.20
  A 0.92 0.91 23.9 0 0 11.73 171.71
  Q 13.70 171.95 15.08 173.38
  A 1.38 1.38 0.0 0 0 17.41 172.77
  L 17.94 170.73
  A 0.82 0.80 -0.2 0 1 18.52 170.16
  L 20.04 169.78
  A 1.10 1.10 0.0 0 0 20.55 167.93
  L 19.41 166.80
  Q 18.95 166.33 18.73 165.71
  L 17.93 163.39
  Q 17.35 161.74 15.97 162.79
  Q 15.19 163.38 14.85 164.29
  Z
  M 153.43 185.89
  Q 152.45 185.77 151.81 184.83
  A 1.70 1.70 0.0 0 1 153.68 182.24
  Q 154.74 182.55 155.59 183.14
  A 1.00 1.00 0.0 0 0 157.15 182.21
  L 157.01 180.83
  Q 156.94 180.25 156.37 180.27
  Q 155.03 180.31 153.89 181.04
  Q 153.43 181.33 152.96 181.07
  L 151.71 180.36
  A 0.60 0.60 0.0 0 0 150.88 180.61
  L 149.04 184.23
  A 0.65 0.64 -49.0 0 0 149.08 184.88
  L 151.12 187.77
  A 1.11 1.11 0.0 0 0 152.95 187.76
  Q 153.91 186.37 155.53 187.02
  A 1.12 1.11 -54.6 0 0 156.69 186.82
  Q 157.63 186.00 157.20 184.65
  A 1.15 1.15 0.0 0 0 155.39 184.10
  Q 154.62 184.69 154.10 185.56
  Q 153.87 185.94 153.43 185.89
  Z
  M 81.46 204.06
  Q 81.16 203.12 80.20 202.88
  A 0.71 0.70 -76.6 0 0 79.35 203.41
  Q 78.97 205.12 77.36 205.81
  A 0.71 0.70 67.6 0 0 76.99 206.72
  L 78.18 209.69
  Q 78.39 210.20 78.94 210.26
  L 81.79 210.55
  Q 82.58 210.63 82.63 209.84
  Q 82.76 208.01 83.93 206.58
  A 0.65 0.65 0.0 0 0 83.69 205.58
  L 82.21 204.90
  Q 81.65 204.64 81.46 204.06
  Z
  M 136.63 219.50
  A 1.20 1.19 31.5 0 0 136.24 217.89
  C 133.78 216.34 130.74 214.60 128.48 217.69
  A 1.03 1.02 54.5 0 0 128.33 218.61
  Q 128.92 220.35 128.89 222.19
  A 0.82 0.82 0.0 0 0 129.59 223.02
  L 133.65 223.59
  A 0.87 0.86 18.8 0 0 134.52 223.17
  L 136.63 219.50
  Z
  M 217.57 227.92
  Q 216.92 228.47 216.54 229.24
  A 0.74 0.73 30.7 0 0 216.79 230.19
  Q 218.33 231.20 219.37 232.72
  A 0.62 0.62 0.0 0 0 220.24 232.87
  Q 221.60 231.90 223.29 231.88
  A 0.65 0.65 0.0 0 0 223.94 231.28
  Q 224.02 230.22 223.42 229.33
  Q 223.14 228.92 223.28 228.45
  Q 223.35 228.19 223.48 227.95
  Q 223.86 227.24 223.88 226.99
  Q 223.94 226.12 223.07 225.61
  Q 222.62 225.36 222.16 225.58
  Q 220.95 226.17 219.95 225.35
  Q 217.30 223.21 217.35 226.45
  Q 217.36 226.53 217.71 227.19
  A 0.59 0.58 56.5 0 1 217.57 227.92
  Z
  M 184.39 247.60
  Q 183.99 246.60 183.27 245.94
  A 1.15 1.15 0.0 0 0 181.34 246.74
  Q 181.29 247.98 181.83 249.09
  Q 182.11 249.66 182.74 249.58
  Q 183.71 249.45 184.05 248.55
  A 0.41 0.41 0.0 0 1 184.78 248.48
  C 185.34 249.37 186.65 250.32 187.64 249.44
  Q 188.25 248.90 188.01 247.91
  Q 187.59 246.21 186.11 247.14
  L 185.04 247.81
  Q 184.59 248.09 184.39 247.60
  Z"
/>
<path fill="#fefeef" d="
  M 185.01 1.46
  Q 185.31 0.89 185.78 0.50
  A 0.85 0.84 -52.4 0 1 186.67 0.38
  Q 188.06 1.02 188.42 2.54
  A 0.95 0.94 -4.7 0 1 187.43 3.70
  Q 185.62 3.57 184.33 4.87
  A 0.70 0.70 0.0 0 1 183.14 4.53
  Q 182.73 2.68 180.87 2.24
  Q 180.38 2.13 180.25 1.64
  Q 180.11 1.15 180.27 0.69
  Q 180.44 0.21 180.95 0.16
  Q 182.90 -0.05 184.04 1.53
  A 0.57 0.57 0.0 0 0 185.01 1.46
  Z"
/>
<path fill="#fefeef" d="
  M 116.91 37.22
  Q 118.80 38.23 119.46 35.99
  A 0.46 0.46 0.0 0 1 120.22 35.79
  L 120.51 36.07
  A 0.66 0.64 39.0 0 1 120.61 36.89
  Q 120.32 37.33 119.72 37.31
  Q 119.13 37.30 118.87 37.82
  L 118.32 38.97
  A 0.59 0.58 21.9 0 1 117.62 39.26
  Q 114.06 38.15 115.42 34.67
  Q 115.65 34.09 116.27 34.03
  Q 117.57 33.91 118.32 32.85
  A 0.63 0.62 -38.1 0 1 119.41 32.98
  Q 119.72 33.76 119.49 34.55
  Q 119.36 34.99 118.93 34.84
  Q 118.24 34.60 117.52 34.63
  Q 116.99 34.65 116.84 35.16
  L 116.51 36.25
  Q 116.31 36.90 116.91 37.22
  Z"
/>
<path fill="#fefeef" d="
  M 37.88 42.84
  Q 38.02 44.55 39.28 45.68
  A 1.06 1.06 0.0 0 0 40.73 45.64
  L 41.74 44.63
  A 1.49 1.48 -36.2 0 1 44.10 44.99
  Q 45.22 47.15 44.26 48.24
  C 43.42 49.19 41.76 48.70 40.69 48.38
  Q 40.16 48.23 39.85 48.69
  Q 39.59 49.08 39.19 49.34
  A 1.49 1.49 0.0 0 1 36.89 48.01
  Q 37.00 45.95 35.05 45.18
  A 1.02 1.02 0.0 0 1 34.40 44.20
  Q 34.45 42.41 36.32 42.19
  A 0.76 0.76 0.0 0 0 36.94 41.18
  Q 36.28 39.34 37.20 37.57
  A 0.89 0.88 18.0 0 1 38.11 37.11
  Q 40.75 37.49 40.91 40.19
  Q 40.94 40.68 40.50 40.90
  L 38.37 41.98
  Q 37.84 42.24 37.88 42.84
  Z"
/>
<ellipse fill="#fefeef" cx="0.00" cy="0.00" transform="translate(43.54,41.56) rotate(30.8)" rx="2.16" ry="1.81"/>
<path fill="#fefeef" d="
  M 15.97 44.49
  L 16.83 47.35
  Q 17.08 48.20 16.25 48.50
  Q 15.17 48.90 14.57 49.89
  Q 14.22 50.48 13.67 50.06
  L 12.00 48.79
  A 2.34 2.14 -28.2 0 1 13.38 44.88
  Q 14.01 44.79 14.98 44.14
  Q 15.72 43.63 15.97 44.49
  Z
  M 15.03 46.12
  Q 14.58 45.81 13.94 45.97
  A 1.13 1.04 -48.2 0 0 13.97 48.13
  Q 15.06 48.17 15.36 47.03
  Q 15.52 46.45 15.03 46.12
  Z"
/>
<path fill="#8ab412" d="
  M 15.03 46.12
  Q 15.52 46.45 15.36 47.03
  Q 15.06 48.17 13.97 48.13
  A 1.13 1.04 -48.2 0 1 13.94 45.97
  Q 14.58 45.81 15.03 46.12
  Z"
/>
<path fill="#daa12a" d="
  M 155.53 51.59
  Q 156.61 49.76 157.81 49.76
  Q 158.26 49.76 158.65 49.53
  L 159.50 49.00
  A 0.77 0.76 64.8 0 1 160.62 49.41
  L 160.80 49.95
  A 0.85 0.83 71.8 0 1 160.27 51.02
  L 158.37 51.65
  Q 157.90 51.80 157.49 52.09
  L 156.68 52.66
  A 0.80 0.80 0.0 0 1 155.53 51.59
  Z"
/>
<path fill="#daa12a" d="
  M 122.86 74.60
  A 0.34 0.34 0.0 0 1 122.27 74.47
  L 121.37 70.80
  A 1.07 1.05 62.5 0 1 121.69 69.76
  Q 125.38 66.50 128.65 70.25
  A 0.75 0.75 0.0 0 1 128.21 71.48
  Q 124.94 72.03 122.86 74.60
  Z"
/>
<path fill="#fefeef" d="
  M 114.84 77.68
  C 114.03 81.13 117.88 83.11 119.29 79.86
  Q 119.49 79.39 119.22 78.95
  Q 118.02 76.96 115.64 77.12
  Q 115.01 77.16 115.08 76.54
  Q 115.23 75.20 116.48 74.75
  A 0.63 0.63 0.0 0 1 117.24 75.02
  Q 118.45 77.04 120.79 77.48
  Q 121.91 77.69 121.52 78.75
  L 120.37 81.90
  Q 120.04 82.81 119.07 82.88
  L 115.95 83.11
  A 0.74 0.73 74.6 0 1 115.25 82.71
  C 114.54 81.27 111.64 79.70 111.85 78.64
  Q 112.00 77.90 112.72 77.67
  L 114.30 77.18
  A 0.42 0.42 0.0 0 1 114.84 77.68
  Z"
/>
<path fill="#daa12a" d="
  M 34.39 123.25
  Q 34.15 124.30 33.51 125.18
  A 0.36 0.36 0.0 0 1 32.87 125.02
  L 32.12 119.56
  Q 32.05 119.02 32.34 118.58
  C 33.23 117.22 35.58 115.17 36.99 117.28
  A 0.99 0.97 73.7 0 0 37.76 117.71
  Q 39.81 117.78 40.71 119.55
  A 1.09 1.09 0.0 0 1 39.82 121.12
  Q 38.93 121.20 38.08 120.86
  Q 37.70 120.71 37.36 120.94
  L 34.81 122.65
  Q 34.48 122.87 34.39 123.25
  Z"
/>
<path fill="#fefeef" d="
  M 148.41 123.87
  Q 149.01 124.26 148.99 125.04
  A 0.83 0.83 0.0 0 1 148.10 125.86
  Q 147.15 125.80 146.69 126.68
  A 0.59 0.58 38.7 0 1 145.72 126.78
  Q 144.88 125.77 143.73 125.16
  A 0.69 0.69 0.0 0 1 143.53 124.11
  Q 144.39 123.10 144.07 121.72
  A 0.68 0.67 75.9 0 1 144.55 120.91
  Q 145.42 120.66 146.06 121.31
  Q 146.39 121.64 146.81 121.44
  Q 147.42 121.16 148.07 121.25
  A 0.57 0.57 0.0 0 1 148.57 121.79
  Q 148.61 122.49 148.24 123.02
  Q 147.89 123.53 148.41 123.87
  Z
  M 144.46 123.29
  Q 145.18 124.66 146.77 124.54
  A 0.76 0.76 0.0 0 0 147.40 123.44
  L 147.03 122.72
  A 0.70 0.69 -33.2 0 0 145.96 122.50
  Q 145.41 122.96 144.71 122.91
  A 0.26 0.26 0.0 0 0 144.46 123.29
  Z"
/>
<path fill="#8ab412" d="
  M 144.46 123.29
  A 0.26 0.26 0.0 0 1 144.71 122.91
  Q 145.41 122.96 145.96 122.50
  A 0.70 0.69 -33.2 0 1 147.03 122.72
  L 147.40 123.44
  A 0.76 0.76 0.0 0 1 146.77 124.54
  Q 145.18 124.66 144.46 123.29
  Z"
/>
<path fill="#fefeef" d="
  M 206.01 134.54
  L 207.26 137.50
  Q 207.63 138.37 206.74 138.72
  Q 205.50 139.20 204.99 140.43
  Q 204.85 140.78 204.47 140.71
  Q 200.72 140.00 201.84 136.27
  A 1.04 1.01 -0.2 0 1 202.52 135.60
  Q 203.79 135.23 204.73 134.29
  A 0.79 0.78 55.9 0 1 206.01 134.54
  Z
  M 205.75 137.35
  A 1.33 1.33 0.0 0 0 204.42 136.02
  A 1.33 1.33 0.0 0 0 203.09 137.35
  A 1.33 1.33 0.0 0 0 204.42 138.68
  A 1.33 1.33 0.0 0 0 205.75 137.35
  Z"
/>
<circle fill="#8ab412" cx="204.42" cy="137.35" r="1.33"/>
<path fill="#fefeef" d="
  M 194.29 143.95
  Q 194.42 145.09 195.51 145.42
  C 196.86 145.82 198.30 146.38 197.49 148.07
  Q 196.99 149.12 195.82 148.92
  A 0.72 0.72 0.0 0 0 194.98 149.71
  Q 195.18 151.61 194.08 153.14
  A 0.75 0.74 30.2 0 1 193.15 153.38
  L 190.91 152.30
  A 1.05 1.03 -42.5 0 0 190.05 152.27
  Q 189.20 152.62 188.37 152.19
  A 1.08 1.07 12.0 0 1 187.79 151.31
  Q 187.72 150.28 188.01 149.29
  Q 188.14 148.82 187.96 148.38
  Q 187.63 147.58 187.22 146.86
  Q 186.62 145.81 187.40 145.30
  A 1.01 0.95 -56.5 0 1 188.04 145.15
  Q 190.89 145.54 190.77 142.74
  A 1.53 1.53 0.0 0 1 193.66 141.96
  Q 194.18 142.95 194.29 143.95
  Z
  M 193.54 145.65
  C 191.24 144.92 190.14 146.39 190.32 148.51
  Q 190.47 150.42 192.47 149.66
  Q 194.82 148.78 194.19 146.33
  Q 194.05 145.81 193.54 145.65
  Z"
/>
<path fill="#8ab412" d="
  M 190.32 148.51
  C 190.14 146.39 191.24 144.92 193.54 145.65
  Q 194.05 145.81 194.19 146.33
  Q 194.82 148.78 192.47 149.66
  Q 190.47 150.42 190.32 148.51
  Z"
/>
<path fill="#fefeef" d="
  M 14.85 164.29
  Q 15.19 163.38 15.97 162.79
  Q 17.35 161.74 17.93 163.39
  L 18.73 165.71
  Q 18.95 166.33 19.41 166.80
  L 20.55 167.93
  A 1.10 1.10 0.0 0 1 20.04 169.78
  L 18.52 170.16
  A 0.82 0.80 -0.2 0 0 17.94 170.73
  L 17.41 172.77
  A 1.38 1.38 0.0 0 1 15.08 173.38
  Q 13.70 171.95 11.73 171.71
  A 0.92 0.91 23.9 0 1 11.14 170.20
  Q 12.62 168.50 11.06 166.74
  A 0.68 0.68 0.0 0 1 11.17 165.74
  Q 12.08 165.09 13.25 165.24
  Q 14.43 165.40 14.85 164.29
  Z
  M 16.89 169.96
  A 1.26 1.26 0.0 0 0 17.70 169.11
  L 18.02 168.01
  A 1.26 1.26 0.0 0 0 17.11 166.44
  L 15.43 166.02
  A 1.26 1.26 0.0 0 0 13.87 167.23
  L 13.85 169.22
  A 1.26 1.26 0.0 0 0 15.51 170.43
  L 16.89 169.96
  Z"
/>
<path fill="#8ab412" d="
  M 16.89 169.96
  L 15.51 170.43
  A 1.26 1.26 0.0 0 1 13.85 169.22
  L 13.87 167.23
  A 1.26 1.26 0.0 0 1 15.43 166.02
  L 17.11 166.44
  A 1.26 1.26 0.0 0 1 18.02 168.01
  L 17.70 169.11
  A 1.26 1.26 0.0 0 1 16.89 169.96
  Z"
/>
<path fill="#fefeef" d="
  M 154.10 185.56
  Q 154.62 184.69 155.39 184.10
  A 1.15 1.15 0.0 0 1 157.20 184.65
  Q 157.63 186.00 156.69 186.82
  A 1.12 1.11 -54.6 0 1 155.53 187.02
  Q 153.91 186.37 152.95 187.76
  A 1.11 1.11 0.0 0 1 151.12 187.77
  L 149.08 184.88
  A 0.65 0.64 -49.0 0 1 149.04 184.23
  L 150.88 180.61
  A 0.60 0.60 0.0 0 1 151.71 180.36
  L 152.96 181.07
  Q 153.43 181.33 153.89 181.04
  Q 155.03 180.31 156.37 180.27
  Q 156.94 180.25 157.01 180.83
  L 157.15 182.21
  A 1.00 1.00 0.0 0 1 155.59 183.14
  Q 154.74 182.55 153.68 182.24
  A 1.70 1.70 0.0 0 0 151.81 184.83
  Q 152.45 185.77 153.43 185.89
  Q 153.87 185.94 154.10 185.56
  Z"
/>
<path fill="#fefeef" d="
  M 82.21 204.90
  L 83.69 205.58
  A 0.65 0.65 0.0 0 1 83.93 206.58
  Q 82.76 208.01 82.63 209.84
  Q 82.58 210.63 81.79 210.55
  L 78.94 210.26
  Q 78.39 210.20 78.18 209.69
  L 76.99 206.72
  A 0.71 0.70 67.6 0 1 77.36 205.81
  Q 78.97 205.12 79.35 203.41
  A 0.71 0.70 -76.6 0 1 80.20 202.88
  Q 81.16 203.12 81.46 204.06
  Q 81.65 204.64 82.21 204.90
  Z
  M 82.01 206.90
  A 1.40 1.40 0.0 0 0 80.61 205.50
  A 1.40 1.40 0.0 0 0 79.21 206.90
  A 1.40 1.40 0.0 0 0 80.61 208.30
  A 1.40 1.40 0.0 0 0 82.01 206.90
  Z"
/>
<circle fill="#8ab412" cx="80.61" cy="206.90" r="1.40"/>
<path fill="#daa12a" d="
  M 136.63 219.50
  L 134.52 223.17
  A 0.87 0.86 18.8 0 1 133.65 223.59
  L 129.59 223.02
  A 0.82 0.82 0.0 0 1 128.89 222.19
  Q 128.92 220.35 128.33 218.61
  A 1.03 1.02 54.5 0 1 128.48 217.69
  C 130.74 214.60 133.78 216.34 136.24 217.89
  A 1.20 1.19 31.5 0 1 136.63 219.50
  Z"
/>
<path fill="#fefeef" d="
  M 217.71 227.19
  Q 217.36 226.53 217.35 226.45
  Q 217.30 223.21 219.95 225.35
  Q 220.95 226.17 222.16 225.58
  Q 222.62 225.36 223.07 225.61
  Q 223.94 226.12 223.88 226.99
  Q 223.86 227.24 223.48 227.95
  Q 223.35 228.19 223.28 228.45
  Q 223.14 228.92 223.42 229.33
  Q 224.02 230.22 223.94 231.28
  A 0.65 0.65 0.0 0 1 223.29 231.88
  Q 221.60 231.90 220.24 232.87
  A 0.62 0.62 0.0 0 1 219.37 232.72
  Q 218.33 231.20 216.79 230.19
  A 0.74 0.73 30.7 0 1 216.54 229.24
  Q 216.92 228.47 217.57 227.92
  A 0.59 0.58 56.5 0 0 217.71 227.19
  Z
  M 220.72 227.28
  Q 220.40 227.01 220.10 227.29
  Q 219.56 227.81 219.21 228.49
  A 1.17 1.10 74.1 0 0 221.16 229.66
  Q 221.88 228.30 220.72 227.28
  Z"
/>
<path fill="#8ab412" d="
  M 220.72 227.28
  Q 221.88 228.30 221.16 229.66
  A 1.17 1.10 74.1 0 1 219.21 228.49
  Q 219.56 227.81 220.10 227.29
  Q 220.40 227.01 220.72 227.28
  Z"
/>
<path fill="#fefeef" d="
  M 185.04 247.81
  L 186.11 247.14
  Q 187.59 246.21 188.01 247.91
  Q 188.25 248.90 187.64 249.44
  C 186.65 250.32 185.34 249.37 184.78 248.48
  A 0.41 0.41 0.0 0 0 184.05 248.55
  Q 183.71 249.45 182.74 249.58
  Q 182.11 249.66 181.83 249.09
  Q 181.29 247.98 181.34 246.74
  A 1.15 1.15 0.0 0 1 183.27 245.94
  Q 183.99 246.60 184.39 247.60
  Q 184.59 248.09 185.04 247.81
  Z"
/>
</svg>
