<svg xmlns="http://www.w3.org/2000/svg" xmlns:xlink="http://www.w3.org/1999/xlink" viewBox="0 0 960 960"><defs><style>.cls-1{fill:none;}.cls-2{isolation:isolate;}.cls-3{fill:#893737;}.cls-4{opacity:0.1;}.cls-5{clip-path:url(#clip-path);}.cls-6{fill:#bf492e;}.cls-7{fill:#592222;}.cls-8{clip-path:url(#clip-path-3);}.cls-9{opacity:0.2;}.cls-10{opacity:0.19;}.cls-11{fill:#671d1a;}.cls-12{fill:#fff;opacity:0.5;mix-blend-mode:overlay;}.cls-13{fill:#471615;}</style><clipPath id="clip-path"><rect class="cls-1" x="-1728" y="-1182" width="3840" height="2160"/></clipPath><clipPath id="clip-path-3"><rect class="cls-1" x="-1556" y="-1099" width="3840" height="2160"/></clipPath></defs><title>Artboard 210</title><g class="cls-2"><g id="battleground"><rect class="cls-3" x="-1728" y="-1182" width="3840" height="2160"/><path class="cls-4" d="M178.17-44.85c-1.75-4.07-5.86-7.41-9.87-10.17-11.83-8.13-26.24-13.91-40-19.65-13-5.39-27.21-10.18-39-17.23-6.52-3.92-8.2-9.85-10.18-15.94-2.85-8.8-7.93-17.19-18.75-21.42-10.21-4-23.36-2.52-34.37-3.06-16-.78-32-2.23-48-3.16A494.09,494.09,0,0,0-73.37-136c-13.5.64-23.59,6-34.81,11.4-14.21,6.83-28.53,8.6-44.9,8.64-11.16,0-23.43,2-34.67.59,9.6-6.92,25.76-5.71,35.54-12.76,15.22-11-13.56-16.3-20.26-22-5.69-4.82-10.13-11.23-18.62-13.28a33.58,33.58,0,0,0-3.38-.6c.9-.81.46-2.45-1.32-2.45-15.52,0-31.05,0-46.57-.05-6.94,0-13.89-.08-20.83-.19-9.52-.62-19-1.13-28.6-1.22-3.73,0-4.5,3.56-2.35,5.11-1.93.19-3.88.3-5.79.46a56.12,56.12,0,0,0-17.35,4.13c-5.69,2.43-10.69,5.67-16.08,8.45-4.42,2.28-9.29,4.08-13.17,7-8.7,6.46-8,15.69-11.41,24-3.34,8.13-13.17,15.89-20.8,21.75-7.42,5.7-16.89,6.68-25.33,10.85-3.49,1.73-8.54,4.72-10.15,7.81s3.48,8.13,5.5,10.57c3.42,4.13,7.35,8.15,8.73,13.07,1.28,4.56,1.14,8.55,4.62,12.59,5.21,6,13.33,9.26,22.19,10.65,9.83,1.54,20.15,1.15,29.74,3.64,11.93,3.11,14.07,13,23,19,4.15,2.79,9,4.7,13.85,6.56a134.63,134.63,0,0,1,17.24,8.1c9.92,5.47,19.48,11.13,31.05,14.24,27.41,7.38,56.85,10.19,85.72,9.06,15.41-.6,30.75-2.53,46-4.2,14.23-1.56,26-9.31,39.11-13.44C-75,7.53-61.54,6-50.57-.64c4.3-2.59,8.84-5.14,11.13-9.14a12.92,12.92,0,0,0,1.71-5.08c.29-2.78-2-4.61-1.89-7.21,14.88-3.33,30.2-5.34,45.69-3.85C19.49-24.64,32-20.28,44.8-17.14c11.52,2.83,24.12,5,36.1,2.74,9.18-1.76,9.7-8.63,17.19-12.31,5.32-2.61,11.7-2.4,17.71-2.79,6.56-.43,12.81-1.79,19.19-3A89.86,89.86,0,0,1,156.42-34c5.08.25,14.9,1.69,19.55-.77C179.69-36.8,179.42-41.92,178.17-44.85Z"/><path class="cls-4" d="M1195.25,26.79c-9.73-8.11-22.9-14.27-35.37-19.36C1141.34-.13,1120.76-4,1100.46-7.35c-10.77-1.76-21.59-3.33-32.37-5.09-11-1.81-21.94-4.33-33.11-5.67-20.91-2.49-42.59-2.25-63.69-1.68-12.89.35-26.91,1.21-39.35-2a20.71,20.71,0,0,1-7.09-3,6,6,0,0,1-2-2c-.73-1.8.22-1.75,2.21-3.07,8.29-5.48,18.07-8.85,25.55-15.17,3.14-2.64,6.16-5.72,10.59-7,3.46-1,7.42-1,11-1,6.42-.17,13.69.29,19.74-1.75,4.29-1.44,8.67-4.95,5.75-8.73-2.74-3.55-8.93-5-13.69-6-12.34-2.46-25.38-2.64-38-2.58a258.85,258.85,0,0,1-39.69-3c-10.89-1.64-20.92-5-31.58-7.29-11.11-2.35-22.63-1.9-34-1.8-13,.11-26.08.11-39.11.1-24.83,0-50.24,1.22-75-.43-17.91-1.19-35.83-5.81-53.94-4.18-6.21.55-12.79,1.82-17,5.69-2.86,2.61,1.94,6.44,4.81,3.82s8.21-3.58,13.24-3.81c-2.76,3.1-6.08,6.78-1.69,9.85,1.19.84,2.8.91,4.1,1.6s2.46,2,3.8,2.79a62.24,62.24,0,0,0,12.6,5.32l1.14.36c-7,.14-14,.38-21,.82a289.09,289.09,0,0,0-33.08,3.75c-9,1.63-19,3.63-26.88,7.65-6.8,3.48-11.61,9.68-12.62,16-1.07,6.79,5.39,11.38,10.23,16.31a69.11,69.11,0,0,1,7.21,8c3.65,5.2,2.49,8.93-3.7,12.14C607,5.24,600.61,9.54,600.5,16.57s7.87,10.89,14.88,13.62c10.54,4.11,21.18,7.69,30.21,13.61-1,.52-2,1-2.93,1.56-2,1.1-2.26,3-.71,4.4,13.72,12.9,36.19,12.6,55.17,16.81,12.55,2.79,24.68,6.67,37.37,9.05,12.91,2.42,26.3,3.88,39.47,5s26.25,1,39.42,1.53c11.27.49,23.25,1.5,34.37-.64,5.53-1.07,7-5.79,4.83-9.7s-7.44-6.55-12-8.58c-6.82-3-14.18-5.21-21.42-7.5-2.53-.8-5.83-1.56-8.9-2.58,4.94.28,10.22,1.69,14.19,2.58,7.4,1.66,14.61,3.83,22,5.49,10,2.23,20.51,3,30.76,4,13.32,1.41,26.24,3.77,39.39,5.93a494.92,494.92,0,0,0,72.48,6.64c24.63.36,48.12-4.6,72.4-6.93,22.62-2.17,45.56-.26,68.28-1.48,19.4-1,43.07-3.14,59.42-12.29,6.88-3.86,12.84-9.91,13.42-16.78C1203,34.9,1199.87,30.64,1195.25,26.79Z"/><path class="cls-4" d="M429.27,304.78l-4.14-.07c-10.63-.9-21-7.25-30.89-9.89a200.76,200.76,0,0,1-37.94-14.71c-18.88-9.4-39-20.09-61.34-22.87.29-.31.57-.63.84-1,.81-1,.37-2.15-.49-3-6.27-6.42-20.5-6.05-29.61-6-12.29.1-24.61.94-36.91,1.26-19.2.5-39.37,3-58-1.87-8-2.09-15.3-3.06-23.75-1.89-9.25,1.29-18.56,3.85-27.37,6.41a48.9,48.9,0,0,0-18.49,9.7c-7.35,6.22-14.49,11.81-24.14,15.81a2.5,2.5,0,0,0-.71,4.38c.61.46,1.22.87,1.84,1.25-2.23.31-4.48.61-6.73.9-6,.8-12.08,1.39-17.31,4.1s-10.14,5.8-14.89,8.86c-8.41,5.43-2.79,14.1,5.42,17.76,4.72,2.09,10.15,3,15.4,3.82,7.38,1.12,14.61,2.56,21.9,4,18.36,3.68,36.4,4,55.25,3.81,18.32-.22,37.54.8,55.65-1.65,17.54-2.37,34.19-8.94,51.87-10.47,7.95-.68,15.9,0,23.82-1.19,8.79-1.35,17.38-2.75,26.37-3,22.3-.52,44.71-.12,67-.25,20.84-.12,41.69-.15,62.53.24a31.53,31.53,0,0,0,4.77.08C433,309.14,433.06,304.86,429.27,304.78Z"/><path class="cls-4" d="M1053.46,337.1c-5.73-3.89-12.49-6.14-19.74-7.42a12.81,12.81,0,0,0,3.92-5.14c.58-1.37-.69-2.53-2.17-3a115.52,115.52,0,0,0-32.64-5.45c1.07-.78.7-2.55-1.15-2.5-29.66.75-59.4.94-89,3.16-13,1-26.17,2.21-39,4.34-9.69,1.61-16.63,4.83-20.57,12.26-.4.76.15,1.58.73,2.16,9.92,9.87,26.24,13.14,41.11,15.7,8.91,1.54,17.85,3.5,26.83,4.67a234.12,234.12,0,0,0,30.32,1.47c22,0,43.39.44,65.21-1.84,14.53-1.53,29.47-4.23,36.59-15.49A2.07,2.07,0,0,0,1053.46,337.1Z"/><path class="cls-4" d="M172.25,867.79c-9.73-8.11-22.9-14.27-35.37-19.36-18.54-7.56-39.12-11.46-59.42-14.78-10.77-1.76-21.59-3.33-32.37-5.09C34,826.75,23.15,824.23,12,822.89c-20.91-2.49-42.59-2.25-63.69-1.68-12.89.35-26.91,1.21-39.35-2a20.71,20.71,0,0,1-7.09-3,6,6,0,0,1-2-2c-.73-1.8.22-1.75,2.21-3.07,8.29-5.48,18.07-8.85,25.55-15.17,3.14-2.64,6.16-5.72,10.59-7,3.46-1,7.42-.95,11-1,6.42-.17,13.69.29,19.74-1.75,4.29-1.44,8.67-5,5.75-8.73-2.74-3.55-8.93-5-13.69-6-12.34-2.46-25.38-2.64-38-2.58a258.85,258.85,0,0,1-39.69-3c-10.89-1.64-20.92-5-31.58-7.29-11.11-2.35-22.63-1.9-34-1.8-13,.11-26.08.11-39.11.1-24.83,0-50.24,1.22-75-.43-17.91-1.19-35.83-5.81-53.94-4.18-6.21.55-12.79,1.82-17,5.69-2.86,2.61,1.94,6.44,4.81,3.82s8.21-3.58,13.24-3.81c-2.76,3.1-6.08,6.78-1.69,9.85,1.19.84,2.8.91,4.1,1.6s2.46,2,3.8,2.79a62.24,62.24,0,0,0,12.6,5.32l1.14.36c-7,.14-14,.38-21,.82a289.09,289.09,0,0,0-33.08,3.75c-9,1.63-19,3.63-26.88,7.65-6.8,3.48-11.61,9.68-12.62,16-1.07,6.79,5.39,11.38,10.23,16.31a69.11,69.11,0,0,1,7.21,8c3.65,5.2,2.49,8.93-3.7,12.14-6.79,3.52-13.21,7.82-13.32,14.85s7.87,10.89,14.88,13.62c10.54,4.11,21.18,7.69,30.21,13.61-1,.52-2,1-2.93,1.56-2,1.1-2.26,2.95-.71,4.4,13.72,12.9,36.19,12.6,55.17,16.81,12.55,2.79,24.68,6.67,37.37,9,12.91,2.42,26.3,3.88,39.47,5s26.25,1,39.42,1.53c11.27.49,23.25,1.5,34.37-.64,5.53-1.07,7-5.79,4.83-9.7s-7.44-6.55-12-8.58c-6.82-3-14.18-5.21-21.42-7.5-2.53-.8-5.83-1.56-8.9-2.58,4.94.28,10.22,1.69,14.19,2.58,7.4,1.66,14.61,3.83,22,5.49,10,2.23,20.51,3,30.76,4,13.32,1.41,26.24,3.77,39.39,5.93a494.92,494.92,0,0,0,72.48,6.64c24.63.36,48.12-4.6,72.4-6.93,22.62-2.17,45.56-.26,68.28-1.48,19.4-1.05,43.07-3.14,59.42-12.29,6.88-3.86,12.84-9.91,13.42-16.78C180,875.9,176.87,871.64,172.25,867.79Z"/><path class="cls-4" d="M776,763.31c-7.87-11.11-28.81-12.81-43-13.68-19.08-1.16-38,.69-57.09.33-9.3-.17-19-1-28.19.79-8.66,1.68-16,5.83-24.87,7.13a182.73,182.73,0,0,1-20.94,1.81,93.27,93.27,0,0,1-13.74-.25,223.9,223.9,0,0,1,59.92-19.81c8.39-1.5,17.59-3,24.93-6.73,5.5-2.81,11-8.18,4.12-12.15-6.15-3.54-15.24-3.67-22.52-3.89-9-.27-18.3.43-27.27-.55-14.81-1.62-29.78-2.89-44.56-4.67a159.19,159.19,0,0,0-20.49-1.54c-8.15.07-16.29.75-24.44.29-9-.51-18.09-1.51-27-2.9-4.8-.76-20.26-2.27-21.25-7.28-.75-3.79-8-2.18-7.28,1.58a7.29,7.29,0,0,0,2.95,4.27c-2.37,0-4.74,0-7.12.08-18.49.79-36.56,4.83-54.64,7.69-8.46,1.33-16.89,2.09-25.45,2.86-7.69.69-15.82,1.55-22.63,4.68-10.82,5-11.77,14.61-7.25,23.07,11.28,21.08,43.92,32,69.37,38.83,15.88,4.28,31.82,8.33,48.7,8.94,18.94.68,37.75-1.82,56.52-3.42,8.47-.73,17.14-1.68,25.59-.39s16.26,4.2,24.48,6c8,1.79,16.51,2.5,24.73,3.63,10.26,1.41,20.52,2.85,30.84,4,17,1.84,34.29,2.36,51.46,3A140.46,140.46,0,0,0,721,804.5c8.24-1,15.42-3.64,22.62-6.87,6.42-2.88,12.63-5.87,19.42-8.19,5.54-1.9,10.18-4,12.85-8.51C779.14,775.5,779.81,768.66,776,763.31Z"/><path class="cls-4" d="M16.57,180.08c-2.71-5-9.81-7-15.93-8.6,3.63-7.88-5-16.09-15.4-17.19a29,29,0,0,0-17.09,3.78,11.49,11.49,0,0,0-6.06-.18c-6,1.28-11.84,4.35-17.31,6.53-6.12,2.44-10.93,8-7.1,13.32,3,4.2,9.4,5.14,14.7,6.57.91.25,4.53,1.11,5.9,2.1,2.95,2.13,4,4.93,7.81,6.61,7,3.06,15.71,1.94,23.36,2C-.32,195,23.79,193.3,16.57,180.08Zm-18,7.34.22.06C2.15,188.16-.25,189.55-1.43,187.42Z"/><path class="cls-4" d="M259.57,582.08c-2.71-5-9.81-7-15.93-8.6,3.63-7.88-5-16.09-15.4-17.19a29,29,0,0,0-17.09,3.78,11.49,11.49,0,0,0-6.06-.18c-6,1.28-11.84,4.35-17.31,6.53-6.12,2.44-10.93,8-7.1,13.32,3,4.2,9.4,5.14,14.7,6.57.91.25,4.53,1.11,5.9,2.1,2.95,2.13,4,4.93,7.81,6.61,7,3.06,15.71,1.94,23.36,2C242.68,597,266.79,595.3,259.57,582.08Zm-18,7.34.22.06C245.15,590.16,242.75,591.55,241.57,589.42Z"/><path class="cls-4" d="M392.39,149.69c-1.33-.34-2.69-.6-4.05-.84a6.87,6.87,0,0,0-4.65-3.12,29.53,29.53,0,0,0-8.63-.6,6.38,6.38,0,0,0-4.76-.71l-1.37.34c-2.89.72-4.72,3.67-3.18,5.77a7.83,7.83,0,0,0,.21,2.07,5.81,5.81,0,0,0,1.45,3.15c1.7,2.32,4.61,4.14,8.32,5.39,7,2.33,12.59,6.45,20.69,5.59,4.63-.49,7.58-2.53,8-6.36C405.13,154.66,398.35,151.2,392.39,149.69Z"/><path class="cls-4" d="M33.23,405.13c-6.74-.89-13.59-.6-20.4-.62-8.26,0-16.54-.19-24.8-.05-12.93-.79-13.33,15.77-.41,16.25a8.38,8.38,0,0,0,3.57.71c.34.29.66.55.86.75a52.61,52.61,0,0,0,4.48,4.48c4.06,3.3,9.14,4.3,14.74,4.93,11.47,1.31,27.63,1.32,36.5-5.73C59.2,416.76,44.84,406.66,33.23,405.13Z"/><path class="cls-4" d="M740.89,379.6a15,15,0,0,0-4.08-4.3c.07-2.68-2.12-5.43-6.56-5.59-2.15-.08-4.56-.28-7.12-.49a28.07,28.07,0,0,0-10.21-.67c-8.73-.27-17.36.65-21.95,6.16-5.55,6.66-.75,16.78,8.62,19.33,5.38,1.47,11.87.9,17.5,1.21,7.81.43,13.32-2.07,20.15-4.61C742.57,388.66,743,383.27,740.89,379.6Z"/><path class="cls-4" d="M483.89,868.6a15,15,0,0,0-4.08-4.3c.07-2.68-2.12-5.43-6.56-5.59-2.15-.08-4.56-.28-7.12-.49a28.07,28.07,0,0,0-10.21-.67c-8.73-.27-17.36.65-21.95,6.16-5.55,6.66-.75,16.78,8.62,19.33,5.38,1.47,11.87.9,17.5,1.21,7.81.43,13.32-2.07,20.15-4.61C485.57,877.66,486,872.27,483.89,868.6Z"/><path class="cls-4" d="M969.64,679.64a18,18,0,0,0-1.43-1.62,8.35,8.35,0,0,0-5.05-4.31c-2.95-1-7.35-.69-9.54,1.43a19.41,19.41,0,0,0-1.47,1.58,10,10,0,0,0-4.64,3.31,6.87,6.87,0,0,0-1.21,5.15c.69,4.05,4.89,6.82,10,7,4.78.43,10.16-.62,12.68-4.16a7.12,7.12,0,0,0,1.3-3.86A4.61,4.61,0,0,0,969.64,679.64Z"/></g><g id="back_land"><g class="cls-5"><path class="cls-6" d="M2469.38-496q-.8,79-1.6,158.09l-.75,73.83L2464,36H2074.58C1907.57-41.11,1693-107.4,1444-158.79c-131.06-27.06-271.66-50-419.9-68.19h0C766.44-258.62,485.74-276,192-276c-514,0-988.17,53.23-1368.64,143h0c-101.48,23.94-196.25,50.46-283.38,79.27h0c-84.34,27.88-161.46,57.9-230.48,89.77H-2080q-.12-53.64-.25-107.27-.11-43.6-.2-87.21l-.39-167q-.1-49.1-.22-98.19-.09-36.17-.17-72.32Z"/></g></g><g id="front_decor"><g class="cls-5"><path class="cls-7" d="M2351,652c-295.27,283.52-1150.28,488.5-2159,488.5s-1863.74-205-2159-488.5h-113v605H2464V652Z"/></g></g><g id="ground_decor"><g class="cls-8"><path class="cls-9" d="M653.86,943.81a36,36,0,0,0-4.38,1.1l-1.06.08c-.08-.08-.14-.17-.22-.25a7.79,7.79,0,0,0-2.38-1.49c-1.79-2.9-5.63-3.84-8.85-4a7.42,7.42,0,0,0-5.46,2.42c-5.72,1.55-9.7,6.68-7.71,13.4a7.52,7.52,0,0,0,7,5.36c4.87.27,9.48.72,13.73-1,.39,0,.77,0,1.15-.06a12.74,12.74,0,0,0,2.5.27,19.14,19.14,0,0,0,5.61-1.08c3.24-.44,6.29-1.42,8-4.51C664.92,948.33,659.78,942.88,653.86,943.81Z"/><path class="cls-10" d="M655,946.38a31.32,31.32,0,0,0-6.79-.39,3.67,3.67,0,0,0-2.92-.11l-.23,0-.47,0c-1.05-.25-2.12-.34-3.2-.54a4.44,4.44,0,0,0-.5-.57c-2.5-2.24-5.09-2.63-8.34-2.14-3.45.53-4,4-2.8,6.63a7,7,0,0,0-.5,1.21c-.27,1.94.16,3.93,2,5s4.34.88,6.67.64a10.56,10.56,0,0,0,3.85,1.11,18.51,18.51,0,0,0,6.17-.39,16,16,0,0,0,1.77-.65c.53,0,1,0,1.56,0a4.53,4.53,0,0,0,4.57-.17l.36-.26C659.48,953.35,659.7,947.36,655,946.38Z"/><path class="cls-11" d="M648.18,950.22c6.51,3.57,16,.6,16.28-7.6a16.24,16.24,0,0,0-6.17-13.91c-2.9-2.33-6.12-4.3-8.94-6.73l-.71.09a1.92,1.92,0,0,0-3-.27c-1.64,1.65-3.52,2.66-4.83,4.62s-2.18,4.65-3.14,7c-.87,2.1-2.46,4.3-3.14,6.59C637.68,944,643.8,947.82,648.18,950.22Z"/><path class="cls-10" d="M660.17,942.83c-4.87-.39-9-2.78-13.25-5a17.93,17.93,0,0,0-2.79-1.3,1.93,1.93,0,0,0,.62-.91l0-.07.12-.14.23-.36a3.08,3.08,0,0,0,.61-1.31,1.84,1.84,0,0,0,.07-.47l-.07-.52v0a1.39,1.39,0,0,0-1-1.17c.3.11.22.07-.27-.13l-.58-.07a1.27,1.27,0,0,0-.28,0c.55-1.9,1.75-3.28,4.52-3.45,1.66-.09,2.59-2.47.91-3.34-3.67-1.89-7.19-.36-9.68,2.79a9.21,9.21,0,0,0-2.12,5.72,25.07,25.07,0,0,0,.32,2.68,3.86,3.86,0,0,0-2.61,3.48c-.23,3.4,4.15,6.07,6.62,7.68,6.27,4.1,17.09,7.69,21.8-.37A2.63,2.63,0,0,0,660.17,942.83ZM653,945.48a7.18,7.18,0,0,1-.85-.23,14.26,14.26,0,0,1,2.48.28A5.3,5.3,0,0,1,653,945.48Z"/><path class="cls-9" d="M659.37,946.59c-2.25-2.09-5.79-.8-8.38-2.46-3.06-2-6.48-2.9-9.81-4.47a4.43,4.43,0,0,1-.92-.69c-.28-.3-.46-.3-.56-.22,0-.15.08-.37.13-.69.15-1.06,1.58-3.07,2-4.11.35-.8,3.79-8.36,5-7.76.69.34,1.8-.06,1.7-1l-.07-.66A1.56,1.56,0,0,0,647,923c-4.48-.22-6.56,4.71-8.2,8-1.54,3.1-3.84,7.16-2.08,10.6,1.88,3.68,6.25,4.69,9.72,6.41a2,2,0,0,0,1.09,1.67,9.54,9.54,0,0,0,4.22,1.2,4.39,4.39,0,0,0,.72-.07c2.79.76,5.73.64,7.24-2.05A1.86,1.86,0,0,0,659.37,946.59Z"/><path class="cls-12" d="M663.85,937.44a4,4,0,0,0-1.51-2.65c-1.09-1-.9-1.27-1.66-2.57a16.87,16.87,0,0,0-4.38-4.57c-2-1.37-4.84-3.33-7.21-3.76l0,0a2.09,2.09,0,0,0-2.58,2.54c.53,1.69,1.92,2.66,3.44,3.53-1.84,1.77-1.46,5.15-.27,7.31,1.49,2.7,3.8,2.29,5.86,1,2.53.3,2.14,3.55,2.67,5.74s3.5,2.3,4.71.61S664.1,939.28,663.85,937.44Z"/><path class="cls-13" d="M665.79,937.05a7.32,7.32,0,0,0-1.55-4.73c-2.83-3.47-6.69-6.15-9.66-9.46-2.53-2.84-4.81-3.26-7.94-2.79a1.91,1.91,0,0,0-3-.27c-1.65,1.65-3.53,2.66-4.84,4.62s-2.18,4.65-3.14,7c-1.46,3.52-4.94,7.29-2.78,11.35,1,1.91,3.35,3.07,5,4.27,2.59,1.82,5.07,3.87,7.71,5.61,4.17,2.76,8.33,2.36,12.79.31,3.67-1.68,7.44-3,8.07-7.45C666.92,942.65,666,939.82,665.79,937.05Zm-3.17,7.13c-.49,3-2.44,3.47-4.6,4.5-5.54,2.64-8.13,2.08-12.76-1.39-1.94-1.46-8.85-5-9-7.59-.07-1.2,1.91-4,2.45-5.17s.94-2.49,1.45-3.72a18,18,0,0,1,4.43-6.29l.35,0c4.87-1.11,5.35.34,8.33,3.08,1.81,1.65,3.44,3.35,5.17,5.06.67.66,2.13,1.38,2.63,2.1,1.07,1.54.55,3.06.72,4.7S662.88,942.57,662.62,944.18Z"/><path class="cls-9" d="M959.25,619.15l-.19-.51c-1.2-3.31-5-5.44-8.31-3.38h0a18.1,18.1,0,0,0-2.22.33c-.13,0-.24.12-.37.18l-.09,0c-3.85-1.64-7.86-2.81-11.91-1.12a9.06,9.06,0,0,0-4.64,3.52l-.09.17c-4.56,1.46-6.54,8.86-1.46,11.19a9.91,9.91,0,0,0,5.08,1.06,8.9,8.9,0,0,0,3.57,0,6.1,6.1,0,0,0,.91-.31,7,7,0,0,0,6.12,1.23v0a7,7,0,0,0,1-.29c.27,0,.53-.11.79-.18a5.88,5.88,0,0,0,5.66-1.49,6.53,6.53,0,0,0,1.47-2.71,7.71,7.71,0,0,0,1.93-.87C958.59,624.68,960.17,621.69,959.25,619.15Z"/><path class="cls-10" d="M950.28,617.24a6.52,6.52,0,0,0-3.62.5,10.09,10.09,0,0,1-2,1.06h-.06a3.22,3.22,0,0,0-.62-.66,6.37,6.37,0,0,0-6.41-1.46,7.48,7.48,0,0,0-5,3.51c-2,3.59.49,8.48,4.81,8.37a7.24,7.24,0,0,0,2-.31h.18a9.77,9.77,0,0,0,1.21,0,30.89,30.89,0,0,0,4.37-.83,12,12,0,0,0,3.23-1.12,10.79,10.79,0,0,0,1.39-.92l.63-.5c.33-.29.29-.23-.12.17C955.41,625,955.18,617.76,950.28,617.24Z"/><path class="cls-11" d="M941.66,612.58c-2.71,11.49,11.4,9.33,17.32,5.35,3.55-2.39,8.75-7.69,5.06-12-1.66-1.93-4.24-3.15-6.44-4.37a.87.87,0,0,1-.42-1.1,1.57,1.57,0,0,0-1.77-.27,29.9,29.9,0,0,0-13.75,12.25A.41.41,0,0,1,941.66,612.58Z"/><path class="cls-10" d="M960.36,612.91c-1.65.22-3.27.46-4.91.71a22.45,22.45,0,0,1-2.58.22h-.35a3.4,3.4,0,0,0-.55-1.16c-1.21-1.72-4.42-1.32-4.29,1.16a10.19,10.19,0,0,1-.23,2,.71.71,0,0,1-.07-.09v-.26c-1-5.39,4.31-7,7.64-9.73a2.08,2.08,0,0,0-.92-3.47c-3.38-.53-7.29,1.68-9.67,4s-3.34,7-2.8,10.4,3.58,5,6.82,5.24c4.25.32,7.14-1.48,10.24-4.09a1.53,1.53,0,0,0,.49-1.11c.52-.24,1.06-.48,1.61-.68C962.35,615.5,962.28,612.66,960.36,612.91Z"/><path class="cls-9" d="M956.28,616.48a24.66,24.66,0,0,0-4.28-.18c-1-.59-2-.41-3.08-.79a16.5,16.5,0,0,1-2.64-1c-.25-.3-.13,0,0-.66a13.35,13.35,0,0,1,.72-1.91c.36-1,.84-1.86,1.28-2.83s-.88-2.46-1.81-1.39c-.42.48-1,.74-1.4,1.25a21.58,21.58,0,0,0-1.47,2.67c-1,1.66-1.59,3.22-.68,5.07.69,1.39,2,1.69,3.15,2.56a5.69,5.69,0,0,0,5.7.94,2.61,2.61,0,0,0,.6-.31c1.32-.23,2.64-.55,3.92-.7A1.34,1.34,0,0,0,956.28,616.48Z"/><path class="cls-12" d="M962,606a8.23,8.23,0,0,0-2.64-1.34,7.09,7.09,0,0,0-2.43-.78c-1.9,0-4.37,1.68-2.69,3.69a.91.91,0,0,0,.3.26c-1.45.81-.73,2.88.63,3.33l0,0a3.86,3.86,0,0,0,.59.12l.06.13a1,1,0,0,0,0,.24v0c-.11,1.51,1.07,3.24,2.74,3.06a3.72,3.72,0,0,0,1.87-.56c.64-.51.76-.6.38-.27a3.65,3.65,0,0,1,.34-.18,4.61,4.61,0,0,0,2.13-1.87A5,5,0,0,0,962,606Z"/><path class="cls-13" d="M967,608.56c-.81-3.57-2.77-5.2-5.85-6.71-2.06-1-3.67-2.28-5.42-2.37a1.65,1.65,0,0,0-2.32-1.26c-6.35,2.52-15.57,10.79-15.41,18.31a6.88,6.88,0,0,0,5.11,6.75c3.5.82,7.44,1.22,10.8.1C960.65,621.14,968.93,617.07,967,608.56Zm-3.8,3.12c-.81,4.3-6.63,6.9-10.51,7.8a18.49,18.49,0,0,1-6.12,0c-.49,0-1.81.23-2.22,0-1.48-1-1.28-6.09-.57-7.55,1.46-3,5.17-6.64,8.52-8.69a2.14,2.14,0,0,0,3.06.37c.5-.42,3.16,1.46,3.67,1.77C961.55,606.82,963.83,608.34,963.2,611.68Z"/><path class="cls-9" d="M936.25,876.15l-.19-.51c-1.2-3.31-5-5.44-8.31-3.38h0a18.1,18.1,0,0,0-2.22.33c-.13,0-.24.12-.37.18l-.09,0c-3.85-1.64-7.86-2.81-11.91-1.12a9.06,9.06,0,0,0-4.64,3.52l-.09.17c-4.56,1.46-6.54,8.86-1.46,11.19a9.91,9.91,0,0,0,5.08,1.06,8.9,8.9,0,0,0,3.57,0,6.1,6.1,0,0,0,.91-.31,7,7,0,0,0,6.12,1.23v0a7,7,0,0,0,1-.29c.27,0,.53-.11.79-.18a5.88,5.88,0,0,0,5.66-1.49,6.53,6.53,0,0,0,1.47-2.71,7.71,7.71,0,0,0,1.93-.87C935.59,881.68,937.17,878.69,936.25,876.15Z"/><path class="cls-10" d="M927.28,874.24a6.52,6.52,0,0,0-3.62.5,10.09,10.09,0,0,1-2,1.06h-.06a3.22,3.22,0,0,0-.62-.66,6.37,6.37,0,0,0-6.41-1.46,7.48,7.48,0,0,0-5,3.51c-2,3.59.49,8.48,4.81,8.37a7.24,7.24,0,0,0,2-.31h.18a9.77,9.77,0,0,0,1.21,0,30.89,30.89,0,0,0,4.37-.83,12,12,0,0,0,3.23-1.12,10.79,10.79,0,0,0,1.39-.92l.63-.5c.33-.29.29-.23-.12.17C932.41,882,932.18,874.76,927.28,874.24Z"/><path class="cls-11" d="M918.66,869.58c-2.71,11.49,11.4,9.33,17.32,5.35,3.55-2.39,8.75-7.69,5.06-12-1.66-1.93-4.24-3.15-6.44-4.37a.87.87,0,0,1-.42-1.1,1.57,1.57,0,0,0-1.77-.27,29.9,29.9,0,0,0-13.75,12.25A.41.41,0,0,1,918.66,869.58Z"/><path class="cls-10" d="M937.36,869.91c-1.65.22-3.27.46-4.91.71a22.45,22.45,0,0,1-2.58.22h-.35a3.4,3.4,0,0,0-.55-1.16c-1.21-1.72-4.42-1.32-4.29,1.16a10.19,10.19,0,0,1-.23,2,.71.71,0,0,1-.07-.09v-.26c-1-5.39,4.31-7,7.64-9.73a2.08,2.08,0,0,0-.92-3.47c-3.38-.53-7.29,1.68-9.67,4s-3.34,7-2.8,10.4,3.58,5,6.82,5.24c4.25.32,7.14-1.48,10.24-4.09a1.53,1.53,0,0,0,.49-1.11c.52-.24,1.06-.48,1.61-.68C939.35,872.5,939.28,869.66,937.36,869.91Z"/><path class="cls-9" d="M933.28,873.48a24.66,24.66,0,0,0-4.28-.18c-1-.59-2-.41-3.08-.79a16.5,16.5,0,0,1-2.64-1c-.25-.3-.13,0,0-.66a13.35,13.35,0,0,1,.72-1.91c.36-1,.84-1.86,1.28-2.83s-.88-2.46-1.81-1.39c-.42.48-1,.74-1.4,1.25a21.58,21.58,0,0,0-1.47,2.67c-1,1.66-1.59,3.22-.68,5.07.69,1.39,2,1.69,3.15,2.56a5.69,5.69,0,0,0,5.7.94,2.61,2.61,0,0,0,.6-.31c1.32-.23,2.64-.55,3.92-.7A1.34,1.34,0,0,0,933.28,873.48Z"/><path class="cls-12" d="M939,863a8.23,8.23,0,0,0-2.64-1.34,7.09,7.09,0,0,0-2.43-.78c-1.9,0-4.37,1.68-2.69,3.69a.91.91,0,0,0,.3.26c-1.45.81-.73,2.88.63,3.33l0,0a3.86,3.86,0,0,0,.59.12l.06.13a1,1,0,0,0,0,.24v0c-.11,1.51,1.07,3.24,2.74,3.06a3.72,3.72,0,0,0,1.87-.56c.64-.51.76-.6.38-.27a3.65,3.65,0,0,1,.34-.18,4.61,4.61,0,0,0,2.13-1.87A5,5,0,0,0,939,863Z"/><path class="cls-13" d="M944,865.56c-.81-3.57-2.77-5.2-5.85-6.71-2.06-1-3.67-2.28-5.42-2.37a1.65,1.65,0,0,0-2.32-1.26c-6.35,2.52-15.57,10.79-15.41,18.31a6.88,6.88,0,0,0,5.11,6.75c3.5.82,7.44,1.22,10.8.1C937.65,878.14,945.93,874.07,944,865.56Zm-3.8,3.12c-.81,4.3-6.63,6.9-10.51,7.8a18.49,18.49,0,0,1-6.12,0c-.49,0-1.81.23-2.22,0-1.48-1-1.28-6.09-.57-7.55,1.46-3,5.17-6.64,8.52-8.69a2.14,2.14,0,0,0,3.06.37c.5-.42,3.16,1.46,3.67,1.77C938.55,863.82,940.83,865.34,940.2,868.68Z"/><path class="cls-9" d="M389.13,297.55c-3-3.28-9.18-4.81-14.3-3.83-3.31-.22-8,.88-10.44,3.06a6.89,6.89,0,0,0,.44,10.68c4,3.29,10.84,4.25,15.92,4.28,3,0,6.13-.6,8.31-2.76A8.3,8.3,0,0,0,389.13,297.55Z"/><path class="cls-10" d="M385.19,299.43c-2.33-1.41-5.19-.93-7.81-1.3a48.56,48.56,0,0,0-6.69-1,4.78,4.78,0,0,0-4.71,4.7c0,2.77,2.17,4.44,4.71,4.71,1.23.13,2.11.87,3.49.85a4.87,4.87,0,0,0,.55-.06,8.91,8.91,0,0,0,2.65.24,28.65,28.65,0,0,1,3.57-.3,7.15,7.15,0,0,0,4.24-1A4,4,0,0,0,385.19,299.43Z"/><path class="cls-11" d="M386.73,302.46c5.35-.76,11.68-6.79,6.83-12.41-1.51-1.76-4.81-3.71-7.39-5-1-.17-1.95-.29-2.94-.44a3.59,3.59,0,0,0-.17-.34,2.2,2.2,0,0,0-2.48-1.38,5.44,5.44,0,0,0-.7,0c-3.64.35-6.35,3.44-7.49,6.67a14,14,0,0,0-1,6.22C374.42,300.88,380.73,303.3,386.73,302.46Z"/><path class="cls-10" d="M391.51,295.9c-3.13.15-10.53,0-11.38-4.15a2,2,0,0,0-1.9-1.45l-.23,0a3.37,3.37,0,0,0-.87.22,2.23,2.23,0,0,1,.69-1.62,2,2,0,0,0,.77-.72l.08-.13a2.22,2.22,0,0,0-.78-3c-4-2.62-6.3,5.32-6.1,7.88a11.78,11.78,0,0,0,2.9,6l.11.13a6,6,0,0,0,.76,1,4.1,4.1,0,0,0,2.36,1c1.74.82,3.6.73,5.68.77,2.39,0,5.24-.09,6.47-2.47a1.73,1.73,0,0,0,.1-1.29l1.34-.17C392.83,297.87,392.89,295.84,391.51,295.9Z"/><path class="cls-9" d="M388,298.26a2.51,2.51,0,0,0-2.3-1.76c-.66-.05-1.21-.45-1.89-.49a24.38,24.38,0,0,0-2.43.25,3.87,3.87,0,0,1-.51,0,2.07,2.07,0,0,1,0-.37,1.17,1.17,0,0,0-1.67-1.32l0,0c-1-.86-2.92-2.33-3.18-3.58-.34-1.62.66-2.92,1.08-4.35a1.38,1.38,0,0,0-1.69-1.68c-2.52.54-3.47,4.28-3.27,6.48.22,2.58,2.8,5.17,5.21,6a2.93,2.93,0,0,0,1.43,2.52,6.54,6.54,0,0,0,3.12,1c1.56.11,2.8.63,4.4.32a2.32,2.32,0,0,0,1.67-1.67A2,2,0,0,0,388,298.26Z"/><path class="cls-12" d="M394.11,291.81c-.11-.16-1-1.29-1.39-1.82a2.42,2.42,0,0,0-2.38-.63c-1,.25-1.88-.68-2.71-1.1-1-.53-2.15-.84-3.19-1.37a10.17,10.17,0,0,0-6.74-.69c-1.18.23-1.05,2,0,2.26a51.81,51.81,0,0,1,7.42,3.26c.83.37,1.5,1,2.31,1.39s1.42.36,1.77.6a3.19,3.19,0,0,0,.33.78C391.3,297.41,396,294.68,394.11,291.81Z"/><path class="cls-13" d="M393.5,287.94a29.52,29.52,0,0,0-5.73-3.86,23.71,23.71,0,0,0-6.54-1.48,3.59,3.59,0,0,0-.17-.34,2.21,2.21,0,0,0-2.48-1.38,5.44,5.44,0,0,0-.7,0c-3.64.35-6.35,3.44-7.49,6.67-1.4,4-1.64,6.85.4,10.32,1.9,3.23,3,5.27,7,6,7,1.32,17.6-.44,19.88-8.43C398.76,291.81,396.09,289.93,393.5,287.94ZM392,297a11.71,11.71,0,0,1-7.66,3.23c-4.15.24-7.55,0-9.72-3.88a7.48,7.48,0,0,1-.88-5.93c.47-1.9,1.46-4.1,3.21-5a1.76,1.76,0,0,0,.63.55,2,2,0,0,0,3.22.76c3.72.75,7.16,1.48,10.25,4.44C393.16,293.1,394.36,294.68,392,297Z"/><path class="cls-9" d="M389.13,685.55c-3-3.28-9.18-4.81-14.3-3.83-3.31-.22-8,.88-10.44,3.06a6.89,6.89,0,0,0,.44,10.68c4,3.29,10.84,4.25,15.92,4.28,3,0,6.13-.6,8.31-2.76A8.3,8.3,0,0,0,389.13,685.55Z"/><path class="cls-10" d="M385.19,687.43c-2.33-1.41-5.19-.93-7.81-1.3a48.56,48.56,0,0,0-6.69-1,4.78,4.78,0,0,0-4.71,4.7c0,2.77,2.17,4.44,4.71,4.71,1.23.13,2.11.87,3.49.85a4.87,4.87,0,0,0,.55-.06,8.91,8.91,0,0,0,2.65.24,28.65,28.65,0,0,1,3.57-.3,7.15,7.15,0,0,0,4.24-1A4,4,0,0,0,385.19,687.43Z"/><path class="cls-11" d="M386.73,690.46c5.35-.76,11.68-6.79,6.83-12.41-1.51-1.76-4.81-3.71-7.39-5-1-.17-1.95-.29-2.94-.44a3.59,3.59,0,0,0-.17-.34,2.2,2.2,0,0,0-2.48-1.38,5.44,5.44,0,0,0-.7,0c-3.64.35-6.35,3.44-7.49,6.67a14,14,0,0,0-1,6.22C374.42,688.88,380.73,691.3,386.73,690.46Z"/><path class="cls-10" d="M391.51,683.9c-3.13.15-10.53,0-11.38-4.15a2,2,0,0,0-1.9-1.45l-.23,0a3.37,3.37,0,0,0-.87.22,2.23,2.23,0,0,1,.69-1.62,2,2,0,0,0,.77-.72l.08-.13a2.22,2.22,0,0,0-.78-3c-4-2.62-6.3,5.32-6.1,7.88a11.78,11.78,0,0,0,2.9,6l.11.13a6,6,0,0,0,.76,1,4.1,4.1,0,0,0,2.36,1c1.74.82,3.6.73,5.68.77,2.39,0,5.24-.09,6.47-2.47a1.73,1.73,0,0,0,.1-1.29l1.34-.17C392.83,685.87,392.89,683.84,391.51,683.9Z"/><path class="cls-9" d="M388,686.26a2.51,2.51,0,0,0-2.3-1.76c-.66,0-1.21-.45-1.89-.49a24.38,24.38,0,0,0-2.43.25,3.87,3.87,0,0,1-.51,0,2.07,2.07,0,0,1,0-.37,1.17,1.17,0,0,0-1.67-1.32l0,0c-1-.86-2.92-2.33-3.18-3.58-.34-1.62.66-2.92,1.08-4.35a1.38,1.38,0,0,0-1.69-1.68c-2.52.54-3.47,4.28-3.27,6.48.22,2.58,2.8,5.17,5.21,6a2.93,2.93,0,0,0,1.43,2.52,6.54,6.54,0,0,0,3.12,1c1.56.11,2.8.63,4.4.32a2.32,2.32,0,0,0,1.67-1.67A2,2,0,0,0,388,686.26Z"/><path class="cls-12" d="M394.11,679.81c-.11-.16-1-1.29-1.39-1.82a2.42,2.42,0,0,0-2.38-.63c-1,.25-1.88-.68-2.71-1.1-1-.53-2.15-.84-3.19-1.37a10.17,10.17,0,0,0-6.74-.69c-1.18.23-1.05,2,0,2.26a51.81,51.81,0,0,1,7.42,3.26c.83.37,1.5,1,2.31,1.39s1.42.36,1.77.6a3.19,3.19,0,0,0,.33.78C391.3,685.41,396,682.68,394.11,679.81Z"/><path class="cls-13" d="M393.5,675.94a29.52,29.52,0,0,0-5.73-3.86,23.71,23.71,0,0,0-6.54-1.48,3.59,3.59,0,0,0-.17-.34,2.21,2.21,0,0,0-2.48-1.38,5.44,5.44,0,0,0-.7,0c-3.64.35-6.35,3.44-7.49,6.67-1.4,4-1.64,6.85.4,10.32,1.9,3.23,3,5.27,7,6,7,1.32,17.6-.44,19.88-8.43C398.76,679.81,396.09,677.93,393.5,675.94ZM392,685a11.71,11.71,0,0,1-7.66,3.23c-4.15.24-7.55,0-9.72-3.88a7.48,7.48,0,0,1-.88-5.93c.47-1.9,1.46-4.1,3.21-5a1.76,1.76,0,0,0,.63.55,2,2,0,0,0,3.22.76c3.72.75,7.16,1.48,10.25,4.44C393.16,681.1,394.36,682.68,392,685Z"/><path class="cls-9" d="M999.34,215.85a5.78,5.78,0,0,0-5.87-4.1,8.42,8.42,0,0,0-2,.31,12.42,12.42,0,0,0-5.83,1.53l-.8-.21a8.51,8.51,0,0,0-2.32-2.09,12,12,0,0,0-7.74-1.52,10.17,10.17,0,0,0-10.21,2.89,9.08,9.08,0,0,0-4.15,2.58c-.82.09-1.63.18-2.45.23-6.07.37-10.27,8.06-5.26,12.69,5.48,5.07,12.62,3.48,19.25,2.8a8.78,8.78,0,0,0,5.36-2.4,28.74,28.74,0,0,0,15-1.72,8,8,0,0,0,6.34-2.8A6.58,6.58,0,0,0,999.34,215.85Z"/><path class="cls-10" d="M995.14,215.16c-6.53.42-13.1-1.09-19.63-.61-1.2.09-2.46.13-3.73.2a4.34,4.34,0,0,0-3.86.36c-3,.48-5.74,1.57-7.53,4.39-2.28,3.59,2.21,7.85,5.76,5.75a12.92,12.92,0,0,1,1.68-.8l.07.05c4.85,3.28,12.4,3.08,17.89,2.35,4.26-.57,11-.58,13.16-5C1000.29,219,998.74,214.93,995.14,215.16Z"/><path class="cls-9" d="M842,8.66C837.55,3.75,830.16,5,824.08,6.22a6.18,6.18,0,0,0-2.94-2.42C818.29,2.65,815,.9,811.81,1c-4.58.16-7.59,3.61-8,8a10.47,10.47,0,0,0,.09,2.52,11,11,0,0,0-5.42,2.74,7.58,7.58,0,0,0-1.63,2.5c-3.3,4.33-1.31,12.23,5.89,12.62a9.91,9.91,0,0,0,1.09,0C809.3,29.5,815,31,819.33,27c.15-.14.28-.28.41-.42C829.31,28,840.94,24,844,16.05,845,13.5,843.73,10.53,842,8.66Zm-9.89,11.59c1.16-.08,1.54,1.37,0,0Z"/><path class="cls-10" d="M836.52,12c-6-.12-11.92-.13-17.72-1.22a5.63,5.63,0,0,0-1.08-.65,4.74,4.74,0,0,0-3.79-1.23c-5.67.53-13.51,3.52-13.82,10.18a6.37,6.37,0,0,0,3.16,5.51c4.41,2.58,9.82.37,13.36-3.36a99.9,99.9,0,0,0,14.88.49,12.33,12.33,0,0,0,6.26-.52C842.46,19.31,842.15,12.07,836.52,12Zm-24.08,10,.11,0C811.91,23.92,810.69,22.46,812.44,21.94Z"/><path class="cls-11" d="M848.27,8.22A35.82,35.82,0,0,0,851-2.66c.21-3.25-.65-6.44-.65-9.68,0-2.43.68-4.33,1.17-6.66,1-4.93-1.48-9.52-5-12.87a.9.9,0,0,1-.08-1.26c-1.47-1.44-3.46-2.42-5-3.78-2.14-1.91-4.52-1.92-6.94-2.92A15.93,15.93,0,0,0,831-38.25a1.66,1.66,0,0,0-1.73.19c-10.06,7-17.4,18.13-18.45,30.55A34.58,34.58,0,0,0,812.7,6.43a1,1,0,0,1,.37.2c5.29,4.37,11.66,7,18.27,8.6C839,17.14,845,16.17,848.27,8.22Z"/><path class="cls-10" d="M849.85.43c-2.16-1.9-6.43,1.28-8.85,1.43-3.1.2-5.61-1.51-8.54-2-2.24-.37-4.13-.08-6-1.79-2.75-2.49-1.06-6-.71-9.31.3-2.84-.27-5.3-.47-8.08-.42-5.92,3.78-14.53,9-17.49,2-1.12.54-3.71-1.43-3.41-5.54.85-9.78,6.45-11.91,11.87-.08,0-.16,0-.24,0-3.66.61-5.46,6.54-6.28,9.57a40.18,40.18,0,0,0-.9,4c-.22,1.25-.38,2.44-.57,3.39-.92,4.69-2.3,10,1.2,13.82a7.5,7.5,0,0,0,.25,2.06,16.21,16.21,0,0,0,1.41,2.71,13.4,13.4,0,0,0,4.43,5,1.94,1.94,0,0,0,2.45-.11l.34.25c4.32,3,10.82,5.75,16.18,4.38C844,15.48,847.33,9.85,849,5a7.75,7.75,0,0,0,1.43-2.37A2.19,2.19,0,0,0,849.85.43Z"/><path class="cls-9" d="M844.36,7.85a36.11,36.11,0,0,0-6.49-.24c-.87,0-2.5.19-3.21-.39-.11-.09-.51-1.55-.76-1.84-2.3-2.66-8-3.54-11.29-3.54a2,2,0,0,0-1.83,3.05,20.87,20.87,0,0,1-3.35-5.84,15.74,15.74,0,0,1-.51-2L817-3c1.5-3.31.22-6.1.11-9.54a2.21,2.21,0,0,0-.11-.59c.88-2.07,1.94-4,2.51-5.18,1-1.95,1.88-3.9,2.93-5.8,1.21-1.72,2.32-3.5,3.51-5.3a1.7,1.7,0,0,0-1.9-2.48c-1.09.41-2.55,1.87-4.09,3.94a27.36,27.36,0,0,0-3.84,5.63,1.93,1.93,0,0,0-.22.87c-3.44,6.48-6,14.19-4.36,17.72a17.72,17.72,0,0,0,.89,5.1c1,3.12,3.06,7.05,5.58,9.2,1.33,1.14,2.81,1.46,4.4,2.07,2.69,1,5.17,2.49,7.8,3.62a11,11,0,0,0,11.24-1.13,1.81,1.81,0,0,0,.79-1.95l-.06-.24c-.36-1.49-2.15-1.39-2.93-.38.32-.41-.39-.55-1.32-.59,2.18-.3,4.39-.88,6-1S846.23,8.17,844.36,7.85Zm-22.3-1.69a2.61,2.61,0,0,1-.25-.23,2.27,2.27,0,0,0,.8.24c1.87.22,6.29.91,7.67,2.53a10.1,10.1,0,0,0,.65,1.36l-.29-.14C828,8.63,824.35,7.85,822.06,6.16Z"/><path class="cls-12" d="M851.39-11c-.27-5.8.41-11.75-2.66-16.95a14.65,14.65,0,0,0-4.49-5c-1.81-1.38-3-3.3-4.9-4.57-2.81-1.86-7.35-1.84-10.32-.41a2,2,0,0,0-.16,3.31A2.55,2.55,0,0,0,831-32.27a6.33,6.33,0,0,1,4.76,9.13c-.92,1.92-2.11,3.29-2.42,5.48-.42,2.86.58,8.14,4.58,7.49a5.51,5.51,0,0,0,3-2.15c.07.38.13.75.18,1.13.14.83.24,1.66.4,2.49.8,4.12.91,8.7,3.84,11.91a1.73,1.73,0,0,0,.21.17A1.69,1.69,0,0,0,847.7,4C852.62,1.43,851.59-6.56,851.39-11Z"/><path class="cls-13" d="M853.28-17.18c1.09-5.12-.83-11.46-4.06-15.56a16.12,16.12,0,0,0-2.57-2.06c-1.51-1.33-2-2.84-3.22-4.29a10.21,10.21,0,0,0-5.7-3.14,12.68,12.68,0,0,0-8.73,2,1.66,1.66,0,0,0-1.73.19c-10.06,7-17.4,18.13-18.45,30.55-.51,6.13,1,13.8,4.34,19,2.79,4.33,8.53,5.61,13.13,7.18,5.4,1.84,12,2.82,17.22-.08,4.56-2.54,7.62-7.37,9-12.28C854.68-3.06,851.73-10,853.28-17.18ZM849.63-4.36c.31,6.21-2,13.74-7.58,17.18-6.21,3.84-13.6.32-19.58-2.08-3.27-1.32-5.09-1.51-6.75-5a33.71,33.71,0,0,1-2.9-10.21c-1.08-10.32,4.25-20.95,11.76-28.2a2,2,0,0,0,2.76-.62A17.6,17.6,0,0,1,833.49-38c4-1.32,5.57.72,7.71,3.51,1.4,1.84,3.17,2.9,4.64,4.65,1.94,2.32,3.79,6,3.87,9,.07,2.67-1.3,5.14-1.48,7.77C848-10,849.47-7.3,849.63-4.36Z"/></g></g></g></svg>