<?xml version="1.0" encoding="UTF-8" standalone="no"?>
<!DOCTYPE svg PUBLIC "-//W3C//DTD SVG 1.1//EN" "http://www.w3.org/Graphics/SVG/1.1/DTD/svg11.dtd">
<svg xmlns="http://www.w3.org/2000/svg" version="1.1" viewBox="0.00 0.00 500.00 500.00">
<g stroke-width="2.00" fill="none" stroke-linecap="butt">
<path stroke="#81342d" vector-effect="non-scaling-stroke" d="
  M 379.63 43.07
  C 367.30 42.58 358.15 49.71 353.55 60.76
  C 348.51 72.85 362.43 81.16 372.54 80.74
  C 376.93 80.55 380.27 77.03 383.50 76.01
  C 388.33 74.49 392.47 79.42 389.91 83.91
  C 384.63 93.15 374.67 96.47 365.63 100.70
  C 356.22 105.10 341.66 118.44 355.55 128.43
  Q 358.14 130.29 359.56 130.69
  C 371.26 133.99 373.48 124.46 376.64 116.41
  C 381.30 104.56 392.42 103.20 402.32 98.33
  Q 415.49 91.83 416.71 77.77
  C 418.59 55.99 398.85 43.84 379.63 43.07"
/>
<path stroke="#faaea8" vector-effect="non-scaling-stroke" d="
  M 371.39 50.82
  C 368.68 51.81 360.82 57.52 365.70 60.15
  A 2.10 2.10 0.0 0 0 367.93 60.01
  C 371.30 57.61 374.98 56.22 379.21 56.20
  C 381.07 56.19 384.69 56.83 385.37 54.31
  C 387.35 47.03 374.50 49.68 371.39 50.82"
/>
<path stroke="#faaea8" vector-effect="non-scaling-stroke" d="
  M 396.48 55.54
  A 4.03 4.03 0.0 0 0 392.45 51.51
  A 4.03 4.03 0.0 0 0 388.42 55.54
  A 4.03 4.03 0.0 0 0 392.45 59.57
  A 4.03 4.03 0.0 0 0 396.48 55.54"
/>
<path stroke="#552401" vector-effect="non-scaling-stroke" d="
  M 169.96 175.71
  Q 167.53 181.20 167.79 187.39
  C 168.03 192.91 171.23 197.11 175.37 200.38
  A 0.62 0.62 0.0 0 0 176.36 200.05
  L 178.90 190.01
  A 0.74 0.73 15.9 0 0 178.41 189.13
  L 176.32 188.47
  A 1.86 1.85 -77.9 0 1 175.04 186.48
  C 175.90 179.03 178.98 174.12 183.54 168.46"
/>
<path stroke="#6e3d17" vector-effect="non-scaling-stroke" d="
  M 183.54 168.46
  Q 184.36 167.00 185.24 166.91
  A 0.38 0.38 0.0 0 1 185.61 167.48
  C 181.91 173.92 178.41 178.62 176.64 185.87
  A 0.91 0.91 0.0 0 0 177.53 187.00
  L 182.59 186.97"
/>
<path stroke="#552401" vector-effect="non-scaling-stroke" d="
  M 182.59 186.97
  C 186.04 187.01 199.40 185.91 201.33 182.82
  Q 205.88 175.54 209.06 164.79
  Q 209.29 163.99 208.98 163.18"
/>
<path stroke="#6e3d17" vector-effect="non-scaling-stroke" d="
  M 208.98 163.18
  L 209.37 162.00
  Q 209.52 161.54 210.00 161.44
  Q 210.68 161.30 210.85 162.00
  Q 211.08 162.89 210.73 165.27
  Q 209.23 175.67 208.20 186.24"
/>
<path stroke="#552401" vector-effect="non-scaling-stroke" d="
  M 208.20 186.24
  Q 211.73 187.86 214.51 187.90
  Q 220.69 187.99 226.80 188.13
  A 0.62 0.62 0.0 0 0 227.43 187.54
  Q 227.90 175.32 226.93 163.05"
/>
<path stroke="#6e3d17" vector-effect="non-scaling-stroke" d="
  M 226.93 163.05
  L 226.75 160.07
  A 0.62 0.62 0.0 0 1 227.83 159.62
  C 233.32 165.72 236.20 178.58 237.56 186.52
  Q 237.82 188.09 238.66 188.61
  Q 239.73 189.29 241.31 188.96"
/>
<path stroke="#552401" vector-effect="non-scaling-stroke" d="
  M 241.31 188.96
  Q 251.65 190.21 261.80 188.81
  A 0.58 0.57 66.2 0 0 262.16 187.87
  Q 262.11 187.81 261.92 187.57
  Q 261.81 187.41 261.77 187.21
  Q 260.06 178.87 259.23 176.00
  Q 257.49 169.99 253.35 163.65"
/>
<path stroke="#6e3d17" vector-effect="non-scaling-stroke" d="
  M 253.35 163.65
  Q 252.44 163.03 252.62 162.25
  Q 252.75 161.67 253.27 161.95
  Q 254.96 162.84 256.09 164.43
  Q 260.50 170.61 265.16 176.61
  C 269.42 182.09 274.69 184.18 281.24 186.85
  Q 281.40 186.92 281.45 187.01
  Q 281.52 187.16 281.43 187.36
  Q 281.30 187.65 280.99 187.63
  L 277.54 187.46"
/>
<path stroke="#552401" vector-effect="non-scaling-stroke" d="
  M 277.54 187.46
  Q 276.52 198.25 277.35 205.25
  Q 278.37 213.76 282.67 221.59
  A 1.73 1.73 0.0 0 0 285.13 222.22
  C 290.85 218.57 294.83 215.22 302.49 214.71
  Q 307.57 214.37 311.76 216.80
  A 0.53 0.53 0.0 0 0 312.55 216.44
  C 314.71 204.71 314.47 191.83 313.77 180.00
  Q 313.64 177.85 312.50 174.89"
/>
<path stroke="#6e3d17" vector-effect="non-scaling-stroke" d="
  M 312.50 174.89
  C 312.05 169.28 309.28 165.78 305.45 162.07
  Q 303.89 160.56 302.55 158.53
  C 295.44 147.76 285.89 138.68 273.52 134.45
  C 251.36 126.86 221.18 135.13 200.70 144.68
  C 188.37 150.43 175.23 162.40 169.96 175.71"
/>
<path stroke="#c16016" vector-effect="non-scaling-stroke" d="
  M 312.50 174.89
  C 309.78 183.89 301.77 191.68 294.62 196.95
  C 293.39 197.85 292.77 197.51 291.48 197.06
  Q 284.68 194.64 280.48 192.50
  Q 278.96 191.72 277.54 187.46"
/>
<path stroke="#c16016" vector-effect="non-scaling-stroke" d="
  M 253.35 163.65
  Q 252.78 164.98 253.04 166.27
  Q 254.92 175.45 254.51 184.91
  Q 254.48 185.45 253.96 185.59
  L 241.31 188.96"
/>
<path stroke="#c16016" vector-effect="non-scaling-stroke" d="
  M 226.93 163.05
  L 222.87 181.76
  A 2.02 2.00 84.4 0 1 221.73 183.16
  C 217.20 185.18 213.35 185.49 208.20 186.24"
/>
<path stroke="#c16016" vector-effect="non-scaling-stroke" d="
  M 208.98 163.18
  C 205.37 165.29 202.03 173.25 200.32 177.06
  C 198.92 180.17 196.89 181.96 194.02 183.31
  Q 188.81 185.77 182.59 186.97"
/>
<path stroke="#c16016" vector-effect="non-scaling-stroke" d="
  M 183.54 168.46
  L 169.96 175.71"
/>
<path stroke="#816e62" vector-effect="non-scaling-stroke" d="
  M 189.24 189.27
  L 182.28 189.37
  A 0.99 0.97 -84.0 0 0 181.34 190.14
  Q 176.74 211.21 175.32 233.00
  Q 174.64 243.48 177.66 253.02"
/>
<path stroke="#745743" vector-effect="non-scaling-stroke" d="
  M 177.66 253.02
  C 183.02 263.84 193.58 268.93 204.45 272.47
  Q 212.76 275.18 221.34 275.35
  C 245.75 275.85 265.42 265.24 281.15 247.12
  Q 281.79 246.38 282.67 246.81
  C 289.81 250.27 295.34 249.11 301.51 244.14
  Q 307.39 239.41 311.28 232.75"
/>
<path stroke="#816e62" vector-effect="non-scaling-stroke" d="
  M 311.28 232.75
  C 314.85 225.94 315.14 218.59 305.98 217.02
  C 298.08 215.66 292.41 218.71 286.53 223.50
  Q 285.28 224.51 281.34 224.12
  Q 280.87 224.08 280.62 223.67
  L 276.95 217.66"
/>
<path stroke="#745743" vector-effect="non-scaling-stroke" d="
  M 276.95 217.66
  Q 272.59 202.31 275.41 187.43
  Q 275.51 186.91 275.02 186.71
  C 269.52 184.49 265.90 181.47 263.04 177.52
  A 0.25 0.25 0.0 0 0 262.60 177.74
  Q 264.24 183.02 264.22 188.55
  A 2.21 2.21 0.0 0 1 262.71 190.63
  C 256.60 192.65 247.34 192.02 241.01 191.16
  C 238.54 190.83 237.35 190.38 236.43 187.88
  C 234.00 181.32 232.23 174.46 230.19 167.77
  Q 229.36 165.04 229.55 167.89
  Q 230.17 177.01 229.82 186.94
  C 229.76 188.47 228.86 189.89 227.38 190.14
  Q 219.72 191.43 210.92 189.57
  C 204.37 188.19 206.77 182.22 206.95 177.66
  A 0.27 0.27 0.0 0 0 206.43 177.53
  C 202.39 186.22 198.66 187.79 189.24 189.27"
/>
<path stroke="#f2c4a4" vector-effect="non-scaling-stroke" d="
  M 276.95 217.66
  Q 269.55 205.08 270.75 188.98
  Q 270.80 188.34 270.25 187.99
  Q 268.68 186.97 266.84 186.86
  Q 266.36 186.83 266.31 187.31
  L 265.84 191.76
  A 1.45 1.45 0.0 0 1 264.99 192.93
  C 261.30 194.57 259.43 194.33 254.76 193.71
  Q 251.99 193.34 249.60 194.18"
/>
<path stroke="#745743" vector-effect="non-scaling-stroke" d="
  M 249.60 194.18
  Q 246.47 192.85 244.02 194.22"
/>
<path stroke="#f2c4a4" vector-effect="non-scaling-stroke" d="
  M 244.02 194.22
  Q 243.88 194.05 243.86 193.74
  Q 243.84 193.30 243.40 193.30
  Q 238.99 193.27 234.64 192.65
  Q 232.57 192.36 230.42 192.92
  C 223.77 194.66 217.28 193.90 210.51 193.68
  Q 205.67 193.52 199.72 190.06
  Q 198.13 189.14 197.85 190.70"
/>
<path stroke="#745743" vector-effect="non-scaling-stroke" d="
  M 197.85 190.70
  Q 196.59 188.64 193.45 189.37"
/>
<path stroke="#f2c4a4" vector-effect="non-scaling-stroke" d="
  M 193.45 189.37
  L 189.24 189.27"
/>
<path stroke="#f2c4a4" vector-effect="non-scaling-stroke" d="
  M 311.28 232.75
  C 309.50 233.77 308.00 234.62 306.41 236.10
  C 301.58 240.58 295.79 245.29 288.50 243.85
  Q 285.15 243.18 283.63 242.79
  A 1.04 1.01 30.3 0 0 282.66 243.03
  C 277.01 248.33 271.49 254.61 265.43 258.68
  Q 257.53 263.99 250.72 266.14
  C 238.45 270.03 227.40 272.77 215.41 271.41
  C 205.39 270.27 193.89 265.25 185.84 258.97
  Q 183.49 257.13 181.15 255.26
  Q 181.00 255.14 180.81 255.12
  Q 180.74 255.11 180.74 255.05
  Q 180.74 254.90 180.75 254.75
  A 0.24 0.24 0.0 0 0 180.49 254.51
  Q 179.41 254.57 179.43 253.94
  Q 179.46 253.35 178.90 253.16
  Q 178.37 252.98 177.66 253.02"
/>
<path stroke="#816e62" vector-effect="non-scaling-stroke" d="
  M 193.45 189.37
  C 191.18 190.59 185.21 193.70 184.15 195.72
  Q 183.62 196.74 184.73 196.44
  L 196.75 193.22
  A 2.28 1.75 -6.3 0 0 198.38 191.66
  Q 198.41 191.46 197.85 190.70"
/>
<path stroke="#816e62" vector-effect="non-scaling-stroke" d="
  M 244.02 194.22
  Q 242.96 194.76 242.46 195.31
  A 0.65 0.65 0.0 0 0 242.78 196.37
  Q 248.20 197.80 253.52 199.76
  Q 254.89 200.26 255.57 200.36
  Q 257.22 200.59 256.10 199.35
  Q 253.52 196.52 249.60 194.18"
/>
<path stroke="#375f4d" vector-effect="non-scaling-stroke" d="
  M 292.09 255.93
  L 292.84 262.00
  Q 292.90 262.42 293.30 262.53
  L 295.35 263.10
  Q 297.95 263.83 295.36 264.57
  Q 293.41 265.13 291.03 264.55
  Q 289.51 264.18 289.74 265.73
  Q 289.94 267.06 289.50 268.24
  A 0.58 0.57 19.1 0 1 288.78 268.58
  Q 288.37 268.44 288.16 268.10
  Q 287.86 267.61 287.34 267.85
  Q 279.86 271.29 272.43 274.82
  Q 271.16 275.42 268.03 274.96
  A 0.30 0.30 0.0 0 0 267.75 275.06
  L 265.78 277.41
  A 1.45 1.45 0.0 0 1 265.00 277.89
  C 261.73 278.65 258.66 280.45 255.34 280.35
  A 0.62 0.62 0.0 0 0 254.79 281.29
  C 257.92 286.45 257.29 297.00 256.24 302.76
  Q 255.31 307.91 248.48 309.57"
/>
<path stroke="#164b34" vector-effect="non-scaling-stroke" d="
  M 248.48 309.57
  Q 241.77 306.69 235.25 305.92"
/>
<path stroke="#375f4d" vector-effect="non-scaling-stroke" d="
  M 235.25 305.92
  C 237.88 298.90 252.86 313.55 254.53 301.53
  Q 255.54 294.20 253.76 282.96"
/>
<path stroke="#164b34" vector-effect="non-scaling-stroke" d="
  M 253.76 282.96
  Q 252.54 279.43 248.92 280.90
  A 1.83 1.79 1.5 0 0 247.99 281.76
  C 245.08 287.55 241.01 292.19 237.43 297.72"
/>
<path stroke="#375f4d" vector-effect="non-scaling-stroke" d="
  M 237.43 297.72
  L 229.52 308.41
  A 0.80 0.79 -45.4 0 1 228.25 308.42
  Q 224.19 303.12 221.80 296.75"
/>
<path stroke="#164b34" vector-effect="non-scaling-stroke" d="
  M 221.80 296.75
  L 215.37 282.43
  Q 215.14 281.92 214.61 282.08
  Q 211.82 282.90 210.61 285.39"
/>
<path stroke="#375f4d" vector-effect="non-scaling-stroke" d="
  M 210.61 285.39
  C 209.67 288.71 203.98 309.22 212.06 307.04
  C 215.11 306.21 218.73 304.48 221.89 304.68
  A 1.05 1.05 0.0 0 1 222.85 305.55
  L 222.90 305.83
  Q 223.00 306.48 222.34 306.51
  C 220.57 306.60 219.24 308.00 217.65 308.46
  C 215.01 309.22 210.89 310.27 208.61 308.48
  C 204.39 305.18 206.67 293.03 208.07 288.53
  A 0.49 0.48 -0.1 0 0 207.46 287.93
  C 205.14 288.68 200.44 290.26 199.13 292.54
  Q 189.56 309.22 184.84 326.88
  C 183.75 330.96 183.08 335.92 182.13 340.42
  C 181.03 345.71 181.43 349.16 187.60 349.60"
/>
<path stroke="#164b34" vector-effect="non-scaling-stroke" d="
  M 187.60 349.60
  L 197.28 350.31
  Q 197.81 350.35 197.78 349.82
  Q 196.87 335.23 198.72 320.00
  C 198.99 317.80 198.44 315.72 199.12 313.52
  Q 199.58 312.01 199.99 310.55"
/>
<path stroke="#375f4d" vector-effect="non-scaling-stroke" d="
  M 199.99 310.55
  Q 200.15 309.00 200.93 308.62
  A 0.49 0.48 -11.3 0 1 201.63 309.08
  C 201.04 319.76 200.10 330.17 200.34 340.67"
/>
<path stroke="#164b34" vector-effect="non-scaling-stroke" d="
  M 200.34 340.67
  Q 200.16 347.30 200.49 353.89
  Q 200.59 355.97 201.49 356.91
  C 204.14 359.67 214.08 360.50 217.00 360.67
  Q 244.63 362.31 271.63 356.57
  C 275.52 355.74 278.05 354.13 278.04 349.99
  C 278.03 344.67 276.86 338.33 276.52 332.99
  Q 275.79 321.42 274.40 309.08"
/>
<path stroke="#375f4d" vector-effect="non-scaling-stroke" d="
  M 274.40 309.08
  Q 275.28 308.20 274.86 305.94
  Q 274.77 305.40 274.25 305.57
  L 271.52 306.47
  Q 271.40 306.51 271.30 306.42
  L 271.06 306.22
  A 0.46 0.45 -39.7 0 1 271.13 305.49
  L 274.23 303.60"
/>
<path stroke="#164b34" vector-effect="non-scaling-stroke" d="
  M 274.23 303.60
  C 286.29 298.47 294.85 292.31 304.92 285.67
  C 311.82 281.13 313.96 274.49 313.43 266.50
  Q 312.58 253.77 309.62 241.55
  A 0.57 0.57 0.0 0 0 308.62 241.33
  C 304.36 246.62 298.70 250.83 291.94 251.63
  A 0.54 0.54 0.0 0 0 291.47 252.26
  L 292.09 255.93"
/>
<path stroke="#4ba980" vector-effect="non-scaling-stroke" d="
  M 274.23 303.60
  Q 275.21 301.92 276.39 301.10
  Q 291.81 290.28 306.44 278.41
  Q 308.63 276.62 308.69 273.69
  Q 308.89 262.19 307.52 250.51
  A 0.49 0.49 0.0 0 0 306.74 250.17
  Q 300.31 254.79 292.09 255.93"
/>
<path stroke="#4ba980" vector-effect="non-scaling-stroke" d="
  M 274.40 309.08
  L 266.21 342.86
  A 4.25 4.21 -10.1 0 1 264.43 345.39
  C 255.35 351.36 246.34 356.28 234.73 356.61
  C 231.52 356.70 227.96 357.27 224.97 356.47
  C 220.27 355.22 203.30 347.20 201.78 343.27
  Q 201.05 341.39 200.34 340.67"
/>
<path stroke="#4ba980" vector-effect="non-scaling-stroke" d="
  M 199.99 310.55
  Q 199.02 310.20 198.29 310.44
  Q 197.75 310.61 197.77 311.17
  C 197.87 315.27 195.69 319.56 195.20 323.50
  Q 193.80 334.83 194.01 346.35
  A 1.09 1.09 0.0 0 1 193.32 347.39
  L 187.60 349.60"
/>
<path stroke="#4ba980" vector-effect="non-scaling-stroke" d="
  M 210.61 285.39
  Q 212.75 288.71 216.34 293.41
  Q 218.54 296.30 221.80 296.75"
/>
<path stroke="#4ba980" vector-effect="non-scaling-stroke" d="
  M 237.43 297.72
  Q 246.49 291.33 253.76 282.96"
/>
<path stroke="#4ba980" vector-effect="non-scaling-stroke" d="
  M 235.25 305.92
  Q 234.69 306.82 234.75 307.02
  A 1.69 1.67 89.9 0 0 235.94 308.22
  Q 242.72 310.03 248.48 309.57"
/>
<path stroke="#7c7b7c" vector-effect="non-scaling-stroke" d="
  M 288.85 262.58
  L 290.47 262.38
  Q 290.94 262.32 290.88 261.85
  L 289.46 252.15
  Q 289.38 251.61 288.84 251.57
  Q 285.77 251.34 283.02 249.93
  A 0.78 0.78 0.0 0 0 282.10 250.10
  Q 280.23 252.11 278.35 254.11
  C 269.01 264.02 258.35 269.44 245.98 274.60
  A 1.51 1.51 0.0 0 0 245.58 277.14
  L 248.02 279.22
  A 0.85 0.84 -39.2 0 0 248.97 279.31
  Q 251.11 278.13 253.15 279.31
  Q 253.68 279.62 254.22 279.32
  Q 255.60 278.57 257.21 278.78
  Q 257.75 278.85 258.24 278.60
  Q 261.31 277.03 264.70 276.42
  Q 265.28 276.31 265.51 275.77
  Q 266.90 272.45 270.44 273.57
  A 1.08 1.05 38.4 0 0 271.31 273.48
  Q 278.84 269.12 286.97 266.04
  Q 287.51 265.84 287.52 265.26
  Q 287.54 264.22 287.94 263.27
  A 1.13 1.12 7.6 0 1 288.85 262.58"
/>
<path stroke="#816e62" vector-effect="non-scaling-stroke" d="
  M 223.19 283.72
  L 228.39 292.02
  Q 228.68 292.48 229.07 292.10
  L 239.44 281.97"
/>
<path stroke="#745743" vector-effect="non-scaling-stroke" d="
  M 239.44 281.97
  Q 240.80 281.05 242.97 278.47
  Q 243.96 277.30 243.63 275.66
  Q 243.53 275.14 243.01 275.29
  Q 232.24 278.60 220.97 277.85
  A 0.99 0.98 79.1 0 0 220.02 279.26
  Q 221.17 281.67 223.19 283.72"
/>
<path stroke="#f2c4a4" vector-effect="non-scaling-stroke" d="
  M 239.44 281.97
  Q 230.61 283.71 223.19 283.72"
/>
<path stroke="#816519" vector-effect="non-scaling-stroke" d="
  M 227.19 294.27
  L 218.25 280.40
  A 0.44 0.44 0.0 0 0 217.70 280.25
  L 217.42 280.38
  A 0.70 0.69 -27.2 0 0 217.10 281.35
  C 221.93 289.94 224.26 295.65 228.33 306.01
  Q 228.57 306.61 228.91 306.06
  C 234.41 297.23 241.20 289.54 246.72 280.78
  A 0.68 0.67 -57.1 0 0 246.53 279.87
  L 246.04 279.53
  Q 245.53 279.18 245.11 279.63
  C 240.19 284.90 234.76 290.95 228.52 294.59
  A 1.00 0.99 -31.3 0 1 227.19 294.27"
/>
<path stroke="#745743" vector-effect="non-scaling-stroke" d="
  M 198.3468 352.8512
  A 0.27 0.27 0.0 0 0 198.0963 352.5630
  L 184.6292 351.6213
  A 0.27 0.27 0.0 0 0 184.3410 351.8718
  L 184.2532 353.1288
  A 0.27 0.27 0.0 0 0 184.5037 353.4170
  L 197.9708 354.3587
  A 0.27 0.27 0.0 0 0 198.2590 354.1082
  L 198.3468 352.8512"
/>
<path stroke="#816e62" vector-effect="non-scaling-stroke" d="
  M 185.28 358.51
  Q 185.85 364.26 189.54 367.52
  C 191.40 369.18 196.31 367.14 198.53 366.62"
/>
<path stroke="#745743" vector-effect="non-scaling-stroke" d="
  M 198.53 366.62
  Q 198.69 366.64 198.82 366.65
  Q 199.20 366.65 199.35 366.30
  Q 200.47 363.63 199.21 361.28
  C 198.50 359.94 198.47 359.06 199.28 357.88
  Q 199.56 357.45 199.31 357.01
  L 198.73 356.02
  A 0.63 0.63 0.0 0 0 198.11 355.71
  Q 192.15 356.47 186.26 355.18
  A 0.84 0.84 0.0 0 0 185.24 356.02
  L 185.28 358.51"
/>
<path stroke="#f2c4a4" vector-effect="non-scaling-stroke" d="
  M 198.53 366.62
  Q 198.94 366.47 198.92 365.89
  Q 198.91 365.56 198.64 365.18
  Q 197.37 363.37 196.68 361.67
  A 2.84 2.84 0.0 0 0 194.48 359.92
  L 185.28 358.51"
/>
<path stroke="#4a616d" vector-effect="non-scaling-stroke" d="
  M 201.73 362.90
  L 202.66 409.73
  A 1.06 1.06 0.0 0 0 203.58 410.76
  Q 213.19 412.03 222.61 411.69"
/>
<path stroke="#1f4458" vector-effect="non-scaling-stroke" d="
  M 222.61 411.69
  L 228.05 411.67
  A 1.04 1.03 87.5 0 0 229.08 410.54
  C 228.21 400.94 230.08 390.10 231.96 380.62
  C 232.09 379.96 232.60 379.37 232.81 378.71
  Q 233.00 378.10 232.38 377.98
  Q 230.27 377.57 229.62 376.31"
/>
<path stroke="#4a616d" vector-effect="non-scaling-stroke" d="
  M 229.62 376.31
  C 234.11 376.18 239.96 377.17 243.47 380.36
  Q 243.84 380.68 243.95 381.16
  L 244.87 384.86"
/>
<path stroke="#1f4458" vector-effect="non-scaling-stroke" d="
  M 244.87 384.86
  L 251.10 409.79
  A 1.26 1.26 0.0 0 0 252.32 410.74
  L 256.31 410.72"
/>
<path stroke="#4a616d" vector-effect="non-scaling-stroke" d="
  M 256.31 410.72
  Q 266.61 410.68 276.27 408.97
  A 0.28 0.27 -6.0 0 0 276.50 408.69
  L 275.95 362.69"
/>
<path stroke="#1f4458" vector-effect="non-scaling-stroke" d="
  M 275.95 362.69
  Q 277.09 360.48 276.25 357.96
  Q 276.06 357.40 275.51 357.61
  Q 269.38 359.99 265.98 360.63
  Q 242.49 365.05 216.01 363.14
  Q 207.22 362.50 200.88 358.80
  Q 200.49 358.57 200.20 358.93
  Q 199.68 359.60 200.17 360.28
  Q 201.53 362.16 201.73 362.90"
/>
<path stroke="#67a4c3" vector-effect="non-scaling-stroke" d="
  M 275.95 362.69
  Q 262.14 367.18 248.50 367.25
  Q 233.61 367.32 215.50 366.18
  Q 209.63 365.81 201.73 362.90"
/>
<path stroke="#67a4c3" vector-effect="non-scaling-stroke" d="
  M 256.31 410.72
  C 253.40 403.92 250.28 397.01 247.89 389.99
  Q 246.92 387.15 244.87 384.86"
/>
<path stroke="#67a4c3" vector-effect="non-scaling-stroke" d="
  M 229.62 376.31
  Q 229.28 376.33 229.23 376.75
  C 227.72 388.29 226.22 400.61 222.61 411.69"
/>
<path stroke="#1f4458" vector-effect="non-scaling-stroke" d="
  M 256.82 413.03
  L 254.18 412.79
  Q 253.59 412.74 253.67 413.33
  L 255.04 424.27
  Q 255.11 424.78 254.62 424.61
  Q 253.29 424.17 252.79 413.20
  Q 252.77 412.92 252.50 412.86
  L 248.58 412.02
  A 0.20 0.20 0.0 0 0 248.34 412.25
  L 251.05 425.31
  A 1.45 1.44 84.8 0 0 252.44 426.47
  L 256.17 426.55
  Q 256.99 426.56 256.87 425.75
  L 255.27 415.31
  Q 255.20 414.87 255.65 414.85
  L 255.96 414.84
  A 0.35 0.35 0.0 0 1 256.32 415.13
  L 257.96 425.68
  A 1.23 1.22 85.6 0 0 259.17 426.72
  Q 269.55 426.73 278.99 423.93
  Q 280.47 423.49 280.27 421.59"
/>
<path stroke="#4a616d" vector-effect="non-scaling-stroke" d="
  M 280.27 421.59
  Q 279.76 414.40 280.00 410.01
  Q 280.09 408.48 279.24 407.73
  A 0.46 0.46 0.0 0 0 278.48 408.03
  Q 278.41 408.71 278.83 409.24
  A 0.90 0.90 0.0 0 1 278.47 410.62
  Q 277.13 411.21 275.74 411.45
  Q 266.63 413.06 256.82 413.03"
/>
<path stroke="#67a4c3" vector-effect="non-scaling-stroke" d="
  M 280.27 421.59
  Q 271.66 420.90 263.14 420.59
  C 261.67 420.53 261.00 420.74 259.89 419.49
  Q 257.03 416.28 256.82 413.03"
/>
<path stroke="#1f4458" vector-effect="non-scaling-stroke" d="
  M 206.84 425.66
  Q 218.35 427.65 222.01 427.03
  Q 225.94 426.35 229.63 426.25
  A 2.45 2.45 0.0 0 0 232.02 423.86
  L 232.30 412.73
  Q 232.36 410.52 230.68 411.95
  L 230.28 412.29
  Q 229.22 413.19 229.34 414.57
  Q 229.81 419.96 228.82 425.25
  Q 228.76 425.54 228.47 425.47
  L 228.17 425.40
  Q 227.90 425.33 227.91 425.05
  L 228.41 413.57
  Q 228.43 413.19 228.06 413.28
  L 226.98 413.57
  A 0.25 0.24 -8.6 0 0 226.79 413.82
  L 226.85 425.13
  A 0.69 0.68 89.6 0 1 226.18 425.82
  L 225.77 425.82
  Q 225.62 425.82 225.62 425.67
  L 225.94 414.53
  Q 225.96 413.94 225.37 413.97
  L 221.48 414.15"
/>
<path stroke="#4a616d" vector-effect="non-scaling-stroke" d="
  M 221.48 414.15
  Q 213.52 414.56 205.74 413.25
  Q 202.92 412.78 199.97 411.31
  A 0.67 0.67 0.0 0 1 200.02 410.08
  Q 200.46 409.91 200.31 409.55
  Q 200.16 409.19 199.91 409.50
  C 198.01 411.90 199.20 420.79 199.33 423.76
  A 1.45 1.44 -89.1 0 0 200.66 425.14
  L 206.84 425.66"
/>
<path stroke="#67a4c3" vector-effect="non-scaling-stroke" d="
  M 221.48 414.15
  Q 222.81 414.64 221.79 415.73
  Q 221.47 416.06 221.31 416.49
  L 219.03 422.79
  A 1.77 1.76 10.6 0 1 217.33 423.95
  Q 212.10 423.84 206.84 425.66"
/>
<path stroke="#6e3d17" vector-effect="non-scaling-stroke" d="
  M 271.19 428.65
  C 265.99 429.85 264.84 434.39 264.59 439.08
  Q 264.56 439.65 265.13 439.66
  L 269.23 439.76
  Q 269.77 439.77 269.92 439.26
  Q 271.01 435.50 273.34 432.32
  Q 275.90 428.82 280.02 428.23
  A 0.31 0.31 0.0 0 0 280.22 427.73
  L 279.85 427.23
  A 0.74 0.73 -23.3 0 0 279.13 426.95
  Q 275.21 427.72 271.19 428.65"
/>
<path stroke="#6e3d17" vector-effect="non-scaling-stroke" d="
  M 210.62 428.88
  Q 205.34 428.26 202.60 428.22
  Q 202.49 428.22 202.43 428.30
  Q 202.33 428.44 202.22 428.57
  Q 202.12 428.69 202.27 428.74
  Q 210.79 431.58 212.30 440.61
  A 0.36 0.36 0.0 0 0 212.69 440.91
  L 217.64 440.49
  A 0.31 0.31 0.0 0 0 217.92 440.17
  C 217.75 436.02 215.57 429.45 210.62 428.88"
/>
<path stroke="#816519" vector-effect="non-scaling-stroke" d="
  M 216.07 429.83
  C 218.62 433.05 219.18 435.63 219.57 439.66
  Q 219.63 440.23 220.20 440.19
  L 228.09 439.67
  A 0.55 0.55 0.0 0 0 228.61 439.12
  L 228.56 429.80
  A 0.49 0.49 0.0 0 0 228.06 429.31
  L 216.19 429.58
  Q 215.88 429.59 216.07 429.83"
/>
<path stroke="#816519" vector-effect="non-scaling-stroke" d="
  M 286.73 430.35
  C 280.32 426.09 272.72 432.84 271.83 439.39
  Q 271.73 440.10 272.45 440.15
  Q 280.54 440.63 287.29 440.45
  Q 289.11 440.41 289.40 438.50
  Q 290.28 432.72 286.73 430.35"
/>
<path stroke="#816519" vector-effect="non-scaling-stroke" d="
  M 265.29 429.53
  L 254.31 429.46
  Q 253.83 429.46 253.83 429.94
  L 253.85 438.20
  A 0.62 0.62 0.0 0 0 254.44 438.82
  L 262.46 439.31
  Q 262.90 439.34 262.88 438.90
  Q 262.75 433.99 265.54 430.02
  A 0.31 0.31 0.0 0 0 265.29 429.53"
/>
<path stroke="#816519" vector-effect="non-scaling-stroke" d="
  M 210.77 440.48
  C 209.42 435.83 207.42 432.19 202.76 430.44
  Q 198.07 428.67 194.69 431.95
  C 192.47 434.11 192.65 437.18 193.13 440.02
  Q 193.22 440.55 193.73 440.73
  C 198.06 442.26 205.70 441.57 210.34 441.12
  Q 210.94 441.06 210.77 440.48"
/>
<path stroke="#7c7b7c" vector-effect="non-scaling-stroke" d="
  M 288.60 441.50
  Q 285.36 442.47 284.00 442.52
  Q 269.06 443.12 254.65 440.26
  Q 253.74 440.08 253.76 441.00
  L 253.77 441.36
  Q 253.79 442.48 254.90 442.59
  C 265.95 443.66 277.33 445.22 288.22 443.35
  Q 289.11 443.20 289.18 442.30
  L 289.21 442.00
  A 0.48 0.48 0.0 0 0 288.60 441.50"
/>
<path stroke="#7c7b7c" vector-effect="non-scaling-stroke" d="
  M 196.04 442.85
  Q 194.78 442.60 193.72 442.42
  Q 193.12 442.31 193.24 442.90
  L 193.29 443.18
  Q 193.44 443.92 194.17 444.11
  Q 197.56 444.98 200.50 445.01
  Q 212.52 445.14 227.50 443.39
  A 1.28 1.28 0.0 0 0 228.62 442.26
  L 228.66 441.94
  Q 228.77 440.92 227.77 441.12
  C 218.27 442.98 205.65 444.75 196.04 442.85"
/>
<path stroke="#81342d" vector-effect="non-scaling-stroke" d="
  M 354.6811 153.4711
  A 10.99 10.17 45.0 0 0 354.1013 138.5087
  A 10.99 10.17 45.0 0 0 339.1389 137.9289
  A 10.99 10.17 45.0 0 0 339.7187 152.8913
  A 10.99 10.17 45.0 0 0 354.6811 153.4711"
/>
<path stroke="#fae8dd" vector-effect="non-scaling-stroke" d="
  M 183.30 213.94
  C 184.02 216.34 184.17 220.20 186.49 222.39"
/>
<path stroke="#816e62" vector-effect="non-scaling-stroke" d="
  M 186.49 222.39
  Q 192.09 225.30 198.84 223.87
  A 0.73 0.72 -1.2 0 0 199.41 223.28
  Q 199.48 222.94 199.21 222.81"
/>
<path stroke="#fae8dd" vector-effect="non-scaling-stroke" d="
  M 199.21 222.81
  C 201.26 221.60 202.29 217.89 203.13 215.75
  Q 203.32 215.29 202.90 214.74"
/>
<path stroke="#816e62" vector-effect="non-scaling-stroke" d="
  M 202.90 214.74
  Q 203.26 214.60 203.26 214.24
  C 203.35 206.05 195.77 200.97 188.51 205.77
  Q 183.52 209.07 183.30 213.94"
/>
<path stroke="#7c7b7c" vector-effect="non-scaling-stroke" d="
  M 202.90 214.74
  C 201.22 210.18 198.06 204.77 192.31 206.01
  Q 191.10 206.27 192.27 206.68
  C 195.03 207.63 195.81 212.20 194.85 214.44
  C 192.96 218.81 186.15 216.66 185.84 212.58
  Q 185.61 209.60 184.87 212.50
  Q 184.56 213.74 183.30 213.94"
/>
<path stroke="#7c7b7c" vector-effect="non-scaling-stroke" d="
  M 199.21 222.81
  L 186.49 222.39"
/>
<path stroke="#fae8dd" vector-effect="non-scaling-stroke" d="
  M 237.09 215.60
  Q 237.10 220.58 239.32 225.01
  Q 239.37 225.13 239.50 225.13
  Q 239.66 225.13 239.77 225.14"
/>
<path stroke="#816e62" vector-effect="non-scaling-stroke" d="
  M 239.77 225.14
  Q 239.90 225.44 240.05 225.63
  Q 240.19 225.82 240.49 225.92
  C 243.08 226.76 249.71 227.90 252.09 226.49
  Q 253.00 225.95 252.48 225.58"
/>
<path stroke="#fae8dd" vector-effect="non-scaling-stroke" d="
  M 252.48 225.58
  Q 254.82 225.28 256.07 222.25
  Q 257.33 219.21 258.34 215.97"
/>
<path stroke="#816e62" vector-effect="non-scaling-stroke" d="
  M 258.34 215.97
  C 255.83 203.88 242.02 203.51 236.82 214.05
  Q 236.26 215.18 237.09 215.60"
/>
<path stroke="#7c7b7c" vector-effect="non-scaling-stroke" d="
  M 258.34 215.97
  C 255.24 212.63 251.33 207.91 246.36 208.65
  A 0.32 0.32 0.0 0 0 246.23 209.23
  Q 249.69 211.49 248.91 215.95
  C 247.88 221.82 239.13 219.93 239.78 213.76
  A 0.52 0.52 0.0 0 0 238.86 213.38
  L 237.09 215.60"
/>
<path stroke="#7c7b7c" vector-effect="non-scaling-stroke" d="
  M 252.48 225.58
  Q 246.18 226.07 239.77 225.14"
/>
<path stroke="#f2c4a4" vector-effect="non-scaling-stroke" d="
  M 209.30 232.60
  Q 210.07 232.54 210.89 232.75
  Q 211.35 232.86 211.61 232.77
  Q 212.12 232.59 212.25 231.94
  A 0.88 0.87 -63.0 0 0 211.98 231.10
  L 208.12 227.69"
/>
<path stroke="#816e62" vector-effect="non-scaling-stroke" d="
  M 208.12 227.69
  L 210.21 224.59
  Q 210.85 223.65 209.84 224.17
  C 206.63 225.82 204.59 232.81 209.30 232.60"
/>
<path stroke="#745743" vector-effect="non-scaling-stroke" d="
  M 208.12 227.69
  Q 207.52 229.75 209.30 232.60"
/>
<path stroke="#f2c4a4" vector-effect="non-scaling-stroke" d="
  M 289.71 233.05
  Q 290.40 233.92 290.95 235.15
  C 293.20 240.13 297.60 239.66 300.55 235.75
  Q 302.61 233.02 303.24 230.00"
/>
<path stroke="#816e62" vector-effect="non-scaling-stroke" d="
  M 303.24 230.00
  C 303.18 225.79 300.40 223.77 296.48 225.30
  Q 291.51 227.25 289.71 233.05"
/>
<path stroke="#745743" vector-effect="non-scaling-stroke" d="
  M 303.24 230.00
  Q 302.02 229.49 301.58 228.09
  A 1.43 1.41 4.8 0 0 300.86 227.25
  Q 297.72 225.65 295.18 228.21
  Q 294.79 228.60 295.31 228.77
  C 300.80 230.57 298.52 237.35 293.07 236.08
  Q 292.39 235.92 292.25 235.24
  L 292.16 234.78
  Q 291.98 233.95 292.78 234.26
  Q 294.80 235.06 296.20 233.65
  A 1.98 1.98 0.0 0 0 295.69 230.48
  Q 293.24 229.25 289.71 233.05"
/>
<path stroke="#816e62" vector-effect="non-scaling-stroke" d="
  M 214.1024 268.8598
  A 11.01 6.41 90.3 0 0 220.5699 257.8836
  A 11.01 6.41 90.3 0 0 214.2176 246.8402
  A 11.01 6.41 90.3 0 0 207.7501 257.8164
  A 11.01 6.41 90.3 0 0 214.1024 268.8598"
/>
<path stroke="#7c7b7c" vector-effect="non-scaling-stroke" d="
  M 189.89 210.41
  A 1.21 1.21 0.0 0 0 188.68 209.20
  A 1.21 1.21 0.0 0 0 187.47 210.41
  A 1.21 1.21 0.0 0 0 188.68 211.62
  A 1.21 1.21 0.0 0 0 189.89 210.41"
/>
<path stroke="#7c7b7c" vector-effect="non-scaling-stroke" d="
  M 242.7807 214.0942
  A 1.47 1.27 84.9 0 0 243.9150 212.5171
  A 1.47 1.27 84.9 0 0 242.5193 211.1658
  A 1.47 1.27 84.9 0 0 241.3850 212.7429
  A 1.47 1.27 84.9 0 0 242.7807 214.0942"
/>
<path stroke="#81342d" vector-effect="non-scaling-stroke" d="
  M 210.30 260.53
  L 218.00 260.34
  A 0.29 0.29 0.0 0 0 218.28 260.05
  L 218.21 257.21
  A 9.03 4.02 88.6 0 0 213.97 248.28
  L 213.73 248.28
  A 9.03 4.02 88.6 0 0 209.93 257.41
  L 210.00 260.25
  A 0.29 0.29 0.0 0 0 210.30 260.53"
/>
<path stroke="#81342d" vector-effect="non-scaling-stroke" d="
  M 217.34 264.12
  A 1.82 1.82 0.0 0 0 216.12 261.14
  L 214.02 260.94
  A 1.82 1.82 0.0 0 0 213.13 261.07
  L 211.58 261.73
  A 1.82 1.82 0.0 0 0 211.26 264.90
  L 213.34 266.33
  A 1.82 1.82 0.0 0 0 215.77 266.00
  L 217.34 264.12"
/>
<path stroke="#4ba980" vector-effect="non-scaling-stroke" d="
  M 221.13 308.07
  L 220.86 308.13
  Q 220.14 308.29 220.83 308.54
  Q 222.25 309.07 222.86 307.77
  Q 222.98 307.50 222.88 307.34
  Q 222.61 306.89 222.24 307.26
  L 221.78 307.72
  Q 221.51 307.99 221.13 308.07"
/>
</g>
<path fill="#020101" d="
  M 388.93 79.39
  C 387.39 76.23 383.02 77.60 380.77 78.91
  C 375.02 82.27 368.11 84.01 361.76 81.46
  C 354.71 78.63 348.62 71.56 350.18 63.25
  C 351.77 54.76 361.67 44.80 370.04 42.93
  C 390.99 38.25 415.60 48.06 418.55 71.45
  C 419.42 78.34 417.62 86.70 412.90 91.96
  C 406.96 98.58 398.29 101.59 390.23 104.83
  Q 381.45 108.36 378.00 117.24
  C 375.18 124.51 372.69 133.82 362.65 132.99
  C 355.82 132.42 349.41 127.82 348.01 120.72
  Q 347.44 117.89 348.59 115.45
  Q 353.39 105.28 362.71 99.95
  C 369.14 96.27 377.51 93.61 384.02 88.74
  C 385.99 87.27 390.32 82.26 388.93 79.39
  Z
  M 379.63 43.07
  C 367.30 42.58 358.15 49.71 353.55 60.76
  C 348.51 72.85 362.43 81.16 372.54 80.74
  C 376.93 80.55 380.27 77.03 383.50 76.01
  C 388.33 74.49 392.47 79.42 389.91 83.91
  C 384.63 93.15 374.67 96.47 365.63 100.70
  C 356.22 105.10 341.66 118.44 355.55 128.43
  Q 358.14 130.29 359.56 130.69
  C 371.26 133.99 373.48 124.46 376.64 116.41
  C 381.30 104.56 392.42 103.20 402.32 98.33
  Q 415.49 91.83 416.71 77.77
  C 418.59 55.99 398.85 43.84 379.63 43.07
  Z"
/>
<path fill="#ff6759" d="
  M 379.63 43.07
  C 398.85 43.84 418.59 55.99 416.71 77.77
  Q 415.49 91.83 402.32 98.33
  C 392.42 103.20 381.30 104.56 376.64 116.41
  C 373.48 124.46 371.26 133.99 359.56 130.69
  Q 358.14 130.29 355.55 128.43
  C 341.66 118.44 356.22 105.10 365.63 100.70
  C 374.67 96.47 384.63 93.15 389.91 83.91
  C 392.47 79.42 388.33 74.49 383.50 76.01
  C 380.27 77.03 376.93 80.55 372.54 80.74
  C 362.43 81.16 348.51 72.85 353.55 60.76
  C 358.15 49.71 367.30 42.58 379.63 43.07
  Z
  M 371.39 50.82
  C 368.68 51.81 360.82 57.52 365.70 60.15
  A 2.10 2.10 0.0 0 0 367.93 60.01
  C 371.30 57.61 374.98 56.22 379.21 56.20
  C 381.07 56.19 384.69 56.83 385.37 54.31
  C 387.35 47.03 374.50 49.68 371.39 50.82
  Z
  M 396.48 55.54
  A 4.03 4.03 0.0 0 0 392.45 51.51
  A 4.03 4.03 0.0 0 0 388.42 55.54
  A 4.03 4.03 0.0 0 0 392.45 59.57
  A 4.03 4.03 0.0 0 0 396.48 55.54
  Z"
/>
<path fill="#f5f5f6" d="
  M 371.39 50.82
  C 374.50 49.68 387.35 47.03 385.37 54.31
  C 384.69 56.83 381.07 56.19 379.21 56.20
  C 374.98 56.22 371.30 57.61 367.93 60.01
  A 2.10 2.10 0.0 0 1 365.70 60.15
  C 360.82 57.52 368.68 51.81 371.39 50.82
  Z"
/>
<circle fill="#f5f5f6" cx="392.45" cy="55.54" r="4.03"/>
<path fill="#020101" d="
  M 277.20 303.98
  A 0.77 0.77 0.0 0 0 276.71 304.78
  Q 278.48 322.00 279.64 339.09
  C 279.90 342.91 279.53 346.56 279.62 350.36
  Q 279.70 353.59 277.42 355.84
  A 1.37 1.37 0.0 0 0 277.20 357.52
  Q 278.58 359.83 277.36 362.22
  A 1.72 1.66 55.3 0 0 277.20 363.20
  C 278.16 370.58 278.24 377.55 278.32 384.95
  C 278.37 389.78 278.88 398.02 278.34 404.68
  Q 278.30 405.17 278.67 405.49
  L 280.90 407.46
  Q 281.25 407.76 281.29 408.22
  C 281.68 412.22 283.06 420.36 281.54 425.16
  Q 281.39 425.64 281.86 425.85
  C 284.60 427.04 288.09 428.36 289.99 430.36
  C 293.44 434.00 291.67 439.00 290.84 443.00
  Q 290.74 443.47 290.45 443.85
  C 287.69 447.54 274.43 447.30 270.25 446.81
  C 266.32 446.35 254.79 446.32 252.36 443.24
  Q 252.02 442.81 252.02 442.25
  L 251.83 429.14
  A 0.77 0.76 20.5 0 0 251.56 428.56
  Q 249.37 426.65 248.87 424.38
  Q 247.47 417.98 246.92 411.54
  A 2.56 2.54 61.1 0 1 247.41 409.81
  Q 248.53 408.31 247.98 406.24
  Q 244.99 395.11 242.80 383.77
  Q 242.56 382.55 242.21 381.36
  A 1.32 1.31 -83.5 0 0 241.61 380.60
  Q 238.68 378.91 235.25 378.33
  A 1.54 1.54 0.0 0 0 233.46 379.67
  Q 232.14 390.95 231.47 401.02
  Q 231.22 404.80 230.99 408.60
  Q 230.96 409.11 231.28 409.50
  C 231.98 410.36 232.84 410.98 233.14 412.08
  Q 235.19 419.45 232.79 426.76
  Q 232.62 427.26 232.16 427.53
  Q 231.24 428.05 230.57 428.84
  Q 230.20 429.27 230.34 429.81
  C 231.59 434.72 229.84 438.59 230.24 443.33
  A 1.57 1.56 -12.1 0 1 229.18 444.95
  Q 225.49 446.19 221.25 446.74
  Q 209.40 448.30 197.51 447.17
  C 193.28 446.76 191.24 444.57 190.86 440.25
  C 190.14 432.16 191.92 430.67 198.57 427.28
  Q 199.07 427.02 198.97 426.46
  Q 198.90 426.04 198.53 425.77
  A 1.02 1.00 -77.6 0 1 198.17 425.20
  C 196.99 419.88 195.51 410.78 199.79 407.83
  A 0.93 0.92 72.4 0 0 200.19 407.05
  C 200.02 398.56 199.25 389.55 199.24 381.69
  Q 199.23 375.12 199.32 368.59
  A 0.62 0.62 0.0 0 0 198.42 368.03
  Q 189.09 372.59 184.92 363.28
  Q 183.62 360.36 184.20 355.62
  Q 184.26 355.12 183.97 354.69
  Q 182.74 352.90 183.15 350.78
  A 0.96 0.95 -62.5 0 0 182.88 349.91
  C 180.22 347.36 180.10 342.44 180.48 338.86
  Q 183.15 313.70 197.28 292.92
  C 199.74 289.29 204.55 287.47 208.43 285.82
  Q 208.90 285.61 209.15 285.17
  Q 211.15 281.65 212.83 281.11
  Q 215.71 280.20 217.80 278.67
  Q 219.07 277.75 217.52 277.51
  C 214.29 277.01 211.05 276.45 207.90 275.42
  C 195.52 271.38 181.27 265.88 175.95 252.91
  Q 174.05 248.28 173.68 239.35
  Q 172.94 221.68 176.13 203.26
  Q 176.41 201.65 174.75 200.78
  C 160.39 193.20 166.49 174.59 174.31 164.76
  C 180.07 157.52 185.49 152.10 193.45 147.16
  Q 221.40 129.82 254.28 129.64
  Q 265.85 129.57 273.98 132.37
  C 285.67 136.40 294.33 143.89 301.00 154.52
  Q 303.58 158.63 308.49 162.26
  C 313.86 166.21 315.81 172.60 316.52 179.58
  C 317.79 192.09 317.40 205.69 313.73 217.75
  Q 313.45 218.66 314.19 219.72
  C 318.79 226.30 314.29 233.18 310.64 238.58
  A 1.11 1.10 -35.6 0 0 310.48 239.51
  C 313.36 249.84 315.91 260.66 315.77 270.99
  Q 315.71 275.88 313.23 280.22
  Q 311.76 282.81 308.25 285.31
  C 298.16 292.53 288.84 299.46 277.20 303.98
  Z
  M 169.96 175.71
  Q 167.53 181.20 167.79 187.39
  C 168.03 192.91 171.23 197.11 175.37 200.38
  A 0.62 0.62 0.0 0 0 176.36 200.05
  L 178.90 190.01
  A 0.74 0.73 15.9 0 0 178.41 189.13
  L 176.32 188.47
  A 1.86 1.85 -77.9 0 1 175.04 186.48
  C 175.90 179.03 178.98 174.12 183.54 168.46
  Q 184.36 167.00 185.24 166.91
  A 0.38 0.38 0.0 0 1 185.61 167.48
  C 181.91 173.92 178.41 178.62 176.64 185.87
  A 0.91 0.91 0.0 0 0 177.53 187.00
  L 182.59 186.97
  C 186.04 187.01 199.40 185.91 201.33 182.82
  Q 205.88 175.54 209.06 164.79
  Q 209.29 163.99 208.98 163.18
  L 209.37 162.00
  Q 209.52 161.54 210.00 161.44
  Q 210.68 161.30 210.85 162.00
  Q 211.08 162.89 210.73 165.27
  Q 209.23 175.67 208.20 186.24
  Q 211.73 187.86 214.51 187.90
  Q 220.69 187.99 226.80 188.13
  A 0.62 0.62 0.0 0 0 227.43 187.54
  Q 227.90 175.32 226.93 163.05
  L 226.75 160.07
  A 0.62 0.62 0.0 0 1 227.83 159.62
  C 233.32 165.72 236.20 178.58 237.56 186.52
  Q 237.82 188.09 238.66 188.61
  Q 239.73 189.29 241.31 188.96
  Q 251.65 190.21 261.80 188.81
  A 0.58 0.57 66.2 0 0 262.16 187.87
  Q 262.11 187.81 261.92 187.57
  Q 261.81 187.41 261.77 187.21
  Q 260.06 178.87 259.23 176.00
  Q 257.49 169.99 253.35 163.65
  Q 252.44 163.03 252.62 162.25
  Q 252.75 161.67 253.27 161.95
  Q 254.96 162.84 256.09 164.43
  Q 260.50 170.61 265.16 176.61
  C 269.42 182.09 274.69 184.18 281.24 186.85
  Q 281.40 186.92 281.45 187.01
  Q 281.52 187.16 281.43 187.36
  Q 281.30 187.65 280.99 187.63
  L 277.54 187.46
  Q 276.52 198.25 277.35 205.25
  Q 278.37 213.76 282.67 221.59
  A 1.73 1.73 0.0 0 0 285.13 222.22
  C 290.85 218.57 294.83 215.22 302.49 214.71
  Q 307.57 214.37 311.76 216.80
  A 0.53 0.53 0.0 0 0 312.55 216.44
  C 314.71 204.71 314.47 191.83 313.77 180.00
  Q 313.64 177.85 312.50 174.89
  C 312.05 169.28 309.28 165.78 305.45 162.07
  Q 303.89 160.56 302.55 158.53
  C 295.44 147.76 285.89 138.68 273.52 134.45
  C 251.36 126.86 221.18 135.13 200.70 144.68
  C 188.37 150.43 175.23 162.40 169.96 175.71
  Z
  M 189.24 189.27
  L 182.28 189.37
  A 0.99 0.97 -84.0 0 0 181.34 190.14
  Q 176.74 211.21 175.32 233.00
  Q 174.64 243.48 177.66 253.02
  C 183.02 263.84 193.58 268.93 204.45 272.47
  Q 212.76 275.18 221.34 275.35
  C 245.75 275.85 265.42 265.24 281.15 247.12
  Q 281.79 246.38 282.67 246.81
  C 289.81 250.27 295.34 249.11 301.51 244.14
  Q 307.39 239.41 311.28 232.75
  C 314.85 225.94 315.14 218.59 305.98 217.02
  C 298.08 215.66 292.41 218.71 286.53 223.50
  Q 285.28 224.51 281.34 224.12
  Q 280.87 224.08 280.62 223.67
  L 276.95 217.66
  Q 272.59 202.31 275.41 187.43
  Q 275.51 186.91 275.02 186.71
  C 269.52 184.49 265.90 181.47 263.04 177.52
  A 0.25 0.25 0.0 0 0 262.60 177.74
  Q 264.24 183.02 264.22 188.55
  A 2.21 2.21 0.0 0 1 262.71 190.63
  C 256.60 192.65 247.34 192.02 241.01 191.16
  C 238.54 190.83 237.35 190.38 236.43 187.88
  C 234.00 181.32 232.23 174.46 230.19 167.77
  Q 229.36 165.04 229.55 167.89
  Q 230.17 177.01 229.82 186.94
  C 229.76 188.47 228.86 189.89 227.38 190.14
  Q 219.72 191.43 210.92 189.57
  C 204.37 188.19 206.77 182.22 206.95 177.66
  A 0.27 0.27 0.0 0 0 206.43 177.53
  C 202.39 186.22 198.66 187.79 189.24 189.27
  Z
  M 292.09 255.93
  L 292.84 262.00
  Q 292.90 262.42 293.30 262.53
  L 295.35 263.10
  Q 297.95 263.83 295.36 264.57
  Q 293.41 265.13 291.03 264.55
  Q 289.51 264.18 289.74 265.73
  Q 289.94 267.06 289.50 268.24
  A 0.58 0.57 19.1 0 1 288.78 268.58
  Q 288.37 268.44 288.16 268.10
  Q 287.86 267.61 287.34 267.85
  Q 279.86 271.29 272.43 274.82
  Q 271.16 275.42 268.03 274.96
  A 0.30 0.30 0.0 0 0 267.75 275.06
  L 265.78 277.41
  A 1.45 1.45 0.0 0 1 265.00 277.89
  C 261.73 278.65 258.66 280.45 255.34 280.35
  A 0.62 0.62 0.0 0 0 254.79 281.29
  C 257.92 286.45 257.29 297.00 256.24 302.76
  Q 255.31 307.91 248.48 309.57
  Q 241.77 306.69 235.25 305.92
  C 237.88 298.90 252.86 313.55 254.53 301.53
  Q 255.54 294.20 253.76 282.96
  Q 252.54 279.43 248.92 280.90
  A 1.83 1.79 1.5 0 0 247.99 281.76
  C 245.08 287.55 241.01 292.19 237.43 297.72
  L 229.52 308.41
  A 0.80 0.79 -45.4 0 1 228.25 308.42
  Q 224.19 303.12 221.80 296.75
  L 215.37 282.43
  Q 215.14 281.92 214.61 282.08
  Q 211.82 282.90 210.61 285.39
  C 209.67 288.71 203.98 309.22 212.06 307.04
  C 215.11 306.21 218.73 304.48 221.89 304.68
  A 1.05 1.05 0.0 0 1 222.85 305.55
  L 222.90 305.83
  Q 223.00 306.48 222.34 306.51
  C 220.57 306.60 219.24 308.00 217.65 308.46
  C 215.01 309.22 210.89 310.27 208.61 308.48
  C 204.39 305.18 206.67 293.03 208.07 288.53
  A 0.49 0.48 -0.1 0 0 207.46 287.93
  C 205.14 288.68 200.44 290.26 199.13 292.54
  Q 189.56 309.22 184.84 326.88
  C 183.75 330.96 183.08 335.92 182.13 340.42
  C 181.03 345.71 181.43 349.16 187.60 349.60
  L 197.28 350.31
  Q 197.81 350.35 197.78 349.82
  Q 196.87 335.23 198.72 320.00
  C 198.99 317.80 198.44 315.72 199.12 313.52
  Q 199.58 312.01 199.99 310.55
  Q 200.15 309.00 200.93 308.62
  A 0.49 0.48 -11.3 0 1 201.63 309.08
  C 201.04 319.76 200.10 330.17 200.34 340.67
  Q 200.16 347.30 200.49 353.89
  Q 200.59 355.97 201.49 356.91
  C 204.14 359.67 214.08 360.50 217.00 360.67
  Q 244.63 362.31 271.63 356.57
  C 275.52 355.74 278.05 354.13 278.04 349.99
  C 278.03 344.67 276.86 338.33 276.52 332.99
  Q 275.79 321.42 274.40 309.08
  Q 275.28 308.20 274.86 305.94
  Q 274.77 305.40 274.25 305.57
  L 271.52 306.47
  Q 271.40 306.51 271.30 306.42
  L 271.06 306.22
  A 0.46 0.45 -39.7 0 1 271.13 305.49
  L 274.23 303.60
  C 286.29 298.47 294.85 292.31 304.92 285.67
  C 311.82 281.13 313.96 274.49 313.43 266.50
  Q 312.58 253.77 309.62 241.55
  A 0.57 0.57 0.0 0 0 308.62 241.33
  C 304.36 246.62 298.70 250.83 291.94 251.63
  A 0.54 0.54 0.0 0 0 291.47 252.26
  L 292.09 255.93
  Z
  M 288.85 262.58
  L 290.47 262.38
  Q 290.94 262.32 290.88 261.85
  L 289.46 252.15
  Q 289.38 251.61 288.84 251.57
  Q 285.77 251.34 283.02 249.93
  A 0.78 0.78 0.0 0 0 282.10 250.10
  Q 280.23 252.11 278.35 254.11
  C 269.01 264.02 258.35 269.44 245.98 274.60
  A 1.51 1.51 0.0 0 0 245.58 277.14
  L 248.02 279.22
  A 0.85 0.84 -39.2 0 0 248.97 279.31
  Q 251.11 278.13 253.15 279.31
  Q 253.68 279.62 254.22 279.32
  Q 255.60 278.57 257.21 278.78
  Q 257.75 278.85 258.24 278.60
  Q 261.31 277.03 264.70 276.42
  Q 265.28 276.31 265.51 275.77
  Q 266.90 272.45 270.44 273.57
  A 1.08 1.05 38.4 0 0 271.31 273.48
  Q 278.84 269.12 286.97 266.04
  Q 287.51 265.84 287.52 265.26
  Q 287.54 264.22 287.94 263.27
  A 1.13 1.12 7.6 0 1 288.85 262.58
  Z
  M 223.19 283.72
  L 228.39 292.02
  Q 228.68 292.48 229.07 292.10
  L 239.44 281.97
  Q 240.80 281.05 242.97 278.47
  Q 243.96 277.30 243.63 275.66
  Q 243.53 275.14 243.01 275.29
  Q 232.24 278.60 220.97 277.85
  A 0.99 0.98 79.1 0 0 220.02 279.26
  Q 221.17 281.67 223.19 283.72
  Z
  M 227.19 294.27
  L 218.25 280.40
  A 0.44 0.44 0.0 0 0 217.70 280.25
  L 217.42 280.38
  A 0.70 0.69 -27.2 0 0 217.10 281.35
  C 221.93 289.94 224.26 295.65 228.33 306.01
  Q 228.57 306.61 228.91 306.06
  C 234.41 297.23 241.20 289.54 246.72 280.78
  A 0.68 0.67 -57.1 0 0 246.53 279.87
  L 246.04 279.53
  Q 245.53 279.18 245.11 279.63
  C 240.19 284.90 234.76 290.95 228.52 294.59
  A 1.00 0.99 -31.3 0 1 227.19 294.27
  Z
  M 198.3468 352.8512
  A 0.27 0.27 0.0 0 0 198.0963 352.5630
  L 184.6292 351.6213
  A 0.27 0.27 0.0 0 0 184.3410 351.8718
  L 184.2532 353.1288
  A 0.27 0.27 0.0 0 0 184.5037 353.4170
  L 197.9708 354.3587
  A 0.27 0.27 0.0 0 0 198.2590 354.1082
  L 198.3468 352.8512
  Z
  M 185.28 358.51
  Q 185.85 364.26 189.54 367.52
  C 191.40 369.18 196.31 367.14 198.53 366.62
  Q 198.69 366.64 198.82 366.65
  Q 199.20 366.65 199.35 366.30
  Q 200.47 363.63 199.21 361.28
  C 198.50 359.94 198.47 359.06 199.28 357.88
  Q 199.56 357.45 199.31 357.01
  L 198.73 356.02
  A 0.63 0.63 0.0 0 0 198.11 355.71
  Q 192.15 356.47 186.26 355.18
  A 0.84 0.84 0.0 0 0 185.24 356.02
  L 185.28 358.51
  Z
  M 201.73 362.90
  L 202.66 409.73
  A 1.06 1.06 0.0 0 0 203.58 410.76
  Q 213.19 412.03 222.61 411.69
  L 228.05 411.67
  A 1.04 1.03 87.5 0 0 229.08 410.54
  C 228.21 400.94 230.08 390.10 231.96 380.62
  C 232.09 379.96 232.60 379.37 232.81 378.71
  Q 233.00 378.10 232.38 377.98
  Q 230.27 377.57 229.62 376.31
  C 234.11 376.18 239.96 377.17 243.47 380.36
  Q 243.84 380.68 243.95 381.16
  L 244.87 384.86
  L 251.10 409.79
  A 1.26 1.26 0.0 0 0 252.32 410.74
  L 256.31 410.72
  Q 266.61 410.68 276.27 408.97
  A 0.28 0.27 -6.0 0 0 276.50 408.69
  L 275.95 362.69
  Q 277.09 360.48 276.25 357.96
  Q 276.06 357.40 275.51 357.61
  Q 269.38 359.99 265.98 360.63
  Q 242.49 365.05 216.01 363.14
  Q 207.22 362.50 200.88 358.80
  Q 200.49 358.57 200.20 358.93
  Q 199.68 359.60 200.17 360.28
  Q 201.53 362.16 201.73 362.90
  Z
  M 256.82 413.03
  L 254.18 412.79
  Q 253.59 412.74 253.67 413.33
  L 255.04 424.27
  Q 255.11 424.78 254.62 424.61
  Q 253.29 424.17 252.79 413.20
  Q 252.77 412.92 252.50 412.86
  L 248.58 412.02
  A 0.20 0.20 0.0 0 0 248.34 412.25
  L 251.05 425.31
  A 1.45 1.44 84.8 0 0 252.44 426.47
  L 256.17 426.55
  Q 256.99 426.56 256.87 425.75
  L 255.27 415.31
  Q 255.20 414.87 255.65 414.85
  L 255.96 414.84
  A 0.35 0.35 0.0 0 1 256.32 415.13
  L 257.96 425.68
  A 1.23 1.22 85.6 0 0 259.17 426.72
  Q 269.55 426.73 278.99 423.93
  Q 280.47 423.49 280.27 421.59
  Q 279.76 414.40 280.00 410.01
  Q 280.09 408.48 279.24 407.73
  A 0.46 0.46 0.0 0 0 278.48 408.03
  Q 278.41 408.71 278.83 409.24
  A 0.90 0.90 0.0 0 1 278.47 410.62
  Q 277.13 411.21 275.74 411.45
  Q 266.63 413.06 256.82 413.03
  Z
  M 206.84 425.66
  Q 218.35 427.65 222.01 427.03
  Q 225.94 426.35 229.63 426.25
  A 2.45 2.45 0.0 0 0 232.02 423.86
  L 232.30 412.73
  Q 232.36 410.52 230.68 411.95
  L 230.28 412.29
  Q 229.22 413.19 229.34 414.57
  Q 229.81 419.96 228.82 425.25
  Q 228.76 425.54 228.47 425.47
  L 228.17 425.40
  Q 227.90 425.33 227.91 425.05
  L 228.41 413.57
  Q 228.43 413.19 228.06 413.28
  L 226.98 413.57
  A 0.25 0.24 -8.6 0 0 226.79 413.82
  L 226.85 425.13
  A 0.69 0.68 89.6 0 1 226.18 425.82
  L 225.77 425.82
  Q 225.62 425.82 225.62 425.67
  L 225.94 414.53
  Q 225.96 413.94 225.37 413.97
  L 221.48 414.15
  Q 213.52 414.56 205.74 413.25
  Q 202.92 412.78 199.97 411.31
  A 0.67 0.67 0.0 0 1 200.02 410.08
  Q 200.46 409.91 200.31 409.55
  Q 200.16 409.19 199.91 409.50
  C 198.01 411.90 199.20 420.79 199.33 423.76
  A 1.45 1.44 -89.1 0 0 200.66 425.14
  L 206.84 425.66
  Z
  M 271.19 428.65
  C 265.99 429.85 264.84 434.39 264.59 439.08
  Q 264.56 439.65 265.13 439.66
  L 269.23 439.76
  Q 269.77 439.77 269.92 439.26
  Q 271.01 435.50 273.34 432.32
  Q 275.90 428.82 280.02 428.23
  A 0.31 0.31 0.0 0 0 280.22 427.73
  L 279.85 427.23
  A 0.74 0.73 -23.3 0 0 279.13 426.95
  Q 275.21 427.72 271.19 428.65
  Z
  M 210.62 428.88
  Q 205.34 428.26 202.60 428.22
  Q 202.49 428.22 202.43 428.30
  Q 202.33 428.44 202.22 428.57
  Q 202.12 428.69 202.27 428.74
  Q 210.79 431.58 212.30 440.61
  A 0.36 0.36 0.0 0 0 212.69 440.91
  L 217.64 440.49
  A 0.31 0.31 0.0 0 0 217.92 440.17
  C 217.75 436.02 215.57 429.45 210.62 428.88
  Z
  M 216.07 429.83
  C 218.62 433.05 219.18 435.63 219.57 439.66
  Q 219.63 440.23 220.20 440.19
  L 228.09 439.67
  A 0.55 0.55 0.0 0 0 228.61 439.12
  L 228.56 429.80
  A 0.49 0.49 0.0 0 0 228.06 429.31
  L 216.19 429.58
  Q 215.88 429.59 216.07 429.83
  Z
  M 286.73 430.35
  C 280.32 426.09 272.72 432.84 271.83 439.39
  Q 271.73 440.10 272.45 440.15
  Q 280.54 440.63 287.29 440.45
  Q 289.11 440.41 289.40 438.50
  Q 290.28 432.72 286.73 430.35
  Z
  M 265.29 429.53
  L 254.31 429.46
  Q 253.83 429.46 253.83 429.94
  L 253.85 438.20
  A 0.62 0.62 0.0 0 0 254.44 438.82
  L 262.46 439.31
  Q 262.90 439.34 262.88 438.90
  Q 262.75 433.99 265.54 430.02
  A 0.31 0.31 0.0 0 0 265.29 429.53
  Z
  M 210.77 440.48
  C 209.42 435.83 207.42 432.19 202.76 430.44
  Q 198.07 428.67 194.69 431.95
  C 192.47 434.11 192.65 437.18 193.13 440.02
  Q 193.22 440.55 193.73 440.73
  C 198.06 442.26 205.70 441.57 210.34 441.12
  Q 210.94 441.06 210.77 440.48
  Z
  M 288.60 441.50
  Q 285.36 442.47 284.00 442.52
  Q 269.06 443.12 254.65 440.26
  Q 253.74 440.08 253.76 441.00
  L 253.77 441.36
  Q 253.79 442.48 254.90 442.59
  C 265.95 443.66 277.33 445.22 288.22 443.35
  Q 289.11 443.20 289.18 442.30
  L 289.21 442.00
  A 0.48 0.48 0.0 0 0 288.60 441.50
  Z
  M 196.04 442.85
  Q 194.78 442.60 193.72 442.42
  Q 193.12 442.31 193.24 442.90
  L 193.29 443.18
  Q 193.44 443.92 194.17 444.11
  Q 197.56 444.98 200.50 445.01
  Q 212.52 445.14 227.50 443.39
  A 1.28 1.28 0.0 0 0 228.62 442.26
  L 228.66 441.94
  Q 228.77 440.92 227.77 441.12
  C 218.27 442.98 205.65 444.75 196.04 442.85
  Z"
/>
<path fill="#da792c" d="
  M 312.50 174.89
  C 309.78 183.89 301.77 191.68 294.62 196.95
  C 293.39 197.85 292.77 197.51 291.48 197.06
  Q 284.68 194.64 280.48 192.50
  Q 278.96 191.72 277.54 187.46
  L 280.99 187.63
  Q 281.30 187.65 281.43 187.36
  Q 281.52 187.16 281.45 187.01
  Q 281.40 186.92 281.24 186.85
  C 274.69 184.18 269.42 182.09 265.16 176.61
  Q 260.50 170.61 256.09 164.43
  Q 254.96 162.84 253.27 161.95
  Q 252.75 161.67 252.62 162.25
  Q 252.44 163.03 253.35 163.65
  Q 252.78 164.98 253.04 166.27
  Q 254.92 175.45 254.51 184.91
  Q 254.48 185.45 253.96 185.59
  L 241.31 188.96
  Q 239.73 189.29 238.66 188.61
  Q 237.82 188.09 237.56 186.52
  C 236.20 178.58 233.32 165.72 227.83 159.62
  A 0.62 0.62 0.0 0 0 226.75 160.07
  L 226.93 163.05
  L 222.87 181.76
  A 2.02 2.00 84.4 0 1 221.73 183.16
  C 217.20 185.18 213.35 185.49 208.20 186.24
  Q 209.23 175.67 210.73 165.27
  Q 211.08 162.89 210.85 162.00
  Q 210.68 161.30 210.00 161.44
  Q 209.52 161.54 209.37 162.00
  L 208.98 163.18
  C 205.37 165.29 202.03 173.25 200.32 177.06
  C 198.92 180.17 196.89 181.96 194.02 183.31
  Q 188.81 185.77 182.59 186.97
  L 177.53 187.00
  A 0.91 0.91 0.0 0 1 176.64 185.87
  C 178.41 178.62 181.91 173.92 185.61 167.48
  A 0.38 0.38 0.0 0 0 185.24 166.91
  Q 184.36 167.00 183.54 168.46
  L 169.96 175.71
  C 175.23 162.40 188.37 150.43 200.70 144.68
  C 221.18 135.13 251.36 126.86 273.52 134.45
  C 285.89 138.68 295.44 147.76 302.55 158.53
  Q 303.89 160.56 305.45 162.07
  C 309.28 165.78 312.05 169.28 312.50 174.89
  Z"
/>
<path fill="#020101" d="
  M 357.2858 153.7486
  A 12.75 12.23 37.2 0 1 339.7358 155.7816
  A 12.75 12.23 37.2 0 1 336.9742 138.3314
  A 12.75 12.23 37.2 0 1 354.5242 136.2984
  A 12.75 12.23 37.2 0 1 357.2858 153.7486
  Z
  M 354.6811 153.4711
  A 10.99 10.17 45.0 0 0 354.1013 138.5087
  A 10.99 10.17 45.0 0 0 339.1389 137.9289
  A 10.99 10.17 45.0 0 0 339.7187 152.8913
  A 10.99 10.17 45.0 0 0 354.6811 153.4711
  Z"
/>
<ellipse fill="#ff6759" cx="0.00" cy="0.00" transform="translate(346.91,145.70) rotate(45.0)" rx="10.99" ry="10.17"/>
<path fill="#a84700" d="
  M 226.93 163.05
  Q 227.90 175.32 227.43 187.54
  A 0.62 0.62 0.0 0 1 226.80 188.13
  Q 220.69 187.99 214.51 187.90
  Q 211.73 187.86 208.20 186.24
  C 213.35 185.49 217.20 185.18 221.73 183.16
  A 2.02 2.00 84.4 0 0 222.87 181.76
  L 226.93 163.05
  Z"
/>
<path fill="#a84700" d="
  M 208.98 163.18
  Q 209.29 163.99 209.06 164.79
  Q 205.88 175.54 201.33 182.82
  C 199.40 185.91 186.04 187.01 182.59 186.97
  Q 188.81 185.77 194.02 183.31
  C 196.89 181.96 198.92 180.17 200.32 177.06
  C 202.03 173.25 205.37 165.29 208.98 163.18
  Z"
/>
<path fill="#a84700" d="
  M 253.35 163.65
  Q 257.49 169.99 259.23 176.00
  Q 260.06 178.87 261.77 187.21
  Q 261.81 187.41 261.92 187.57
  Q 262.11 187.81 262.16 187.87
  A 0.58 0.57 66.2 0 1 261.80 188.81
  Q 251.65 190.21 241.31 188.96
  L 253.96 185.59
  Q 254.48 185.45 254.51 184.91
  Q 254.92 175.45 253.04 166.27
  Q 252.78 164.98 253.35 163.65
  Z"
/>
<path fill="#e5ac85" d="
  M 276.95 217.66
  Q 269.55 205.08 270.75 188.98
  Q 270.80 188.34 270.25 187.99
  Q 268.68 186.97 266.84 186.86
  Q 266.36 186.83 266.31 187.31
  L 265.84 191.76
  A 1.45 1.45 0.0 0 1 264.99 192.93
  C 261.30 194.57 259.43 194.33 254.76 193.71
  Q 251.99 193.34 249.60 194.18
  Q 246.47 192.85 244.02 194.22
  Q 243.88 194.05 243.86 193.74
  Q 243.84 193.30 243.40 193.30
  Q 238.99 193.27 234.64 192.65
  Q 232.57 192.36 230.42 192.92
  C 223.77 194.66 217.28 193.90 210.51 193.68
  Q 205.67 193.52 199.72 190.06
  Q 198.13 189.14 197.85 190.70
  Q 196.59 188.64 193.45 189.37
  L 189.24 189.27
  C 198.66 187.79 202.39 186.22 206.43 177.53
  A 0.27 0.27 0.0 0 1 206.95 177.66
  C 206.77 182.22 204.37 188.19 210.92 189.57
  Q 219.72 191.43 227.38 190.14
  C 228.86 189.89 229.76 188.47 229.82 186.94
  Q 230.17 177.01 229.55 167.89
  Q 229.36 165.04 230.19 167.77
  C 232.23 174.46 234.00 181.32 236.43 187.88
  C 237.35 190.38 238.54 190.83 241.01 191.16
  C 247.34 192.02 256.60 192.65 262.71 190.63
  A 2.21 2.21 0.0 0 0 264.22 188.55
  Q 264.24 183.02 262.60 177.74
  A 0.25 0.25 0.0 0 1 263.04 177.52
  C 265.90 181.47 269.52 184.49 275.02 186.71
  Q 275.51 186.91 275.41 187.43
  Q 272.59 202.31 276.95 217.66
  Z"
/>
<path fill="#a84700" d="
  M 183.54 168.46
  C 178.98 174.12 175.90 179.03 175.04 186.48
  A 1.86 1.85 -77.9 0 0 176.32 188.47
  L 178.41 189.13
  A 0.74 0.73 15.9 0 1 178.90 190.01
  L 176.36 200.05
  A 0.62 0.62 0.0 0 1 175.37 200.38
  C 171.23 197.11 168.03 192.91 167.79 187.39
  Q 167.53 181.20 169.96 175.71
  L 183.54 168.46
  Z"
/>
<path fill="#a84700" d="
  M 312.50 174.89
  Q 313.64 177.85 313.77 180.00
  C 314.47 191.83 314.71 204.71 312.55 216.44
  A 0.53 0.53 0.0 0 1 311.76 216.80
  Q 307.57 214.37 302.49 214.71
  C 294.83 215.22 290.85 218.57 285.13 222.22
  A 1.73 1.73 0.0 0 1 282.67 221.59
  Q 278.37 213.76 277.35 205.25
  Q 276.52 198.25 277.54 187.46
  Q 278.96 191.72 280.48 192.50
  Q 284.68 194.64 291.48 197.06
  C 292.77 197.51 293.39 197.85 294.62 196.95
  C 301.77 191.68 309.78 183.89 312.50 174.89
  Z"
/>
<path fill="#ffdbc3" d="
  M 276.95 217.66
  L 280.62 223.67
  Q 280.87 224.08 281.34 224.12
  Q 285.28 224.51 286.53 223.50
  C 292.41 218.71 298.08 215.66 305.98 217.02
  C 315.14 218.59 314.85 225.94 311.28 232.75
  C 309.50 233.77 308.00 234.62 306.41 236.10
  C 301.58 240.58 295.79 245.29 288.50 243.85
  Q 285.15 243.18 283.63 242.79
  A 1.04 1.01 30.3 0 0 282.66 243.03
  C 277.01 248.33 271.49 254.61 265.43 258.68
  Q 257.53 263.99 250.72 266.14
  C 238.45 270.03 227.40 272.77 215.41 271.41
  C 205.39 270.27 193.89 265.25 185.84 258.97
  Q 183.49 257.13 181.15 255.26
  Q 181.00 255.14 180.81 255.12
  Q 180.74 255.11 180.74 255.05
  Q 180.74 254.90 180.75 254.75
  A 0.24 0.24 0.0 0 0 180.49 254.51
  Q 179.41 254.57 179.43 253.94
  Q 179.46 253.35 178.90 253.16
  Q 178.37 252.98 177.66 253.02
  Q 174.64 243.48 175.32 233.00
  Q 176.74 211.21 181.34 190.14
  A 0.99 0.97 -84.0 0 1 182.28 189.37
  L 189.24 189.27
  L 193.45 189.37
  C 191.18 190.59 185.21 193.70 184.15 195.72
  Q 183.62 196.74 184.73 196.44
  L 196.75 193.22
  A 2.28 1.75 -6.3 0 0 198.38 191.66
  Q 198.41 191.46 197.85 190.70
  Q 198.13 189.14 199.72 190.06
  Q 205.67 193.52 210.51 193.68
  C 217.28 193.90 223.77 194.66 230.42 192.92
  Q 232.57 192.36 234.64 192.65
  Q 238.99 193.27 243.40 193.30
  Q 243.84 193.30 243.86 193.74
  Q 243.88 194.05 244.02 194.22
  Q 242.96 194.76 242.46 195.31
  A 0.65 0.65 0.0 0 0 242.78 196.37
  Q 248.20 197.80 253.52 199.76
  Q 254.89 200.26 255.57 200.36
  Q 257.22 200.59 256.10 199.35
  Q 253.52 196.52 249.60 194.18
  Q 251.99 193.34 254.76 193.71
  C 259.43 194.33 261.30 194.57 264.99 192.93
  A 1.45 1.45 0.0 0 0 265.84 191.76
  L 266.31 187.31
  Q 266.36 186.83 266.84 186.86
  Q 268.68 186.97 270.25 187.99
  Q 270.80 188.34 270.75 188.98
  Q 269.55 205.08 276.95 217.66
  Z
  M 183.30 213.94
  C 184.02 216.34 184.17 220.20 186.49 222.39
  Q 192.09 225.30 198.84 223.87
  A 0.73 0.72 -1.2 0 0 199.41 223.28
  Q 199.48 222.94 199.21 222.81
  C 201.26 221.60 202.29 217.89 203.13 215.75
  Q 203.32 215.29 202.90 214.74
  Q 203.26 214.60 203.26 214.24
  C 203.35 206.05 195.77 200.97 188.51 205.77
  Q 183.52 209.07 183.30 213.94
  Z
  M 237.09 215.60
  Q 237.10 220.58 239.32 225.01
  Q 239.37 225.13 239.50 225.13
  Q 239.66 225.13 239.77 225.14
  Q 239.90 225.44 240.05 225.63
  Q 240.19 225.82 240.49 225.92
  C 243.08 226.76 249.71 227.90 252.09 226.49
  Q 253.00 225.95 252.48 225.58
  Q 254.82 225.28 256.07 222.25
  Q 257.33 219.21 258.34 215.97
  C 255.83 203.88 242.02 203.51 236.82 214.05
  Q 236.26 215.18 237.09 215.60
  Z
  M 209.30 232.60
  Q 210.07 232.54 210.89 232.75
  Q 211.35 232.86 211.61 232.77
  Q 212.12 232.59 212.25 231.94
  A 0.88 0.87 -63.0 0 0 211.98 231.10
  L 208.12 227.69
  L 210.21 224.59
  Q 210.85 223.65 209.84 224.17
  C 206.63 225.82 204.59 232.81 209.30 232.60
  Z
  M 289.71 233.05
  Q 290.40 233.92 290.95 235.15
  C 293.20 240.13 297.60 239.66 300.55 235.75
  Q 302.61 233.02 303.24 230.00
  C 303.18 225.79 300.40 223.77 296.48 225.30
  Q 291.51 227.25 289.71 233.05
  Z
  M 214.1024 268.8598
  A 11.01 6.41 90.3 0 0 220.5699 257.8836
  A 11.01 6.41 90.3 0 0 214.2176 246.8402
  A 11.01 6.41 90.3 0 0 207.7501 257.8164
  A 11.01 6.41 90.3 0 0 214.1024 268.8598
  Z"
/>
<path fill="#020101" d="
  M 197.85 190.70
  Q 198.41 191.46 198.38 191.66
  A 2.28 1.75 -6.3 0 1 196.75 193.22
  L 184.73 196.44
  Q 183.62 196.74 184.15 195.72
  C 185.21 193.70 191.18 190.59 193.45 189.37
  Q 196.59 188.64 197.85 190.70
  Z"
/>
<path fill="#020101" d="
  M 249.60 194.18
  Q 253.52 196.52 256.10 199.35
  Q 257.22 200.59 255.57 200.36
  Q 254.89 200.26 253.52 199.76
  Q 248.20 197.80 242.78 196.37
  A 0.65 0.65 0.0 0 1 242.46 195.31
  Q 242.96 194.76 244.02 194.22
  Q 246.47 192.85 249.60 194.18
  Z"
/>
<path fill="#020101" d="
  M 202.90 214.74
  C 201.22 210.18 198.06 204.77 192.31 206.01
  Q 191.10 206.27 192.27 206.68
  C 195.03 207.63 195.81 212.20 194.85 214.44
  C 192.96 218.81 186.15 216.66 185.84 212.58
  Q 185.61 209.60 184.87 212.50
  Q 184.56 213.74 183.30 213.94
  Q 183.52 209.07 188.51 205.77
  C 195.77 200.97 203.35 206.05 203.26 214.24
  Q 203.26 214.60 202.90 214.74
  Z
  M 189.89 210.41
  A 1.21 1.21 0.0 0 0 188.68 209.20
  A 1.21 1.21 0.0 0 0 187.47 210.41
  A 1.21 1.21 0.0 0 0 188.68 211.62
  A 1.21 1.21 0.0 0 0 189.89 210.41
  Z"
/>
<path fill="#f5f5f6" d="
  M 202.90 214.74
  Q 203.32 215.29 203.13 215.75
  C 202.29 217.89 201.26 221.60 199.21 222.81
  L 186.49 222.39
  C 184.17 220.20 184.02 216.34 183.30 213.94
  Q 184.56 213.74 184.87 212.50
  Q 185.61 209.60 185.84 212.58
  C 186.15 216.66 192.96 218.81 194.85 214.44
  C 195.81 212.20 195.03 207.63 192.27 206.68
  Q 191.10 206.27 192.31 206.01
  C 198.06 204.77 201.22 210.18 202.90 214.74
  Z"
/>
<path fill="#020101" d="
  M 258.34 215.97
  C 255.24 212.63 251.33 207.91 246.36 208.65
  A 0.32 0.32 0.0 0 0 246.23 209.23
  Q 249.69 211.49 248.91 215.95
  C 247.88 221.82 239.13 219.93 239.78 213.76
  A 0.52 0.52 0.0 0 0 238.86 213.38
  L 237.09 215.60
  Q 236.26 215.18 236.82 214.05
  C 242.02 203.51 255.83 203.88 258.34 215.97
  Z
  M 242.7807 214.0942
  A 1.47 1.27 84.9 0 0 243.9150 212.5171
  A 1.47 1.27 84.9 0 0 242.5193 211.1658
  A 1.47 1.27 84.9 0 0 241.3850 212.7429
  A 1.47 1.27 84.9 0 0 242.7807 214.0942
  Z"
/>
<path fill="#f5f5f6" d="
  M 258.34 215.97
  Q 257.33 219.21 256.07 222.25
  Q 254.82 225.28 252.48 225.58
  Q 246.18 226.07 239.77 225.14
  Q 239.66 225.13 239.50 225.13
  Q 239.37 225.13 239.32 225.01
  Q 237.10 220.58 237.09 215.60
  L 238.86 213.38
  A 0.52 0.52 0.0 0 1 239.78 213.76
  C 239.13 219.93 247.88 221.82 248.91 215.95
  Q 249.69 211.49 246.23 209.23
  A 0.32 0.32 0.0 0 1 246.36 208.65
  C 251.33 207.91 255.24 212.63 258.34 215.97
  Z"
/>
<circle fill="#f5f5f6" cx="188.68" cy="210.41" r="1.21"/>
<ellipse fill="#f5f5f6" cx="0.00" cy="0.00" transform="translate(242.65,212.63) rotate(84.9)" rx="1.47" ry="1.27"/>
<path fill="#020101" d="
  M 186.49 222.39
  L 199.21 222.81
  Q 199.48 222.94 199.41 223.28
  A 0.73 0.72 -1.2 0 1 198.84 223.87
  Q 192.09 225.30 186.49 222.39
  Z"
/>
<path fill="#020101" d="
  M 208.12 227.69
  Q 207.52 229.75 209.30 232.60
  C 204.59 232.81 206.63 225.82 209.84 224.17
  Q 210.85 223.65 210.21 224.59
  L 208.12 227.69
  Z"
/>
<path fill="#020101" d="
  M 303.24 230.00
  Q 302.02 229.49 301.58 228.09
  A 1.43 1.41 4.8 0 0 300.86 227.25
  Q 297.72 225.65 295.18 228.21
  Q 294.79 228.60 295.31 228.77
  C 300.80 230.57 298.52 237.35 293.07 236.08
  Q 292.39 235.92 292.25 235.24
  L 292.16 234.78
  Q 291.98 233.95 292.78 234.26
  Q 294.80 235.06 296.20 233.65
  A 1.98 1.98 0.0 0 0 295.69 230.48
  Q 293.24 229.25 289.71 233.05
  Q 291.51 227.25 296.48 225.30
  C 300.40 223.77 303.18 225.79 303.24 230.00
  Z"
/>
<path fill="#020101" d="
  M 239.77 225.14
  Q 246.18 226.07 252.48 225.58
  Q 253.00 225.95 252.09 226.49
  C 249.71 227.90 243.08 226.76 240.49 225.92
  Q 240.19 225.82 240.05 225.63
  Q 239.90 225.44 239.77 225.14
  Z"
/>
<path fill="#e5ac85" d="
  M 303.24 230.00
  Q 302.61 233.02 300.55 235.75
  C 297.60 239.66 293.20 240.13 290.95 235.15
  Q 290.40 233.92 289.71 233.05
  Q 293.24 229.25 295.69 230.48
  A 1.98 1.98 0.0 0 1 296.20 233.65
  Q 294.80 235.06 292.78 234.26
  Q 291.98 233.95 292.16 234.78
  L 292.25 235.24
  Q 292.39 235.92 293.07 236.08
  C 298.52 237.35 300.80 230.57 295.31 228.77
  Q 294.79 228.60 295.18 228.21
  Q 297.72 225.65 300.86 227.25
  A 1.43 1.41 4.8 0 1 301.58 228.09
  Q 302.02 229.49 303.24 230.00
  Z"
/>
<path fill="#e5ac85" d="
  M 208.12 227.69
  L 211.98 231.10
  A 0.88 0.87 -63.0 0 1 212.25 231.94
  Q 212.12 232.59 211.61 232.77
  Q 211.35 232.86 210.89 232.75
  Q 210.07 232.54 209.30 232.60
  Q 207.52 229.75 208.12 227.69
  Z"
/>
<path fill="#e5ac85" d="
  M 311.28 232.75
  Q 307.39 239.41 301.51 244.14
  C 295.34 249.11 289.81 250.27 282.67 246.81
  Q 281.79 246.38 281.15 247.12
  C 265.42 265.24 245.75 275.85 221.34 275.35
  Q 212.76 275.18 204.45 272.47
  C 193.58 268.93 183.02 263.84 177.66 253.02
  Q 178.37 252.98 178.90 253.16
  Q 179.46 253.35 179.43 253.94
  Q 179.41 254.57 180.49 254.51
  A 0.24 0.24 0.0 0 1 180.75 254.75
  Q 180.74 254.90 180.74 255.05
  Q 180.74 255.11 180.81 255.12
  Q 181.00 255.14 181.15 255.26
  Q 183.49 257.13 185.84 258.97
  C 193.89 265.25 205.39 270.27 215.41 271.41
  C 227.40 272.77 238.45 270.03 250.72 266.14
  Q 257.53 263.99 265.43 258.68
  C 271.49 254.61 277.01 248.33 282.66 243.03
  A 1.04 1.01 30.3 0 1 283.63 242.79
  Q 285.15 243.18 288.50 243.85
  C 295.79 245.29 301.58 240.58 306.41 236.10
  C 308.00 234.62 309.50 233.77 311.28 232.75
  Z"
/>
<path fill="#2a9567" d="
  M 274.23 303.60
  Q 275.21 301.92 276.39 301.10
  Q 291.81 290.28 306.44 278.41
  Q 308.63 276.62 308.69 273.69
  Q 308.89 262.19 307.52 250.51
  A 0.49 0.49 0.0 0 0 306.74 250.17
  Q 300.31 254.79 292.09 255.93
  L 291.47 252.26
  A 0.54 0.54 0.0 0 1 291.94 251.63
  C 298.70 250.83 304.36 246.62 308.62 241.33
  A 0.57 0.57 0.0 0 1 309.62 241.55
  Q 312.58 253.77 313.43 266.50
  C 313.96 274.49 311.82 281.13 304.92 285.67
  C 294.85 292.31 286.29 298.47 274.23 303.60
  Z"
/>
<path fill="#020101" d="
  M 214.1024 268.8598
  A 11.01 6.41 90.3 0 1 207.7501 257.8164
  A 11.01 6.41 90.3 0 1 214.2176 246.8402
  A 11.01 6.41 90.3 0 1 220.5699 257.8836
  A 11.01 6.41 90.3 0 1 214.1024 268.8598
  Z
  M 210.30 260.53
  L 218.00 260.34
  A 0.29 0.29 0.0 0 0 218.28 260.05
  L 218.21 257.21
  A 9.03 4.02 88.6 0 0 213.97 248.28
  L 213.73 248.28
  A 9.03 4.02 88.6 0 0 209.93 257.41
  L 210.00 260.25
  A 0.29 0.29 0.0 0 0 210.30 260.53
  Z
  M 217.34 264.12
  A 1.82 1.82 0.0 0 0 216.12 261.14
  L 214.02 260.94
  A 1.82 1.82 0.0 0 0 213.13 261.07
  L 211.58 261.73
  A 1.82 1.82 0.0 0 0 211.26 264.90
  L 213.34 266.33
  A 1.82 1.82 0.0 0 0 215.77 266.00
  L 217.34 264.12
  Z"
/>
<path fill="#ff6759" d="
  M 210.30 260.53
  A 0.29 0.29 0.0 0 1 210.00 260.25
  L 209.93 257.41
  A 9.03 4.02 88.6 0 1 213.73 248.28
  L 213.97 248.28
  A 9.03 4.02 88.6 0 1 218.21 257.21
  L 218.28 260.05
  A 0.29 0.29 0.0 0 1 218.00 260.34
  L 210.30 260.53
  Z"
/>
<path fill="#f5f5f6" d="
  M 287.94 263.27
  Q 287.54 264.22 287.52 265.26
  Q 287.51 265.84 286.97 266.04
  Q 278.84 269.12 271.31 273.48
  A 1.08 1.05 38.4 0 1 270.44 273.57
  Q 266.90 272.45 265.51 275.77
  Q 265.28 276.31 264.70 276.42
  Q 261.31 277.03 258.24 278.60
  Q 257.75 278.85 257.21 278.78
  Q 255.60 278.57 254.22 279.32
  Q 253.68 279.62 253.15 279.31
  Q 251.11 278.13 248.97 279.31
  A 0.85 0.84 -39.2 0 1 248.02 279.22
  L 245.58 277.14
  A 1.51 1.51 0.0 0 1 245.98 274.60
  C 258.35 269.44 269.01 264.02 278.35 254.11
  Q 280.23 252.11 282.10 250.10
  A 0.78 0.78 0.0 0 1 283.02 249.93
  Q 285.77 251.34 288.84 251.57
  Q 289.38 251.61 289.46 252.15
  L 290.88 261.85
  Q 290.94 262.32 290.47 262.38
  L 288.85 262.58
  A 1.13 1.12 7.6 0 0 287.94 263.27
  Z"
/>
<path fill="#6cbc99" d="
  M 274.23 303.60
  L 271.13 305.49
  A 0.46 0.45 -39.7 0 0 271.06 306.22
  L 271.30 306.42
  Q 271.40 306.51 271.52 306.47
  L 274.25 305.57
  Q 274.77 305.40 274.86 305.94
  Q 275.28 308.20 274.40 309.08
  L 266.21 342.86
  A 4.25 4.21 -10.1 0 1 264.43 345.39
  C 255.35 351.36 246.34 356.28 234.73 356.61
  C 231.52 356.70 227.96 357.27 224.97 356.47
  C 220.27 355.22 203.30 347.20 201.78 343.27
  Q 201.05 341.39 200.34 340.67
  C 200.10 330.17 201.04 319.76 201.63 309.08
  A 0.49 0.48 -11.3 0 0 200.93 308.62
  Q 200.15 309.00 199.99 310.55
  Q 199.02 310.20 198.29 310.44
  Q 197.75 310.61 197.77 311.17
  C 197.87 315.27 195.69 319.56 195.20 323.50
  Q 193.80 334.83 194.01 346.35
  A 1.09 1.09 0.0 0 1 193.32 347.39
  L 187.60 349.60
  C 181.43 349.16 181.03 345.71 182.13 340.42
  C 183.08 335.92 183.75 330.96 184.84 326.88
  Q 189.56 309.22 199.13 292.54
  C 200.44 290.26 205.14 288.68 207.46 287.93
  A 0.49 0.48 -0.1 0 1 208.07 288.53
  C 206.67 293.03 204.39 305.18 208.61 308.48
  C 210.89 310.27 215.01 309.22 217.65 308.46
  C 219.24 308.00 220.57 306.60 222.34 306.51
  Q 223.00 306.48 222.90 305.83
  L 222.85 305.55
  A 1.05 1.05 0.0 0 0 221.89 304.68
  C 218.73 304.48 215.11 306.21 212.06 307.04
  C 203.98 309.22 209.67 288.71 210.61 285.39
  Q 212.75 288.71 216.34 293.41
  Q 218.54 296.30 221.80 296.75
  Q 224.19 303.12 228.25 308.42
  A 0.80 0.79 -45.4 0 0 229.52 308.41
  L 237.43 297.72
  Q 246.49 291.33 253.76 282.96
  Q 255.54 294.20 254.53 301.53
  C 252.86 313.55 237.88 298.90 235.25 305.92
  Q 234.69 306.82 234.75 307.02
  A 1.69 1.67 89.9 0 0 235.94 308.22
  Q 242.72 310.03 248.48 309.57
  Q 255.31 307.91 256.24 302.76
  C 257.29 297.00 257.92 286.45 254.79 281.29
  A 0.62 0.62 0.0 0 1 255.34 280.35
  C 258.66 280.45 261.73 278.65 265.00 277.89
  A 1.45 1.45 0.0 0 0 265.78 277.41
  L 267.75 275.06
  A 0.30 0.30 0.0 0 1 268.03 274.96
  Q 271.16 275.42 272.43 274.82
  Q 279.86 271.29 287.34 267.85
  Q 287.86 267.61 288.16 268.10
  Q 288.37 268.44 288.78 268.58
  A 0.58 0.57 19.1 0 0 289.50 268.24
  Q 289.94 267.06 289.74 265.73
  Q 289.51 264.18 291.03 264.55
  Q 293.41 265.13 295.36 264.57
  Q 297.95 263.83 295.35 263.10
  L 293.30 262.53
  Q 292.90 262.42 292.84 262.00
  L 292.09 255.93
  Q 300.31 254.79 306.74 250.17
  A 0.49 0.49 0.0 0 1 307.52 250.51
  Q 308.89 262.19 308.69 273.69
  Q 308.63 276.62 306.44 278.41
  Q 291.81 290.28 276.39 301.10
  Q 275.21 301.92 274.23 303.60
  Z
  M 221.13 308.07
  L 220.86 308.13
  Q 220.14 308.29 220.83 308.54
  Q 222.25 309.07 222.86 307.77
  Q 222.98 307.50 222.88 307.34
  Q 222.61 306.89 222.24 307.26
  L 221.78 307.72
  Q 221.51 307.99 221.13 308.07
  Z"
/>
<path fill="#ff6759" d="
  M 217.34 264.12
  L 215.77 266.00
  A 1.82 1.82 0.0 0 1 213.34 266.33
  L 211.26 264.90
  A 1.82 1.82 0.0 0 1 211.58 261.73
  L 213.13 261.07
  A 1.82 1.82 0.0 0 1 214.02 260.94
  L 216.12 261.14
  A 1.82 1.82 0.0 0 1 217.34 264.12
  Z"
/>
<path fill="#e5ac85" d="
  M 239.44 281.97
  Q 230.61 283.71 223.19 283.72
  Q 221.17 281.67 220.02 279.26
  A 0.99 0.98 79.1 0 1 220.97 277.85
  Q 232.24 278.60 243.01 275.29
  Q 243.53 275.14 243.63 275.66
  Q 243.96 277.30 242.97 278.47
  Q 240.80 281.05 239.44 281.97
  Z"
/>
<path fill="#ffc831" d="
  M 227.19 294.27
  A 1.00 0.99 -31.3 0 0 228.52 294.59
  C 234.76 290.95 240.19 284.90 245.11 279.63
  Q 245.53 279.18 246.04 279.53
  L 246.53 279.87
  A 0.68 0.67 -57.1 0 1 246.72 280.78
  C 241.20 289.54 234.41 297.23 228.91 306.06
  Q 228.57 306.61 228.33 306.01
  C 224.26 295.65 221.93 289.94 217.10 281.35
  A 0.70 0.69 -27.2 0 1 217.42 280.38
  L 217.70 280.25
  A 0.44 0.44 0.0 0 1 218.25 280.40
  L 227.19 294.27
  Z"
/>
<path fill="#2a9567" d="
  M 253.76 282.96
  Q 246.49 291.33 237.43 297.72
  C 241.01 292.19 245.08 287.55 247.99 281.76
  A 1.83 1.79 1.5 0 1 248.92 280.90
  Q 252.54 279.43 253.76 282.96
  Z"
/>
<path fill="#ffdbc3" d="
  M 239.44 281.97
  L 229.07 292.10
  Q 228.68 292.48 228.39 292.02
  L 223.19 283.72
  Q 230.61 283.71 239.44 281.97
  Z"
/>
<path fill="#2a9567" d="
  M 221.80 296.75
  Q 218.54 296.30 216.34 293.41
  Q 212.75 288.71 210.61 285.39
  Q 211.82 282.90 214.61 282.08
  Q 215.14 281.92 215.37 282.43
  L 221.80 296.75
  Z"
/>
<path fill="#2a9567" d="
  M 235.25 305.92
  Q 241.77 306.69 248.48 309.57
  Q 242.72 310.03 235.94 308.22
  A 1.69 1.67 89.9 0 1 234.75 307.02
  Q 234.69 306.82 235.25 305.92
  Z"
/>
<path fill="#2a9567" d="
  M 221.78 307.72
  L 222.24 307.26
  Q 222.61 306.89 222.88 307.34
  Q 222.98 307.50 222.86 307.77
  Q 222.25 309.07 220.83 308.54
  Q 220.14 308.29 220.86 308.13
  L 221.13 308.07
  Q 221.51 307.99 221.78 307.72
  Z"
/>
<path fill="#2a9567" d="
  M 274.40 309.08
  Q 275.79 321.42 276.52 332.99
  C 276.86 338.33 278.03 344.67 278.04 349.99
  C 278.05 354.13 275.52 355.74 271.63 356.57
  Q 244.63 362.31 217.00 360.67
  C 214.08 360.50 204.14 359.67 201.49 356.91
  Q 200.59 355.97 200.49 353.89
  Q 200.16 347.30 200.34 340.67
  Q 201.05 341.39 201.78 343.27
  C 203.30 347.20 220.27 355.22 224.97 356.47
  C 227.96 357.27 231.52 356.70 234.73 356.61
  C 246.34 356.28 255.35 351.36 264.43 345.39
  A 4.25 4.21 -10.1 0 0 266.21 342.86
  L 274.40 309.08
  Z"
/>
<path fill="#2a9567" d="
  M 199.99 310.55
  Q 199.58 312.01 199.12 313.52
  C 198.44 315.72 198.99 317.80 198.72 320.00
  Q 196.87 335.23 197.78 349.82
  Q 197.81 350.35 197.28 350.31
  L 187.60 349.60
  L 193.32 347.39
  A 1.09 1.09 0.0 0 0 194.01 346.35
  Q 193.80 334.83 195.20 323.50
  C 195.69 319.56 197.87 315.27 197.77 311.17
  Q 197.75 310.61 198.29 310.44
  Q 199.02 310.20 199.99 310.55
  Z"
/>
<rect fill="#e5ac85" x="-7.02" y="-0.90" transform="translate(191.30,352.99) rotate(4.0)" width="14.04" height="1.80" rx="0.27"/>
<path fill="#e5ac85" d="
  M 198.53 366.62
  Q 198.94 366.47 198.92 365.89
  Q 198.91 365.56 198.64 365.18
  Q 197.37 363.37 196.68 361.67
  A 2.84 2.84 0.0 0 0 194.48 359.92
  L 185.28 358.51
  L 185.24 356.02
  A 0.84 0.84 0.0 0 1 186.26 355.18
  Q 192.15 356.47 198.11 355.71
  A 0.63 0.63 0.0 0 1 198.73 356.02
  L 199.31 357.01
  Q 199.56 357.45 199.28 357.88
  C 198.47 359.06 198.50 359.94 199.21 361.28
  Q 200.47 363.63 199.35 366.30
  Q 199.20 366.65 198.82 366.65
  Q 198.69 366.64 198.53 366.62
  Z"
/>
<path fill="#3c87ae" d="
  M 275.95 362.69
  Q 262.14 367.18 248.50 367.25
  Q 233.61 367.32 215.50 366.18
  Q 209.63 365.81 201.73 362.90
  Q 201.53 362.16 200.17 360.28
  Q 199.68 359.60 200.20 358.93
  Q 200.49 358.57 200.88 358.80
  Q 207.22 362.50 216.01 363.14
  Q 242.49 365.05 265.98 360.63
  Q 269.38 359.99 275.51 357.61
  Q 276.06 357.40 276.25 357.96
  Q 277.09 360.48 275.95 362.69
  Z"
/>
<path fill="#ffdbc3" d="
  M 198.53 366.62
  C 196.31 367.14 191.40 369.18 189.54 367.52
  Q 185.85 364.26 185.28 358.51
  L 194.48 359.92
  A 2.84 2.84 0.0 0 1 196.68 361.67
  Q 197.37 363.37 198.64 365.18
  Q 198.91 365.56 198.92 365.89
  Q 198.94 366.47 198.53 366.62
  Z"
/>
<path fill="#91c1d8" d="
  M 275.95 362.69
  L 276.50 408.69
  A 0.28 0.27 -6.0 0 1 276.27 408.97
  Q 266.61 410.68 256.31 410.72
  C 253.40 403.92 250.28 397.01 247.89 389.99
  Q 246.92 387.15 244.87 384.86
  L 243.95 381.16
  Q 243.84 380.68 243.47 380.36
  C 239.96 377.17 234.11 376.18 229.62 376.31
  Q 229.28 376.33 229.23 376.75
  C 227.72 388.29 226.22 400.61 222.61 411.69
  Q 213.19 412.03 203.58 410.76
  A 1.06 1.06 0.0 0 1 202.66 409.73
  L 201.73 362.90
  Q 209.63 365.81 215.50 366.18
  Q 233.61 367.32 248.50 367.25
  Q 262.14 367.18 275.95 362.69
  Z"
/>
<path fill="#3c87ae" d="
  M 229.62 376.31
  Q 230.27 377.57 232.38 377.98
  Q 233.00 378.10 232.81 378.71
  C 232.60 379.37 232.09 379.96 231.96 380.62
  C 230.08 390.10 228.21 400.94 229.08 410.54
  A 1.04 1.03 87.5 0 1 228.05 411.67
  L 222.61 411.69
  C 226.22 400.61 227.72 388.29 229.23 376.75
  Q 229.28 376.33 229.62 376.31
  Z"
/>
<path fill="#3c87ae" d="
  M 244.87 384.86
  Q 246.92 387.15 247.89 389.99
  C 250.28 397.01 253.40 403.92 256.31 410.72
  L 252.32 410.74
  A 1.26 1.26 0.0 0 1 251.10 409.79
  L 244.87 384.86
  Z"
/>
<path fill="#91c1d8" d="
  M 280.27 421.59
  Q 271.66 420.90 263.14 420.59
  C 261.67 420.53 261.00 420.74 259.89 419.49
  Q 257.03 416.28 256.82 413.03
  Q 266.63 413.06 275.74 411.45
  Q 277.13 411.21 278.47 410.62
  A 0.90 0.90 0.0 0 0 278.83 409.24
  Q 278.41 408.71 278.48 408.03
  A 0.46 0.46 0.0 0 1 279.24 407.73
  Q 280.09 408.48 280.00 410.01
  Q 279.76 414.40 280.27 421.59
  Z"
/>
<path fill="#91c1d8" d="
  M 221.48 414.15
  Q 222.81 414.64 221.79 415.73
  Q 221.47 416.06 221.31 416.49
  L 219.03 422.79
  A 1.77 1.76 10.6 0 1 217.33 423.95
  Q 212.10 423.84 206.84 425.66
  L 200.66 425.14
  A 1.45 1.44 -89.1 0 1 199.33 423.76
  C 199.20 420.79 198.01 411.90 199.91 409.50
  Q 200.16 409.19 200.31 409.55
  Q 200.46 409.91 200.02 410.08
  A 0.67 0.67 0.0 0 0 199.97 411.31
  Q 202.92 412.78 205.74 413.25
  Q 213.52 414.56 221.48 414.15
  Z"
/>
<path fill="#3c87ae" d="
  M 206.84 425.66
  Q 212.10 423.84 217.33 423.95
  A 1.77 1.76 10.6 0 0 219.03 422.79
  L 221.31 416.49
  Q 221.47 416.06 221.79 415.73
  Q 222.81 414.64 221.48 414.15
  L 225.37 413.97
  Q 225.96 413.94 225.94 414.53
  L 225.62 425.67
  Q 225.62 425.82 225.77 425.82
  L 226.18 425.82
  A 0.69 0.68 89.6 0 0 226.85 425.13
  L 226.79 413.82
  A 0.25 0.24 -8.6 0 1 226.98 413.57
  L 228.06 413.28
  Q 228.43 413.19 228.41 413.57
  L 227.91 425.05
  Q 227.90 425.33 228.17 425.40
  L 228.47 425.47
  Q 228.76 425.54 228.82 425.25
  Q 229.81 419.96 229.34 414.57
  Q 229.22 413.19 230.28 412.29
  L 230.68 411.95
  Q 232.36 410.52 232.30 412.73
  L 232.02 423.86
  A 2.45 2.45 0.0 0 1 229.63 426.25
  Q 225.94 426.35 222.01 427.03
  Q 218.35 427.65 206.84 425.66
  Z"
/>
<path fill="#3c87ae" d="
  M 256.82 413.03
  Q 257.03 416.28 259.89 419.49
  C 261.00 420.74 261.67 420.53 263.14 420.59
  Q 271.66 420.90 280.27 421.59
  Q 280.47 423.49 278.99 423.93
  Q 269.55 426.73 259.17 426.72
  A 1.23 1.22 85.6 0 1 257.96 425.68
  L 256.32 415.13
  A 0.35 0.35 0.0 0 0 255.96 414.84
  L 255.65 414.85
  Q 255.20 414.87 255.27 415.31
  L 256.87 425.75
  Q 256.99 426.56 256.17 426.55
  L 252.44 426.47
  A 1.45 1.44 84.8 0 1 251.05 425.31
  L 248.34 412.25
  A 0.20 0.20 0.0 0 1 248.58 412.02
  L 252.50 412.86
  Q 252.77 412.92 252.79 413.20
  Q 253.29 424.17 254.62 424.61
  Q 255.11 424.78 255.04 424.27
  L 253.67 413.33
  Q 253.59 412.74 254.18 412.79
  L 256.82 413.03
  Z"
/>
<path fill="#da792c" d="
  M 264.59 439.08
  C 264.84 434.39 265.99 429.85 271.19 428.65
  Q 275.21 427.72 279.13 426.95
  A 0.74 0.73 -23.3 0 1 279.85 427.23
  L 280.22 427.73
  A 0.31 0.31 0.0 0 1 280.02 428.23
  Q 275.90 428.82 273.34 432.32
  Q 271.01 435.50 269.92 439.26
  Q 269.77 439.77 269.23 439.76
  L 265.13 439.66
  Q 264.56 439.65 264.59 439.08
  Z"
/>
<path fill="#da792c" d="
  M 210.62 428.88
  C 215.57 429.45 217.75 436.02 217.92 440.17
  A 0.31 0.31 0.0 0 1 217.64 440.49
  L 212.69 440.91
  A 0.36 0.36 0.0 0 1 212.30 440.61
  Q 210.79 431.58 202.27 428.74
  Q 202.12 428.69 202.22 428.57
  Q 202.33 428.44 202.43 428.30
  Q 202.49 428.22 202.60 428.22
  Q 205.34 428.26 210.62 428.88
  Z"
/>
<path fill="#ffc831" d="
  M 219.57 439.66
  C 219.18 435.63 218.62 433.05 216.07 429.83
  Q 215.88 429.59 216.19 429.58
  L 228.06 429.31
  A 0.49 0.49 0.0 0 1 228.56 429.80
  L 228.61 439.12
  A 0.55 0.55 0.0 0 1 228.09 439.67
  L 220.20 440.19
  Q 219.63 440.23 219.57 439.66
  Z"
/>
<path fill="#ffc831" d="
  M 271.83 439.39
  C 272.72 432.84 280.32 426.09 286.73 430.35
  Q 290.28 432.72 289.40 438.50
  Q 289.11 440.41 287.29 440.45
  Q 280.54 440.63 272.45 440.15
  Q 271.73 440.10 271.83 439.39
  Z"
/>
<path fill="#ffc831" d="
  M 265.29 429.53
  A 0.31 0.31 0.0 0 1 265.54 430.02
  Q 262.75 433.99 262.88 438.90
  Q 262.90 439.34 262.46 439.31
  L 254.44 438.82
  A 0.62 0.62 0.0 0 1 253.85 438.20
  L 253.83 429.94
  Q 253.83 429.46 254.31 429.46
  L 265.29 429.53
  Z"
/>
<path fill="#ffc831" d="
  M 202.76 430.44
  C 207.42 432.19 209.42 435.83 210.77 440.48
  Q 210.94 441.06 210.34 441.12
  C 205.70 441.57 198.06 442.26 193.73 440.73
  Q 193.22 440.55 193.13 440.02
  C 192.65 437.18 192.47 434.11 194.69 431.95
  Q 198.07 428.67 202.76 430.44
  Z"
/>
<path fill="#f5f5f6" d="
  M 288.60 441.50
  A 0.48 0.48 0.0 0 1 289.21 442.00
  L 289.18 442.30
  Q 289.11 443.20 288.22 443.35
  C 277.33 445.22 265.95 443.66 254.90 442.59
  Q 253.79 442.48 253.77 441.36
  L 253.76 441.00
  Q 253.74 440.08 254.65 440.26
  Q 269.06 443.12 284.00 442.52
  Q 285.36 442.47 288.60 441.50
  Z"
/>
<path fill="#f5f5f6" d="
  M 196.04 442.85
  C 205.65 444.75 218.27 442.98 227.77 441.12
  Q 228.77 440.92 228.66 441.94
  L 228.62 442.26
  A 1.28 1.28 0.0 0 1 227.50 443.39
  Q 212.52 445.14 200.50 445.01
  Q 197.56 444.98 194.17 444.11
  Q 193.44 443.92 193.29 443.18
  L 193.24 442.90
  Q 193.12 442.31 193.72 442.42
  Q 194.78 442.60 196.04 442.85
  Z"
/>
</svg>
