<svg xmlns="http://www.w3.org/2000/svg" viewBox="0 0 960 959"><defs><style>.cls-1{fill:#4f7a34;}.cls-2{opacity:0.1;}</style></defs><title>Artboard 210</title><g id="front_decor"><rect class="cls-1" x="-1514" y="-865" width="3840" height="2160"/><path class="cls-2" d="M-60.23,415c3.84,5,10.21,5.23,15.3,5.06,6.47-.21,12.84-1.41,19.32-1.3,19.91.32,39.74,3.29,59.66,3.14,5,0,10.09-.53,15.06.26,3.93.62,7.75,2,11.67,2.65,8.07,1.42,16.52-1.12,24.22,2.41a25.37,25.37,0,0,1-4.65,0c-2.37-.09-4.75-.45-7.13-.4-2.9.07-5.82,1.13-8.64,1.93a106.61,106.61,0,0,0-11.8,4,88.06,88.06,0,0,0-14.12,7.72c-4,2.63-9.1,5.64-11.83,10.44a11.33,11.33,0,0,0,.76,11.67c2.79,3.89,7.32,5.35,11.23,6.22A107.07,107.07,0,0,0,74,470.43a60.49,60.49,0,0,0,18.83-4.92c6.33-2.94,11.54-8.12,17.45-12.08,3.46-2.32,7.2-3.53,10.91-5a86,86,0,0,1,10.67-3.73c3.78-.93,7.63-.82,11.42-1.51s7.52-2.24,11.26-3.45c7.7-2.48,15.48-2.45,23.36-2.17s15.72.29,23.58.29c16.61,0,33.21.05,49.82,0,8.15-.05,16.3-.11,24.44-.12s16.15-.49,24.09,1.08c3.71.73,7.41,1.66,11.16,2.06,3.34.36,6.7.07,10.05.37a33.13,33.13,0,0,1,19.18,8c-1.84,5.18-9,5.48-12.75,6.39-8,2-16.08,6.51-23.6,10.43s-14.42,8-22.23,10.37c-5.2,1.6-11.39,1.84-13.95,8.84-3.7,10.09,5.65,17,11.61,20.15,7.55,4.06,15.2,5.49,23.29,6.37,4.16.45,10.64,1.89,13.89-2.5,3.44-4.62.95-11.5,1.38-17.19a346.5,346.5,0,0,1,52.81-7.89c31.86-2.45,63.83-1.84,95.72-1.85q11.13,0,22.24.15c4.1.06,8.46-.18,11.79-3.64,3.62-3.77,6.26-11.66,6.44-17.54a10.47,10.47,0,0,0-2.45-7.69c-1.32-1.42-3.38-2.18-4.52-3.88,3.88-3.5,6.67-9.28,11.15-11.3,5.22-2.35,10.82-.26,16-3.25,1.14-.65,1.1-2.71.37-3.72-2.11-2.94-5-3.91-8-4.48A56,56,0,0,1,509,424.14c-8.41-3.29-16.77-6.35-25.3-9.07a89.87,89.87,0,0,1-12.1-4.63,29.05,29.05,0,0,0-10.7-3.17c-4.32-.31-8.35-.52-12.61-1.77a118.27,118.27,0,0,0-13-3.18c-7.41-1.31-14.72-.88-22.16-.59a67.81,67.81,0,0,1-11.92-.31c-3.94-.55-7.65-2.12-11.41-3.6a34.28,34.28,0,0,0-10.3-2.67c-3.16-.21-6.33.13-9.41-1-3.69-1.38-10.21-5-11.22-10.44-1.27-6.82,8.35-9.16,11.86-10,5.65-1.38,11.4-2.38,17.07-3.59a109.24,109.24,0,0,1,23.87-2.38c5.25.06,11.6,2.44,16.44-1.27,3.92-3,5.33-9.34,1.65-13.57-.86-1-2-1.25-2.87-2.15s-1.49-2.91-2.08-4.15c-1.41-3-2.76-6-4.36-8.81-7.7-13.54-21.53-15.85-33.79-15.7-16.66.19-33.33.06-50,.29-7.5.1-15.1-.26-22.6.28,5-1.5,9.61-4.87,14.78-5.8,2.36-.42,1.35-5-1-4.58-7,1.26-13,6.31-20.22,6.48-7.06.17-14.15-.93-21.14.74-3.53.85-7,2-10.58,2.28a43.85,43.85,0,0,0-6.54.85,12.64,12.64,0,0,0-9.8,10,2.35,2.35,0,0,0,1.79,3c4.92.7,9.66,2.72,14.6,3.31,5.25.62,10.34.67,15.58,1.7,9.2,1.82,18.38,1.78,27.66,1.71,5.24,0,9.88,1.81,14.79,4,2.2,1,10.18,3,7.06,7.77-2.43,3.67-8.59,2.8-11.92,2.74-8.11-.15-16.24.2-24.35,0-4.53-.13-8.93-1.55-13.39-2.41a66.11,66.11,0,0,0-11.75-.76,98,98,0,0,0-23.34,1.93c-4.65,1-9.37,1.37-13.93,3-3.62,1.28-8.31,3.61-9,9-.15,1.26.25,2.57,1.3,2.92,8.06,2.73,19.88,1.18,25.86,10-11.77,13.6-29.45,12.71-44.33,11.95-8.7-.45-17.35-.54-26.06-.42-5.48.08-11.42.79-16.81-.63-4-1.06-7.74-3-11.88-3.26-4.61-.25-9.23.6-13.84.54-4.32,0-8.63-.26-12.93-.74-9.19-1-18.26-2.91-27.47-3.79s-18-3.76-27.16-5.25-18-3.39-26.57-8c-8-4.21-15.28-7.61-24-8.12a121.55,121.55,0,0,0-26.86,1.39A134.62,134.62,0,0,0-47,383.23C-55.26,388.43-70.27,402-60.23,415Z"/><path class="cls-2" d="M169,849.61c6.16,6.6,15.5,6.17,23,7.13,8.6,1.09,19.43,3.06,25.95,11,3.33,4.06,5.64,9.2,8.4,13.86a50.28,50.28,0,0,0,6.27,7.87c1.74,1.95,6.37,6.12,5.47,9.65-1,3.74-6.31,4-8.76,4.29-9,1-18,2.23-26.95,4-4.74,1-14.4,2.79-15.76,10.3-.62,3.38,3.26,7.29,5,9.26a92.89,92.89,0,0,0,9.85,9.34c7.39,6.23,15.13,12.12,24.09,13.51,4.63.72,8.92-.91,13.38-2.23,5-1.47,10.13-1.22,15.17-2.19a65.61,65.61,0,0,0,20.53-8c6.71-3.92,25.77-15,20.19-28.21-3.21-7.56-11-8-16.64-10.39-3-1.25-5.93-2.52-8.81-4-1.91-1-5-2.33-6.67-4.53,2.76-3.1,8.24-2.11,11.43-1.76,4.06.45,8.25,1.58,12.33,1.11,4.65-.54,8.79-4,13.53-3.59,3.64.29,7.81,1.47,11.24-.75,7.34-4.74,2.06-16.55-1.33-22.31a77.52,77.52,0,0,0-10.45-14.24c-.68-1.16-1.37-2.31-2.11-3.42-5.62-8.51-14.44-8.87-22.23-12.05-8.88-3.62-17.88-8.34-27.32-8.66a245.8,245.8,0,0,1-25.5-2.47c-8.37-1.18-16.85-2.23-25.26-1.2a39.69,39.69,0,0,0-22.42,9.94C170.06,835,162.61,842.78,169,849.61Z"/><path class="cls-2" d="M149.41,667.06c3.24-3.65,7.38-3.52,11.42-3.84,1.17-.09,3-.85,4.63-1.18l.14,0a2.86,2.86,0,0,1,3.39-1.31c4.31,1.37,9,2,13.19,3.83,3.7,1.64,7.27,5.71,6.13,11.24-.91,4.45-4.26,6.52-7.44,7.69-3.63,1.34-7.32,2.47-11,3.59a24,24,0,0,1-16.47-1.14,11.67,11.67,0,0,1-6.51-6.28C145.12,675.28,146.69,670.12,149.41,667.06Z"/><path class="cls-2" d="M286.75,631.34a4.34,4.34,0,0,1,2.42-2.37l.68-.16,1.11-.2a2.66,2.66,0,0,1,1.6.46,4.75,4.75,0,0,1,1.28,1,3.22,3.22,0,0,1,.92,1.1,5.16,5.16,0,0,1,.76,2.77,6.79,6.79,0,0,1-.48,2.3,4.47,4.47,0,0,1-1.27,1.64,3.09,3.09,0,0,1-1.21.94,1.71,1.71,0,0,1-1.05.36,2.5,2.5,0,0,1-1.66-.09l-.68-.16-1-.53a3.44,3.44,0,0,1-1.13-1.33,5.8,5.8,0,0,1-.87-3.13A7.66,7.66,0,0,1,286.75,631.34Z"/><path class="cls-2" d="M134.27,878.45a6.88,6.88,0,0,1,.95-.68,12.41,12.41,0,0,1,2.62-1.65,6.4,6.4,0,0,1,1.86-.45,4,4,0,0,1,5.34-.29,7.6,7.6,0,0,1,1.79,8.72,8.89,8.89,0,0,1-4.84,4.66c-.24.15-.46.31-.7.45a4.57,4.57,0,0,1-1.68.59l-.12.09a4.68,4.68,0,0,1-7.07-2.38A8,8,0,0,1,134.27,878.45Z"/><path class="cls-2" d="M50,227.43a23.32,23.32,0,0,1,3.82-.05c-2.8-3.85,1.62-9.25,4.74-5.79,1.41,1.57,2.88,3,3.36,5.48a9.63,9.63,0,0,1-1.81,7.32,11.5,11.5,0,0,1-4.67,4.09c-2.31,1-4.31.35-6.56-.41C44.25,236.5,45.32,227.58,50,227.43Z"/><path class="cls-2" d="M136.18,75.43c1.74,7.41,9,6.53,13.6,5.19a12.17,12.17,0,0,0,6.05-3.72,2.91,2.91,0,0,0,4-1.16c.57-.85,1.13-1.7,1.66-2.57,1.3-2.12,1.82-5.44,0-7.47-2.38-2.66-5-2.84-8-2.83a3.51,3.51,0,0,0-1.16.22,18.6,18.6,0,0,0-7.13-.06C140.55,63.76,134.52,68.36,136.18,75.43Zm9.33,1h.1C144.83,79,144.66,76.31,145.51,76.45Z"/><path class="cls-2" d="M399.17,228.87a12.4,12.4,0,0,0-1-1.37,6.39,6.39,0,0,0-3.56-3.65c-2.09-.83-5.2-.58-6.74,1.21a15.62,15.62,0,0,0-1,1.34,7.28,7.28,0,0,0-3.28,2.8,6.71,6.71,0,0,0-.85,4.35c.48,3.43,3.45,5.77,7.07,5.92,3.37.36,7.17-.52,8.95-3.52a6.82,6.82,0,0,0,.92-3.26A4.55,4.55,0,0,0,399.17,228.87Z"/><path class="cls-2" d="M796.55,151.23a6.84,6.84,0,0,1,5.75-.65,4.83,4.83,0,0,1,1.06.59c1.06-1.23,2.6-1.59,3.77-.28a3.79,3.79,0,0,1,2.33.41c2.21,1.25,3.1,4,2.67,7-.79,5.48-6.34,9.49-10.17,10.76-4.44,1.48-10.82.07-11.52-6.92A11.22,11.22,0,0,1,796.55,151.23Z"/><path class="cls-2" d="M779,771.76a19.91,19.91,0,0,0,6.6,13.35c8,7.28,19.67,8.95,29.21,9.78,11.17,1,22.45-.55,33.57,1.18,11.94,1.86,23.49,5.8,35.6,5.51a153.1,153.1,0,0,0,35.64-5.28c6.46-1.72,12.81-3.59,19.36-4.71,5-.87,10.22-1.46,15.12-3.23,3.64-1.32,7.19-3.05,10.83-4.37a29.14,29.14,0,0,1,7-2c-1.51.81-3.13,1.42-4.37,2.06A80.35,80.35,0,0,0,957,790c-2.26,1.61-4.83,3.68-5.92,6.83s-.34,6.87,2.38,7.72c5.46,1.7,11.35.89,16.89.51,6.48-.45,12.93-.3,19.38-1.22a130.11,130.11,0,0,0,19.41-4c6.24-1.9,12.21-5,18.37-7.2,9.34-3.36,20.38-3.12,27.13-13.38a2.68,2.68,0,0,0-.35-3.5c-.47-.43-1-.83-1.44-1.25,4.44-4.71,9.67-7.55,14.85-10.82,3.45-2.18,7.37-5.29,7.32-10.84s-3.21-9-6.55-11.82c-3-2.56-3.62-5.53-1.82-9.66a54.25,54.25,0,0,1,3.55-6.35c2.38-3.92,5.55-7.58,5-13-.49-5.07-2.85-10-6.2-12.77-3.86-3.2-8.79-4.79-13.22-6.09a89.93,89.93,0,0,0-16.26-3c-3.44-.36-6.89-.55-10.34-.66l.56-.29a26.17,26.17,0,0,0,6.19-4.23c.66-.64,1.21-1.64,1.87-2.22s1.43-.6,2-1.27c2.16-2.44.52-5.37-.83-7.84,2.47.18,5,.84,6.5,3s3.78-1,2.37-3c-2.09-3.09-5.32-4.1-8.37-4.54-8.91-1.29-17.72,2.39-26.52,3.33-12.17,1.31-24.66.32-36.87.34-6.41,0-12.82,0-19.23-.08-5.6-.07-11.27-.43-16.73,1.43-5.24,1.79-10.17,4.5-15.52,5.81a79.78,79.78,0,0,1-19.52,2.36c-6.22,0-12.63.1-18.7,2.05-2.34.76-5.38,1.92-6.73,4.74-1.43,3,.72,5.8,2.83,6.95,3,1.62,6.55,1.25,9.7,1.38a14.45,14.45,0,0,1,5.44.84c2.18,1,3.66,3.45,5.2,5.55,3.68,5,8.49,7.71,12.57,12.07,1,1,1.44,1,1.08,2.45a4.41,4.41,0,0,1-1,1.58,8.6,8.6,0,0,1-3.48,2.36c-6.12,2.57-13,1.88-19.35,1.6-10.38-.45-21-.64-31.32,1.34-5.49,1.06-10.84,3.07-16.28,4.51s-10.61,2.65-15.91,4c-10,2.64-20.1,5.74-29.22,11.76-6.13,4.05-12.6,9-17.39,15.41A16.07,16.07,0,0,0,779,771.76Z"/><path class="cls-2" d="M95,157.48c0,17.12,16.37,13.88,25,10.73,9-3.25,17-8.57,26.44-9.51s19.07-2.46,28.65-2.84a64.3,64.3,0,0,0,13.08-2.12,56.48,56.48,0,0,1,15.75-1.31c4.36.15,8.82-.23,13.16.33,4.5.57,8.27,3.5,12.3,5.85a23.32,23.32,0,0,0,12.31,3.54c2.67,0,5.4-.32,8,.24a21,21,0,0,1,6.57,3.09c7.58,4.71,15.76,4.48,24,3.92,8-.54,16-1,24-1.25,6.68-.21,14.54-.32,20.05,5.22-1.61,3.44-7.74,4.89-10.1,5.68A114.49,114.49,0,0,1,301,182.39c-10.07,2-23.63-.15-31.28,10.28a2.58,2.58,0,0,0,.34,3.39c4.26,3.42,9,6,12.95,10,3.67,3.69,6.87,7.79,11.19,10.29,8.86,5.14,19.11,3.52,28.53,3.14,18.82-.76,37.62,2.2,56.36-1.34,9.31-1.76,17.86-5.59,26.48-10.3A173.74,173.74,0,0,0,430.28,192c4.52-3.56,12.81-9.08,13.73-16.77s-7.44-7.57-11.28-7.57c-9.63,0-19.05-3-28.71-2.91-1.84,0-3.7,0-5.56-.06a1.48,1.48,0,0,0-1.29-.68c-4.21.06-8.68.93-13,.64,2.88-1.12,5.95-1.85,8.66-3.06,4.34-1.94,9-3.13,12.51-7.1a2.81,2.81,0,0,0-.37-3.73c-13.28-10.33-30.44-6.93-45.16-6.09-9.35.53-18.81.69-28.16.42a21.48,21.48,0,0,1-7-1c-2.15-.8-4.19-2-6.42-2.52a14.71,14.71,0,0,0-3.85-.32c1.21-1.06,2.26-2.41,3.5-3.47,2.83-2.42,6.46-3,9.12-5.76a6.6,6.6,0,0,0,.71-8.36c-2.14-3.42-5.67-4.58-8.91-5.1-7.08-1.15-14.17.45-21.24.88-5.21.33-10.33-1-15.45-2a78.39,78.39,0,0,0-15.8-1.23q-8.69,0-17.35.16A28,28,0,0,1,232.52,112c-8.78-5.47-17.86-10-27.63-11.63-4.51-.74-8.51,1.12-12.79,2.59-5.22,1.77-10.36.66-15.66,1-9,.53-17.3,7.22-24,14.35-8,8.53-18.41,11.76-27.73,17.3-9.92,5.89-19.26,13.22-28.83,20A2.37,2.37,0,0,0,95,157.48Z"/><path class="cls-2" d="M895.16,536.69c2.1.54,4.22.55,6.24,1.56,2.42,1.21,4.47,3.35,6.64,5.1,4.92,4,10,3.74,15.43,5.4,6,1.82,11,6.61,16.8,9.21,4.69,2.12,9.8,2.69,14.74,2.81,11.44.29,22.83-1.28,34.29-1,6.8.16,13.61.41,20.41.27,3.21-.07,6.53.05,9.69-.71,2.9-.7,5.62-2.28,8.55-2.85s6.08-.28,9.1-.85a25.72,25.72,0,0,0,7.43-3.12c3.06-1.65,6-2.69,9.31-2.49,2.79.16,5.4.59,8.11-.54a2.3,2.3,0,0,0,1.26-2.12c.75-8.78-8.46-12.06-9.61-19.82,9.75-5.12,17.65-15.33,28-18.46,5.56-1.67,11.47-1,17.12-.64,6,.35,11,2.47,16.64,4.66,11.5,4.44,23.3,1.86,34.94-.07,8.93-1.49,18.38-.63,24.68-10.34,2-3.16,4.79-8,3.94-12.42-.71-3.69-3.65-6.19-5.29-9.4,2.16-3.9,6.86-4.63,10.29-5a75.81,75.81,0,0,1,15.06.27,62.59,62.59,0,0,0,12.08.41c3-.32,6-.77,9-.84,2.32-.06,6.8-.23,8.35,2.62,1.72,3.17-6.81,6.89-8.51,7.65-3.34,1.5-8.8,2.82-10.33,7.58-1.68,5.22,3.19,10.17,6.35,12.14,4.92,3.07,10.68,3.28,16,4.54,6.73,1.6,13.53-.07,20.25,1.89a69.76,69.76,0,0,0,18.64,2.83c13.92.28,28.32,3.22,41.63-3.26,5.12-2.49,9.76-3,15.15-3.62,3.87-.47,8.59-1.06,11.54-4.69,5.43-6.67.31-13.14-4.88-16-6.59-3.57-13.8-4.29-20.5-7.38-5-2.33-9.88-4.73-15-6,1.29-.1,2.58-.17,3.87-.19,2.39,0,2.39-4.78,0-4.75-5.14.06-10.26,1-15.39,1.27-2.58.12-6.49.61-9.84-.09a31.13,31.13,0,0,0,9.2-2.55c4.21-2.07,8.6-9.1,2.11-11.57-6.83-2.59-14.26-2.35-21.31-3a49.52,49.52,0,0,1-8.35-1.32,16.79,16.79,0,0,1-7.87-4.82,2,2,0,0,1-.47-.68,2.46,2.46,0,0,1,.5-.34,13,13,0,0,1,2.78-.93,38.48,38.48,0,0,1,8.49-.63,135.25,135.25,0,0,1,15,.95c9,1.06,17.64,2.87,26.66,3.08,7,.17,14,.54,21.06.23,13.35-.57,28.06-3.32,37.74-16.27a2.92,2.92,0,0,0,0-3.35c-3.2-4.06-8.11-5.79-12.34-7.25a125.48,125.48,0,0,0-15-3.84c-7.37-1.57-14.66-4-22-5.26a114.37,114.37,0,0,0-21.94-1.16c-13.5.29-27.06-.43-40.54.23-6.26.3-12.22,3.19-18.51,3.23a108.31,108.31,0,0,0-19.06,1.76c-13.4,2.45-26.83,8-40.41,8.29-12.63.29-25.25-3.44-37.84-.93-6.18,1.24-11.94,3.67-18.26,3.61-6.77-.07-13.53-.63-20.29-.06-6.45.55-12.85,1.75-19.28,2.53-6.76.81-13.55.45-20.29,1.36-13.29,1.8-26.63,4.42-39.77,7.5-5.1,1.2-10.23,2-15.34,3.14-4.39.94-9.13,2.18-12.76,5.69a2.82,2.82,0,0,0-.65,3.19c3.34,7.09,10.35,8.05,16,10.05,3.3,1.16,6.52,2.23,9.89,3.08s6.78,1.71,9.44,4.41c-1.23,3.74-2.29,7.55-3.4,11.34-.63,2.16-.81,6.08-2.21,7.53-2.16,2.23-6.75,1.55-9.28,1.39-3.09-.2-6.16-.56-9.26-.57-7.67,0-15.34.06-23,.07-7.2,0-14.47-.48-21.61.8-6,1.08-11.72,3.49-17.64,4.85-5.7,1.31-11.51,2.17-16.93,4.9-4,2-7.6,4.72-9.37,10-.78,2.33-1.14,5-2.23,7.09-1.53,3-4.21,4.1-6.81,4.89a41.75,41.75,0,0,0-7.35,2.46c-1.55.79-4.27,2.32-5,4.46C888.43,532.29,892.29,536,895.16,536.69Z"/><path class="cls-2" d="M898.6,184.18c6.16,6.61,15.5,6.18,23,7.14,8.6,1.09,19.44,3.06,26,11,3.33,4.06,5.65,9.2,8.4,13.86a50.28,50.28,0,0,0,6.27,7.87c1.74,1.95,6.37,6.12,5.47,9.65-1,3.74-6.31,4-8.76,4.29-9,1-18,2.23-27,4-4.73,1-14.4,2.79-15.76,10.3-.62,3.38,3.26,7.29,5,9.26a92.89,92.89,0,0,0,9.85,9.34c7.39,6.23,15.13,12.12,24.09,13.51,4.63.72,8.92-.91,13.38-2.23,5-1.47,10.14-1.22,15.17-2.19a65.61,65.61,0,0,0,20.53-8c6.71-3.92,25.78-15,20.19-28.21-3.2-7.56-11-8-16.64-10.39-3-1.25-5.92-2.52-8.81-4-1.91-1-5-2.33-6.67-4.53,2.77-3.1,8.24-2.11,11.43-1.76,4.06.45,8.25,1.58,12.33,1.11,4.65-.54,8.79-4,13.53-3.59,3.64.29,7.81,1.47,11.24-.75,7.34-4.74,2.07-16.55-1.33-22.31a77.52,77.52,0,0,0-10.45-14.24c-.68-1.16-1.37-2.31-2.11-3.42-5.62-8.51-14.44-8.87-22.23-12.05-8.88-3.63-17.88-8.34-27.32-8.67A242.88,242.88,0,0,1,952,156.62c-8.38-1.18-16.85-2.23-25.27-1.2a39.69,39.69,0,0,0-22.42,9.94C899.68,169.56,892.23,177.36,898.6,184.18Z"/><path class="cls-2" d="M391.17,956.45c.51,9.41,10.4,11.13,15.67,14.07,4.8,2.67,8.93,5.74,14.28,6.16,7.31.56,14.77-.15,22.09-.13s14.64.15,22,.22c6.6.05,12.82-1.65,19.2-3.64,13.53-4.25,27.67-3.38,41.51-2.44,6.2.42,12.21,1.93,18.35,2.86,4.57.69,8.48,1.41,11.58,5.27-3.4.66-6.93.19-10.33-.11-4.82-.44-9.67-.57-14.5-.69a39,39,0,0,0-15.25,2.46c-5.1,1.94-10.11,4.06-15.27,5.74-9.84,3.19-19.75,6.66-29.88,7.86-5.91.71-11.86.19-17.77,1-4.27.58-9.79,1.46-12.73,6-1,1.56-2.08,4.5-1.25,6.5.95,2.29,4.07,3.41,5.83,4.13a51.71,51.71,0,0,0,19.12,3.59c10,0,19.91-.34,29.86-.34,19.6,0,39.19.45,58.78.45a295.41,295.41,0,0,0,29.59-1.26c9.23-.92,18.3-2.86,27.44-4.67,5.18-1,10.38-2,15.54-3.16,2.9-.65,6-.93,8.78-2,5.64-2.12,7.07-8,7.65-14.94s1-15.45-1.91-21.74c-1.64-3.48-4.28-5.16-7.21-6.41-3.91-1.67-7.94-2.79-11.86-4.48A99.08,99.08,0,0,0,592.55,949a221.5,221.5,0,0,0-29.12-1.4c-6,.07-12.06.32-18.08.65.11-.18.22-.36.32-.55a2.65,2.65,0,0,0-1.11-3.5l-1.68-.78c-1.69-.78-2.65,1.6-2.09,3.28a13.39,13.39,0,0,1-4.32.63,35.3,35.3,0,0,1-7-.44c-6-.93-11.29-4.34-16.38-8.34s-9.53-7.27-15.62-8.42a57.4,57.4,0,0,0-17.6-.33c-5.63.68-11.13,2.34-16.75,3-7.21.89-14.47.93-21.69,1.75-4,.46-7.89,1.48-11.86,2.12-3.07.5-6.19.32-9.27.56-4.4.34-8.67,1.88-12.9,3.38C401.49,942.76,390.6,946.08,391.17,956.45Z"/><path class="cls-2" d="M422.84,611.11c3.68,3.32,8.33,2.39,12.48,3.95,4.42,1.65,8.55,4.19,13.18,4.84,5.15.73,10.27.27,15.42,1.26,4.62.89,9.25,1.53,13.88,2.24a95.91,95.91,0,0,1,26.34,7.78c6.1,2.82,12.87,3.26,19.29,2.9a57,57,0,0,0,19.89-4.61c4.15-1.82,8.46-2,12.68-3.34,3.7-1.21,6.71-3.94,10-6.34,5.52-4.08,11.65-6.82,16.45-12.38,1.42-1.64,3.75-4.3,2.69-7-.81-2-2.92-2.93-4.47-3.58-5-2.07-10.53-2.66-15.66-4.11l-.5-.13.11-.15c1.16-1.51,2.22-1.26,4.13-2.7a9.56,9.56,0,0,0,1.89-1.73c1.36-.09,2.72-.22,4.08-.4,1.62-.21,1.62-3,0-3.23-8.56-1.13-17-1-25.32-4.27-7.54-2.91-14.82-6.82-22.46-9.33-.12-1.11-.23-2.23-.32-3.35a2.37,2.37,0,0,0-1.33-2.24c-13.93-4.35-28-2.85-42.15-4.33-5.5-.57-11.08-1.25-16.6-.62-4.16.48-8.66,1.61-11.62,5.69a2.82,2.82,0,0,0-.28,2.77c4.56,8.38,10.84,11.61,18.39,13.77,1.56.45,3.13,1,4.71,1.48l-1.12.2a57.37,57.37,0,0,0-9.41,3.2,79.94,79.94,0,0,1-10,2.91c-6.66,1.66-14,3.68-20,8-2.75,2-5.06,4.33-8.18,5.32-2.49.78-4.71,1.54-6.51,4A2.67,2.67,0,0,0,422.84,611.11Z"/><path class="cls-2" d="M570.24,780.65a16.57,16.57,0,0,1,8.08-2.46c2.54-.11,5.75-.27,7.92,1.6a4.77,4.77,0,0,1,1,1,10.29,10.29,0,0,1,2.28.65c4.36,1.85,6.41,9,2.76,13.16-2.86,3.29-8.79,4.27-12.39,4.14-5.07-.18-7.33-3.72-10.67-7.89C567.06,788.1,567.28,782.44,570.24,780.65Z"/><path class="cls-2" d="M488.43,481.78c.13,2.53,1.41,5.66,3.61,6.07,3.51.67,6.18-1,9.56-1.15s6.59.06,9.91-.21a16.25,16.25,0,0,1,8.34,1.18,16.49,16.49,0,0,0,7.62,1.41c6.15-.51,11.88-7.7,8.32-15.82-2.06-4.69-6.36-5.52-10.25-6.18a8.31,8.31,0,0,0-1.47-3.43,7.41,7.41,0,0,0-6-2.86c-1.77,0-4.91.49-6.1,2.45a2,2,0,0,0-.49.45c-.31,0-.61,0-.91-.06a15.58,15.58,0,0,0-3.2.07c-4.16.6-8.93,3.08-12.59,5.73A14.45,14.45,0,0,0,488.43,481.78Zm36.73-4.48a23.12,23.12,0,0,1-4.25-1.73l.27.09c1.46.4,2.94.61,4.4,1a16,16,0,0,1,1.62.69A12.58,12.58,0,0,1,525.16,477.3ZM517,474.47a6.86,6.86,0,0,1,.64-.67c0,.14.93-.11.79,0a.76.76,0,0,1,.26-.08,2.46,2.46,0,0,1,.34.25,3.37,3.37,0,0,0,1.47,1.47A13.44,13.44,0,0,0,517,474.47Z"/><path class="cls-2" d="M760.38,522.75c3.51,0,7.06-.54,9.74-3.78a11.87,11.87,0,0,0,1.56-12.31,3.94,3.94,0,0,0-5.94-2c-.25.17-.51.32-.77.47a3.55,3.55,0,0,0-2.59-1c-4.71.24-9.57-.83-14.22.4-2.23.59-3.5,3.48-3.65,6.14C743.92,520.65,754.73,522.69,760.38,522.75Zm-6-14a2.93,2.93,0,0,0-.71-.2C752.4,508.43,753.93,506.78,754.37,508.75Z"/><path class="cls-2" d="M801.79,286a17.9,17.9,0,0,1,5.83-5.06,21.13,21.13,0,0,1,4-2.22c.26-.09.67-.18,1.05-.27a4.48,4.48,0,0,1,1.7-1.26l.72-.28c3.43-1.36,5.85,2.24,6,6.12.54,0,1.08,0,1.65,0,3.29.18,5.6,4.71,3.82,8.54C824,297.12,820.33,299,816,301.63c-3.89,2.35-8.21,4-12.19.83C799.28,298.9,798.37,291.07,801.79,286Z"/></g></svg>