<?xml version="1.0" encoding="UTF-8"?>
<svg version="1.1" xmlns="http://www.w3.org/2000/svg" width="500" height="500">
<path d="M0 0 C0.67995814 -0.00241583 1.35991629 -0.00483166 2.06047922 -0.0073207 C4.34529248 -0.01296743 6.62982627 -0.00428704 8.91462708 0.00431824 C10.56052093 0.00326539 12.20641442 0.00134772 13.85230637 -0.00136566 C18.36176401 -0.00618825 22.87112429 0.00159189 27.38057017 0.01161981 C32.19209771 0.02031447 37.00362148 0.0179245 41.81515503 0.01705933 C51.13162328 0.01733326 60.44804511 0.02890599 69.76449877 0.04465407 C77.26485853 0.05711431 84.76521091 0.0650199 92.26557922 0.06999207 C164.93010036 0.11974391 237.58926937 0.48780091 310.24983215 1.24723816 C310.25693508 3.31933602 310.26199133 5.39144097 310.26618958 7.46354675 C310.26922592 8.61744904 310.27226227 9.77135132 310.27539062 10.96022034 C310.08156017 35.88832114 301.63315842 59.38522083 290.24983215 81.24723816 C289.57978569 82.57887623 288.91106778 83.9112031 288.24983215 85.24723816 C287.58983215 85.24723816 286.92983215 85.24723816 286.24983215 85.24723816 C285.90951965 86.25850769 285.90951965 86.25850769 285.56233215 87.29020691 C283.88614285 91.0666215 281.65878674 94.21817401 279.24983215 97.55973816 C278.79866028 98.20491394 278.3474884 98.85008972 277.88264465 99.51481628 C276.72562278 101.13225071 275.49316638 102.6951706 274.24983215 104.24723816 C273.58983215 104.24723816 272.92983215 104.24723816 272.24983215 104.24723816 C271.84571106 105.12315613 271.84571106 105.12315613 271.4334259 106.01676941 C267.68405169 113.08242181 261.26006345 118.09502575 255.09358215 122.97380066 C253.58309962 124.18135675 252.08059507 125.40343303 250.65950012 126.7150116 C247.55232363 129.56050292 244.79930767 131.58604777 240.88264465 133.18473816 C235.78944006 135.39297304 231.49628576 137.60814531 228.24983215 142.24723816 C227.11253368 147.39908633 227.16091355 152.44441226 227.24201965 157.68473816 C227.23454577 159.09817383 227.22342961 160.51159519 227.20857239 161.92497253 C227.18026166 165.3665732 227.20146868 168.80576186 227.24983215 172.24723816 C207.20530958 172.40103483 187.16075241 172.54907093 167.11613655 172.69020176 C157.80960495 172.75586262 148.50309435 172.82342646 139.1966095 172.89543152 C131.08745891 172.95816792 122.97829166 173.01737327 114.86908424 173.0722937 C110.57318614 173.10151261 106.27731764 173.13252998 101.98146439 173.16777229 C97.94162115 173.20085865 93.90177273 173.22923899 89.86186981 173.2539444 C88.3759191 173.26387309 86.88997894 173.2755499 85.40405655 173.28906822 C83.38166635 173.30721066 81.35921859 173.3185649 79.33677673 173.32952881 C78.20297136 173.33782495 77.06916599 173.34612108 75.90100288 173.35466862 C73.24983215 173.24723816 73.24983215 173.24723816 71.24983215 172.24723816 C69.36507252 162.41370966 70.47877819 152.15231595 71.24983215 142.24723816 C70.53440247 141.97911316 69.81897278 141.71098816 69.0818634 141.43473816 C66.20854276 140.22992509 63.61645589 138.83486704 60.93733215 137.24723816 C59.61282043 136.47380066 59.61282043 136.47380066 58.2615509 135.68473816 C57.59768372 135.21036316 56.93381653 134.73598816 56.24983215 134.24723816 C56.24983215 133.58723816 56.24983215 132.92723816 56.24983215 132.24723816 C55.55889465 132.02680847 54.86795715 131.80637878 54.15608215 131.57926941 C50.51696135 129.91133904 47.73656942 127.54380216 44.74983215 124.93473816 C44.19424622 124.46100769 43.63866028 123.98727722 43.0662384 123.49919128 C39.64186935 120.5542339 36.40333489 117.48455492 33.24983215 114.24723816 C32.56662903 113.54985535 31.8834259 112.85247253 31.17951965 112.13395691 C5.20843717 84.33601121 -11.3592606 44.88373083 -10.81266785 6.62223816 C-10.80364441 5.78434753 -10.79462097 4.94645691 -10.7853241 4.08317566 C-10.77372253 3.47731628 -10.76212097 2.87145691 -10.75016785 2.24723816 C-7.15514848 0.0043922 -4.18620521 -0.00187674 0 0 Z " fill="#E8DDB1" transform="translate(114.75016784667969,199.7527618408203)"/>
<path d="M0 0 C0.67995814 -0.00241583 1.35991629 -0.00483166 2.06047922 -0.0073207 C4.34529248 -0.01296743 6.62982627 -0.00428704 8.91462708 0.00431824 C10.56052093 0.00326539 12.20641442 0.00134772 13.85230637 -0.00136566 C18.36176401 -0.00618825 22.87112429 0.00159189 27.38057017 0.01161981 C32.19209771 0.02031447 37.00362148 0.0179245 41.81515503 0.01705933 C51.13162328 0.01733326 60.44804511 0.02890599 69.76449877 0.04465407 C77.26485853 0.05711431 84.76521091 0.0650199 92.26557922 0.06999207 C164.93010036 0.11974391 237.58926937 0.48780091 310.24983215 1.24723816 C310.24983215 5.53723816 310.24983215 9.82723816 310.24983215 14.24723816 C309.91983215 14.24723816 309.58983215 14.24723816 309.24983215 14.24723816 C309.24983215 10.28723816 309.24983215 6.32723816 309.24983215 2.24723816 C265.68983215 2.57723816 222.12983215 2.90723816 177.24983215 3.24723816 C177.24983215 3.90723816 177.24983215 4.56723816 177.24983215 5.24723816 C178.23983215 5.24723816 179.22983215 5.24723816 180.24983215 5.24723816 C180.24983215 4.58723816 180.24983215 3.92723816 180.24983215 3.24723816 C222.48983215 3.24723816 264.72983215 3.24723816 308.24983215 3.24723816 C308.24983215 6.21723816 308.24983215 9.18723816 308.24983215 12.24723816 C306.51064332 13.98642699 304.2563191 13.36964762 301.93847412 13.37631947 C301.1709792 13.37340663 300.40348428 13.37049379 299.61273193 13.36749268 C298.80333414 13.3683471 297.99393635 13.36920153 297.16001135 13.37008184 C294.42682743 13.37173912 291.69370385 13.36621125 288.96052551 13.36076355 C287.00966391 13.36048171 285.05880221 13.36063936 283.10794067 13.36120605 C277.79411056 13.36149414 272.48030281 13.3555957 267.16647792 13.3486321 C261.61976531 13.34240032 256.07305224 13.3417949 250.52633667 13.34060669 C240.01490591 13.33749285 229.50348549 13.32927876 218.99205929 13.3192572 C207.0285408 13.30809769 195.06502183 13.30258602 183.10149944 13.29756176 C158.48427127 13.28709619 133.86705229 13.26949573 109.24983215 13.24723816 C109.24983215 12.58723816 109.24983215 11.92723816 109.24983215 11.24723816 C108.25983215 11.24723816 107.26983215 11.24723816 106.24983215 11.24723816 C106.24983215 11.90723816 106.24983215 12.56723816 106.24983215 13.24723816 C68.29983215 13.24723816 30.34983215 13.24723816 -8.75016785 13.24723816 C-8.75016785 10.60723816 -8.75016785 7.96723816 -8.75016785 5.24723816 C-9.08016785 4.91723816 -9.41016785 4.58723816 -9.75016785 4.24723816 C-9.75016785 6.88723816 -9.75016785 9.52723816 -9.75016785 12.24723816 C-10.08016785 12.24723816 -10.41016785 12.24723816 -10.75016785 12.24723816 C-10.75016785 8.94723816 -10.75016785 5.64723816 -10.75016785 2.24723816 C-6.51706441 0.13068644 -4.63399845 -0.0020775 0 0 Z " fill="#E7DDAF" transform="translate(114.75016784667969,199.7527618408203)"/>
<path d="M0 0 C1.00333682 7.1274075 0.9564381 13.88558172 0.5625 21.0625 C0.51029297 22.11888672 0.45808594 23.17527344 0.40429688 24.26367188 C0.2759218 26.84284382 0.14102952 29.42149436 0 32 C-20.04452258 32.15379667 -40.08907974 32.30183277 -60.1336956 32.4429636 C-69.4402272 32.50862446 -78.7467378 32.5761883 -88.05322266 32.64819336 C-96.16237324 32.71092976 -104.27154049 32.77013511 -112.38074791 32.82505554 C-116.67664601 32.85427446 -120.97251451 32.88529182 -125.26836777 32.92053413 C-129.308211 32.95362049 -133.34805943 32.98200083 -137.38796234 33.00670624 C-138.87391305 33.01663493 -140.35985322 33.02831174 -141.8457756 33.04183006 C-143.8681658 33.0599725 -145.89061356 33.07132674 -147.91305542 33.08229065 C-149.04686079 33.09058679 -150.18066616 33.09888292 -151.34882927 33.10743046 C-154 33 -154 33 -156 32 C-157.97086892 21.87144753 -156.74430017 11.20263774 -156 1 C-153.7309935 1.90315357 -151.46337097 2.80867344 -149.20605469 3.74072266 C-103.8768787 22.43816248 -55.44514846 22.65695447 -10 4 C-1.47239264 0 -1.47239264 0 0 0 Z " fill="#E6DDB2" transform="translate(342,340)"/>
<path d="M0 0 C44.55 0 89.1 0 135 0 C135 4.95 135 9.9 135 15 C29.73 15 -75.54 15 -184 15 C-184 10.71 -184 6.42 -184 2 C-183.01 2.33 -182.02 2.66 -181 3 C-181.66 3 -182.32 3 -183 3 C-183 5.64 -183 8.28 -183 11 C-145.05 11 -107.1 11 -68 11 C-68 10.34 -68 9.68 -68 9 C-67.01 9 -66.02 9 -65 9 C-65 9.66 -65 10.32 -65 11 C0.34 10.67 65.68 10.34 133 10 C133.33 7.03 133.66 4.06 134 1 C91.76 1 49.52 1 6 1 C6 1.66 6 2.32 6 3 C5.01 3 4.02 3 3 3 C3 2.34 3 1.68 3 1 C2.01 0.67 1.02 0.34 0 0 Z " fill="#94957F" transform="translate(289,202)"/>
<path d="M0 0 C105.27 0 210.54 0 319 0 C317.875 16.875 317.875 16.875 316 24 C315.67 24 315.34 24 315 24 C314.8886232 18.54253676 315.13479505 13.40753093 316 8 C316 7.01 316 6.02 316 5 C316 4.34 316 3.68 316 3 C312.01588492 1.68174223 307.97911879 1.86715188 303.83496094 1.88647461 C302.60513489 1.88625557 302.60513489 1.88625557 301.35046387 1.8860321 C298.64507384 1.88672782 295.93975298 1.89450428 293.234375 1.90234375 C291.35679156 1.90420914 289.47920763 1.90563247 287.60162354 1.90663147 C282.66311293 1.91044711 277.72463179 1.92026929 272.78613281 1.93133545 C267.74544676 1.94157004 262.70475595 1.94613348 257.6640625 1.95117188 C247.77602873 1.96189239 237.88801682 1.9789574 228 2 C227.67 2.99 227.34 3.98 227 5 C226.01 5 225.02 5 224 5 C223.67 4.01 223.34 3.02 223 2 C194.90618216 1.97665954 166.81236577 1.95901517 138.71854019 1.94818783 C125.67466152 1.94302732 112.63078887 1.93598926 99.58691406 1.92456055 C88.22043343 1.91460626 76.85395716 1.90814479 65.4874723 1.90591151 C59.46672257 1.90460567 53.4459853 1.9015278 47.42523956 1.89426994 C41.76186922 1.88749801 36.09851652 1.88538545 30.43514252 1.88689232 C28.35339767 1.88661652 26.27165225 1.88461835 24.18991089 1.88079453 C21.3536565 1.875839 18.51746923 1.87700865 15.68121338 1.87974548 C14.85241991 1.87683264 14.02362645 1.8739198 13.16971803 1.87091869 C7.99978866 1.86995541 7.99978866 1.86995541 3 3 C2.67 3.66 2.34 4.32 2 5 C2.99 5.33 3.98 5.66 5 6 C4.34 6 3.68 6 3 6 C3 6.99 3 7.98 3 9 C3.99 9 4.98 9 6 9 C6 9.99 6 10.98 6 12 C5.01 12 4.02 12 3 12 C5.05233685 14.2477975 6.00667261 15.0022242 9 16 C9 16.66 9 17.32 9 18 C8.01 18.33 7.02 18.66 6 19 C6 20.65 6 22.3 6 24 C6.66 24 7.32 24 8 24 C8 24.99 8 25.98 8 27 C7.34 27 6.68 27 6 27 C5.67 28.32 5.34 29.64 5 31 C4.34448057 28.08522522 3.70053224 25.16861113 3.0625 22.25 C2.88009766 21.44433594 2.69769531 20.63867188 2.50976562 19.80859375 C1.05460545 13.08839951 0.58368853 7.00426235 0 0 Z " fill="#DFDFBD" transform="translate(105,217)"/>
<path d="M0 0 C0 0.99 0 1.98 0 3 C-11.45948493 8.40137126 -22.72639317 12.85003674 -35 16 C-35.72638672 16.19078125 -36.45277344 16.3815625 -37.20117188 16.578125 C-39.40136853 17.15091146 -41.60532955 17.70474891 -43.8125 18.25 C-44.45711182 18.41338867 -45.10172363 18.57677734 -45.76586914 18.74511719 C-56.84010512 21.35802961 -68.31051154 21.20848298 -79.625 21.1875 C-80.68397491 21.18559662 -80.68397491 21.18559662 -81.76434326 21.18365479 C-104.77613776 21.10493861 -125.36632987 17.60573402 -146.8125 8.875 C-147.62517334 8.55063965 -148.43784668 8.2262793 -149.27514648 7.89208984 C-151.51953125 6.9296875 -151.51953125 6.9296875 -155 5 C-155.7175293 2.87939453 -155.7175293 2.87939453 -156 1 C-153.7309935 1.90315357 -151.46337097 2.80867344 -149.20605469 3.74072266 C-103.8768787 22.43816248 -55.44514846 22.65695447 -10 4 C-1.47239264 0 -1.47239264 0 0 0 Z " fill="#4D544A" transform="translate(342,340)"/>
<path d="M0 0 C0.67995814 -0.00241583 1.35991629 -0.00483166 2.06047922 -0.0073207 C4.34529248 -0.01296743 6.62982627 -0.00428704 8.91462708 0.00431824 C10.56052093 0.00326539 12.20641442 0.00134772 13.85230637 -0.00136566 C18.36176401 -0.00618825 22.87112429 0.00159189 27.38057017 0.01161981 C32.19209771 0.02031447 37.00362148 0.0179245 41.81515503 0.01705933 C51.13162328 0.01733326 60.44804511 0.02890599 69.76449877 0.04465407 C77.26485853 0.05711431 84.76521091 0.0650199 92.26557922 0.06999207 C164.93010036 0.11974391 237.58926937 0.48780091 310.24983215 1.24723816 C310.24983215 5.53723816 310.24983215 9.82723816 310.24983215 14.24723816 C309.91983215 14.24723816 309.58983215 14.24723816 309.24983215 14.24723816 C309.24983215 10.28723816 309.24983215 6.32723816 309.24983215 2.24723816 C224.10983215 2.24723816 138.96983215 2.24723816 51.24983215 2.24723816 C51.24983215 2.90723816 51.24983215 3.56723816 51.24983215 4.24723816 C50.25983215 4.24723816 49.26983215 4.24723816 48.24983215 4.24723816 C48.24983215 3.58723816 48.24983215 2.92723816 48.24983215 2.24723816 C30.09983215 2.24723816 11.94983215 2.24723816 -6.75016785 2.24723816 C-6.75016785 2.90723816 -6.75016785 3.56723816 -6.75016785 4.24723816 C-7.74016785 4.24723816 -8.73016785 4.24723816 -9.75016785 4.24723816 C-9.75016785 6.88723816 -9.75016785 9.52723816 -9.75016785 12.24723816 C-10.08016785 12.24723816 -10.41016785 12.24723816 -10.75016785 12.24723816 C-10.75016785 8.94723816 -10.75016785 5.64723816 -10.75016785 2.24723816 C-6.51706441 0.13068644 -4.63399845 -0.0020775 0 0 Z " fill="#FAF4E5" transform="translate(114.75016784667969,199.7527618408203)"/>
<path d="M0 0 C0 1.32 0 2.64 0 4 C1.32 4 2.64 4 4 4 C4.33 2.68 4.66 1.36 5 0 C5.99 0 6.98 0 8 0 C7.75 1.875 7.75 1.875 7 4 C4.41847698 5.72101535 3.15081975 6 0 6 C0 6.99 0 7.98 0 9 C-0.66 9 -1.32 9 -2 9 C-2 9.66 -2 10.32 -2 11 C-1.34 11 -0.68 11 0 11 C-0.66 12.98 -1.32 14.96 -2 17 C-6.29516959 13.91785344 -8.94554698 10.59097712 -11.8125 6.25 C-12.21919922 5.64800781 -12.62589844 5.04601562 -13.04492188 4.42578125 C-14.0369617 2.95522809 -15.01947888 1.47825841 -16 0 C-15.34 -0.33 -14.68 -0.66 -14 -1 C-13.67 -0.34 -13.34 0.32 -13 1 C-12.34 0.34 -11.68 -0.32 -11 -1 C-10.34 -1 -9.68 -1 -9 -1 C-5.23375329 -2.25541557 -3.62811066 -1.37061958 0 0 Z " fill="#E6DEB3" transform="translate(146,291)"/>
<path d="M0 0 C2.2690065 0.90315357 4.53662903 1.80867344 6.79394531 2.74072266 C26.98703392 11.06999516 46.24580347 14.95473366 68 17 C68 17.33 68 17.66 68 18 C46.54777222 21.30034274 19.85193717 15.08437208 1 4 C0.12109375 1.81640625 0.12109375 1.81640625 0 0 Z " fill="#585F55" transform="translate(186,341)"/>
<path d="M0 0 C2.97 0 5.94 0 9 0 C9 0.99 9 1.98 9 3 C7.68 3 6.36 3 5 3 C5.33 4.32 5.66 5.64 6 7 C5.360625 6.814375 4.72125 6.62875 4.0625 6.4375 C3.0415625 6.2209375 3.0415625 6.2209375 2 6 C1.67 6.33 1.34 6.66 1 7 C-0.66617115 7.04063832 -2.33388095 7.042721 -4 7 C-3.525625 6.5875 -3.05125 6.175 -2.5625 5.75 C-0.63715751 3.86673565 -0.63715751 3.86673565 0 0 Z M-7 6 C-6.01 6.33 -5.02 6.66 -4 7 C-4 7.66 -4 8.32 -4 9 C-3.34 9 -2.68 9 -2 9 C-2 9.99 -2 10.98 -2 12 C-2.99 12 -3.98 12 -5 12 C-4.67 12.66 -4.34 13.32 -4 14 C-1.97536745 14.65213292 -1.97536745 14.65213292 0 15 C0 15.99 0 16.98 0 18 C0.66 18 1.32 18 2 18 C2 16.68 2 15.36 2 14 C1.34 14 0.68 14 0 14 C0 13.34 0 12.68 0 12 C3.465 11.505 3.465 11.505 7 11 C7 11.66 7 12.32 7 13 C6.01 13 5.02 13 4 13 C4.99 15.97 5.98 18.94 7 22 C9.64 22.33 12.28 22.66 15 23 C15 23.99 15 24.98 15 26 C10.38872181 26.46196776 8.09170738 25.12493666 4.3125 22.5625 C3.35988281 21.92441406 2.40726563 21.28632813 1.42578125 20.62890625 C0.62527344 20.09136719 -0.17523438 19.55382812 -1 19 C-1.66 18.67 -2.32 18.34 -3 18 C-3 17.34 -3 16.68 -3 16 C-3.70125 15.773125 -4.4025 15.54625 -5.125 15.3125 C-8.71586536 13.6731919 -11.07780486 11.65036303 -14 9 C-14 8.67 -14 8.34 -14 8 C-12.35 8 -10.7 8 -9 8 C-9 8.99 -9 9.98 -9 11 C-8.34 10.67 -7.68 10.34 -7 10 C-7 8.68 -7 7.36 -7 6 Z " fill="#EFE7C7" transform="translate(174,316)"/>
<path d="M0 0 C0.12375 1.134375 0.2475 2.26875 0.375 3.4375 C0.58125 4.613125 0.7875 5.78875 1 7 C1.66 7.33 2.32 7.66 3 8 C2.67 8.33 2.34 8.66 2 9 C2 10.134375 2 11.26875 2 12.4375 C2 16 2 16 1 18 C0.01 18 -0.98 18 -2 18 C-2.33 17.34 -2.66 16.68 -3 16 C-4.98 16.99 -4.98 16.99 -7 18 C-7.99 17.34 -8.98 16.68 -10 16 C-10 15.34 -10 14.68 -10 14 C-7.69 14 -5.38 14 -3 14 C-3 13.34 -3 12.68 -3 12 C-6.66305234 11.25073929 -9.42355152 10.7619986 -13 12 C-13.33 10.68 -13.66 9.36 -14 8 C-10.535 7.505 -10.535 7.505 -7 7 C-7 6.34 -7 5.68 -7 5 C-7.99 4.67 -8.98 4.34 -10 4 C-10 3.34 -10 2.68 -10 2 C-3.375 -1.125 -3.375 -1.125 0 0 Z " fill="#EAE1BC" transform="translate(260,320)"/>
<path d="M0 0 C1.65 0.33 3.3 0.66 5 1 C4.938125 1.763125 4.87625 2.52625 4.8125 3.3125 C4.70608662 6.02050558 4.70608662 6.02050558 6.4375 7.4375 C8.68993422 9.68993422 8.65731074 11.9157967 9 15 C8.01 15 7.02 15 6 15 C6 13.68 6 12.36 6 11 C4.72125 10.938125 3.4425 10.87625 2.125 10.8125 C1.40570313 10.77769531 0.68640625 10.74289062 -0.0546875 10.70703125 C-0.69664062 10.80371094 -1.33859375 10.90039062 -2 11 C-2.99 12.485 -2.99 12.485 -4 14 C-7 7.25 -7 7.25 -7 5 C-6.401875 4.9175 -5.80375 4.835 -5.1875 4.75 C-2.4033704 3.79544128 -1.56688858 2.42867729 0 0 Z " fill="#EAE0B7" transform="translate(185,324)"/>
<path d="M0 0 C0 0.99 0 1.98 0 3 C-8.97795287 7.23171346 -17.90518623 11.23930464 -27.4375 14.0625 C-28.50955688 14.38577271 -28.50955688 14.38577271 -29.60327148 14.71557617 C-32.94648087 15.65927944 -34.63216412 16.12261196 -38 15 C-38 14.34 -38 13.68 -38 13 C-37.319375 12.85304688 -36.63875 12.70609375 -35.9375 12.5546875 C-25.30881893 10.09539161 -10.13115675 0 0 0 Z " fill="#585E55" transform="translate(342,340)"/>
<path d="M0 0 C3.14737182 0.69941596 6.02588876 1.76078698 9 3 C9 3.99 9 4.98 9 6 C8.01 6 7.02 6 6 6 C5.67 8.64 5.34 11.28 5 14 C6.98 13.67 8.96 13.34 11 13 C11 13.99 11 14.98 11 16 C7.33694766 16.74926071 4.57644848 17.2380014 1 16 C1 14.02 1 12.04 1 10 C-0.32 10.33 -1.64 10.66 -3 11 C-3 10.01 -3 9.02 -3 8 C-1.68 7.34 -0.36 6.68 1 6 C0.67 4.02 0.34 2.04 0 0 Z " fill="#EDE5C1" transform="translate(267,335)"/>
<path d="M0 0 C0.99 0.33 1.98 0.66 3 1 C3.12246094 1.63421875 3.24492187 2.2684375 3.37109375 2.921875 C3.80955041 5.24138274 3.80955041 5.24138274 6.28515625 6.265625 C7.20167969 6.59046875 8.11820313 6.9153125 9.0625 7.25 C10.44115234 7.75273437 10.44115234 7.75273437 11.84765625 8.265625 C12.91306641 8.62914062 12.91306641 8.62914062 14 9 C13.67 11.31 13.34 13.62 13 16 C12.01 16 11.02 16 10 16 C10 15.01 10 14.02 10 13 C8.68 12.67 7.36 12.34 6 12 C6 10.68 6 9.36 6 8 C3.69 8 1.38 8 -1 8 C-1.33 5.69 -1.66 3.38 -2 1 C-1.34 0.67 -0.68 0.34 0 0 Z " fill="#EDE6C2" transform="translate(230,304)"/>
<path d="M0 0 C2.97 0.495 2.97 0.495 6 1 C6 2.32 6 3.64 6 5 C5.01 5.33 4.02 5.66 3 6 C3.66 7.98 4.32 9.96 5 12 C2.03 12 -0.94 12 -4 12 C-4 9.36 -4 6.72 -4 4 C-2.68 3.67 -1.36 3.34 0 3 C0 2.01 0 1.02 0 0 Z " fill="#EEE4C1" transform="translate(282,328)"/>
<path d="M0 0 C13.2 0 26.4 0 40 0 C38.875 16.875 38.875 16.875 37 24 C36.67 24 36.34 24 36 24 C35.8886232 18.54253676 36.13479505 13.40753093 37 8 C37 7.01 37 6.02 37 5 C37 4.34 37 3.68 37 3 C33.18422037 1.79794386 29.35364011 1.77805018 25.390625 1.68359375 C24.30041046 1.6524221 24.30041046 1.6524221 23.18817139 1.62062073 C20.87554009 1.55544488 18.56279907 1.4963896 16.25 1.4375 C14.67837425 1.39428434 13.10675944 1.35066908 11.53515625 1.30664062 C7.69021547 1.19979644 3.84516476 1.09843976 0 1 C0 0.67 0 0.34 0 0 Z " fill="#E7E5C8" transform="translate(384,217)"/>
<path d="M0 0 C0.66 0 1.32 0 2 0 C2 0.66 2 1.32 2 2 C3.65 2.33 5.3 2.66 7 3 C7 3.66 7 4.32 7 5 C2.25 6.125 2.25 6.125 0 5 C0 5.66 0 6.32 0 7 C-0.66 7 -1.32 7 -2 7 C-2.33 8.65 -2.66 10.3 -3 12 C-3.66 12 -4.32 12 -5 12 C-5.33 9.69 -5.66 7.38 -6 5 C-6.99 5 -7.98 5 -9 5 C-9 4.01 -9 3.02 -9 2 C-7.329375 2.061875 -7.329375 2.061875 -5.625 2.125 C-1.95633975 2.41121859 -1.95633975 2.41121859 0 0 Z " fill="#F0E7C4" transform="translate(238,339)"/>
<path d="M0 0 C0.99 0.33 1.98 0.66 3 1 C2.34 1 1.68 1 1 1 C1 1.99 1 2.98 1 4 C1.99 4 2.98 4 4 4 C4 4.99 4 5.98 4 7 C3.01 7 2.02 7 1 7 C3.05233685 9.2477975 4.00667261 10.0022242 7 11 C7 11.66 7 12.32 7 13 C6.01 13.33 5.02 13.66 4 14 C4 15.65 4 17.3 4 19 C4.66 19 5.32 19 6 19 C6 19.99 6 20.98 6 22 C5.34 22 4.68 22 4 22 C3.67 23.32 3.34 24.64 3 26 C2.29243969 22.98351121 1.61269294 19.9613839 0.9375 16.9375 C0.63875977 15.66616211 0.63875977 15.66616211 0.33398438 14.36914062 C-0.807025 9.18455418 -1.12221182 5.2016988 0 0 Z " fill="#EFE8C5" transform="translate(107,222)"/>
<path d="M0 0 C0.12375 0.804375 0.2475 1.60875 0.375 2.4375 C0.58125 3.283125 0.7875 4.12875 1 5 C1.66 5.33 2.32 5.66 3 6 C2.67 6.99 2.34 7.98 2 9 C1.34 9 0.68 9 0 9 C-0.33 9.66 -0.66 10.32 -1 11 C-2.32 11 -3.64 11 -5 11 C-5 10.34 -5 9.68 -5 9 C-5.99 9 -6.98 9 -8 9 C-7.64598897 5.81390075 -7.16972964 4.20933322 -5.125 1.6875 C-3 0 -3 0 0 0 Z " fill="#EFE6C3" transform="translate(334,328)"/>
<path d="M0 0 C0 0.99 0 1.98 0 3 C-0.969375 3.268125 -1.93875 3.53625 -2.9375 3.8125 C-3.948125 4.204375 -4.95875 4.59625 -6 5 C-6.33 5.99 -6.66 6.98 -7 8 C-8.32 8 -9.64 8 -11 8 C-10.67 9.65 -10.34 11.3 -10 13 C-11.65 12.67 -13.3 12.34 -15 12 C-14.34 9.69 -13.68 7.38 -13 5 C-12.01 5 -11.02 5 -10 5 C-10 4.34 -10 3.68 -10 3 C-8.70990357 2.49596232 -7.41786211 1.99690074 -6.125 1.5 C-5.40570313 1.2215625 -4.68640625 0.943125 -3.9453125 0.65625 C-2 0 -2 0 0 0 Z " fill="#FAF0D9" transform="translate(226,321)"/>
<path d="M0 0 C0.66 0 1.32 0 2 0 C1.67 2.64 1.34 5.28 1 8 C-2.73487777 7.5020163 -4.81237635 7.12508244 -8 5 C-8 4.34 -8 3.68 -8 3 C-3.25 1.875 -3.25 1.875 -1 3 C-0.67 2.01 -0.34 1.02 0 0 Z " fill="#EBE2BF" transform="translate(168,287)"/>
<path d="M0 0 C0 0.66 0 1.32 0 2 C-1.65071396 3.02611949 -3.31970006 4.02308143 -5 5 C-5.99 5.99 -6.98 6.98 -8 8 C-9.65 5.69 -11.3 3.38 -13 1 C-12.34 0.67 -11.68 0.34 -11 0 C-10.67 0.66 -10.34 1.32 -10 2 C-9.34 1.34 -8.68 0.68 -8 0 C-7.34 0 -6.68 0 -6 0 C-3 -1 -3 -1 0 0 Z " fill="#EBE4C6" transform="translate(143,290)"/>
<path d="M0 0 C2.31 0.33 4.62 0.66 7 1 C4.52005088 6.3732231 1.33932834 10.97062369 -3 15 C-3 13.68 -3 12.36 -3 11 C-2.34 11 -1.68 11 -1 11 C-0.67 10.01 -0.34 9.02 0 8 C0.66 8 1.32 8 2 8 C1.67 7.236875 1.34 6.47375 1 5.6875 C0 3 0 3 0 0 Z " fill="#EFE9CB" transform="translate(393,286)"/>
<path d="M0 0 C0.99 0.495 0.99 0.495 2 1 C2 2.32 2 3.64 2 5 C2.66 5 3.32 5 4 5 C4 3.35 4 1.7 4 0 C4.99 0.33 5.98 0.66 7 1 C7 1.99 7 2.98 7 4 C6.34 4 5.68 4 5 4 C5 4.66 5 5.32 5 6 C5.66 6 6.32 6 7 6 C7 7.32 7 8.64 7 10 C6.01 10 5.02 10 4 10 C3.67 10.66 3.34 11.32 3 12 C2.49440092 10.56445975 1.9957251 9.1264798 1.5 7.6875 C1.2215625 6.88699219 0.943125 6.08648437 0.65625 5.26171875 C0 3 0 3 0 0 Z " fill="#F0EACB" transform="translate(111,248)"/>
<path d="M0 0 C0 1.98 0 3.96 0 6 C-0.99 6 -1.98 6 -3 6 C-3.66 7.32 -4.32 8.64 -5 10 C-5.66 10 -6.32 10 -7 10 C-7.33 9.01 -7.66 8.02 -8 7 C-7.67 6.34 -7.34 5.68 -7 5 C-6.34 5 -5.68 5 -5 5 C-5 3.68 -5 2.36 -5 1 C-1.125 0 -1.125 0 0 0 Z " fill="#F1E7C6" transform="translate(208,328)"/>
<path d="M0 0 C2.31 0.33 4.62 0.66 7 1 C7.20496094 1.55429687 7.40992188 2.10859375 7.62109375 2.6796875 C7.89050781 3.40414063 8.15992188 4.12859375 8.4375 4.875 C8.70433594 5.59429687 8.97117188 6.31359375 9.24609375 7.0546875 C9.97916854 9.03648845 9.97916854 9.03648845 11 11 C6.43250373 9.13916819 3.11420254 5.96311877 0.6875 1.6875 C0.460625 1.130625 0.23375 0.57375 0 0 Z " fill="#EFE9CF" transform="translate(146,310)"/>
<path d="M0 0 C0.99 0 1.98 0 3 0 C3 0.99 3 1.98 3 3 C2.34 3 1.68 3 1 3 C1.33 3.763125 1.66 4.52625 2 5.3125 C3 8 3 8 3 11 C2.01 11 1.02 11 0 11 C0 10.01 0 9.02 0 8 C-0.99 8 -1.98 8 -3 8 C-2.37240135 5.07120629 -1.41377341 2.63904371 0 0 Z " fill="#F1E9C6" transform="translate(157,251)"/>
<path d="M0 0 C0.99 0.33 1.98 0.66 3 1 C-0.66666667 4.66666667 -4.33333333 8.33333333 -8 12 C-8.66 11.67 -9.32 11.34 -10 11 C-9.34 9.68 -8.68 8.36 -8 7 C-7.34 7 -6.68 7 -6 7 C-6 6.34 -6 5.68 -6 5 C-5.195625 4.731875 -4.39125 4.46375 -3.5625 4.1875 C-2.716875 3.795625 -1.87125 3.40375 -1 3 C-0.67 2.01 -0.34 1.02 0 0 Z " fill="#ECE6CA" transform="translate(378,311)"/>
<path d="M0 0 C0.103125 0.639375 0.20625 1.27875 0.3125 1.9375 C0.6528125 2.9584375 0.6528125 2.9584375 1 4 C1.99 4.33 2.98 4.66 4 5 C-5.405 5.99 -5.405 5.99 -15 7 C-14.67 6.34 -14.34 5.68 -14 5 C-11.71484375 4.5859375 -11.71484375 4.5859375 -8.9375 4.375 C-8.01839844 4.30023438 -7.09929687 4.22546875 -6.15234375 4.1484375 C-5.08693359 4.07496094 -5.08693359 4.07496094 -4 4 C-4 3.34 -4 2.68 -4 2 C-2.68 2 -1.36 2 0 2 C0 1.34 0 0.68 0 0 Z " fill="#D1D0AB" transform="translate(287,352)"/>
<path d="M0 0 C0.99 0.33 1.98 0.66 3 1 C3.90837763 3.47739354 4 5.33579484 4 8 C2.35 8 0.7 8 -1 8 C-1.33 5.69 -1.66 3.38 -2 1 C-1.34 0.67 -0.68 0.34 0 0 Z " fill="#EEE5BF" transform="translate(230,304)"/>
<path d="M0 0 C2.125 0.375 2.125 0.375 4 1 C-0.19897444 4.5814782 -4.21416538 7.81831513 -9.875 8.1875 C-10.57625 8.125625 -11.2775 8.06375 -12 8 C-9 6 -9 6 -5.875 5 C-2.87488938 4.3313327 -2.87488938 4.3313327 -2 2 C-1.34 1.34 -0.68 0.68 0 0 Z " fill="#E0DBBA" transform="translate(339,337)"/>
<path d="M0 0 C0.99 0 1.98 0 3 0 C3.33 1.98 3.66 3.96 4 6 C1.03 6.66 -1.94 7.32 -5 8 C-5 7.34 -5 6.68 -5 6 C-4.01 6 -3.02 6 -2 6 C-2 5.34 -2 4.68 -2 4 C-1.34 3.67 -0.68 3.34 0 3 C0 2.01 0 1.02 0 0 Z " fill="#F3EBCA" transform="translate(159,298)"/>
<path d="M0 0 C0 0.99 0 1.98 0 3 C-1.32 3 -2.64 3 -4 3 C-4 3.66 -4 4.32 -4 5 C-3.34 5 -2.68 5 -2 5 C-2.33 6.32 -2.66 7.64 -3 9 C-3.99 9 -4.98 9 -6 9 C-5.67 7.35 -5.34 5.7 -5 4 C-5.66 4 -6.32 4 -7 4 C-7 3.01 -7 2.02 -7 1 C-4.50935112 0.31292445 -2.62113708 0 0 0 Z " fill="#F5ECC8" transform="translate(184,282)"/>
<path d="M0 0 C1.98 0.495 1.98 0.495 4 1 C4.33 3.64 4.66 6.28 5 9 C4.34 9 3.68 9 3 9 C3 8.01 3 7.02 3 6 C1.68 6 0.36 6 -1 6 C-0.67 4.02 -0.34 2.04 0 0 Z " fill="#F3E8CA" transform="translate(136,279)"/>
<path d="M0 0 C-0.33 1.65 -0.66 3.3 -1 5 C-1.66 5 -2.32 5 -3 5 C-2.34 6.98 -1.68 8.96 -1 11 C-3.61500768 8.63404067 -5.38999603 6.13950774 -7 3 C-6.67 2.34 -6.34 1.68 -6 1 C-3.911361 0.32624548 -2.19636905 0 0 0 Z " fill="#F3EDD5" transform="translate(129,275)"/>
<path d="M0 0 C-0.3125 2.375 -0.3125 2.375 -1 5 C-4 7 -4 7 -7 7 C-6.22006468 2.47637516 -4.81844319 0 0 0 Z " fill="#EEE6C3" transform="translate(143,243)"/>
<path d="M0 0 C0.66 0 1.32 0 2 0 C2.33 2.31 2.66 4.62 3 7 C3.66 7 4.32 7 5 7 C5 7.99 5 8.98 5 10 C4.34 10 3.68 10 3 10 C2.67 11.32 2.34 12.64 2 14 C0.66416101 9.15758367 -0.25328119 5.06562383 0 0 Z " fill="#F3EED7" transform="translate(108,234)"/>
<path d="M0 0 C1.11761719 0.0918457 1.11761719 0.0918457 2.2578125 0.18554688 C4.08982155 0.3382143 5.92014316 0.51089754 7.75 0.6875 C7.75 1.0175 7.75 1.3475 7.75 1.6875 C1.05324864 2.71776944 -5.4814676 2.78902799 -12.25 2.6875 C-8.56627606 -1.08347003 -4.87888257 -0.48702626 0 0 Z " fill="#737A70" transform="translate(246.25,357.3125)"/>
<path d="M0 0 C1.125 6.75 1.125 6.75 0 9 C-0.66 9 -1.32 9 -2 9 C-2 7.35 -2 5.7 -2 4 C-3.32 4.33 -4.64 4.66 -6 5 C-6 4.01 -6 3.02 -6 2 C-2.25 0 -2.25 0 0 0 Z " fill="#F6EECF" transform="translate(270,341)"/>
<path d="M0 0 C2.97 0 5.94 0 9 0 C9 0.99 9 1.98 9 3 C2.25 4.125 2.25 4.125 0 3 C0 2.01 0 1.02 0 0 Z " fill="#F4EDCF" transform="translate(174,316)"/>
<path d="M0 0 C1.89492188 0.15275391 1.89492188 0.15275391 3.828125 0.30859375 C4.79234375 0.39238281 5.7565625 0.47617187 6.75 0.5625 C6.75 0.8925 6.75 1.2225 6.75 1.5625 C-1.665 2.0575 -1.665 2.0575 -10.25 2.5625 C-10.58 1.9025 -10.91 1.2425 -11.25 0.5625 C-7.43483536 -0.73812431 -3.97438237 -0.33119853 0 0 Z " fill="#60685B" transform="translate(283.25,358.4375)"/>
<path d="M0 0 C1.32 0 2.64 0 4 0 C5.25664978 2.90600261 6 4.79604584 6 8 C5.01 8 4.02 8 3 8 C3 6.68 3 5.36 3 4 C2.01 4 1.02 4 0 4 C0 2.68 0 1.36 0 0 Z " fill="#F4EDCF" transform="translate(188,331)"/>
<path d="M0 0 C0 0.99 0 1.98 0 3 C-0.969375 3.28875 -1.93875 3.5775 -2.9375 3.875 C-6.10664203 4.64214682 -6.10664203 4.64214682 -7 7 C-7 6.01 -7 5.02 -7 4 C-7.66 4 -8.32 4 -9 4 C-9 4.66 -9 5.32 -9 6 C-10.32 6.33 -11.64 6.66 -13 7 C-13 6.34 -13 5.68 -13 5 C-12.01 5 -11.02 5 -10 5 C-10 4.34 -10 3.68 -10 3 C-8.70990357 2.49596232 -7.41786211 1.99690074 -6.125 1.5 C-5.04605469 1.08234375 -5.04605469 1.08234375 -3.9453125 0.65625 C-2 0 -2 0 0 0 Z " fill="#F3EAC9" transform="translate(226,321)"/>
<path d="M0 0 C2.475 0.495 2.475 0.495 5 1 C4.37240135 3.92879371 3.41377341 6.36095629 2 9 C1.34 8.67 0.68 8.34 0 8 C0.2784375 7.13375 0.2784375 7.13375 0.5625 6.25 C1.04023546 3.79307475 0.75729364 2.35602466 0 0 Z " fill="#F2EAC4" transform="translate(196,300)"/>
<path d="M0 0 C0 0.99 0 1.98 0 3 C-6.625 6 -6.625 6 -10 6 C-10 5.01 -10 4.02 -10 3 C-8.70990357 2.49596232 -7.41786211 1.99690074 -6.125 1.5 C-5.04605469 1.08234375 -5.04605469 1.08234375 -3.9453125 0.65625 C-2 0 -2 0 0 0 Z " fill="#F3EBC7" transform="translate(182,272)"/>
<path d="M0 0 C0.66 0 1.32 0 2 0 C1.34580901 5.06998019 -0.8546409 9.41990777 -3 14 C-3.33 14 -3.66 14 -4 14 C-4 12.02 -4 10.04 -4 8 C-3.34 8 -2.68 8 -2 8 C-1.855625 6.865625 -1.71125 5.73125 -1.5625 4.5625 C-1 1 -1 1 0 0 Z " fill="#EEE9CE" transform="translate(413,257)"/>
<path d="M0 0 C0 0.99 0 1.98 0 3 C-3.3 3.66 -6.6 4.32 -10 5 C-10.33 4.01 -10.66 3.02 -11 2 C-9.5422647 1.664061 -8.08378894 1.33133376 -6.625 1 C-5.40683594 0.7215625 -5.40683594 0.7215625 -4.1640625 0.4375 C-2 0 -2 0 0 0 Z " fill="#5E6158" transform="translate(315,351)"/>
<path d="M0 0 C3.59007126 1.33345504 6.79570907 2.8943231 10 5 C10 5.33 10 5.66 10 6 C3.375 5.25 3.375 5.25 0 3 C0 2.01 0 1.02 0 0 Z " fill="#5F6258" transform="translate(186,341)"/>
<path d="M0 0 C-0.33 0.99 -0.66 1.98 -1 3 C-3.06640625 3.73046875 -3.06640625 3.73046875 -5.5625 4.1875 C-6.38878906 4.34605469 -7.21507812 4.50460937 -8.06640625 4.66796875 C-9.02353516 4.83232422 -9.02353516 4.83232422 -10 5 C-9.67 4.01 -9.34 3.02 -9 2 C-5.82757352 0.68964993 -3.44118336 0 0 0 Z " fill="#4F554E" transform="translate(325,348)"/>
<path d="M0 0 C0.66 0 1.32 0 2 0 C2 0.66 2 1.32 2 2 C3.98 1.67 5.96 1.34 8 1 C7.34 2.98 6.68 4.96 6 7 C1.125 3.375 1.125 3.375 0 0 Z " fill="#F2EACE" transform="translate(138,301)"/>
<path d="M0 0 C2.31 0.66 4.62 1.32 7 2 C7 2.66 7 3.32 7 4 C5.02 4.66 3.04 5.32 1 6 C0.67 4.02 0.34 2.04 0 0 Z " fill="#F9F1D7" transform="translate(235,310)"/>
<path d="M0 0 C0.33 0.99 0.66 1.98 1 3 C-1.97 2.67 -4.94 2.34 -8 2 C-8 1.34 -8 0.68 -8 0 C-4.71023192 -1.09658936 -3.28696233 -0.79953138 0 0 Z " fill="#F3EDC9" transform="translate(189,308)"/>
<path d="M0 0 C2.97 0 5.94 0 9 0 C8.67 0.99 8.34 1.98 8 3 C5.69 3 3.38 3 1 3 C0.67 2.01 0.34 1.02 0 0 Z " fill="#EDE8CC" transform="translate(255,356)"/>
<path d="M0 0 C0.99 0 1.98 0 3 0 C2.75 1.875 2.75 1.875 2 4 C-0.58152302 5.72101535 -1.84918025 6 -5 6 C-5 5.34 -5 4.68 -5 4 C-3.68 4 -2.36 4 -1 4 C-0.67 2.68 -0.34 1.36 0 0 Z " fill="#F6ECCB" transform="translate(151,291)"/>
<path d="M0 0 C2.0625 0.4375 2.0625 0.4375 4 1 C4 1.99 4 2.98 4 4 C2.02 4.33 0.04 4.66 -2 5 C-1.125 1.125 -1.125 1.125 0 0 Z " fill="#ECE3BC" transform="translate(247,202)"/>
<path d="M0 0 C7.75 -0.125 7.75 -0.125 10 1 C10 1.66 10 2.32 10 3 C8.5199159 2.88637738 7.04089926 2.75877092 5.5625 2.625 C4.73878906 2.55539062 3.91507813 2.48578125 3.06640625 2.4140625 C2.38449219 2.27742188 1.70257813 2.14078125 1 2 C0.67 1.34 0.34 0.68 0 0 Z " fill="#4F5749" transform="translate(216,354)"/>
<path d="M0 0 C0.99 0 1.98 0 3 0 C3 1.98 3 3.96 3 6 C1.35 5.67 -0.3 5.34 -2 5 C-1.34 3.35 -0.68 1.7 0 0 Z " fill="#F7ECD2" transform="translate(256,342)"/>
<path d="M0 0 C3.37462715 0.54723683 5.08235 1.0549 8 3 C8 3.66 8 4.32 8 5 C4.62537285 4.45276317 2.91765 3.9451 0 2 C0 1.34 0 0.68 0 0 Z " fill="#F9EFD8" transform="translate(160,290)"/>
<path d="M0 0 C0.99 0 1.98 0 3 0 C3 1.98 3 3.96 3 6 C2.34 6 1.68 6 1 6 C1 5.01 1 4.02 1 3 C-0.65 3.33 -2.3 3.66 -4 4 C-4 3.34 -4 2.68 -4 2 C-2.68 2 -1.36 2 0 2 C0 1.34 0 0.68 0 0 Z " fill="#F5EDCD" transform="translate(301,287)"/>
<path d="M0 0 C0.99 0.33 1.98 0.66 3 1 C3.185625 2.7015625 3.185625 2.7015625 3.375 4.4375 C3.684375 6.2009375 3.684375 6.2009375 4 8 C4.66 8.33 5.32 8.66 6 9 C5.01 9.33 4.02 9.66 3 10 C2.67 7.69 2.34 5.38 2 3 C1.34 3 0.68 3 0 3 C0 2.01 0 1.02 0 0 Z " fill="#F8F0CA" transform="translate(257,319)"/>
<path d="M0 0 C4.95 0 9.9 0 15 0 C15 0.33 15 0.66 15 1 C12.03 1 9.06 1 6 1 C6 1.66 6 2.32 6 3 C5.01 3 4.02 3 3 3 C3 2.34 3 1.68 3 1 C2.01 0.67 1.02 0.34 0 0 Z " fill="#E7E3BC" transform="translate(289,202)"/>
<path d="M0 0 C1.32 1.32 2.64 2.64 4 4 C1.69 4.66 -0.62 5.32 -3 6 C-2.67 4.68 -2.34 3.36 -2 2 C-1.34 2 -0.68 2 0 2 C0 1.34 0 0.68 0 0 Z " fill="#D7D8BA" transform="translate(318,345)"/>
<path d="M0 0 C-0.33 1.65 -0.66 3.3 -1 5 C-3.475 4.01 -3.475 4.01 -6 3 C-6 2.34 -6 1.68 -6 1 C-3 0 -3 0 0 0 Z " fill="#F7EED3" transform="translate(256,321)"/>
<path d="M0 0 C1.32 0 2.64 0 4 0 C3.67 1.65 3.34 3.3 3 5 C2.01 5 1.02 5 0 5 C0 3.35 0 1.7 0 0 Z " fill="#EFE5C5" transform="translate(128,247)"/>
<path d="M0 0 C0.99 0 1.98 0 3 0 C3 1.98 3 3.96 3 6 C1.68 5.67 0.36 5.34 -1 5 C-0.67 3.35 -0.34 1.7 0 0 Z " fill="#F4ECD0" transform="translate(312,345)"/>
<path d="M0 0 C0.33 0 0.66 0 1 0 C1 2.64 1 5.28 1 8 C0.01 8 -0.98 8 -2 8 C-1.125 1.125 -1.125 1.125 0 0 Z " fill="#EEE4BE" transform="translate(247,309)"/>
<path d="M0 0 C0 0.99 0 1.98 0 3 C-1.98 3.33 -3.96 3.66 -6 4 C-6 3.01 -6 2.02 -6 1 C-4 0 -4 0 0 0 Z " fill="#F5EBC7" transform="translate(302,266)"/>
<path d="M0 0 C0.99 0 1.98 0 3 0 C2.34 2.97 1.68 5.94 1 9 C0.67 9 0.34 9 0 9 C0 6.03 0 3.06 0 0 Z " fill="#F1EAD0" transform="translate(415,248)"/>
<path d="M0 0 C2.475 0.495 2.475 0.495 5 1 C5 1.99 5 2.98 5 4 C3.35 4 1.7 4 0 4 C0 2.68 0 1.36 0 0 Z " fill="#F4ECD0" transform="translate(228,236)"/>
<path d="M0 0 C2.31 0.33 4.62 0.66 7 1 C7 1.99 7 2.98 7 4 C5.35 4 3.7 4 2 4 C1.34 2.68 0.68 1.36 0 0 Z " fill="#EFECD4" transform="translate(182,338)"/>
<path d="M0 0 C0.99 0 1.98 0 3 0 C3.33 1.65 3.66 3.3 4 5 C3.01 5.33 2.02 5.66 1 6 C0.67 4.02 0.34 2.04 0 0 Z " fill="#F3E9C4" transform="translate(258,331)"/>
<path d="M0 0 C0 0.66 0 1.32 0 2 C-1.98 2.33 -3.96 2.66 -6 3 C-6 2.01 -6 1.02 -6 0 C-3 -1 -3 -1 0 0 Z " fill="#F5EBC7" transform="translate(143,290)"/>
<path d="M0 0 C-0.33 0.99 -0.66 1.98 -1 3 C-1.99 3 -2.98 3 -4 3 C-4.33 3.66 -4.66 4.32 -5 5 C-5.33 3.68 -5.66 2.36 -6 1 C-4 0 -4 0 0 0 Z " fill="#F3EACF" transform="translate(134,285)"/>
</svg>
