<?xml version="1.0" encoding="UTF-8"?>
<svg version="1.1" xmlns="http://www.w3.org/2000/svg" width="500" height="500">
<path d="M0 0 C1.02323364 0.00093658 2.04646729 0.00187317 3.10070801 0.00283813 C70.06278699 0.1358398 70.06278699 0.1358398 91.5 15.1875 C94.36402358 19.03782119 94.88104666 21.82514102 94.90405273 26.57910156 C94.92307899 28.48698456 94.92307899 28.48698456 94.94248962 30.43341064 C94.94043731 31.81498375 94.93744856 33.19655574 94.93359375 34.578125 C94.93815966 36.00673673 94.94346646 37.43534626 94.94947815 38.86395264 C94.95840173 41.85649541 94.95599716 44.84877126 94.94604492 47.84130859 C94.93458997 51.65540187 94.95471578 55.46856449 94.98396206 59.28253555 C95.00241589 62.23390456 95.00201293 65.18505468 94.99632454 68.13646698 C94.99617226 69.54133148 95.00213865 70.94621171 95.01461601 72.35102081 C95.07706266 80.53817038 94.68578576 87.04295411 90.5 94.1875 C89.9225 95.239375 89.345 96.29125 88.75 97.375 C85.05826505 101.98966869 80.73904273 105.49543225 75.0625 107.25 C72.19225243 108.96267611 72.19225243 108.96267611 71.98046875 112.15234375 C71.82846939 114.48385942 71.73469597 116.81999821 71.703125 119.15625 C71.5 122.1875 71.5 122.1875 69.5 125.1875 C68.51 125.1875 67.52 125.1875 66.5 125.1875 C66.4589917 125.89173096 66.4179834 126.59596191 66.37573242 127.3215332 C65.67820342 137.74348533 64.25405171 148.03462351 62.8125 158.375 C62.54559325 160.31002774 62.27891443 162.24508692 62.01245117 164.18017578 C59.90938614 179.41077436 57.74786522 194.6332788 55.54907227 209.8503418 C54.50175059 217.10644321 53.46176187 224.36108399 52.52734375 231.6328125 C52.39158936 232.68291504 52.25583496 233.73301758 52.1159668 234.81494141 C51.88189864 236.65219684 51.65481657 238.49036444 51.43676758 240.32958984 C50.71903932 245.96846068 50.71903932 245.96846068 48.5 248.1875 C46.3996582 248.67407227 46.3996582 248.67407227 43.80078125 249.00390625 C42.8471167 249.12789795 41.89345215 249.25188965 40.91088867 249.37963867 C39.37718628 249.56296753 39.37718628 249.56296753 37.8125 249.75 C36.76102783 249.87930908 35.70955566 250.00861816 34.6262207 250.1418457 C10.57454449 253.02716076 -13.44075568 253.04071176 -37.5 250.1875 C-38.21124023 250.10741699 -38.92248047 250.02733398 -39.65527344 249.94482422 C-50.69886371 248.6705638 -50.69886371 248.6705638 -53.5 245.1875 C-54.13082886 242.98770142 -54.13082886 242.98770142 -54.49560547 240.38525391 C-54.63958267 239.40243439 -54.78355988 238.41961487 -54.93190002 237.40701294 C-55.07554489 236.33683929 -55.21918976 235.26666565 -55.3671875 234.1640625 C-55.5270665 233.04724091 -55.6869455 231.93041931 -55.85166931 230.77975464 C-56.37160249 227.12560327 -56.87351097 223.4692243 -57.375 219.8125 C-57.7290723 217.29608453 -58.08413878 214.77980874 -58.44018555 212.26367188 C-59.47699041 204.90723949 -60.49034952 197.54769992 -61.5 190.1875 C-61.76917117 188.23662641 -62.03852404 186.28577788 -62.30810547 184.33496094 C-63.56488558 175.22688277 -64.79480824 166.11555833 -65.99609375 157 C-66.48083761 153.33248055 -66.97365811 149.666135 -67.46875 146 C-67.75027308 143.89586985 -68.03154452 141.79170601 -68.3125 139.6875 C-68.43665283 138.77291016 -68.56080566 137.85832031 -68.6887207 136.91601562 C-69.20776016 132.97821077 -69.65507507 129.17048083 -69.5 125.1875 C-70.4590625 125.001875 -70.4590625 125.001875 -71.4375 124.8125 C-72.118125 124.60625 -72.79875 124.4 -73.5 124.1875 C-74.94207941 121.30334117 -74.59394887 118.77028472 -74.5625 115.5625 C-74.55347656 114.37398438 -74.54445312 113.18546875 -74.53515625 111.9609375 C-74.52355469 111.04570312 -74.51195312 110.13046875 -74.5 109.1875 C-75.49 108.81625 -76.48 108.445 -77.5 108.0625 C-86.30251944 104.24926283 -91.9537645 98.40780414 -96.10961914 89.88745117 C-98.38046208 83.60573605 -97.95203968 76.95588904 -97.93359375 70.36328125 C-97.93816199 68.92937474 -97.94346946 67.49547041 -97.94947815 66.06156921 C-97.9583718 63.07017056 -97.95602655 60.07903948 -97.94604492 57.08764648 C-97.93451741 53.26091909 -97.95484218 49.43510933 -97.98396206 45.60850239 C-98.00232684 42.6530119 -98.00203188 39.69774172 -97.99632454 36.74220848 C-97.99617158 35.33124688 -98.00219481 33.92027011 -98.01461601 32.50936317 C-98.02953894 30.5379508 -98.01621219 28.56638621 -98.00170898 26.5949707 C-98.00154282 25.47548538 -98.00137665 24.35600006 -98.00120544 23.20259094 C-97.3835351 19.48688457 -96.1079768 17.86003132 -93.5 15.1875 C-91.20089663 13.8121175 -89.12858406 12.72464611 -86.6875 11.6875 C-86.00099365 11.39270752 -85.3144873 11.09791504 -84.60717773 10.79418945 C-69.83290327 4.81864326 -53.31699392 2.44537411 -37.5 1.1875 C-36.49517578 1.10137451 -35.49035156 1.01524902 -34.45507812 0.92651367 C-22.97257067 0.03941572 -11.51127652 -0.0135938 0 0 Z " fill="#FBC897" transform="translate(251.5,156.8125)"/>
<path d="M0 0 C1.02323364 0.00093658 2.04646729 0.00187317 3.10070801 0.00283813 C72.79386918 0.14126434 72.79386918 0.14126434 91.5 15.1875 C94.27581395 21.1912967 93.9968103 28.71741236 93.5 35.1875 C91.72368896 36.96381104 89.08649343 36.65447535 86.671875 36.90625 C85.47949219 37.03386719 84.28710938 37.16148437 83.05859375 37.29296875 C81.80175781 37.42316406 80.54492188 37.55335938 79.25 37.6875 C76.78624598 37.94589995 74.32269484 38.20624336 71.859375 38.46875 C70.76077148 38.58283203 69.66216797 38.69691406 68.53027344 38.81445312 C65.63823772 39.109677 65.63823772 39.109677 63.411026 39.70173645 C59.23501585 40.39858818 55.12010823 40.33488208 50.89331055 40.33276367 C49.44776039 40.33780159 49.44776039 40.33780159 47.9730072 40.34294128 C44.7775646 40.35245474 41.58217465 40.35439645 38.38671875 40.35546875 C36.13881917 40.3586876 33.89091979 40.36205213 31.64302063 40.36555481 C26.91101601 40.37155166 22.17902964 40.37339479 17.44702148 40.37280273 C12.65564125 40.37272229 7.86435827 40.37952733 3.07299805 40.39331055 C-65.54627299 40.58781136 -65.54627299 40.58781136 -95.5 35.1875 C-95.58097324 32.91725032 -95.63917704 30.64617925 -95.6875 28.375 C-95.72230469 27.11042969 -95.75710937 25.84585938 -95.79296875 24.54296875 C-95.5 21.1875 -95.5 21.1875 -94.05078125 19.48828125 C-93.53902344 19.05902344 -93.02726563 18.62976563 -92.5 18.1875 C-92.38914063 17.52621094 -92.27828125 16.86492187 -92.1640625 16.18359375 C-91.5 14.1875 -91.5 14.1875 -89.1484375 12.66015625 C-72.88126781 5.65246143 -55.09451237 2.58673437 -37.5 1.1875 C-36.49517578 1.10137451 -35.49035156 1.01524902 -34.45507812 0.92651367 C-22.97257067 0.03941572 -11.51127652 -0.0135938 0 0 Z " fill="#EFA96A" transform="translate(251.5,156.8125)"/>
<path d="M0 0 C1.76469887 -0.00639748 1.76469887 -0.00639748 3.56504822 -0.01292419 C4.86741425 -0.01247101 6.16978027 -0.01201782 7.51161194 -0.0115509 C8.88780814 -0.01454085 10.26400351 -0.01794299 11.64019775 -0.02172852 C15.38809164 -0.03058954 19.13596272 -0.03290751 22.88386607 -0.0335443 C26.00778781 -0.03449167 29.13170419 -0.03816798 32.25562388 -0.0417164 C39.62318254 -0.04986895 46.99072897 -0.0522999 54.35829163 -0.05158997 C61.96943315 -0.05098896 69.58050385 -0.06154345 77.19162744 -0.07733363 C83.71646902 -0.09039 90.2412874 -0.09577467 96.76614195 -0.09513456 C100.66743268 -0.09487901 104.56866051 -0.09776142 108.46993828 -0.10831261 C112.13804467 -0.11796169 115.80602763 -0.11809488 119.47413826 -0.11079597 C121.46808084 -0.10924407 123.46202331 -0.11761909 125.45594788 -0.12623596 C126.63523361 -0.12204147 127.81451935 -0.11784698 129.02954102 -0.11352539 C130.05880675 -0.11407016 131.08807249 -0.11461493 132.1485281 -0.1151762 C134.57826233 0.13371277 134.57826233 0.13371277 136.57826233 2.13371277 C136.80873108 4.66496277 136.80873108 4.66496277 136.76576233 7.63371277 C136.75609436 9.10324402 136.75609436 9.10324402 136.74623108 10.60246277 C136.57826233 13.13371277 136.57826233 13.13371277 135.57826233 15.13371277 C132.4608531 16.17284918 130.29978886 16.26197257 127.02990723 16.26742554 C125.87593445 16.27169052 124.72196167 16.27595551 123.53302002 16.28034973 C122.26589676 16.27989655 120.9987735 16.27944336 119.69325256 16.27897644 C118.34631761 16.28196831 116.99938352 16.28537091 115.65245056 16.28915405 C111.99351513 16.29799322 108.33460307 16.30033207 104.67565799 16.30096984 C101.62371036 16.30191881 98.57176819 16.30559679 95.51982266 16.30914193 C88.32290976 16.31728541 81.12600938 16.31972618 73.92909241 16.3190155 C66.49627217 16.31841403 59.06352436 16.32897989 51.63072246 16.34475917 C45.25445921 16.35781486 38.8782197 16.36320027 32.50194317 16.36256009 C28.69122558 16.36230462 24.8805724 16.36518325 21.06986809 16.37573814 C17.48873646 16.38538661 13.90773127 16.38552086 10.32659531 16.37822151 C8.38038271 16.37666977 6.43417021 16.38504418 4.48797607 16.3936615 C2.76124664 16.38736977 2.76124664 16.38736977 0.99963379 16.38095093 C-0.50718381 16.38176808 -0.50718381 16.38176808 -2.04444218 16.38260174 C-4.42173767 16.13371277 -4.42173767 16.13371277 -6.42173767 14.13371277 C-6.65220642 11.12980652 -6.65220642 11.12980652 -6.60923767 7.57121277 C-6.5995697 5.80584167 -6.5995697 5.80584167 -6.58970642 4.00480652 C-6.30334988 -0.88989256 -4.4238584 0.00720554 0 0 Z " fill="#EFA96B" transform="translate(185.42173767089844,264.8662872314453)"/>
<path d="M0 0 C0.495 1.485 0.495 1.485 1 3 C1.81678223 3.01981934 2.63356445 3.03963867 3.47509766 3.06005859 C7.1920444 3.15558143 10.90845019 3.26515124 14.625 3.375 C15.91019531 3.4059375 17.19539063 3.436875 18.51953125 3.46875 C20.38544922 3.52675781 20.38544922 3.52675781 22.2890625 3.5859375 C23.43068848 3.6173584 24.57231445 3.6487793 25.74853516 3.68115234 C29.10158411 4.00996162 31.84715619 4.84365614 35 6 C37.66701495 6.47274847 40.30183576 6.72087956 43 7 C43 7.66 43 8.32 43 9 C46.3 9.33 49.6 9.66 53 10 C53.33 10.99 53.66 11.98 54 13 C53.01 13.33 52.02 13.66 51 14 C52.98 14.99 52.98 14.99 55 16 C55 16.33 55 16.66 55 17 C48.72597778 17.21470038 43.02872616 16.94015093 36.90625 15.57421875 C33.2485583 14.85152966 29.57491241 14.3775851 25.875 13.9375 C24.57304687 13.78152344 23.27109375 13.62554687 21.9296875 13.46484375 C6.49557558 11.91696274 -8.9376305 11.72456761 -24.4375 11.6875 C-25.60054657 11.68388458 -26.76359314 11.68026917 -27.96188354 11.67654419 C-47.53047569 11.65216269 -68.06453627 11.69941057 -87.18432617 16.5546875 C-89.72585044 17.17802221 -92.13927051 17.09358011 -94.75 17.0625 C-95.73484375 17.05347656 -96.7196875 17.04445312 -97.734375 17.03515625 C-98.48203125 17.02355469 -99.2296875 17.01195312 -100 17 C-99.34 15.35 -98.68 13.7 -98 12 C-98.66 12 -99.32 12 -100 12 C-100 11.34 -100 10.68 -100 10 C-96.7 10 -93.4 10 -90 10 C-89.81566406 9.20980469 -89.63132813 8.41960937 -89.44140625 7.60546875 C-88 5 -88 5 -84.96484375 3.92578125 C-83.62690214 3.69368409 -82.28353218 3.49181597 -80.9375 3.3125 C-80.17912842 3.1993042 -79.42075684 3.0861084 -78.6394043 2.96948242 C-76.0962508 2.61103775 -73.55060073 2.3006303 -71 2 C-70.17209961 1.89558594 -69.34419922 1.79117188 -68.49121094 1.68359375 C-45.80934024 -1.04895339 -22.79875631 -0.18912886 0 0 Z " fill="#DD9C5C" transform="translate(275,157)"/>
<path d="M0 0 C1.72858749 0.00129913 1.72858749 0.00129913 3.49209595 0.00262451 C20.28918444 0.03515763 36.90222735 0.3536256 53.5625 2.6875 C54.50609375 2.80931641 55.4496875 2.93113281 56.421875 3.05664062 C57.329375 3.18103516 58.236875 3.30542969 59.171875 3.43359375 C59.97077148 3.54243896 60.76966797 3.65128418 61.59277344 3.76342773 C63.92024527 4.27361816 65.73597034 5.09759126 67.8125 6.25 C67.8125 6.58 67.8125 6.91 67.8125 7.25 C24.68367724 12.23149827 -23.22152909 14.88369007 -66.1875 7.25 C-62.93054598 3.99304598 -58.62058554 4.00309322 -54.1875 3.25 C-53.36427246 3.10530273 -52.54104492 2.96060547 -51.69287109 2.81152344 C-34.5270239 0.00310984 -17.34775387 -0.02468796 0 0 Z " fill="#FCC998" transform="translate(250.1875,167.75)"/>
<path d="M0 0 C0.33 0 0.66 0 1 0 C1.25224894 7.44134376 0.69002099 14.72873687 -1 22 C-3.40318827 24.40318827 -4.39133435 24.39658926 -7.69921875 24.81640625 C-8.6528833 24.94039795 -9.60654785 25.06438965 -10.58911133 25.19213867 C-11.61157959 25.31435791 -12.63404785 25.43657715 -13.6875 25.5625 C-14.73897217 25.69180908 -15.79044434 25.82111816 -16.8737793 25.9543457 C-38.07723345 28.49797905 -59.72062208 29.16662757 -81 27 C-81 26.67 -81 26.34 -81 26 C-80.32792511 25.98969254 -79.65585022 25.97938507 -78.96340942 25.96876526 C-71.98836236 25.86084977 -65.01344841 25.7462399 -58.03857422 25.62768555 C-55.43313371 25.58428863 -52.82766389 25.54261714 -50.22216797 25.50268555 C-46.48395944 25.44509808 -42.74589918 25.3813706 -39.0078125 25.31640625 C-37.83695099 25.29969376 -36.66608948 25.28298126 -35.45974731 25.26576233 C-34.37877777 25.24581711 -33.29780823 25.22587189 -32.18408203 25.20532227 C-31.22921906 25.18977798 -30.27435608 25.1742337 -29.29055786 25.15821838 C-26.97047772 25.14545368 -26.97047772 25.14545368 -25 24 C-23.29297265 23.93003986 -21.58331997 23.91559846 -19.875 23.9375 C-18.96492188 23.94652344 -18.05484375 23.95554687 -17.1171875 23.96484375 C-16.41851562 23.97644531 -15.71984375 23.98804688 -15 24 C-15 23.34 -15 22.68 -15 22 C-11.04 22 -7.08 22 -3 22 C-2.86722656 20.66324219 -2.73445313 19.32648438 -2.59765625 17.94921875 C-2.41945002 16.19529428 -2.24105477 14.44138902 -2.0625 12.6875 C-1.97548828 11.80642578 -1.88847656 10.92535156 -1.79882812 10.01757812 C-1.71181641 9.17001953 -1.62480469 8.32246094 -1.53515625 7.44921875 C-1.456604 6.66893311 -1.37805176 5.88864746 -1.29711914 5.0847168 C-1 3 -1 3 0 0 Z " fill="#F7E2C1" transform="translate(303,381)"/>
<path d="M0 0 C0.33 0 0.66 0 1 0 C1.71602198 9.16945651 2.08528441 18.29594931 2.17578125 27.4921875 C2.18769501 28.49743469 2.19960876 29.50268188 2.21188354 30.53839111 C2.26072291 34.70692381 2.30826334 38.87514745 2.32592773 43.04394531 C2.34147464 46.13132105 2.38166214 49.21760453 2.42578125 52.3046875 C2.42387283 53.2309494 2.42196442 54.1572113 2.41999817 55.11154175 C2.52912138 60.99140032 3.65665683 65.46003043 6.14518738 70.79788208 C7 73 7 73 7 77 C7.99 77.33 8.98 77.66 10 78 C11.6875 80.5625 11.6875 80.5625 13 83 C9.78349182 81.62447382 8.02614349 80.17099742 5.9375 77.375 C5.20853516 76.42753906 5.20853516 76.42753906 4.46484375 75.4609375 C-0.50167619 67.11718399 -0.40167286 59.49837122 -0.29296875 50 C-0.2873643 48.55412234 -0.28309822 47.10823894 -0.28010559 45.66235352 C-0.26872344 41.8811229 -0.23931474 38.10024526 -0.20599365 34.31915283 C-0.17514857 30.45109835 -0.1615696 26.58298611 -0.14648438 22.71484375 C-0.11443751 15.14306932 -0.06332309 7.57158437 0 0 Z " fill="#F6DAB8" transform="translate(154,177)"/>
<path d="M0 0 C0.99 0.33 1.98 0.66 3 1 C3.06058594 1.92683594 3.12117187 2.85367187 3.18359375 3.80859375 C3.26738281 5.00613281 3.35117188 6.20367187 3.4375 7.4375 C3.51871094 8.63246094 3.59992188 9.82742188 3.68359375 11.05859375 C3.67656114 13.88570244 3.67656114 13.88570244 5 15 C5.18773803 17.30947571 5.32421148 19.62317735 5.4375 21.9375 C5.7891574 28.10868526 6.5378375 33.99356267 8 40 C8.18949219 40.78761719 8.37898437 41.57523437 8.57421875 42.38671875 C9.03550476 44.26130657 9.51551534 46.13127346 10 48 C10.59167969 48.04898438 11.18335938 48.09796875 11.79296875 48.1484375 C16.23624048 48.56884494 19.89033254 49.17348113 24 51 C25.65919896 51.36871088 27.3247643 51.71281674 29 52 C29 52.33 29 52.66 29 53 C21.46783285 52.55761615 14.3197277 51.86094772 7 50 C5.58115992 44.61737433 4.48785824 39.31770038 3.7109375 33.80859375 C3.60278717 33.05965347 3.49463684 32.3107132 3.38320923 31.53907776 C3.15768581 29.96881391 2.93426979 28.39824605 2.71289062 26.82739258 C2.37524661 24.43924427 2.0278858 22.05264524 1.6796875 19.66601562 C1.46035132 18.13029194 1.24158203 16.59448716 1.0234375 15.05859375 C0.92034271 14.35423691 0.81724792 13.64988007 0.71102905 12.92417908 C0.10473471 8.55816218 -0.09377702 4.39284495 0 0 Z " fill="#F9DFBD" transform="translate(192,354)"/>
<path d="M0 0 C18.72481004 -0.9379775 36.9816193 3.38130667 55 8 C55 8.33 55 8.66 55 9 C50.48382401 9.07654536 46.40914783 9.10228696 42 8 C42 7.34 42 6.68 42 6 C40.80375 6.04125 39.6075 6.0825 38.375 6.125 C35.62108384 6.21996263 33.85441585 5.94812371 31.22583008 5.01147461 C28.00356185 4.00111684 25.41287079 3.70560113 22.05078125 3.62109375 C20.40819336 3.56985352 20.40819336 3.56985352 18.73242188 3.51757812 C17.60384766 3.49115234 16.47527344 3.46472656 15.3125 3.4375 C13.05848631 3.37761382 10.80456798 3.31398691 8.55078125 3.24609375 C7.55731689 3.22216553 6.56385254 3.1982373 5.5402832 3.17358398 C3 3 3 3 0 2 C0 1.34 0 0.68 0 0 Z " fill="#EDD1A8" transform="translate(276,158)"/>
<path d="M0 0 C4.44421603 -0.39213671 7.18687075 0.74678726 11 3 C12.39471508 5.78943017 12.30609177 8.33150564 12.5 11.4375 C12.71630302 14.89448578 12.90348904 17.71046711 14 21 C14.99 21 15.98 21 17 21 C19.48063781 36.74487472 19.48063781 36.74487472 18 44 C17.67 44 17.34 44 17 44 C16.66304138 41.27123692 16.33031571 38.54206837 16 35.8125 C15.90460938 35.04357422 15.80921875 34.27464844 15.7109375 33.48242188 C15.24807106 29.63071189 14.87532532 25.88829149 15 22 C14.360625 21.87625 13.72125 21.7525 13.0625 21.625 C12.0415625 21.315625 12.0415625 21.315625 11 21 C9.55792059 18.11584117 9.90605113 15.58278472 9.9375 12.375 C9.94652344 11.18648438 9.95554688 9.99796875 9.96484375 8.7734375 C9.97644531 7.85820312 9.98804688 6.94296875 10 6 C8.3603125 5.3503125 8.3603125 5.3503125 6.6875 4.6875 C3.90591207 3.50504359 1.93638061 2.39199957 0 0 Z " fill="#EFD1A5" transform="translate(167,260)"/>
<path d="M0 0 C-0.3125 1.9375 -0.3125 1.9375 -1 4 C-4.69418201 5.231394 -7.2056261 4.64432764 -11 4 C-11 4.66 -11 5.32 -11 6 C-10.34 6 -9.68 6 -9 6 C-9.66 7.65 -10.32 9.3 -11 11 C-12.65 11 -14.3 11 -16 11 C-15.34 10.67 -14.68 10.34 -14 10 C-14 8.68 -14 7.36 -14 6 C-15.98 6 -17.96 6 -20 6 C-14.25948353 2.17298902 -6.90915851 0 0 0 Z " fill="#E2B27F" transform="translate(186,163)"/>
<path d="M0 0 C0.33 0 0.66 0 1 0 C0.33783223 7.92331604 -0.55319857 15.8014271 -1.5625 23.6875 C-1.70107422 24.78255859 -1.83964844 25.87761719 -1.98242188 27.00585938 C-2.31990283 29.67079521 -2.65912064 32.33549711 -3 35 C-3.66 35 -4.32 35 -5 35 C-5.02712066 33.56260487 -5.04645067 32.12506137 -5.0625 30.6875 C-5.07410156 29.88699219 -5.08570313 29.08648437 -5.09765625 28.26171875 C-5 26 -5 26 -4 23 C-3.84663584 20.605815 -3.7259755 18.20946606 -3.625 15.8125 C-3.32459763 10.01285237 -2.47557121 5.27404301 0 0 Z " fill="#F4DBBA" transform="translate(312,319)"/>
<path d="M0 0 C7.50769231 0.49230769 7.50769231 0.49230769 10 3.0625 C10.33 3.701875 10.66 4.34125 11 5 C6.74199462 6.41933513 2.77088462 6.72651677 -1.4375 5 C-1.953125 4.67 -2.46875 4.34 -3 4 C-1.68 3.67 -0.36 3.34 1 3 C0.67 2.01 0.34 1.02 0 0 Z " fill="#DCA46C" transform="translate(328,167)"/>
<path d="M0 0 C-3.45058686 2.30039124 -5.94095502 2.4738275 -10 3 C-10.33 3.33 -10.66 3.66 -11 4 C-13.69654854 4.07319621 -16.36691458 4.09242537 -19.0625 4.0625 C-19.82111328 4.05798828 -20.57972656 4.05347656 -21.36132812 4.04882812 C-23.24091871 4.0370068 -25.12046899 4.01907078 -27 4 C-27 3.67 -27 3.34 -27 3 C-17.92981571 1.23226107 -9.28582994 -0.44218238 0 0 Z " fill="#E9C8A1" transform="translate(214,159)"/>
<path d="M0 0 C4.29 0 8.58 0 13 0 C13 0.66 13 1.32 13 2 C15.64 2 18.28 2 21 2 C21 2.33 21 2.66 21 3 C18.06243881 3.0269501 15.12512445 3.04681474 12.1875 3.0625 C11.35412109 3.07087891 10.52074219 3.07925781 9.66210938 3.08789062 C8.45844727 3.09272461 8.45844727 3.09272461 7.23046875 3.09765625 C6.12288208 3.10551147 6.12288208 3.10551147 4.99291992 3.11352539 C3 3 3 3 0 2 C0 1.34 0 0.68 0 0 Z " fill="#DEB688" transform="translate(276,158)"/>
<path d="M0 0 C1.32 0 2.64 0 4 0 C6.48063781 15.74487472 6.48063781 15.74487472 5 23 C4.67 23 4.34 23 4 23 C3.66304138 20.27123692 3.33031571 17.54206837 3 14.8125 C2.90460938 14.04357422 2.80921875 13.27464844 2.7109375 12.48242188 C2.24807106 8.63071189 1.87532532 4.88829149 2 1 C1.34 0.67 0.68 0.34 0 0 Z " fill="#FBE0BB" transform="translate(180,281)"/>
<path d="M0 0 C-0.57344937 2.86724686 -0.8614515 3.8614515 -3 6 C-3.30059943 8.36509361 -3.49515012 10.74441881 -3.625 13.125 C-3.69976562 14.40632812 -3.77453125 15.68765625 -3.8515625 17.0078125 C-3.90054688 17.99523437 -3.94953125 18.98265625 -4 20 C-2.68 20.33 -1.36 20.66 0 21 C-1.65 21 -3.3 21 -5 21 C-5.08086376 18.06195004 -5.1404283 15.12611925 -5.1875 12.1875 C-5.21263672 11.35412109 -5.23777344 10.52074219 -5.26367188 9.66210938 C-5.27333984 8.85966797 -5.28300781 8.05722656 -5.29296875 7.23046875 C-5.3086792 6.49207764 -5.32438965 5.75368652 -5.34057617 4.99291992 C-4.80256652 1.84469572 -3.26358412 0 0 0 Z " fill="#E9BC8D" transform="translate(160,172)"/>
<path d="M0 0 C3 1 3 1 4.1875 2.8125 C5 5 5 5 5 9 C5.99 9.33 6.98 9.66 8 10 C9.6875 12.5625 9.6875 12.5625 11 15 C6.1482213 12.94772918 3.71284323 9.39262233 1 5 C0.125 2 0.125 2 0 0 Z " fill="#F8E3C4" transform="translate(156,245)"/>
<path d="M0 0 C0.33 0 0.66 0 1 0 C0.49656013 7.02673515 -0.04187968 14.01940909 -1 21 C-1.33 21 -1.66 21 -2 21 C-2.05404449 18.24973583 -2.09369306 15.50053797 -2.125 12.75 C-2.14175781 11.97269531 -2.15851563 11.19539063 -2.17578125 10.39453125 C-2.23662606 3.27568856 -2.23662606 3.27568856 0 0 Z " fill="#F6DEBE" transform="translate(317,282)"/>
<path d="M0 0 C2.05137315 3.48216283 2.56818592 6.77275657 3.125 10.75 C3.29257813 11.92046875 3.46015625 13.0909375 3.6328125 14.296875 C3.75398437 15.18890625 3.87515625 16.0809375 4 17 C1.38199568 15.69099784 1.03248368 14.72283306 0 12 C-0.1953125 8.984375 -0.1953125 8.984375 -0.125 5.75 C-0.10695312 4.67234375 -0.08890625 3.5946875 -0.0703125 2.484375 C-0.04710937 1.66453125 -0.02390625 0.8446875 0 0 Z " fill="#F7D2AA" transform="translate(197,384)"/>
<path d="M0 0 C4.43915044 -0.39168975 7.22022332 0.68059158 11 3 C11.33 3.99 11.66 4.98 12 6 C7.53866273 4.86279638 3.79558613 3.64540851 0 1 C0 0.67 0 0.34 0 0 Z " fill="#F6DDC0" transform="translate(167,260)"/>
<path d="M0 0 C1.98 0 3.96 0 6 0 C6 1.32 6 2.64 6 4 C3.03 4 0.06 4 -3 4 C-3 3.34 -3 2.68 -3 2 C-2.01 2 -1.02 2 0 2 C0 1.34 0 0.68 0 0 Z " fill="#DC995A" transform="translate(166,169)"/>
<path d="M0 0 C1 3 1 3 0.07421875 5.4453125 C-0.38339844 6.32960937 -0.84101563 7.21390625 -1.3125 8.125 C-1.98732422 9.45917969 -1.98732422 9.45917969 -2.67578125 10.8203125 C-4 13 -4 13 -6 14 C-5.67 11.69 -5.34 9.38 -5 7 C-4.01 7 -3.02 7 -2 7 C-2 5.02 -2 3.04 -2 1 C-1.34 0.67 -0.68 0.34 0 0 Z " fill="#F2DABC" transform="translate(344,242)"/>
</svg>
