<?xml version="1.0" encoding="UTF-8"?>
<svg version="1.1" xmlns="http://www.w3.org/2000/svg" width="1080" height="1080">
<path d="M0 0 C356.4 0 712.8 0 1080 0 C1080 356.4 1080 712.8 1080 1080 C723.6 1080 367.2 1080 0 1080 C0 723.6 0 367.2 0 0 Z " fill="#FEFEFE" transform="translate(0,0)"/>
<path d="M0 0 C7.6218345 3.90208752 12.28074018 8.84222055 15 17 C15.09287771 18.68545724 15.12997204 20.374493 15.125 22.0625 C15.12757813 22.94035156 15.13015625 23.81820312 15.1328125 24.72265625 C15 27 15 27 14 29 C15.13566406 28.95617187 16.27132812 28.91234375 17.44140625 28.8671875 C22.18115404 28.8734336 26.39180195 29.85762263 30.9375 31.125 C31.76233887 31.3509082 32.58717773 31.57681641 33.43701172 31.80957031 C60.68993797 39.43517379 89.33979818 52.21700825 104 78 C110.06152977 91.74051436 112.87146287 105.92458836 107.9375 120.5 C98.20391337 143.94785575 78.2819759 158.70447834 55.51953125 168.390625 C29.48112866 178.94023809 3.81117443 181.40182727 -24 181 C-24.7223584 180.99274902 -25.4447168 180.98549805 -26.18896484 180.97802734 C-56.93647632 180.50025458 -88.85849903 170.14131954 -113 151 C-113.69351562 150.47148438 -114.38703125 149.94296875 -115.1015625 149.3984375 C-126.49565332 140.18329632 -136.56973389 125.71086597 -138.23779297 110.88671875 C-139.31279888 92.86757211 -134.59861778 79.58867673 -122.6875 65.9375 C-102.59938367 44.35027051 -74.89879587 33.05570183 -46.09082031 28.4230957 C-44.02038026 28.20465111 -44.02038026 28.20465111 -43 27 C-43.03263049 25.47823276 -43.10165467 23.95719433 -43.1875 22.4375 C-43.24177908 17.00959224 -41.90552038 13.51519892 -39 9 C-38.443125 8.113125 -37.88625 7.22625 -37.3125 6.3125 C-27.10987182 -3.89012818 -12.96782519 -5.55165376 0 0 Z " fill="#FEE070" transform="translate(554,498)"/>
<path d="M0 0 C7.6218345 3.90208752 12.28074018 8.84222055 15 17 C15.99448734 24.74279426 14.37508792 30.56539232 10 37 C4.71574527 43.39600702 -2.94178396 46.4250559 -11.05859375 47.34765625 C-21.3653837 47.64963863 -29.41225036 45.08878197 -37 38 C-39.375 34.9375 -39.375 34.9375 -41 32 C-41.4125 31.2575 -41.825 30.515 -42.25 29.75 C-43.84268073 23.91017065 -43.90253585 18.20143279 -41.25 12.6875 C-40.52727 11.44210366 -39.77919291 10.21087122 -39 9 C-38.1646875 7.6696875 -38.1646875 7.6696875 -37.3125 6.3125 C-27.10987182 -3.89012818 -12.96782519 -5.55165376 0 0 Z " fill="#D62027" transform="translate(554,498)"/>
</svg>
